<svg width="362" height="362" viewBox="0 0 362 362" fill="none" xmlns="http://www.w3.org/2000/svg">
<g clip-path="url(#clip0_1715_10002)">
<g opacity="0.4" filter="url(#filter0_f_1715_10002)">
<circle cx="174" cy="187" r="91" fill="#46B75B"/>
</g>
<g clip-path="url(#clip1_1715_10002)">
<path d="M247.466 87.8542L329.48 125.662L191.776 315.653L109.762 277.845L247.466 87.8542Z" fill="#46B75B"/>
<path d="M191.821 315.91C191.771 315.92 191.717 315.914 191.668 315.891L109.654 278.083C109.619 278.067 109.588 278.043 109.564 278.014C109.539 277.984 109.521 277.949 109.512 277.912C109.502 277.874 109.501 277.835 109.508 277.796C109.516 277.758 109.531 277.722 109.554 277.691L247.258 87.7002C247.331 87.6 247.462 87.5646 247.574 87.6159L329.588 125.424C329.623 125.44 329.654 125.464 329.678 125.493C329.703 125.523 329.721 125.558 329.73 125.595C329.74 125.633 329.741 125.672 329.733 125.711C329.726 125.749 329.71 125.785 329.688 125.816L191.984 315.807C191.945 315.861 191.886 315.898 191.821 315.91ZM110.158 277.739L191.693 315.327L329.083 125.768L247.549 88.1805L110.158 277.739Z" fill="#111111"/>
<path d="M305.634 124.931L260.165 103.97C255.984 109.74 247.878 112.246 242.066 109.567L198.05 170.296L174.672 202.551L130.656 263.281C136.468 265.96 137.79 272.813 133.609 278.582L179.077 299.543C183.259 293.774 191.364 291.267 197.176 293.946L241.193 233.217L264.57 200.962L308.587 140.233C302.775 137.553 301.453 130.701 305.634 124.931Z" fill="white"/>
<path d="M179.122 299.8C179.072 299.81 179.019 299.804 178.969 299.781L133.5 278.82C133.466 278.804 133.435 278.781 133.41 278.751C133.385 278.721 133.368 278.687 133.358 278.649C133.349 278.611 133.347 278.572 133.355 278.534C133.362 278.496 133.378 278.459 133.401 278.428C135.484 275.553 136.254 272.234 135.514 269.322C134.862 266.756 133.098 264.695 130.548 263.519C130.513 263.503 130.482 263.479 130.457 263.45C130.433 263.42 130.415 263.385 130.406 263.347C130.396 263.31 130.395 263.27 130.402 263.232C130.41 263.194 130.425 263.158 130.448 263.127L241.858 109.413C241.894 109.364 241.945 109.329 242.002 109.314C242.06 109.299 242.121 109.304 242.175 109.329C247.873 111.956 255.851 109.483 259.958 103.816C260.031 103.716 260.162 103.681 260.274 103.732L305.743 124.693C305.778 124.709 305.808 124.733 305.833 124.762C305.858 124.792 305.875 124.827 305.885 124.865C305.895 124.902 305.896 124.941 305.888 124.98C305.881 125.018 305.865 125.054 305.842 125.085C303.759 127.96 302.989 131.279 303.729 134.192C304.381 136.758 306.145 138.819 308.695 139.994C308.73 140.01 308.761 140.034 308.786 140.064C308.81 140.093 308.828 140.128 308.838 140.166C308.847 140.203 308.848 140.243 308.841 140.281C308.833 140.319 308.818 140.355 308.795 140.387L197.384 294.101C197.312 294.201 197.18 294.236 197.068 294.185C191.37 291.558 183.392 294.031 179.285 299.697C179.245 299.753 179.186 299.788 179.122 299.8ZM134.001 278.475L178.996 299.217C183.23 293.546 191.256 291.065 197.092 293.622L308.194 140.335C305.653 139.073 303.896 136.95 303.228 134.325C302.472 131.348 303.205 127.98 305.241 125.039L260.247 104.296C256.013 109.968 247.987 112.449 242.15 109.892L131.049 263.179C133.59 264.441 135.347 266.564 136.014 269.188C136.771 272.165 136.037 275.533 134.001 278.475Z" fill="#111111"/>
<path d="M184.462 207.064C184.271 216.815 189.361 225.606 199.087 230.089C208.812 234.572 220.9 233.701 231.397 228.701L184.462 207.064Z" fill="#46B75B"/>
<path d="M220.437 232.555C212.847 233.966 205.297 233.24 198.978 230.327C189.527 225.97 184.004 217.273 184.203 207.061C184.204 207.017 184.216 206.974 184.237 206.936C184.258 206.899 184.288 206.866 184.325 206.843C184.361 206.82 184.402 206.806 184.445 206.803C184.488 206.8 184.531 206.808 184.57 206.826L231.505 228.463C231.55 228.483 231.588 228.517 231.615 228.558C231.641 228.6 231.655 228.649 231.655 228.699C231.655 228.749 231.641 228.798 231.615 228.84C231.588 228.882 231.551 228.916 231.506 228.937C227.901 230.655 224.164 231.863 220.437 232.555ZM184.715 207.469C184.671 217.293 190.06 225.64 199.195 229.851C208.335 234.064 220.103 233.628 230.778 228.704L184.715 207.469Z" fill="#111111"/>
<path d="M207.836 174.807L254.779 196.448C254.973 186.698 249.884 177.909 240.156 173.425C230.428 168.94 218.335 169.808 207.836 174.807Z" fill="#46B75B"/>
<path d="M254.824 196.706C254.773 196.715 254.72 196.709 254.671 196.687L207.727 175.046C207.683 175.025 207.645 174.992 207.618 174.95C207.592 174.908 207.578 174.859 207.577 174.809C207.577 174.76 207.591 174.711 207.618 174.668C207.644 174.626 207.682 174.592 207.727 174.571C218.674 169.359 230.837 168.841 240.264 173.187C249.718 177.545 255.241 186.242 255.038 196.452C255.036 196.513 255.014 196.571 254.975 196.617C254.937 196.663 254.883 196.695 254.824 196.706ZM208.455 174.805L254.526 196.044C254.574 186.222 249.185 177.876 240.048 173.663C230.903 169.447 219.132 169.881 208.455 174.805Z" fill="#111111"/>
<path d="M190.304 166.725L166.926 198.98L248.94 236.788L272.318 204.533L190.304 166.725Z" fill="#FCBF14"/>
<path d="M248.985 237.046C248.934 237.055 248.881 237.049 248.831 237.027L166.818 199.218C166.783 199.202 166.752 199.179 166.727 199.149C166.702 199.119 166.685 199.084 166.675 199.047C166.666 199.009 166.664 198.97 166.672 198.932C166.679 198.894 166.695 198.857 166.718 198.826L190.096 166.571C190.131 166.523 190.182 166.488 190.239 166.473C190.297 166.457 190.358 166.462 190.412 166.487L272.426 204.295C272.461 204.311 272.491 204.335 272.516 204.365C272.541 204.394 272.558 204.429 272.568 204.467C272.578 204.504 272.579 204.544 272.571 204.582C272.564 204.62 272.548 204.656 272.525 204.688L249.148 236.942C249.108 236.997 249.05 237.034 248.985 237.046ZM167.322 198.875L248.857 236.462L271.922 204.639L190.387 167.052L167.322 198.875Z" fill="#111111"/>
<path d="M187.363 170.782L169.866 194.924L251.88 232.732L269.377 208.59L187.363 170.782Z" fill="white"/>
<path d="M251.925 232.989C251.873 232.999 251.819 232.992 251.772 232.97L169.758 195.162C169.723 195.146 169.692 195.122 169.667 195.093C169.643 195.063 169.625 195.028 169.615 194.99C169.606 194.953 169.605 194.913 169.612 194.875C169.619 194.837 169.635 194.801 169.658 194.77L187.155 170.628C187.228 170.528 187.36 170.493 187.472 170.544L269.485 208.352C269.52 208.368 269.551 208.392 269.576 208.421C269.601 208.451 269.618 208.486 269.628 208.524C269.637 208.561 269.639 208.6 269.631 208.639C269.624 208.677 269.608 208.713 269.585 208.744L252.088 232.886C252.048 232.94 251.99 232.977 251.925 232.989ZM170.262 194.818L251.797 232.405L268.982 208.696L187.446 171.109L170.262 194.818Z" fill="#111111"/>
<path d="M329.48 125.662L337.933 142.51L200.23 332.5L191.776 315.653L329.48 125.662Z" fill="#1C732C"/>
<path d="M200.275 332.758C200.22 332.768 200.164 332.76 200.115 332.735C200.065 332.71 200.025 332.67 200 332.62L191.546 315.773C191.524 315.73 191.515 315.681 191.519 315.633C191.523 315.584 191.54 315.538 191.569 315.499L329.272 125.508C329.298 125.472 329.333 125.443 329.373 125.425C329.413 125.406 329.458 125.398 329.502 125.401C329.546 125.405 329.588 125.42 329.624 125.444C329.661 125.469 329.691 125.503 329.711 125.543L338.164 142.39C338.186 142.433 338.195 142.481 338.191 142.53C338.187 142.578 338.17 142.624 338.141 142.664L200.438 332.654C200.398 332.709 200.34 332.746 200.275 332.758ZM192.079 315.677L200.271 332.003L337.631 142.486L329.439 126.16L192.079 315.677Z" fill="#111111"/>
<path d="M280.772 221.375L272.318 204.528L248.941 236.783L257.394 253.63L280.772 221.375Z" fill="#9B750C"/>
<path d="M257.439 253.888C257.385 253.898 257.328 253.89 257.279 253.865C257.229 253.84 257.189 253.8 257.164 253.75L248.71 236.902C248.689 236.859 248.679 236.811 248.683 236.763C248.687 236.714 248.704 236.668 248.733 236.629L272.111 204.374C272.137 204.338 272.172 204.309 272.212 204.29C272.252 204.272 272.296 204.264 272.34 204.267C272.384 204.271 272.426 204.285 272.463 204.31C272.499 204.335 272.529 204.369 272.549 204.408L281.003 221.256C281.024 221.299 281.034 221.347 281.03 221.396C281.026 221.444 281.008 221.49 280.98 221.529L257.602 253.784C257.563 253.838 257.505 253.875 257.439 253.888ZM249.243 236.807L257.435 253.133L280.47 221.352L272.277 205.025L249.243 236.807Z" fill="#111111"/>
<path d="M277.832 225.432L269.378 208.585L251.881 232.726L260.335 249.573L277.832 225.432Z" fill="#9A9A9A"/>
<path d="M260.38 249.831C260.325 249.841 260.269 249.833 260.219 249.808C260.17 249.783 260.129 249.743 260.104 249.693L251.651 232.846C251.629 232.803 251.62 232.754 251.624 232.706C251.628 232.658 251.645 232.611 251.673 232.572L269.171 208.43C269.197 208.394 269.232 208.366 269.272 208.347C269.312 208.328 269.356 208.32 269.4 208.324C269.444 208.327 269.486 208.342 269.523 208.367C269.56 208.391 269.589 208.425 269.609 208.465L278.063 225.312C278.085 225.355 278.094 225.404 278.09 225.452C278.086 225.5 278.069 225.547 278.04 225.586L260.543 249.727C260.503 249.782 260.444 249.819 260.38 249.831ZM252.183 232.75L260.376 249.076L277.53 225.408L269.338 209.082L252.183 232.75Z" fill="#111111"/>
<path d="M191.776 315.653L200.23 332.5L118.216 294.692L109.762 277.845L191.776 315.653Z" fill="#1C732C"/>
<path d="M200.275 332.758C200.224 332.767 200.171 332.761 200.122 332.739L118.108 294.931C118.055 294.906 118.012 294.864 117.986 294.812L109.532 277.964C109.507 277.916 109.499 277.861 109.507 277.807C109.515 277.754 109.539 277.703 109.576 277.664C109.613 277.625 109.662 277.598 109.715 277.588C109.767 277.577 109.822 277.584 109.871 277.606L191.885 315.415C191.937 315.439 191.98 315.481 192.007 315.533L200.46 332.381C200.479 332.417 200.488 332.457 200.488 332.498C200.488 332.539 200.479 332.579 200.461 332.616C200.443 332.653 200.417 332.684 200.385 332.709C200.352 332.734 200.315 332.75 200.275 332.758ZM118.406 294.492L199.664 331.951L191.586 315.854L110.328 278.394L118.406 294.492Z" fill="#111111"/>
<rect opacity="0.6" width="10.9753" height="10.9341" rx="2" transform="matrix(0.698951 0.70851 -0.70562 0.715334 323.512 278.653)" fill="white"/>
<rect opacity="0.6" width="5.48764" height="5.46706" rx="1" transform="matrix(0.698951 0.70851 -0.70562 0.715334 316.211 218.015)" fill="white"/>
<rect opacity="0.6" width="9.14607" height="9.11177" rx="2" transform="matrix(0.698951 0.70851 -0.70562 0.715334 278.755 263.161)" fill="white"/>
</g>
<g clip-path="url(#clip2_1715_10002)">
<path d="M172.832 226.246L112.431 255.311C109.95 256.504 106.478 255.362 104.661 252.754L30.6835 146.57C29.3865 144.709 29.2907 142.601 30.2516 141.116L29.2449 142.672C28.2838 144.157 28.3796 146.264 29.6768 148.126L103.654 254.31C105.471 256.918 108.943 258.06 111.424 256.866L171.826 227.801C172.529 227.463 173.077 226.971 173.458 226.382L174.465 224.827C174.083 225.416 173.536 225.907 172.832 226.246Z" fill="#111111"/>
<path d="M108.121 257.414C106.358 257.084 104.619 256.021 103.503 254.418L29.5256 148.234C28.2336 146.38 28.0626 144.155 29.0898 142.568L30.0964 141.013C30.1233 140.971 30.1655 140.942 30.2136 140.932C30.2617 140.922 30.3119 140.932 30.353 140.96C30.3941 140.987 30.4229 141.03 30.433 141.079C30.4431 141.128 30.4336 141.179 30.4067 141.22C29.4489 142.7 29.6129 144.709 30.8347 146.462L104.812 252.646C106.573 255.174 109.955 256.293 112.351 255.141L172.752 226.076C173.41 225.759 173.934 225.304 174.31 224.723C174.323 224.702 174.341 224.685 174.361 224.671C174.381 224.657 174.403 224.647 174.427 224.642C174.451 224.637 174.476 224.637 174.5 224.642C174.523 224.647 174.546 224.656 174.567 224.67C174.587 224.684 174.604 224.701 174.618 224.722C174.632 224.742 174.641 224.765 174.646 224.789C174.651 224.813 174.652 224.838 174.647 224.863C174.643 224.887 174.633 224.91 174.62 224.931L173.613 226.486C173.2 227.126 172.625 227.625 171.906 227.971L111.504 257.036C110.484 257.527 109.297 257.634 108.121 257.414ZM29.4836 142.646L29.3999 142.776C28.4421 144.256 28.6061 146.264 29.8277 148.018L103.805 254.202C105.567 256.73 108.948 257.849 111.344 256.696L171.745 227.631C172.403 227.315 172.927 226.86 173.303 226.278L173.383 226.154C173.232 226.25 173.074 226.338 172.912 226.416L112.511 255.481C109.96 256.708 106.371 255.534 104.51 252.863L30.5324 146.678C29.6416 145.4 29.2836 143.946 29.4836 142.646Z" fill="#111111"/>
<path d="M174.033 219.373C175.85 221.98 175.306 225.055 172.832 226.246L112.431 255.311C109.95 256.504 106.478 255.362 104.661 252.755L30.6835 146.571C28.872 143.97 29.4036 140.891 31.8845 139.698L92.2857 110.633C94.7594 109.442 98.2442 110.589 100.056 113.189L174.033 219.373Z" fill="#FF4761"/>
<path d="M109.128 255.859C107.365 255.529 105.626 254.465 104.51 252.863L30.5324 146.678C29.5546 145.275 29.2013 143.657 29.5635 142.239C29.8701 141.038 30.6658 140.075 31.8043 139.528L92.2056 110.463C94.7566 109.235 98.3461 110.409 100.207 113.081L174.184 219.265C175.162 220.668 175.515 222.286 175.154 223.703C174.847 224.905 174.051 225.868 172.913 226.416L112.511 255.481C111.491 255.972 110.304 256.078 109.128 255.859ZM95.528 110.451C94.4273 110.245 93.3186 110.344 92.3659 110.803L31.9646 139.868C30.9263 140.367 30.2009 141.244 29.9222 142.335C29.5875 143.646 29.9202 145.15 30.8347 146.463L104.812 252.647C106.573 255.175 109.955 256.293 112.351 255.141L172.752 226.076C173.79 225.576 174.516 224.699 174.795 223.607C175.129 222.297 174.797 220.793 173.882 219.481L99.9045 113.297C98.8438 111.774 97.195 110.762 95.528 110.451Z" fill="#111111"/>
<path d="M74.299 156.876L62.2383 139.565C61.9206 139.109 61.3048 138.907 60.8714 139.115L56.2793 141.325C55.8384 141.537 55.7433 142.081 56.0611 142.537L68.1217 159.849C68.4445 160.312 69.0547 160.507 69.4954 160.295L74.0875 158.085C74.5212 157.877 74.6218 157.34 74.299 156.876Z" fill="white"/>
<path d="M68.8756 160.547C68.5106 160.477 68.1861 160.265 67.9707 159.957L55.9101 142.645C55.713 142.362 55.643 142.032 55.718 141.738C55.784 141.48 55.9548 141.273 56.1993 141.155L60.7914 138.945C61.3039 138.699 62.0209 138.928 62.3895 139.457L74.4501 156.768C74.6486 157.053 74.7196 157.384 74.6448 157.677C74.5794 157.933 74.4099 158.139 74.1678 158.255L69.5757 160.465C69.3609 160.568 69.1157 160.592 68.8756 160.547ZM61.4123 139.237C61.25 139.206 61.088 139.22 60.9517 139.285L56.3596 141.495C56.2134 141.565 56.1156 141.683 56.0768 141.834C56.0292 142.02 56.0786 142.237 56.2122 142.429L68.2729 159.741C68.5416 160.126 69.054 160.299 69.4154 160.125L74.0075 157.915C74.1516 157.846 74.248 157.73 74.286 157.581C74.3334 157.396 74.2828 157.178 74.1479 156.984L62.0872 139.673C61.9257 139.441 61.6682 139.284 61.4123 139.237Z" fill="#111111"/>
<path d="M92.1429 182.488L80.0823 165.177C79.7645 164.721 79.1488 164.519 78.7153 164.727L74.1232 166.937C73.6824 167.149 73.5873 167.693 73.905 168.149L85.9656 185.461C86.283 185.916 86.8986 186.119 87.3393 185.907L91.9314 183.697C92.3651 183.489 92.4603 182.944 92.1429 182.488Z" fill="white"/>
<path d="M86.7249 186.156C86.375 186.09 86.0329 185.882 85.8146 185.569L73.754 168.257C73.5569 167.975 73.4868 167.644 73.5619 167.35C73.6278 167.092 73.7987 166.885 74.0431 166.767L78.6352 164.557C79.1478 164.311 79.8648 164.54 80.2334 165.069L92.294 182.38C92.4913 182.664 92.5615 182.995 92.4861 183.29C92.4205 183.547 92.252 183.752 92.0117 183.867L87.4196 186.077C87.2093 186.178 86.9651 186.201 86.7249 186.156ZM79.2562 164.849C79.0937 164.818 78.9319 164.832 78.7955 164.897L74.2034 167.107C74.0572 167.177 73.9595 167.295 73.9207 167.446C73.8731 167.633 73.9225 167.849 74.0561 168.041L86.1167 185.353C86.3811 185.732 86.9042 185.908 87.2593 185.737L91.8513 183.527C91.9935 183.459 92.089 183.344 92.1273 183.194C92.1752 183.007 92.1257 182.789 91.9917 182.596L79.9311 165.285C79.7694 165.053 79.5121 164.897 79.2562 164.849Z" fill="#111111"/>
<path d="M109.981 208.093L97.9205 190.781C97.6031 190.326 96.987 190.123 96.5536 190.332L91.9615 192.541C91.5206 192.753 91.4258 193.298 91.7432 193.754L103.804 211.065C104.127 211.528 104.737 211.723 105.178 211.511L109.77 209.302C110.203 209.093 110.304 208.556 109.981 208.093Z" fill="white"/>
<path d="M104.558 211.764C104.193 211.693 103.868 211.481 103.653 211.173L91.5922 193.862C91.3951 193.579 91.3253 193.248 91.4003 192.954C91.4663 192.696 91.6372 192.489 91.8814 192.371L96.4735 190.162C96.9862 189.915 97.7031 190.145 98.0716 190.673L110.132 207.985C110.331 208.27 110.402 208.601 110.327 208.894C110.262 209.15 110.092 209.355 109.85 209.472L105.258 211.681C105.043 211.785 104.798 211.809 104.558 211.764ZM97.0944 190.453C96.9319 190.423 96.7701 190.436 96.6338 190.502L92.0417 192.711C91.8957 192.782 91.7979 192.899 91.7591 193.051C91.7115 193.237 91.7609 193.454 91.8944 193.646L103.955 210.957C104.224 211.343 104.736 211.515 105.098 211.341L109.69 209.132C109.834 209.062 109.93 208.947 109.968 208.797C110.016 208.612 109.965 208.395 109.83 208.201L97.7693 190.889C97.6077 190.657 97.3504 190.501 97.0944 190.453Z" fill="#111111"/>
<path d="M127.825 233.705L115.764 216.394C115.441 215.93 114.831 215.735 114.397 215.944L109.805 218.154C109.364 218.366 109.264 218.903 109.587 219.366L121.647 236.677C121.965 237.133 122.581 237.336 123.021 237.124L127.613 234.914C128.047 234.706 128.142 234.161 127.825 233.705Z" fill="white"/>
<path d="M122.407 237.372C122.057 237.307 121.715 237.099 121.497 236.785L109.436 219.474C109.238 219.19 109.167 218.859 109.241 218.567C109.307 218.309 109.479 218.102 109.725 217.984L114.317 215.774C114.839 215.523 115.541 215.748 115.915 216.286L127.976 233.597C128.173 233.88 128.244 234.212 128.168 234.507C128.103 234.763 127.934 234.968 127.694 235.084L123.102 237.294C122.891 237.395 122.647 237.417 122.407 237.372ZM114.943 216.063C114.78 216.032 114.617 216.047 114.478 216.114L109.886 218.324C109.738 218.395 109.639 218.512 109.6 218.663C109.553 218.848 109.604 219.065 109.738 219.258L121.799 236.57C122.063 236.949 122.587 237.125 122.942 236.954L127.534 234.744C127.676 234.676 127.771 234.56 127.81 234.41C127.858 234.223 127.808 234.005 127.674 233.813L115.613 216.502C115.449 216.267 115.196 216.11 114.943 216.063Z" fill="#111111"/>
<path d="M92.9046 143.773L83.785 130.683C83.0406 129.615 81.6073 129.137 80.5906 129.627L72.5225 133.509C71.4991 134.002 71.2833 135.272 72.0278 136.341L81.1474 149.431C81.8969 150.507 83.3253 150.976 84.3488 150.484L92.4169 146.601C93.4333 146.112 93.6542 144.849 92.9046 143.773Z" fill="white"/>
<path d="M82.9698 150.817C82.2151 150.676 81.4726 150.222 80.9963 149.539L71.8766 136.449C71.4554 135.844 71.304 135.144 71.4613 134.527C71.5957 134.001 71.9442 133.579 72.4425 133.339L80.5106 129.457C81.6036 128.931 83.1402 129.433 83.9363 130.575L93.056 143.665C93.4788 144.272 93.6313 144.973 93.4744 145.588C93.3404 146.113 92.9935 146.533 92.4973 146.772L84.4292 150.654C83.9884 150.866 83.4762 150.912 82.9698 150.817ZM81.9004 129.66C81.4713 129.58 81.0405 129.619 80.6707 129.797L72.6026 133.679C72.2046 133.871 71.9266 134.206 71.8199 134.624C71.69 135.132 71.8207 135.719 72.1788 136.233L81.2984 149.323C81.9947 150.322 83.3273 150.767 84.2686 150.314L92.3366 146.431C92.7327 146.241 93.0092 145.907 93.1153 145.492C93.2448 144.984 93.113 144.397 92.7535 143.881L83.6339 130.791C83.2121 130.186 82.5585 129.784 81.9004 129.66Z" fill="#111111"/>
<path d="M74.5873 140.246C74.5487 140.239 74.5132 140.22 74.4861 140.191C74.4589 140.162 74.4414 140.125 74.4361 140.086C74.4308 140.046 74.438 140.006 74.4566 139.971C74.4752 139.936 74.5043 139.908 74.5397 139.891L86.297 134.234C86.3413 134.212 86.3922 134.21 86.4386 134.227C86.485 134.243 86.523 134.278 86.5442 134.323C86.5655 134.368 86.5683 134.42 86.552 134.467C86.5356 134.514 86.5016 134.552 86.4573 134.574L74.7 140.231C74.665 140.248 74.6256 140.253 74.5873 140.246ZM78.5278 145.902C78.4891 145.895 78.4537 145.876 78.4265 145.847C78.3993 145.818 78.3818 145.781 78.3765 145.742C78.3712 145.702 78.3784 145.662 78.397 145.627C78.4157 145.592 78.4448 145.564 78.4802 145.547L90.2376 139.89C90.2819 139.868 90.3328 139.866 90.3792 139.883C90.4256 139.899 90.4636 139.934 90.4848 139.979C90.5061 140.024 90.5089 140.076 90.4925 140.123C90.4762 140.17 90.4422 140.208 90.3979 140.23L78.6404 145.887C78.6054 145.904 78.566 145.909 78.5278 145.902Z" fill="#111111"/>
<path d="M90.3086 147.785C90.2607 147.776 90.2181 147.749 90.1901 147.708L78.3638 130.733C78.3489 130.713 78.338 130.69 78.3319 130.666C78.3259 130.641 78.3247 130.616 78.3285 130.591C78.3322 130.566 78.3409 130.542 78.3539 130.521C78.367 130.5 78.3841 130.481 78.4043 130.467C78.4246 130.452 78.4475 130.442 78.4717 130.437C78.4959 130.432 78.521 130.431 78.5454 130.436C78.5698 130.441 78.593 130.45 78.6137 130.464C78.6344 130.478 78.6522 130.496 78.6659 130.518L90.4922 147.492C90.5134 147.523 90.5253 147.559 90.5262 147.596C90.5272 147.634 90.5172 147.67 90.4975 147.702C90.4778 147.733 90.4494 147.758 90.4157 147.773C90.3821 147.788 90.3448 147.792 90.3086 147.785ZM86.3917 149.67C86.3438 149.661 86.3012 149.633 86.2732 149.593L74.4468 132.618C74.4323 132.598 74.4219 132.575 74.4161 132.551C74.4104 132.526 74.4095 132.501 74.4134 132.477C74.4173 132.452 74.4261 132.428 74.4391 132.407C74.4521 132.386 74.4691 132.368 74.4891 132.354C74.5092 132.339 74.5318 132.329 74.5558 132.324C74.5798 132.319 74.6046 132.318 74.6288 132.323C74.653 132.327 74.6761 132.337 74.6967 132.35C74.7174 132.364 74.7352 132.381 74.7491 132.402L86.5753 149.377C86.5966 149.408 86.6084 149.444 86.6094 149.481C86.6103 149.518 86.6003 149.555 86.5806 149.587C86.561 149.618 86.5325 149.643 86.4988 149.657C86.4652 149.672 86.4279 149.677 86.3917 149.67Z" fill="#111111"/>
<rect opacity="0.6" width="10.9332" height="10.9744" rx="2" transform="matrix(0.705639 0.715338 -0.698947 0.708491 45.3509 99.5063)" fill="white"/>
</g>
<g clip-path="url(#clip3_1715_10002)">
<path d="M107.418 67.7086L103.406 73.6672C102.53 74.9546 101.412 76.0531 100.116 76.8987C91.1998 82.8104 74.2322 78.3939 62.2269 67.0446C52.0438 57.4174 48.6888 45.8993 53.3277 39.0108L57.3398 33.0532C52.7016 39.9415 56.0558 51.4598 66.2389 61.086C78.2434 72.4354 95.2117 76.8519 104.128 70.9401C105.424 70.0945 106.542 68.996 107.418 67.7086Z" fill="url(#paint0_linear_1715_10002)"/>
<path d="M93.971 79.4118C84.6135 80.9602 71.7376 76.302 62.0953 67.1872C52.031 57.6731 48.3605 46.0408 53.1691 38.901L57.1813 32.9431C57.1956 32.9219 57.2139 32.9037 57.2351 32.8896C57.2563 32.8755 57.28 32.8658 57.3048 32.861C57.3296 32.8562 57.3552 32.8564 57.3799 32.8616C57.4046 32.8668 57.4281 32.8769 57.4489 32.8913C57.4697 32.9058 57.4876 32.9242 57.5013 32.9457C57.5151 32.9672 57.5246 32.9912 57.5292 33.0164C57.5338 33.0416 57.5335 33.0676 57.5283 33.0927C57.523 33.1178 57.513 33.1417 57.4987 33.163C52.7997 40.1403 56.4484 51.5631 66.3702 60.9428C78.3005 72.2202 95.1919 76.6322 104.024 70.7768C105.295 69.9464 106.392 68.8691 107.253 67.607L107.259 67.5988C107.288 67.5568 107.332 67.5281 107.382 67.5189C107.432 67.5097 107.483 67.5207 107.525 67.5495C107.566 67.5783 107.595 67.6227 107.605 67.673C107.614 67.7233 107.604 67.7755 107.576 67.8184L103.564 73.776C102.674 75.0841 101.537 76.2006 100.221 77.0606C98.4275 78.2504 96.3089 79.0249 93.971 79.4118ZM55.8347 35.6339L53.4864 39.1206C48.7881 46.0975 52.4365 57.5209 62.3581 66.9004C74.2885 78.1786 91.1795 82.5902 100.011 76.7344C101.285 75.9022 102.385 74.822 103.247 73.5564L105.604 70.0554C105.171 70.4361 104.713 70.7864 104.233 71.1038C95.262 77.0519 78.1584 72.6221 66.1082 61.2294C57.225 52.8328 53.3229 42.7863 55.8347 35.6339Z" fill="#111111"/>
<path d="M60.6305 29.8203C69.547 23.9085 86.5089 28.3199 98.5266 39.6804C110.531 51.0298 113.045 65.0293 104.129 70.941C95.2133 76.8526 78.2441 72.4353 66.2388 61.086C54.2222 49.7263 51.7139 35.732 60.6305 29.8203Z" fill="#FCBF14"/>
<path d="M97.9831 73.4541C88.6256 75.0025 75.7496 70.3443 66.1074 61.2295C58.6454 54.1757 54.5515 45.8212 55.1574 38.8824C55.4993 34.9483 57.3568 31.7578 60.5259 29.6567C69.4969 23.7086 86.6024 28.1408 98.657 39.5363C106.115 46.5866 110.206 54.9388 109.601 61.8785C109.257 65.8133 107.401 69.0032 104.233 71.1038C102.44 72.2927 100.321 73.0673 97.9831 73.4541ZM66.8564 27.6823C64.565 28.0614 62.4914 28.8202 60.7352 29.9838C57.6691 32.0166 55.8727 35.105 55.5403 38.9149C54.9453 45.7347 58.9937 53.9693 66.3701 60.9424C75.9277 69.977 88.67 74.6049 97.9009 73.0784C100.193 72.6991 102.266 71.9405 104.024 70.7764C107.089 68.7439 108.885 65.6558 109.217 61.8456C109.812 55.0245 105.766 46.7918 98.395 39.8225C88.8336 30.7854 76.0881 26.1546 66.8564 27.6823Z" fill="#111111"/>
<path d="M95.5372 41.6546C85.7508 32.4031 71.9256 28.8074 64.6561 33.6273C57.3911 38.4439 59.4353 49.8502 69.2217 59.1019C79.014 68.3589 92.8393 71.9545 100.104 67.1378C107.374 62.3178 105.329 50.9114 95.5372 41.6546Z" fill="white"/>
<path d="M95.1057 69.2204C87.4674 70.4843 76.9589 66.6839 69.0903 59.2453C63.0047 53.4922 59.6671 46.6749 60.1609 41.0091C60.4415 37.7911 61.9599 35.1818 64.5516 33.4636C71.8775 28.6062 85.8371 32.2164 95.6692 41.511C101.758 47.2666 105.098 54.0855 104.603 59.7517C104.323 62.971 102.802 65.5816 100.21 67.3011C98.6577 68.2963 96.9188 68.9502 95.1057 69.2204ZM69.7417 31.918C67.9722 32.1819 66.2753 32.82 64.7608 33.7912C62.272 35.4407 60.814 37.9482 60.5435 41.042C60.0596 46.589 63.3528 53.2867 69.3524 58.9585C77.1362 66.3169 87.5113 70.0873 95.0228 68.8452C96.7906 68.5819 98.4859 67.9446 99.999 66.9743C102.49 65.3229 103.949 62.8141 104.219 59.7192C104.703 54.172 101.408 47.4725 95.4051 41.7979C87.6258 34.4434 77.2538 30.675 69.7417 31.918Z" fill="#111111"/>
<path d="M69.5488 36.3495L67.6592 37.6023L70.91 40.6753C69.7967 41.7451 69.3616 43.011 69.6133 44.4672C69.8664 45.9593 70.8002 47.4673 72.4145 48.9914C73.9968 50.4872 75.6978 51.4586 77.5176 51.9058C79.3455 52.3539 81.4364 52.3042 83.8118 51.7629C85.5531 51.4102 87.0003 51.354 88.1428 51.5926C89.2995 51.8375 90.3645 52.4056 91.218 53.2333C92.2898 54.2464 92.8319 55.2518 92.8426 56.2409C92.8491 57.2326 92.3243 58.0783 91.2561 58.7865C90.7263 59.1406 90.1303 59.379 89.5059 59.4865C88.8816 59.594 88.2426 59.5684 87.6298 59.4111C86.2941 59.1069 84.9446 58.3082 83.5812 57.0148L81.3257 58.5102C83.2747 60.3526 85.241 61.5204 87.2373 62.0317C89.1783 62.5247 90.9681 62.3616 92.6126 61.5754L95.4507 64.2584L97.3403 63.0053L94.5251 60.344L94.5449 60.3209C95.847 59.1625 96.4032 57.8286 96.2133 56.3193C96.0257 54.8207 95.1013 53.2759 93.4445 51.7095C92.4931 50.7881 91.4035 50.0261 90.2161 49.4516C89.0878 48.9332 87.8763 48.6248 86.6389 48.5411C85.1243 48.469 83.6061 48.604 82.125 48.9427C80.3989 49.3031 78.9685 49.3815 77.8337 49.1777C76.6969 48.9726 75.622 48.3943 74.6187 47.4459C73.5349 46.4214 72.9428 45.4498 72.8549 44.5396C72.758 43.6263 73.1933 42.849 74.1607 42.2075C75.0843 41.5951 76.2375 41.4944 77.5979 41.9111C78.957 42.3196 80.334 43.1832 81.729 44.502L81.8323 44.5997L84.0752 43.1127L83.9719 43.015C81.9538 41.1077 79.9869 39.8578 78.0713 39.2651C76.1459 38.6698 74.3895 38.7186 72.8021 39.4114L72.7936 39.417L69.5488 36.3495Z" fill="#FCBF14"/>
<path d="M95.4803 64.4508C95.4514 64.4556 95.4218 64.4536 95.3938 64.445C95.3658 64.4364 95.3401 64.4214 95.3187 64.4011L92.5749 61.8071C90.9147 62.5675 89.1032 62.7068 87.1894 62.2207C85.1673 61.7026 83.1501 60.5023 81.194 58.6527C81.1726 58.6326 81.1561 58.6077 81.1457 58.58C81.1353 58.5523 81.1312 58.5226 81.1338 58.493C81.1364 58.4634 81.1456 58.4348 81.1606 58.4093C81.1757 58.3838 81.1963 58.3621 81.2208 58.3459L83.4762 56.8504C83.5123 56.8265 83.5551 56.8155 83.5979 56.8192C83.6407 56.8229 83.681 56.841 83.7123 56.8707C85.0506 58.1359 86.383 58.9262 87.6725 59.2197C88.2604 59.3703 88.8731 59.3949 89.4719 59.2921C90.0708 59.1892 90.6426 58.9612 91.1511 58.6223C92.1655 57.9498 92.6557 57.1712 92.6497 56.2425C92.6398 55.3121 92.1137 54.3476 91.0861 53.3762C90.2575 52.5741 89.2246 52.0227 88.1029 51.7837C86.9867 51.551 85.5548 51.6088 83.8479 51.9534C81.4596 52.4978 79.3126 52.5455 77.4716 52.0947C75.6305 51.6438 73.8846 50.6474 72.2832 49.1333C70.6444 47.5835 69.6825 46.0255 69.4236 44.5C69.173 43.0487 69.5792 41.7638 70.6313 40.6781L67.5278 37.7457C67.5065 37.7256 67.4899 37.7007 67.4795 37.673C67.469 37.6453 67.4649 37.6155 67.4675 37.5859C67.4701 37.5563 67.4793 37.5277 67.4944 37.5022C67.5095 37.4766 67.5301 37.4549 67.5546 37.4387L69.4442 36.1861C69.4802 36.1622 69.523 36.1513 69.5658 36.155C69.6085 36.1586 69.6488 36.1767 69.6801 36.2064L72.8329 39.1866C74.4287 38.5217 76.2097 38.4851 78.1281 39.0779C80.0625 39.6762 82.0729 40.9529 84.1031 42.8721L84.2064 42.9698C84.2278 42.99 84.2443 43.0149 84.2548 43.0426C84.2652 43.0702 84.2693 43.1 84.2667 43.1296C84.2641 43.1592 84.2549 43.1879 84.2399 43.2134C84.2248 43.2389 84.2042 43.2606 84.1796 43.2769L81.9369 44.7637C81.9007 44.7878 81.8577 44.799 81.8147 44.7953C81.7717 44.7917 81.7312 44.7734 81.6998 44.7435L81.5967 44.646C80.2302 43.3542 78.8659 42.4973 77.5415 42.0992C76.2401 41.7009 75.1379 41.7925 74.2641 42.3717C73.3545 42.9749 72.9557 43.6768 73.0452 44.5182C73.127 45.3756 73.7001 46.3115 74.7489 47.303C75.7206 48.2214 76.7698 48.7877 77.8671 48.9859C78.9684 49.1847 80.3875 49.1058 82.0856 48.7512C83.584 48.41 85.1197 48.2738 86.6518 48.3464C87.9119 48.4326 89.1457 48.7467 90.2951 49.2739C91.5008 49.8577 92.6075 50.6313 93.5746 51.5663C95.2578 53.1574 96.2093 54.748 96.403 56.2938C96.5935 57.8108 96.0563 59.1724 94.8066 60.3433L97.4703 62.8613C97.4917 62.8815 97.5082 62.9064 97.5187 62.9341C97.5291 62.9617 97.5332 62.9915 97.5306 63.0211C97.5281 63.0507 97.5189 63.0794 97.5038 63.1049C97.4887 63.1304 97.4681 63.1521 97.4435 63.1684L95.5538 64.4212C95.5316 64.4362 95.5066 64.4463 95.4803 64.4508ZM92.5821 61.382C92.611 61.3772 92.6406 61.3791 92.6686 61.3877C92.6965 61.3963 92.7222 61.4112 92.7436 61.4314L95.4717 64.0104L97.0287 62.9783L94.3932 60.4869C94.356 60.4519 94.3341 60.4032 94.3321 60.3516C94.3302 60.3 94.3484 60.2497 94.3829 60.2115L94.4028 60.1884C94.4076 60.183 94.4128 60.1779 94.4182 60.1732C95.6623 59.0662 96.2019 57.7779 96.022 56.344C95.8399 54.8908 94.9284 53.3795 93.3125 51.8521C92.3754 50.9453 91.3027 50.1948 90.1341 49.6283C89.0266 49.1206 87.8378 48.8181 86.6238 48.7352C85.1269 48.6653 83.6266 48.7991 82.1629 49.1331C80.4173 49.4974 78.9491 49.5772 77.7995 49.3696C76.6283 49.1581 75.514 48.5589 74.4875 47.5887C73.3683 46.5305 72.7547 45.511 72.6637 44.5586C72.5589 43.5724 73.0273 42.7256 74.0564 42.0433C75.0299 41.3977 76.2394 41.2903 77.6546 41.7232C79.0331 42.1377 80.4462 43.0228 81.8541 44.3516L83.764 43.0856C81.8029 41.2469 79.869 40.0243 78.0149 39.451C76.1451 38.8731 74.4181 38.9191 72.882 39.5878C72.8466 39.605 72.8071 39.6115 72.7682 39.6064C72.7294 39.6013 72.6929 39.5849 72.6631 39.5591L69.5271 36.5969L67.9706 37.6299L71.0414 40.5328C71.0606 40.551 71.076 40.573 71.0865 40.5974C71.097 40.6219 71.1024 40.6483 71.1025 40.675C71.1025 40.7017 71.0972 40.7282 71.0868 40.7528C71.0764 40.7773 71.0612 40.7995 71.042 40.8179C69.9815 41.8372 69.5646 43.0535 69.803 44.4334C70.047 45.8735 70.9702 47.3586 72.5461 48.8485C74.0987 50.3163 75.7869 51.2811 77.5637 51.7164C79.3475 52.1536 81.4353 52.105 83.7699 51.5726C85.531 51.2159 87.015 51.1586 88.1819 51.4017C89.3725 51.6549 90.4689 52.2396 91.3488 53.0905C92.4562 54.1373 93.0233 55.1964 93.0345 56.2384C93.0415 57.2973 92.4782 58.2096 91.3601 58.95C90.8087 59.3182 90.1886 59.5662 89.539 59.6784C88.8894 59.7906 88.2245 59.7645 87.5866 59.6017C86.2658 59.3011 84.9117 58.514 83.5598 57.2615L81.6378 58.5358C83.4893 60.2443 85.3882 61.3561 87.2848 61.8419C89.1559 62.3172 90.9212 62.168 92.531 61.3985C92.5472 61.3906 92.5644 61.385 92.5821 61.382Z" fill="#111111"/>
</g>
<g clip-path="url(#clip4_1715_10002)">
<path d="M170.685 99.6501C176.622 116.018 167.162 137.042 149.551 146.606C131.94 156.169 112.844 150.651 106.908 134.284C100.971 117.916 110.442 96.8952 128.052 87.3309C145.663 77.7666 164.749 83.2825 170.685 99.6501Z" fill="#FCBF14"/>
<path d="M122.375 149.913C122.072 149.807 121.773 149.697 121.475 149.58C114.541 146.879 109.3 141.471 106.718 134.353C100.758 117.921 110.286 96.746 127.956 87.1503C137.338 82.0555 147.605 81.0362 156.122 84.3544C163.054 87.0552 168.293 92.4621 170.875 99.5811C176.836 116.017 167.314 137.193 149.648 146.787C140.594 151.703 130.714 152.824 122.375 149.913ZM155.094 84.4097C146.864 81.5369 137.106 82.6483 128.15 87.512C110.649 97.0158 101.205 117.967 107.098 134.215C109.638 141.219 114.794 146.54 121.617 149.198C130.029 152.475 140.174 151.464 149.454 146.425C166.951 136.925 176.39 115.972 170.495 99.7192C167.955 92.7143 162.799 87.3937 155.98 84.7369C155.687 84.6226 155.391 84.5135 155.094 84.4097Z" fill="#111111"/>
<path d="M164.782 102.858C159.945 89.5222 144.39 85.0271 130.04 92.8198C115.683 100.616 107.97 117.747 112.807 131.083C117.647 144.427 133.203 148.922 147.561 141.125C161.91 133.333 169.623 116.202 164.782 102.858Z" fill="white"/>
<path d="M125.4 143.859C125.153 143.773 124.908 143.682 124.665 143.588C119.005 141.383 114.726 136.966 112.617 131.152C107.754 117.744 115.527 100.467 129.944 92.6384C137.598 88.482 145.975 87.6512 152.928 90.3596C155.701 91.4249 158.216 93.0895 160.296 95.2366C162.377 97.3837 163.973 99.9614 164.972 102.789C169.837 116.201 162.069 133.48 147.657 141.306C140.267 145.319 132.204 146.234 125.4 143.859ZM152.064 90.4757C145.368 88.138 137.426 89.0428 130.138 93.0001C115.889 100.737 108.201 117.79 112.997 131.014C113.977 133.788 115.542 136.316 117.582 138.422C119.623 140.528 122.089 142.161 124.809 143.206C125.047 143.299 125.288 143.388 125.53 143.473C132.227 145.811 140.173 144.905 147.464 140.945C161.706 133.21 169.39 116.155 164.593 102.927C163.613 100.155 162.048 97.6281 160.009 95.5231C157.969 93.4182 155.504 91.7863 152.786 90.7419C152.547 90.6489 152.306 90.5602 152.064 90.4757Z" fill="#111111"/>
<path d="M160.131 107.984L158.873 104.515L154.107 107.104C152.926 104.845 151.343 103.42 149.357 102.828C147.325 102.219 145.128 102.559 142.764 103.846C140.444 105.106 138.793 106.872 137.813 109.144C136.829 111.426 136.451 114.401 136.661 118.092C136.757 120.77 136.523 122.843 135.964 124.297C135.448 125.702 134.441 126.864 133.134 127.564C131.562 128.417 130.115 128.53 128.801 127.906C127.485 127.273 126.475 125.989 125.765 124.028C125.042 122.036 125.027 120.192 125.71 118.522C126.397 116.839 127.749 115.46 129.749 114.374L128.246 110.234C125.389 111.786 123.422 113.798 122.319 116.277C121.251 118.689 121.086 121.313 121.778 124.135L117.617 126.395L118.875 129.864L123.002 127.622L123.028 127.665C124.286 130.245 125.935 131.89 127.977 132.599C130.003 133.303 132.248 133.001 134.677 131.681C136.109 130.932 137.364 129.881 138.358 128.598C139.317 127.276 139.989 125.761 140.328 124.153C140.721 122.406 140.864 120.202 140.758 117.541C140.648 114.88 140.849 112.816 141.36 111.351C141.874 109.884 142.87 108.745 144.341 107.946C145.93 107.083 147.344 106.876 148.569 107.343C149.801 107.796 150.738 108.911 151.382 110.687C151.688 111.504 151.816 112.376 151.758 113.244C151.699 114.112 151.455 114.955 151.043 115.716C150.212 117.364 148.773 118.744 146.728 119.854L146.577 119.936L148.07 124.054L148.221 123.971C151.18 122.364 153.256 120.405 154.45 118.092C155.65 115.767 155.959 113.264 155.379 110.583L155.374 110.567L160.131 107.984" fill="#FCBF14"/>
<path d="M118.811 130.057L118.804 130.055C118.776 130.044 118.752 130.028 118.731 130.007C118.711 129.986 118.695 129.961 118.685 129.933L117.427 126.464C117.41 126.418 117.41 126.367 117.427 126.322C117.444 126.276 117.477 126.238 117.52 126.214L121.544 124.029C120.883 121.208 121.081 118.572 122.133 116.193C123.252 113.68 125.276 111.614 128.149 110.054C128.175 110.04 128.203 110.032 128.232 110.03C128.261 110.029 128.29 110.033 128.317 110.044C128.344 110.054 128.369 110.071 128.389 110.092C128.41 110.113 128.426 110.138 128.436 110.166L129.938 114.306C129.954 114.352 129.954 114.403 129.937 114.449C129.92 114.495 129.887 114.533 129.844 114.556C127.887 115.619 126.558 116.981 125.895 118.604C125.232 120.227 125.252 122.028 125.953 123.961C126.639 125.852 127.626 127.117 128.885 127.723C130.133 128.316 131.53 128.202 133.036 127.384C134.3 126.705 135.273 125.581 135.774 124.222C136.323 122.796 136.553 120.736 136.458 118.099C136.246 114.397 136.639 111.354 137.626 109.062C138.618 106.76 140.313 104.945 142.666 103.667C145.071 102.361 147.341 102.013 149.412 102.633C151.386 103.218 152.992 104.628 154.187 106.827L158.776 104.336C158.801 104.322 158.83 104.314 158.859 104.312C158.888 104.31 158.917 104.315 158.944 104.325C158.971 104.336 158.996 104.352 159.016 104.374C159.037 104.395 159.053 104.42 159.063 104.448L160.321 107.916C160.337 107.962 160.337 108.013 160.32 108.059C160.303 108.105 160.27 108.143 160.227 108.166L155.605 110.675C156.169 113.225 155.823 115.887 154.63 118.188C153.423 120.526 151.299 122.533 148.318 124.152L148.167 124.234C148.141 124.248 148.113 124.256 148.084 124.258C148.055 124.26 148.026 124.255 147.998 124.244C147.971 124.234 147.947 124.218 147.926 124.196C147.906 124.175 147.89 124.15 147.88 124.122L146.387 120.005C146.37 119.959 146.37 119.908 146.387 119.863C146.404 119.817 146.437 119.779 146.48 119.756L146.631 119.673C148.63 118.588 150.054 117.224 150.862 115.621C151.261 114.885 151.497 114.07 151.554 113.23C151.611 112.39 151.488 111.546 151.192 110.756C150.573 109.048 149.668 107.965 148.502 107.535C147.341 107.093 145.974 107.293 144.438 108.127C143.018 108.898 142.047 110.006 141.551 111.421C141.05 112.849 140.851 114.906 140.96 117.534C141.069 120.186 140.923 122.429 140.525 124.2C140.178 125.836 139.495 127.376 138.52 128.722C137.507 130.027 136.231 131.098 134.774 131.862C132.304 133.203 129.996 133.516 127.913 132.792C125.868 132.081 124.188 130.437 122.919 127.901L118.972 130.044C118.947 130.058 118.92 130.066 118.893 130.068C118.865 130.07 118.837 130.067 118.811 130.057ZM117.867 126.492L118.984 129.571L122.907 127.442C122.952 127.417 123.006 127.411 123.056 127.425C123.107 127.439 123.15 127.473 123.177 127.518L123.202 127.561C124.437 130.093 126.062 131.718 128.042 132.405C130.014 133.09 132.214 132.786 134.581 131.501C135.987 130.763 137.22 129.731 138.198 128.472C139.139 127.172 139.797 125.685 140.131 124.105C140.521 122.37 140.664 120.164 140.556 117.548C140.444 114.828 140.644 112.78 141.17 111.281C141.7 109.768 142.735 108.585 144.245 107.766C145.888 106.873 147.366 106.667 148.64 107.151C149.923 107.624 150.91 108.79 151.573 110.618C151.889 111.461 152.021 112.362 151.96 113.258C151.9 114.155 151.649 115.026 151.223 115.811C150.378 117.488 148.899 118.909 146.828 120.034L148.179 123.761C151.06 122.186 153.11 120.247 154.27 117.996C155.439 115.739 155.763 113.124 155.182 110.63C155.17 110.584 155.172 110.536 155.189 110.492C155.206 110.449 155.237 110.412 155.276 110.387L159.88 107.887L158.763 104.808L154.202 107.285C154.178 107.297 154.153 107.305 154.126 107.308C154.1 107.31 154.073 107.308 154.047 107.3C154.021 107.292 153.998 107.279 153.977 107.261C153.956 107.244 153.939 107.223 153.927 107.199C152.775 104.997 151.219 103.593 149.3 103.025C147.333 102.437 145.166 102.774 142.859 104.028C140.587 105.261 138.951 107.011 137.996 109.228C137.034 111.461 136.653 114.44 136.861 118.083C136.958 120.779 136.719 122.895 136.15 124.373C135.616 125.823 134.577 127.021 133.228 127.745C131.604 128.627 130.085 128.744 128.714 128.093C127.353 127.44 126.296 126.096 125.572 124.099C124.835 122.067 124.817 120.164 125.519 118.444C126.201 116.776 127.539 115.375 129.496 114.279L128.136 110.529C125.453 112.031 123.558 113.993 122.503 116.362C121.469 118.7 121.29 121.3 121.974 124.088C121.985 124.132 121.981 124.178 121.963 124.219C121.945 124.261 121.914 124.295 121.875 124.316L117.867 126.492Z" fill="#111111"/>
<path d="M175.328 104.201C174.033 100.56 171.935 97.2595 169.194 94.5537L164.552 90.003C167.292 92.7088 169.39 96.0089 170.685 99.6501C176.622 116.018 167.162 137.042 149.551 146.606C136.057 153.934 121.691 152.407 113.04 143.929L117.683 148.479C126.333 156.957 140.699 158.484 154.194 151.156C171.805 141.593 181.264 120.568 175.328 104.201Z" fill="url(#paint1_linear_1715_10002)"/>
<path d="M126.996 154.463C123.463 153.247 120.235 151.253 117.544 148.626L112.901 144.076C112.862 144.038 112.84 143.986 112.838 143.931C112.837 143.877 112.858 143.825 112.895 143.786C112.932 143.747 112.983 143.725 113.037 143.724C113.09 143.723 113.142 143.744 113.181 143.782C117.452 147.969 123.093 150.461 129.494 150.991C136.054 151.532 142.956 149.954 149.454 146.425C166.951 136.925 176.39 115.972 170.495 99.7194C169.213 96.1067 167.131 92.8328 164.411 90.1497C164.373 90.1117 164.35 90.0599 164.349 90.0055C164.348 89.9511 164.368 89.8987 164.405 89.8598C164.443 89.8209 164.494 89.7986 164.547 89.798C164.601 89.7973 164.653 89.8183 164.692 89.8562L169.335 94.407C172.099 97.1336 174.214 100.461 175.518 104.132C181.479 120.568 171.957 141.744 154.291 151.338C147.725 154.904 140.745 156.498 134.108 155.95C131.687 155.758 129.298 155.258 126.996 154.463ZM116.391 146.929L117.824 148.333C122.095 152.52 127.736 155.012 134.137 155.541C140.697 156.083 147.599 154.504 154.097 150.976C171.594 141.475 181.033 120.522 175.138 104.27C173.855 100.658 171.774 97.3838 169.054 94.7009L167.607 93.2813C168.973 95.224 170.072 97.3435 170.876 99.5814C176.837 116.017 167.315 137.194 149.649 146.787C143.083 150.353 136.103 151.948 129.466 151.399C124.586 150.996 120.141 149.467 116.391 146.929Z" fill="#111111"/>
</g>
<rect opacity="0.6" width="14.6095" height="14.6095" rx="4" transform="matrix(0.700838 0.713321 -0.700838 0.713321 158.659 43.2926)" fill="white"/>
</g>
<defs>
<filter id="filter0_f_1715_10002" x="-25" y="-12" width="398" height="398" filterUnits="userSpaceOnUse" color-interpolation-filters="sRGB">
<feFlood flood-opacity="0" result="BackgroundImageFix"/>
<feBlend mode="normal" in="SourceGraphic" in2="BackgroundImageFix" result="shape"/>
<feGaussianBlur stdDeviation="54" result="effect1_foregroundBlur_1715_10002"/>
</filter>
<linearGradient id="paint0_linear_1715_10002" x1="56.2067" y1="35.1516" x2="94.3702" y2="76.9285" gradientUnits="userSpaceOnUse">
<stop stop-color="#FCBF14"/>
<stop offset="0.204" stop-color="#FFEFC3"/>
<stop offset="1" stop-color="#FCBF14"/>
</linearGradient>
<linearGradient id="paint1_linear_1715_10002" x1="116.372" y1="141.227" x2="176.17" y2="112.87" gradientUnits="userSpaceOnUse">
<stop offset="0.176" stop-color="#FCBF14"/>
<stop offset="0.801" stop-color="#FFEFC3"/>
<stop offset="1" stop-color="#FCBF14"/>
</linearGradient>
<clipPath id="clip0_1715_10002">
<rect width="362" height="362" fill="white"/>
</clipPath>
<clipPath id="clip1_1715_10002">
<rect width="248.642" height="232.429" fill="white" transform="matrix(0.983178 -0.182721 0.172699 0.984987 81.5481 118.424)"/>
</clipPath>
<clipPath id="clip2_1715_10002">
<rect width="158.283" height="142.529" fill="white" transform="matrix(0.98297 0.183833 -0.17377 0.984799 36.4444 99.0211)"/>
</clipPath>
<clipPath id="clip3_1715_10002">
<rect width="56.0804" height="55.8638" fill="white" transform="matrix(0.986595 -0.163255 0.154046 0.988074 48.4056 30.3378)"/>
</clipPath>
<clipPath id="clip4_1715_10002">
<rect width="69.7243" height="76.1507" fill="white" transform="matrix(0.944145 0.3296 -0.315429 0.948973 120.215 71.6198)"/>
</clipPath>
</defs>
</svg>