<svg width="246" height="244" viewBox="0 0 246 244" fill="none" xmlns="http://www.w3.org/2000/svg">
<path d="M181.773 101.434C182.879 101.434 183.686 101.672 184.193 102.148C184.701 102.621 184.955 103.273 184.955 104.105C184.955 104.48 184.898 104.84 184.785 105.184C184.672 105.523 184.486 105.826 184.229 106.092C183.975 106.357 183.635 106.568 183.209 106.725C182.783 106.877 182.258 106.953 181.633 106.953H180.854V110H179.037V101.434H181.773ZM181.68 102.922H180.854V105.465H181.451C181.791 105.465 182.086 105.42 182.336 105.33C182.586 105.24 182.779 105.1 182.916 104.908C183.053 104.717 183.121 104.471 183.121 104.17C183.121 103.748 183.004 103.436 182.77 103.232C182.535 103.025 182.172 102.922 181.68 102.922ZM189.133 103.326C189.738 103.326 190.26 103.443 190.697 103.678C191.135 103.908 191.473 104.244 191.711 104.686C191.949 105.127 192.068 105.666 192.068 106.303V107.17H187.844C187.863 107.674 188.014 108.07 188.295 108.359C188.58 108.645 188.975 108.787 189.479 108.787C189.896 108.787 190.279 108.744 190.627 108.658C190.975 108.572 191.332 108.443 191.699 108.271V109.654C191.375 109.814 191.035 109.932 190.68 110.006C190.328 110.08 189.9 110.117 189.396 110.117C188.74 110.117 188.158 109.996 187.65 109.754C187.146 109.512 186.75 109.143 186.461 108.646C186.176 108.15 186.033 107.525 186.033 106.771C186.033 106.006 186.162 105.369 186.42 104.861C186.682 104.35 187.045 103.967 187.51 103.713C187.975 103.455 188.516 103.326 189.133 103.326ZM189.145 104.598C188.797 104.598 188.508 104.709 188.277 104.932C188.051 105.154 187.92 105.504 187.885 105.98H190.393C190.389 105.715 190.34 105.479 190.246 105.271C190.156 105.064 190.02 104.9 189.836 104.779C189.656 104.658 189.426 104.598 189.145 104.598ZM198.309 100.883V103.414C199.066 103.477 199.705 103.654 200.225 103.947C200.744 104.236 201.139 104.619 201.408 105.096C201.678 105.568 201.812 106.111 201.812 106.725C201.812 107.334 201.682 107.877 201.42 108.354C201.162 108.83 200.773 109.215 200.254 109.508C199.738 109.801 199.09 109.98 198.309 110.047V112.883H196.65V110.047C195.896 109.977 195.258 109.795 194.734 109.502C194.211 109.205 193.811 108.82 193.533 108.348C193.26 107.871 193.123 107.33 193.123 106.725C193.123 106.1 193.25 105.549 193.504 105.072C193.758 104.592 194.145 104.209 194.664 103.924C195.188 103.635 195.85 103.465 196.65 103.414V100.883H198.309ZM196.65 104.756C196.303 104.803 196.002 104.916 195.748 105.096C195.498 105.275 195.305 105.506 195.168 105.787C195.031 106.064 194.963 106.377 194.963 106.725C194.963 107.08 195.027 107.398 195.156 107.68C195.289 107.957 195.48 108.184 195.73 108.359C195.984 108.535 196.291 108.646 196.65 108.693V104.756ZM198.309 104.779V108.693C198.664 108.646 198.965 108.535 199.211 108.359C199.461 108.184 199.65 107.957 199.779 107.68C199.912 107.398 199.979 107.08 199.979 106.725C199.979 106.201 199.828 105.764 199.527 105.412C199.23 105.057 198.824 104.846 198.309 104.779ZM205.996 103.326C206.602 103.326 207.123 103.443 207.561 103.678C207.998 103.908 208.336 104.244 208.574 104.686C208.812 105.127 208.932 105.666 208.932 106.303V107.17H204.707C204.727 107.674 204.877 108.07 205.158 108.359C205.443 108.645 205.838 108.787 206.342 108.787C206.76 108.787 207.143 108.744 207.49 108.658C207.838 108.572 208.195 108.443 208.562 108.271V109.654C208.238 109.814 207.898 109.932 207.543 110.006C207.191 110.08 206.764 110.117 206.26 110.117C205.604 110.117 205.021 109.996 204.514 109.754C204.01 109.512 203.613 109.143 203.324 108.646C203.039 108.15 202.896 107.525 202.896 106.771C202.896 106.006 203.025 105.369 203.283 104.861C203.545 104.35 203.908 103.967 204.373 103.713C204.838 103.455 205.379 103.326 205.996 103.326ZM206.008 104.598C205.66 104.598 205.371 104.709 205.141 104.932C204.914 105.154 204.783 105.504 204.748 105.98H207.256C207.252 105.715 207.203 105.479 207.109 105.271C207.02 105.064 206.883 104.9 206.699 104.779C206.52 104.658 206.289 104.598 206.008 104.598ZM214.029 103.326C214.768 103.326 215.363 103.613 215.816 104.188C216.273 104.762 216.502 105.604 216.502 106.713C216.502 107.455 216.395 108.08 216.18 108.588C215.965 109.092 215.668 109.473 215.289 109.73C214.91 109.988 214.475 110.117 213.982 110.117C213.666 110.117 213.395 110.078 213.168 110C212.941 109.918 212.748 109.814 212.588 109.689C212.428 109.561 212.289 109.424 212.172 109.279H212.078C212.109 109.436 212.133 109.596 212.148 109.76C212.164 109.924 212.172 110.084 212.172 110.24V112.883H210.385V103.449H211.838L212.09 104.299H212.172C212.289 104.123 212.432 103.961 212.6 103.812C212.768 103.664 212.969 103.547 213.203 103.461C213.441 103.371 213.717 103.326 214.029 103.326ZM213.455 104.756C213.143 104.756 212.895 104.82 212.711 104.949C212.527 105.078 212.393 105.271 212.307 105.529C212.225 105.787 212.18 106.113 212.172 106.508V106.701C212.172 107.123 212.211 107.48 212.289 107.773C212.371 108.066 212.506 108.289 212.693 108.441C212.885 108.594 213.146 108.67 213.479 108.67C213.752 108.67 213.977 108.594 214.152 108.441C214.328 108.289 214.459 108.066 214.545 107.773C214.635 107.477 214.68 107.115 214.68 106.689C214.68 106.049 214.58 105.566 214.381 105.242C214.182 104.918 213.873 104.756 213.455 104.756ZM220.662 103.314C221.541 103.314 222.215 103.506 222.684 103.889C223.152 104.271 223.387 104.854 223.387 105.635V110H222.139L221.793 109.109H221.746C221.559 109.344 221.367 109.535 221.172 109.684C220.977 109.832 220.752 109.941 220.498 110.012C220.244 110.082 219.936 110.117 219.572 110.117C219.186 110.117 218.838 110.043 218.529 109.895C218.225 109.746 217.984 109.52 217.809 109.215C217.633 108.906 217.545 108.516 217.545 108.043C217.545 107.348 217.789 106.836 218.277 106.508C218.766 106.176 219.498 105.992 220.475 105.957L221.611 105.922V105.635C221.611 105.291 221.521 105.039 221.342 104.879C221.162 104.719 220.912 104.639 220.592 104.639C220.275 104.639 219.965 104.684 219.66 104.773C219.355 104.863 219.051 104.977 218.746 105.113L218.154 103.906C218.502 103.723 218.891 103.578 219.32 103.473C219.754 103.367 220.201 103.314 220.662 103.314ZM221.611 106.965L220.92 106.988C220.342 107.004 219.939 107.107 219.713 107.299C219.49 107.49 219.379 107.742 219.379 108.055C219.379 108.328 219.459 108.523 219.619 108.641C219.779 108.754 219.988 108.811 220.246 108.811C220.629 108.811 220.951 108.697 221.213 108.471C221.479 108.244 221.611 107.922 221.611 107.504V106.965ZM231.098 110H229.311V104.791H227.664C227.582 105.752 227.484 106.57 227.371 107.246C227.258 107.922 227.113 108.473 226.938 108.898C226.762 109.32 226.543 109.629 226.281 109.824C226.02 110.02 225.697 110.117 225.314 110.117C225.104 110.117 224.914 110.102 224.746 110.07C224.582 110.039 224.432 109.992 224.295 109.93V108.5C224.381 108.535 224.473 108.564 224.57 108.588C224.668 108.607 224.768 108.617 224.869 108.617C224.982 108.617 225.09 108.572 225.191 108.482C225.293 108.393 225.389 108.238 225.479 108.02C225.568 107.797 225.652 107.49 225.73 107.1C225.812 106.709 225.887 106.215 225.953 105.617C226.02 105.02 226.082 104.297 226.141 103.449H231.098V110Z" fill="#87909F"/>
<path d="M209.197 67.6152C209.808 67.6152 210.35 67.7314 210.824 67.9639C211.303 68.1963 211.679 68.5381 211.952 68.9893C212.226 69.4404 212.362 69.9964 212.362 70.6572C212.362 71.3773 212.212 71.9993 211.911 72.5234C211.615 73.043 211.171 73.4417 210.578 73.7197C209.99 73.9977 209.257 74.1367 208.377 74.1367C207.853 74.1367 207.358 74.0911 206.894 74C206.433 73.9134 206.03 73.779 205.684 73.5967V71.7715C206.03 71.9538 206.445 72.1087 206.928 72.2363C207.415 72.3594 207.873 72.4209 208.302 72.4209C208.721 72.4209 209.074 72.3662 209.361 72.2568C209.648 72.1429 209.865 71.9697 210.011 71.7373C210.161 71.5003 210.236 71.1995 210.236 70.835C210.236 70.3473 210.072 69.9736 209.744 69.7139C209.416 69.4541 208.912 69.3242 208.233 69.3242C207.974 69.3242 207.702 69.3493 207.42 69.3994C207.142 69.4495 206.91 69.4997 206.723 69.5498L205.882 69.0986L206.258 64.0059H211.679V65.7969H208.11L207.926 67.7588C208.081 67.7269 208.249 67.695 208.432 67.6631C208.614 67.6312 208.869 67.6152 209.197 67.6152ZM220.504 69.0029C220.504 69.8096 220.44 70.5296 220.312 71.1631C220.189 71.7965 219.989 72.3343 219.711 72.7764C219.438 73.2184 219.077 73.5557 218.631 73.7881C218.184 74.0205 217.642 74.1367 217.004 74.1367C216.202 74.1367 215.543 73.9339 215.028 73.5283C214.513 73.1182 214.133 72.5303 213.887 71.7646C213.641 70.9945 213.518 70.0739 213.518 69.0029C213.518 67.9229 213.629 67 213.853 66.2344C214.08 65.4642 214.45 64.874 214.96 64.4639C215.47 64.0537 216.152 63.8486 217.004 63.8486C217.801 63.8486 218.458 64.0537 218.973 64.4639C219.492 64.8695 219.877 65.4574 220.128 66.2275C220.379 66.9932 220.504 67.9183 220.504 69.0029ZM215.616 69.0029C215.616 69.764 215.657 70.3997 215.739 70.9102C215.826 71.416 215.969 71.7965 216.17 72.0518C216.37 72.307 216.648 72.4346 217.004 72.4346C217.355 72.4346 217.631 72.3092 217.831 72.0586C218.036 71.8034 218.182 71.4229 218.269 70.917C218.355 70.4066 218.398 69.7686 218.398 69.0029C218.398 68.2419 218.355 67.6061 218.269 67.0957C218.182 66.5853 218.036 66.2025 217.831 65.9473C217.631 65.6875 217.355 65.5576 217.004 65.5576C216.648 65.5576 216.37 65.6875 216.17 65.9473C215.969 66.2025 215.826 66.5853 215.739 67.0957C215.657 67.6061 215.616 68.2419 215.616 69.0029ZM223.812 63.8623C224.596 63.8623 225.191 64.1357 225.597 64.6826C226.002 65.2295 226.205 65.9974 226.205 66.9863C226.205 67.9753 226.014 68.7477 225.631 69.3037C225.248 69.8597 224.642 70.1377 223.812 70.1377C223.042 70.1377 222.457 69.8597 222.056 69.3037C221.655 68.7477 221.454 67.9753 221.454 66.9863C221.454 65.9974 221.641 65.2295 222.015 64.6826C222.393 64.1357 222.992 63.8623 223.812 63.8623ZM223.826 65.291C223.603 65.291 223.439 65.4323 223.334 65.7148C223.229 65.9974 223.177 66.4258 223.177 67C223.177 67.5742 223.229 68.0049 223.334 68.292C223.439 68.5791 223.603 68.7227 223.826 68.7227C224.049 68.7227 224.214 68.5814 224.318 68.2988C224.428 68.0117 224.482 67.5788 224.482 67C224.482 66.4258 224.428 65.9974 224.318 65.7148C224.214 65.4323 224.049 65.291 223.826 65.291ZM230.908 64.0059L225.364 74H223.724L229.268 64.0059H230.908ZM230.812 67.8545C231.596 67.8545 232.191 68.1279 232.597 68.6748C233.002 69.2217 233.205 69.9896 233.205 70.9785C233.205 71.9629 233.014 72.7331 232.631 73.2891C232.248 73.8451 231.642 74.123 230.812 74.123C230.042 74.123 229.457 73.8451 229.056 73.2891C228.655 72.7331 228.454 71.9629 228.454 70.9785C228.454 69.9896 228.641 69.2217 229.015 68.6748C229.393 68.1279 229.992 67.8545 230.812 67.8545ZM230.826 69.2832C230.603 69.2832 230.439 69.4245 230.334 69.707C230.229 69.9896 230.177 70.418 230.177 70.9922C230.177 71.5664 230.229 71.9971 230.334 72.2842C230.439 72.5713 230.603 72.7148 230.826 72.7148C231.049 72.7148 231.214 72.5736 231.318 72.291C231.428 72.0039 231.482 71.571 231.482 70.9922C231.482 70.418 231.428 69.9896 231.318 69.707C231.214 69.4245 231.049 69.2832 230.826 69.2832Z" fill="#F2F4F6"/>
<rect x="165.5" y="49.5" width="80" height="39" rx="7.5" stroke="#46B75B"/>
<path d="M190.6 75.4001L190.6 73.0003C190.6 71.6747 189.525 70.6001 188.2 70.6001H181.8C180.475 70.6001 179.401 71.6744 179.4 72.9998L179.4 75.4001M187.4 65.0001C187.4 66.3256 186.326 67.4001 185 67.4001C183.675 67.4001 182.6 66.3256 182.6 65.0001C182.6 63.6746 183.675 62.6001 185 62.6001C186.326 62.6001 187.4 63.6746 187.4 65.0001Z" stroke="#46B75B" stroke-width="2" stroke-linecap="round" stroke-linejoin="round"/>
<path d="M58.7676 102.822C58.4199 102.822 58.1113 102.891 57.8418 103.027C57.5762 103.16 57.3516 103.354 57.168 103.607C56.9883 103.861 56.8516 104.168 56.7578 104.527C56.6641 104.887 56.6172 105.291 56.6172 105.74C56.6172 106.346 56.6914 106.863 56.8398 107.293C56.9922 107.719 57.2266 108.045 57.543 108.271C57.8594 108.494 58.2676 108.605 58.7676 108.605C59.1152 108.605 59.4629 108.566 59.8105 108.488C60.1621 108.41 60.543 108.299 60.9531 108.154V109.678C60.5742 109.834 60.2012 109.945 59.834 110.012C59.4668 110.082 59.0547 110.117 58.5977 110.117C57.7148 110.117 56.9883 109.936 56.418 109.572C55.8516 109.205 55.4316 108.693 55.1582 108.037C54.8848 107.377 54.748 106.607 54.748 105.729C54.748 105.08 54.8359 104.486 55.0117 103.947C55.1875 103.408 55.4453 102.941 55.7852 102.547C56.125 102.152 56.5449 101.848 57.0449 101.633C57.5449 101.418 58.1191 101.311 58.7676 101.311C59.1934 101.311 59.6191 101.365 60.0449 101.475C60.4746 101.58 60.8848 101.727 61.2754 101.914L60.6895 103.391C60.3691 103.238 60.0469 103.105 59.7227 102.992C59.3984 102.879 59.0801 102.822 58.7676 102.822ZM61.7031 103.449H63.6602L64.8965 107.135C64.9355 107.252 64.9688 107.371 64.9961 107.492C65.0234 107.613 65.0469 107.738 65.0664 107.867C65.0859 107.996 65.1016 108.131 65.1133 108.271H65.1484C65.1719 108.061 65.2031 107.863 65.2422 107.68C65.2852 107.496 65.3379 107.314 65.4004 107.135L66.6133 103.449H68.5293L65.7578 110.838C65.5898 111.291 65.3711 111.668 65.1016 111.969C64.832 112.273 64.5215 112.502 64.1699 112.654C63.8223 112.807 63.4395 112.883 63.0215 112.883C62.8184 112.883 62.6426 112.871 62.4941 112.848C62.3457 112.828 62.2188 112.807 62.1133 112.783V111.365C62.1953 111.385 62.2988 111.402 62.4238 111.418C62.5488 111.434 62.6797 111.441 62.8164 111.441C63.0664 111.441 63.2812 111.389 63.4609 111.283C63.6406 111.178 63.791 111.035 63.9121 110.855C64.0332 110.68 64.1289 110.486 64.1992 110.275L64.3047 109.953L61.7031 103.449ZM69.0742 106.074C69.0742 105.109 69.1934 104.289 69.4316 103.613C69.6699 102.938 70.0488 102.398 70.5684 101.996C71.0879 101.59 71.7695 101.314 72.6133 101.17C73.0352 101.096 73.4629 101.035 73.8965 100.988C74.334 100.938 74.7871 100.881 75.2559 100.818L75.4609 102.383C75.2578 102.406 75.0371 102.432 74.7988 102.459C74.5605 102.486 74.3203 102.516 74.0781 102.547C73.8359 102.574 73.6016 102.604 73.375 102.635C73.1484 102.662 72.9434 102.689 72.7598 102.717C72.3613 102.779 72.0293 102.877 71.7637 103.01C71.498 103.143 71.2949 103.354 71.1543 103.643C71.0137 103.932 70.9277 104.348 70.8965 104.891H70.9844C71.0781 104.742 71.2109 104.592 71.3828 104.439C71.5547 104.283 71.7676 104.154 72.0215 104.053C72.2754 103.947 72.5684 103.895 72.9004 103.895C73.4238 103.895 73.877 104.002 74.2598 104.217C74.6426 104.432 74.9375 104.752 75.1445 105.178C75.3555 105.6 75.4609 106.127 75.4609 106.76C75.4609 107.502 75.3242 108.123 75.0508 108.623C74.7812 109.119 74.4062 109.492 73.9258 109.742C73.4453 109.992 72.8887 110.117 72.2559 110.117C71.7715 110.117 71.334 110.029 70.9434 109.854C70.5527 109.678 70.2168 109.418 69.9355 109.074C69.6582 108.73 69.4453 108.309 69.2969 107.809C69.1484 107.305 69.0742 106.727 69.0742 106.074ZM72.3613 108.67C72.6152 108.67 72.8359 108.615 73.0234 108.506C73.2148 108.393 73.3633 108.209 73.4688 107.955C73.5781 107.697 73.6328 107.352 73.6328 106.918C73.6328 106.395 73.5449 105.98 73.3691 105.676C73.1973 105.367 72.9023 105.213 72.4844 105.213C72.2305 105.213 71.9922 105.275 71.7695 105.4C71.5508 105.521 71.3652 105.662 71.2129 105.822C71.0605 105.979 70.9551 106.111 70.8965 106.221C70.8965 106.529 70.9199 106.83 70.9668 107.123C71.0176 107.412 71.0977 107.674 71.207 107.908C71.3164 108.143 71.4648 108.328 71.6523 108.465C71.8438 108.602 72.0801 108.67 72.3613 108.67ZM82.8906 103.449V110H81.0977V104.791H78.7246V110H76.9375V103.449H82.8906ZM87.4492 103.314C88.3281 103.314 89.002 103.506 89.4707 103.889C89.9395 104.271 90.1738 104.854 90.1738 105.635V110H88.9258L88.5801 109.109H88.5332C88.3457 109.344 88.1543 109.535 87.959 109.684C87.7637 109.832 87.5391 109.941 87.2852 110.012C87.0312 110.082 86.7227 110.117 86.3594 110.117C85.9727 110.117 85.625 110.043 85.3164 109.895C85.0117 109.746 84.7715 109.52 84.5957 109.215C84.4199 108.906 84.332 108.516 84.332 108.043C84.332 107.348 84.5762 106.836 85.0645 106.508C85.5527 106.176 86.2852 105.992 87.2617 105.957L88.3984 105.922V105.635C88.3984 105.291 88.3086 105.039 88.1289 104.879C87.9492 104.719 87.6992 104.639 87.3789 104.639C87.0625 104.639 86.752 104.684 86.4473 104.773C86.1426 104.863 85.8379 104.977 85.5332 105.113L84.9414 103.906C85.2891 103.723 85.6777 103.578 86.1074 103.473C86.541 103.367 86.9883 103.314 87.4492 103.314ZM88.3984 106.965L87.707 106.988C87.1289 107.004 86.7266 107.107 86.5 107.299C86.2773 107.49 86.166 107.742 86.166 108.055C86.166 108.328 86.2461 108.523 86.4062 108.641C86.5664 108.754 86.7754 108.811 87.0332 108.811C87.416 108.811 87.7383 108.697 88 108.471C88.2656 108.244 88.3984 107.922 88.3984 107.504V106.965ZM95.6641 103.326C96.4023 103.326 96.998 103.613 97.4512 104.188C97.9082 104.762 98.1367 105.604 98.1367 106.713C98.1367 107.455 98.0293 108.08 97.8145 108.588C97.5996 109.092 97.3027 109.473 96.9238 109.73C96.5449 109.988 96.1094 110.117 95.6172 110.117C95.3008 110.117 95.0293 110.078 94.8027 110C94.5762 109.918 94.3828 109.814 94.2227 109.689C94.0625 109.561 93.9238 109.424 93.8066 109.279H93.7129C93.7441 109.436 93.7676 109.596 93.7832 109.76C93.7988 109.924 93.8066 110.084 93.8066 110.24V112.883H92.0195V103.449H93.4727L93.7246 104.299H93.8066C93.9238 104.123 94.0664 103.961 94.2344 103.812C94.4023 103.664 94.6035 103.547 94.8379 103.461C95.0762 103.371 95.3516 103.326 95.6641 103.326ZM95.0898 104.756C94.7773 104.756 94.5293 104.82 94.3457 104.949C94.1621 105.078 94.0273 105.271 93.9414 105.529C93.8594 105.787 93.8145 106.113 93.8066 106.508V106.701C93.8066 107.123 93.8457 107.48 93.9238 107.773C94.0059 108.066 94.1406 108.289 94.3281 108.441C94.5195 108.594 94.7812 108.67 95.1133 108.67C95.3867 108.67 95.6113 108.594 95.7871 108.441C95.9629 108.289 96.0938 108.066 96.1797 107.773C96.2695 107.477 96.3145 107.115 96.3145 106.689C96.3145 106.049 96.2148 105.566 96.0156 105.242C95.8164 104.918 95.5078 104.756 95.0898 104.756ZM105.033 104.791H102.889V110H101.102V104.791H98.9512V103.449H105.033V104.791ZM108.045 103.449V105.969H110.541V103.449H112.328V110H110.541V107.299H108.045V110H106.258V103.449H108.045ZM116.904 103.326C117.51 103.326 118.031 103.443 118.469 103.678C118.906 103.908 119.244 104.244 119.482 104.686C119.721 105.127 119.84 105.666 119.84 106.303V107.17H115.615C115.635 107.674 115.785 108.07 116.066 108.359C116.352 108.645 116.746 108.787 117.25 108.787C117.668 108.787 118.051 108.744 118.398 108.658C118.746 108.572 119.104 108.443 119.471 108.271V109.654C119.146 109.814 118.807 109.932 118.451 110.006C118.1 110.08 117.672 110.117 117.168 110.117C116.512 110.117 115.93 109.996 115.422 109.754C114.918 109.512 114.521 109.143 114.232 108.646C113.947 108.15 113.805 107.525 113.805 106.771C113.805 106.006 113.934 105.369 114.191 104.861C114.453 104.35 114.816 103.967 115.281 103.713C115.746 103.455 116.287 103.326 116.904 103.326ZM116.916 104.598C116.568 104.598 116.279 104.709 116.049 104.932C115.822 105.154 115.691 105.504 115.656 105.98H118.164C118.16 105.715 118.111 105.479 118.018 105.271C117.928 105.064 117.791 104.9 117.607 104.779C117.428 104.658 117.197 104.598 116.916 104.598ZM124.938 103.326C125.676 103.326 126.271 103.613 126.725 104.188C127.182 104.762 127.41 105.604 127.41 106.713C127.41 107.455 127.303 108.08 127.088 108.588C126.873 109.092 126.576 109.473 126.197 109.73C125.818 109.988 125.383 110.117 124.891 110.117C124.574 110.117 124.303 110.078 124.076 110C123.85 109.918 123.656 109.814 123.496 109.689C123.336 109.561 123.197 109.424 123.08 109.279H122.986C123.018 109.436 123.041 109.596 123.057 109.76C123.072 109.924 123.08 110.084 123.08 110.24V112.883H121.293V103.449H122.746L122.998 104.299H123.08C123.197 104.123 123.34 103.961 123.508 103.812C123.676 103.664 123.877 103.547 124.111 103.461C124.35 103.371 124.625 103.326 124.938 103.326ZM124.363 104.756C124.051 104.756 123.803 104.82 123.619 104.949C123.436 105.078 123.301 105.271 123.215 105.529C123.133 105.787 123.088 106.113 123.08 106.508V106.701C123.08 107.123 123.119 107.48 123.197 107.773C123.279 108.066 123.414 108.289 123.602 108.441C123.793 108.594 124.055 108.67 124.387 108.67C124.66 108.67 124.885 108.594 125.061 108.441C125.236 108.289 125.367 108.066 125.453 107.773C125.543 107.477 125.588 107.115 125.588 106.689C125.588 106.049 125.488 105.566 125.289 105.242C125.09 104.918 124.781 104.756 124.363 104.756Z" fill="#87909F"/>
<path d="M96.7832 74H94.6709V68.2168C94.6709 68.0573 94.6732 67.8613 94.6777 67.6289C94.6823 67.3919 94.6891 67.1504 94.6982 66.9043C94.7074 66.6536 94.7165 66.4281 94.7256 66.2275C94.6755 66.2868 94.5729 66.3893 94.418 66.5352C94.2676 66.6764 94.1263 66.804 93.9941 66.918L92.8457 67.8408L91.8271 66.5693L95.0469 64.0059H96.7832V74ZM106.504 69.0029C106.504 69.8096 106.44 70.5296 106.312 71.1631C106.189 71.7965 105.989 72.3343 105.711 72.7764C105.438 73.2184 105.077 73.5557 104.631 73.7881C104.184 74.0205 103.642 74.1367 103.004 74.1367C102.202 74.1367 101.543 73.9339 101.028 73.5283C100.513 73.1182 100.133 72.5303 99.8867 71.7646C99.6406 70.9945 99.5176 70.0739 99.5176 69.0029C99.5176 67.9229 99.6292 67 99.8525 66.2344C100.08 65.4642 100.45 64.874 100.96 64.4639C101.47 64.0537 102.152 63.8486 103.004 63.8486C103.801 63.8486 104.458 64.0537 104.973 64.4639C105.492 64.8695 105.877 65.4574 106.128 66.2275C106.379 66.9932 106.504 67.9183 106.504 69.0029ZM101.616 69.0029C101.616 69.764 101.657 70.3997 101.739 70.9102C101.826 71.416 101.969 71.7965 102.17 72.0518C102.37 72.307 102.648 72.4346 103.004 72.4346C103.355 72.4346 103.631 72.3092 103.831 72.0586C104.036 71.8034 104.182 71.4229 104.269 70.917C104.355 70.4066 104.398 69.7686 104.398 69.0029C104.398 68.2419 104.355 67.6061 104.269 67.0957C104.182 66.5853 104.036 66.2025 103.831 65.9473C103.631 65.6875 103.355 65.5576 103.004 65.5576C102.648 65.5576 102.37 65.6875 102.17 65.9473C101.969 66.2025 101.826 66.5853 101.739 67.0957C101.657 67.6061 101.616 68.2419 101.616 69.0029ZM109.812 63.8623C110.596 63.8623 111.191 64.1357 111.597 64.6826C112.002 65.2295 112.205 65.9974 112.205 66.9863C112.205 67.9753 112.014 68.7477 111.631 69.3037C111.248 69.8597 110.642 70.1377 109.812 70.1377C109.042 70.1377 108.457 69.8597 108.056 69.3037C107.655 68.7477 107.454 67.9753 107.454 66.9863C107.454 65.9974 107.641 65.2295 108.015 64.6826C108.393 64.1357 108.992 63.8623 109.812 63.8623ZM109.826 65.291C109.603 65.291 109.439 65.4323 109.334 65.7148C109.229 65.9974 109.177 66.4258 109.177 67C109.177 67.5742 109.229 68.0049 109.334 68.292C109.439 68.5791 109.603 68.7227 109.826 68.7227C110.049 68.7227 110.214 68.5814 110.318 68.2988C110.428 68.0117 110.482 67.5788 110.482 67C110.482 66.4258 110.428 65.9974 110.318 65.7148C110.214 65.4323 110.049 65.291 109.826 65.291ZM116.908 64.0059L111.364 74H109.724L115.268 64.0059H116.908ZM116.812 67.8545C117.596 67.8545 118.191 68.1279 118.597 68.6748C119.002 69.2217 119.205 69.9896 119.205 70.9785C119.205 71.9629 119.014 72.7331 118.631 73.2891C118.248 73.8451 117.642 74.123 116.812 74.123C116.042 74.123 115.457 73.8451 115.056 73.2891C114.655 72.7331 114.454 71.9629 114.454 70.9785C114.454 69.9896 114.641 69.2217 115.015 68.6748C115.393 68.1279 115.992 67.8545 116.812 67.8545ZM116.826 69.2832C116.603 69.2832 116.439 69.4245 116.334 69.707C116.229 69.9896 116.177 70.418 116.177 70.9922C116.177 71.5664 116.229 71.9971 116.334 72.2842C116.439 72.5713 116.603 72.7148 116.826 72.7148C117.049 72.7148 117.214 72.5736 117.318 72.291C117.428 72.0039 117.482 71.571 117.482 70.9922C117.482 70.418 117.428 69.9896 117.318 69.707C117.214 69.4245 117.049 69.2832 116.826 69.2832Z" fill="#F2F4F6"/>
<rect x="51.5" y="49.5" width="80" height="39" rx="7.5" stroke="#5020F5"/>
<path d="M76.5997 75.4001L76.5999 73.0003C76.6 71.6747 75.5255 70.6001 74.1999 70.6001H67.8004C66.475 70.6001 65.4006 71.6744 65.4004 72.9998L65.4001 75.4001M73.4001 65.0001C73.4001 66.3256 72.3256 67.4001 71.0001 67.4001C69.6747 67.4001 68.6001 66.3256 68.6001 65.0001C68.6001 63.6746 69.6747 62.6001 71.0001 62.6001C72.3256 62.6001 73.4001 63.6746 73.4001 65.0001Z" stroke="#5020F5" stroke-width="2" stroke-linecap="round" stroke-linejoin="round"/>
<path d="M16.7734 231.434C17.8789 231.434 18.6855 231.672 19.1934 232.148C19.7012 232.621 19.9551 233.273 19.9551 234.105C19.9551 234.48 19.8984 234.84 19.7852 235.184C19.6719 235.523 19.4863 235.826 19.2285 236.092C18.9746 236.357 18.6348 236.568 18.209 236.725C17.7832 236.877 17.2578 236.953 16.6328 236.953H15.8535V240H14.0371V231.434H16.7734ZM16.6797 232.922H15.8535V235.465H16.4512C16.791 235.465 17.0859 235.42 17.3359 235.33C17.5859 235.24 17.7793 235.1 17.916 234.908C18.0527 234.717 18.1211 234.471 18.1211 234.17C18.1211 233.748 18.0039 233.436 17.7695 233.232C17.5352 233.025 17.1719 232.922 16.6797 232.922ZM24.1328 233.326C24.7383 233.326 25.2598 233.443 25.6973 233.678C26.1348 233.908 26.4727 234.244 26.7109 234.686C26.9492 235.127 27.0684 235.666 27.0684 236.303V237.17H22.8438C22.8633 237.674 23.0137 238.07 23.2949 238.359C23.5801 238.645 23.9746 238.787 24.4785 238.787C24.8965 238.787 25.2793 238.744 25.627 238.658C25.9746 238.572 26.332 238.443 26.6992 238.271V239.654C26.375 239.814 26.0352 239.932 25.6797 240.006C25.3281 240.08 24.9004 240.117 24.3965 240.117C23.7402 240.117 23.1582 239.996 22.6504 239.754C22.1465 239.512 21.75 239.143 21.4609 238.646C21.1758 238.15 21.0332 237.525 21.0332 236.771C21.0332 236.006 21.1621 235.369 21.4199 234.861C21.6816 234.35 22.0449 233.967 22.5098 233.713C22.9746 233.455 23.5156 233.326 24.1328 233.326ZM24.1445 234.598C23.7969 234.598 23.5078 234.709 23.2773 234.932C23.0508 235.154 22.9199 235.504 22.8848 235.98H25.3926C25.3887 235.715 25.3398 235.479 25.2461 235.271C25.1562 235.064 25.0195 234.9 24.8359 234.779C24.6562 234.658 24.4258 234.598 24.1445 234.598ZM33.3086 230.883V233.414C34.0664 233.477 34.7051 233.654 35.2246 233.947C35.7441 234.236 36.1387 234.619 36.4082 235.096C36.6777 235.568 36.8125 236.111 36.8125 236.725C36.8125 237.334 36.6816 237.877 36.4199 238.354C36.1621 238.83 35.7734 239.215 35.2539 239.508C34.7383 239.801 34.0898 239.98 33.3086 240.047V242.883H31.6504V240.047C30.8965 239.977 30.2578 239.795 29.7344 239.502C29.2109 239.205 28.8105 238.82 28.5332 238.348C28.2598 237.871 28.123 237.33 28.123 236.725C28.123 236.1 28.25 235.549 28.5039 235.072C28.7578 234.592 29.1445 234.209 29.6641 233.924C30.1875 233.635 30.8496 233.465 31.6504 233.414V230.883H33.3086ZM31.6504 234.756C31.3027 234.803 31.002 234.916 30.748 235.096C30.498 235.275 30.3047 235.506 30.168 235.787C30.0312 236.064 29.9629 236.377 29.9629 236.725C29.9629 237.08 30.0273 237.398 30.1562 237.68C30.2891 237.957 30.4805 238.184 30.7305 238.359C30.9844 238.535 31.291 238.646 31.6504 238.693V234.756ZM33.3086 234.779V238.693C33.6641 238.646 33.9648 238.535 34.2109 238.359C34.4609 238.184 34.6504 237.957 34.7793 237.68C34.9121 237.398 34.9785 237.08 34.9785 236.725C34.9785 236.201 34.8281 235.764 34.5273 235.412C34.2305 235.057 33.8242 234.846 33.3086 234.779ZM40.9961 233.326C41.6016 233.326 42.123 233.443 42.5605 233.678C42.998 233.908 43.3359 234.244 43.5742 234.686C43.8125 235.127 43.9316 235.666 43.9316 236.303V237.17H39.707C39.7266 237.674 39.877 238.07 40.1582 238.359C40.4434 238.645 40.8379 238.787 41.3418 238.787C41.7598 238.787 42.1426 238.744 42.4902 238.658C42.8379 238.572 43.1953 238.443 43.5625 238.271V239.654C43.2383 239.814 42.8984 239.932 42.543 240.006C42.1914 240.08 41.7637 240.117 41.2598 240.117C40.6035 240.117 40.0215 239.996 39.5137 239.754C39.0098 239.512 38.6133 239.143 38.3242 238.646C38.0391 238.15 37.8965 237.525 37.8965 236.771C37.8965 236.006 38.0254 235.369 38.2832 234.861C38.5449 234.35 38.9082 233.967 39.373 233.713C39.8379 233.455 40.3789 233.326 40.9961 233.326ZM41.0078 234.598C40.6602 234.598 40.3711 234.709 40.1406 234.932C39.9141 235.154 39.7832 235.504 39.748 235.98H42.2559C42.252 235.715 42.2031 235.479 42.1094 235.271C42.0195 235.064 41.8828 234.9 41.6992 234.779C41.5195 234.658 41.2891 234.598 41.0078 234.598ZM49.0293 233.326C49.7676 233.326 50.3633 233.613 50.8164 234.188C51.2734 234.762 51.502 235.604 51.502 236.713C51.502 237.455 51.3945 238.08 51.1797 238.588C50.9648 239.092 50.668 239.473 50.2891 239.73C49.9102 239.988 49.4746 240.117 48.9824 240.117C48.666 240.117 48.3945 240.078 48.168 240C47.9414 239.918 47.748 239.814 47.5879 239.689C47.4277 239.561 47.2891 239.424 47.1719 239.279H47.0781C47.1094 239.436 47.1328 239.596 47.1484 239.76C47.1641 239.924 47.1719 240.084 47.1719 240.24V242.883H45.3848V233.449H46.8379L47.0898 234.299H47.1719C47.2891 234.123 47.4316 233.961 47.5996 233.812C47.7676 233.664 47.9688 233.547 48.2031 233.461C48.4414 233.371 48.7168 233.326 49.0293 233.326ZM48.4551 234.756C48.1426 234.756 47.8945 234.82 47.7109 234.949C47.5273 235.078 47.3926 235.271 47.3066 235.529C47.2246 235.787 47.1797 236.113 47.1719 236.508V236.701C47.1719 237.123 47.2109 237.48 47.2891 237.773C47.3711 238.066 47.5059 238.289 47.6934 238.441C47.8848 238.594 48.1465 238.67 48.4785 238.67C48.752 238.67 48.9766 238.594 49.1523 238.441C49.3281 238.289 49.459 238.066 49.5449 237.773C49.6348 237.477 49.6797 237.115 49.6797 236.689C49.6797 236.049 49.5801 235.566 49.3809 235.242C49.1816 234.918 48.873 234.756 48.4551 234.756ZM55.6621 233.314C56.541 233.314 57.2148 233.506 57.6836 233.889C58.1523 234.271 58.3867 234.854 58.3867 235.635V240H57.1387L56.793 239.109H56.7461C56.5586 239.344 56.3672 239.535 56.1719 239.684C55.9766 239.832 55.752 239.941 55.498 240.012C55.2441 240.082 54.9355 240.117 54.5723 240.117C54.1855 240.117 53.8379 240.043 53.5293 239.895C53.2246 239.746 52.9844 239.52 52.8086 239.215C52.6328 238.906 52.5449 238.516 52.5449 238.043C52.5449 237.348 52.7891 236.836 53.2773 236.508C53.7656 236.176 54.498 235.992 55.4746 235.957L56.6113 235.922V235.635C56.6113 235.291 56.5215 235.039 56.3418 234.879C56.1621 234.719 55.9121 234.639 55.5918 234.639C55.2754 234.639 54.9648 234.684 54.6602 234.773C54.3555 234.863 54.0508 234.977 53.7461 235.113L53.1543 233.906C53.502 233.723 53.8906 233.578 54.3203 233.473C54.7539 233.367 55.2012 233.314 55.6621 233.314ZM56.6113 236.965L55.9199 236.988C55.3418 237.004 54.9395 237.107 54.7129 237.299C54.4902 237.49 54.3789 237.742 54.3789 238.055C54.3789 238.328 54.459 238.523 54.6191 238.641C54.7793 238.754 54.9883 238.811 55.2461 238.811C55.6289 238.811 55.9512 238.697 56.2129 238.471C56.4785 238.244 56.6113 237.922 56.6113 237.504V236.965ZM66.0977 240H64.3105V234.791H62.6641C62.582 235.752 62.4844 236.57 62.3711 237.246C62.2578 237.922 62.1133 238.473 61.9375 238.898C61.7617 239.32 61.543 239.629 61.2812 239.824C61.0195 240.02 60.6973 240.117 60.3145 240.117C60.1035 240.117 59.9141 240.102 59.7461 240.07C59.582 240.039 59.4316 239.992 59.2949 239.93V238.5C59.3809 238.535 59.4727 238.564 59.5703 238.588C59.668 238.607 59.7676 238.617 59.8691 238.617C59.9824 238.617 60.0898 238.572 60.1914 238.482C60.293 238.393 60.3887 238.238 60.4785 238.02C60.5684 237.797 60.6523 237.49 60.7305 237.1C60.8125 236.709 60.8867 236.215 60.9531 235.617C61.0195 235.02 61.082 234.297 61.1406 233.449H66.0977V240Z" fill="#87909F"/>
<rect x="20.5" y="179.5" width="39" height="39" rx="7.5" stroke="#46B75B"/>
<path d="M45.5997 205.4L45.5999 203C45.6 201.675 44.5255 200.6 43.1999 200.6H36.8004C35.475 200.6 34.4006 201.674 34.4004 203L34.4001 205.4M42.4001 195C42.4001 196.326 41.3256 197.4 40.0001 197.4C38.6747 197.4 37.6001 196.326 37.6001 195C37.6001 193.675 38.6747 192.6 40.0001 192.6C41.3256 192.6 42.4001 193.675 42.4001 195Z" stroke="#46B75B" stroke-width="2" stroke-linecap="round" stroke-linejoin="round"/>
<path d="M120.773 231.434C121.879 231.434 122.686 231.672 123.193 232.148C123.701 232.621 123.955 233.273 123.955 234.105C123.955 234.48 123.898 234.84 123.785 235.184C123.672 235.523 123.486 235.826 123.229 236.092C122.975 236.357 122.635 236.568 122.209 236.725C121.783 236.877 121.258 236.953 120.633 236.953H119.854V240H118.037V231.434H120.773ZM120.68 232.922H119.854V235.465H120.451C120.791 235.465 121.086 235.42 121.336 235.33C121.586 235.24 121.779 235.1 121.916 234.908C122.053 234.717 122.121 234.471 122.121 234.17C122.121 233.748 122.004 233.436 121.77 233.232C121.535 233.025 121.172 232.922 120.68 232.922ZM128.133 233.326C128.738 233.326 129.26 233.443 129.697 233.678C130.135 233.908 130.473 234.244 130.711 234.686C130.949 235.127 131.068 235.666 131.068 236.303V237.17H126.844C126.863 237.674 127.014 238.07 127.295 238.359C127.58 238.645 127.975 238.787 128.479 238.787C128.896 238.787 129.279 238.744 129.627 238.658C129.975 238.572 130.332 238.443 130.699 238.271V239.654C130.375 239.814 130.035 239.932 129.68 240.006C129.328 240.08 128.9 240.117 128.396 240.117C127.74 240.117 127.158 239.996 126.65 239.754C126.146 239.512 125.75 239.143 125.461 238.646C125.176 238.15 125.033 237.525 125.033 236.771C125.033 236.006 125.162 235.369 125.42 234.861C125.682 234.35 126.045 233.967 126.51 233.713C126.975 233.455 127.516 233.326 128.133 233.326ZM128.145 234.598C127.797 234.598 127.508 234.709 127.277 234.932C127.051 235.154 126.92 235.504 126.885 235.98H129.393C129.389 235.715 129.34 235.479 129.246 235.271C129.156 235.064 129.02 234.9 128.836 234.779C128.656 234.658 128.426 234.598 128.145 234.598ZM137.309 230.883V233.414C138.066 233.477 138.705 233.654 139.225 233.947C139.744 234.236 140.139 234.619 140.408 235.096C140.678 235.568 140.812 236.111 140.812 236.725C140.812 237.334 140.682 237.877 140.42 238.354C140.162 238.83 139.773 239.215 139.254 239.508C138.738 239.801 138.09 239.98 137.309 240.047V242.883H135.65V240.047C134.896 239.977 134.258 239.795 133.734 239.502C133.211 239.205 132.811 238.82 132.533 238.348C132.26 237.871 132.123 237.33 132.123 236.725C132.123 236.1 132.25 235.549 132.504 235.072C132.758 234.592 133.145 234.209 133.664 233.924C134.188 233.635 134.85 233.465 135.65 233.414V230.883H137.309ZM135.65 234.756C135.303 234.803 135.002 234.916 134.748 235.096C134.498 235.275 134.305 235.506 134.168 235.787C134.031 236.064 133.963 236.377 133.963 236.725C133.963 237.08 134.027 237.398 134.156 237.68C134.289 237.957 134.48 238.184 134.73 238.359C134.984 238.535 135.291 238.646 135.65 238.693V234.756ZM137.309 234.779V238.693C137.664 238.646 137.965 238.535 138.211 238.359C138.461 238.184 138.65 237.957 138.779 237.68C138.912 237.398 138.979 237.08 138.979 236.725C138.979 236.201 138.828 235.764 138.527 235.412C138.23 235.057 137.824 234.846 137.309 234.779ZM144.996 233.326C145.602 233.326 146.123 233.443 146.561 233.678C146.998 233.908 147.336 234.244 147.574 234.686C147.812 235.127 147.932 235.666 147.932 236.303V237.17H143.707C143.727 237.674 143.877 238.07 144.158 238.359C144.443 238.645 144.838 238.787 145.342 238.787C145.76 238.787 146.143 238.744 146.49 238.658C146.838 238.572 147.195 238.443 147.562 238.271V239.654C147.238 239.814 146.898 239.932 146.543 240.006C146.191 240.08 145.764 240.117 145.26 240.117C144.604 240.117 144.021 239.996 143.514 239.754C143.01 239.512 142.613 239.143 142.324 238.646C142.039 238.15 141.896 237.525 141.896 236.771C141.896 236.006 142.025 235.369 142.283 234.861C142.545 234.35 142.908 233.967 143.373 233.713C143.838 233.455 144.379 233.326 144.996 233.326ZM145.008 234.598C144.66 234.598 144.371 234.709 144.141 234.932C143.914 235.154 143.783 235.504 143.748 235.98H146.256C146.252 235.715 146.203 235.479 146.109 235.271C146.02 235.064 145.883 234.9 145.699 234.779C145.52 234.658 145.289 234.598 145.008 234.598ZM153.029 233.326C153.768 233.326 154.363 233.613 154.816 234.188C155.273 234.762 155.502 235.604 155.502 236.713C155.502 237.455 155.395 238.08 155.18 238.588C154.965 239.092 154.668 239.473 154.289 239.73C153.91 239.988 153.475 240.117 152.982 240.117C152.666 240.117 152.395 240.078 152.168 240C151.941 239.918 151.748 239.814 151.588 239.689C151.428 239.561 151.289 239.424 151.172 239.279H151.078C151.109 239.436 151.133 239.596 151.148 239.76C151.164 239.924 151.172 240.084 151.172 240.24V242.883H149.385V233.449H150.838L151.09 234.299H151.172C151.289 234.123 151.432 233.961 151.6 233.812C151.768 233.664 151.969 233.547 152.203 233.461C152.441 233.371 152.717 233.326 153.029 233.326ZM152.455 234.756C152.143 234.756 151.895 234.82 151.711 234.949C151.527 235.078 151.393 235.271 151.307 235.529C151.225 235.787 151.18 236.113 151.172 236.508V236.701C151.172 237.123 151.211 237.48 151.289 237.773C151.371 238.066 151.506 238.289 151.693 238.441C151.885 238.594 152.146 238.67 152.479 238.67C152.752 238.67 152.977 238.594 153.152 238.441C153.328 238.289 153.459 238.066 153.545 237.773C153.635 237.477 153.68 237.115 153.68 236.689C153.68 236.049 153.58 235.566 153.381 235.242C153.182 234.918 152.873 234.756 152.455 234.756ZM159.662 233.314C160.541 233.314 161.215 233.506 161.684 233.889C162.152 234.271 162.387 234.854 162.387 235.635V240H161.139L160.793 239.109H160.746C160.559 239.344 160.367 239.535 160.172 239.684C159.977 239.832 159.752 239.941 159.498 240.012C159.244 240.082 158.936 240.117 158.572 240.117C158.186 240.117 157.838 240.043 157.529 239.895C157.225 239.746 156.984 239.52 156.809 239.215C156.633 238.906 156.545 238.516 156.545 238.043C156.545 237.348 156.789 236.836 157.277 236.508C157.766 236.176 158.498 235.992 159.475 235.957L160.611 235.922V235.635C160.611 235.291 160.521 235.039 160.342 234.879C160.162 234.719 159.912 234.639 159.592 234.639C159.275 234.639 158.965 234.684 158.66 234.773C158.355 234.863 158.051 234.977 157.746 235.113L157.154 233.906C157.502 233.723 157.891 233.578 158.32 233.473C158.754 233.367 159.201 233.314 159.662 233.314ZM160.611 236.965L159.92 236.988C159.342 237.004 158.939 237.107 158.713 237.299C158.49 237.49 158.379 237.742 158.379 238.055C158.379 238.328 158.459 238.523 158.619 238.641C158.779 238.754 158.988 238.811 159.246 238.811C159.629 238.811 159.951 238.697 160.213 238.471C160.479 238.244 160.611 237.922 160.611 237.504V236.965ZM170.098 240H168.311V234.791H166.664C166.582 235.752 166.484 236.57 166.371 237.246C166.258 237.922 166.113 238.473 165.938 238.898C165.762 239.32 165.543 239.629 165.281 239.824C165.02 240.02 164.697 240.117 164.314 240.117C164.104 240.117 163.914 240.102 163.746 240.07C163.582 240.039 163.432 239.992 163.295 239.93V238.5C163.381 238.535 163.473 238.564 163.57 238.588C163.668 238.607 163.768 238.617 163.869 238.617C163.982 238.617 164.09 238.572 164.191 238.482C164.293 238.393 164.389 238.238 164.479 238.02C164.568 237.797 164.652 237.49 164.73 237.1C164.812 236.709 164.887 236.215 164.953 235.617C165.02 235.02 165.082 234.297 165.141 233.449H170.098V240Z" fill="#87909F"/>
<rect x="124.5" y="179.5" width="39" height="39" rx="7.5" stroke="#46B75B"/>
<path d="M149.6 205.4L149.6 203C149.6 201.675 148.525 200.6 147.2 200.6H140.8C139.475 200.6 138.401 201.674 138.4 203L138.4 205.4M146.4 195C146.4 196.326 145.326 197.4 144 197.4C142.675 197.4 141.6 196.326 141.6 195C141.6 193.675 142.675 192.6 144 192.6C145.326 192.6 146.4 193.675 146.4 195Z" stroke="#46B75B" stroke-width="2" stroke-linecap="round" stroke-linejoin="round"/>
<path d="M206 33L206 17L148.5 17M91 33L91 17L148.5 17M148.5 17L148.5 -2.5134e-06" stroke="#6D6E73" stroke-dasharray="4 4"/>
<path d="M144 163L144 147L92 147M40 163L40 147L92 147M92 147L92 130" stroke="#6D6E73" stroke-dasharray="4 4"/>
</svg>
