<svg width="275" height="198" viewBox="0 0 275 198" fill="none" xmlns="http://www.w3.org/2000/svg">
<path d="M33 20H17V68.5M33 117H17V68.5M17 68.5H0" stroke="#6D6E73" stroke-dasharray="4 4"/>
<path d="M179 68H163V116.5M179 165H163V116.5M163 116.5H146" stroke="#6D6E73" stroke-dasharray="4 4"/>
<path d="M65.7734 52.4336C66.8789 52.4336 67.6855 52.6719 68.1934 53.1484C68.7012 53.6211 68.9551 54.2734 68.9551 55.1055C68.9551 55.4805 68.8984 55.8398 68.7852 56.1836C68.6719 56.5234 68.4863 56.8262 68.2285 57.0918C67.9746 57.3574 67.6348 57.5684 67.209 57.7246C66.7832 57.877 66.2578 57.9531 65.6328 57.9531H64.8535V61H63.0371V52.4336H65.7734ZM65.6797 53.9219H64.8535V56.4648H65.4512C65.791 56.4648 66.0859 56.4199 66.3359 56.3301C66.5859 56.2402 66.7793 56.0996 66.916 55.9082C67.0527 55.7168 67.1211 55.4707 67.1211 55.1699C67.1211 54.748 67.0039 54.4355 66.7695 54.2324C66.5352 54.0254 66.1719 53.9219 65.6797 53.9219ZM73.1328 54.3262C73.7383 54.3262 74.2598 54.4434 74.6973 54.6777C75.1348 54.9082 75.4727 55.2441 75.7109 55.6855C75.9492 56.127 76.0684 56.666 76.0684 57.3027V58.1699H71.8438C71.8633 58.6738 72.0137 59.0703 72.2949 59.3594C72.5801 59.6445 72.9746 59.7871 73.4785 59.7871C73.8965 59.7871 74.2793 59.7441 74.627 59.6582C74.9746 59.5723 75.332 59.4434 75.6992 59.2715V60.6543C75.375 60.8145 75.0352 60.9316 74.6797 61.0059C74.3281 61.0801 73.9004 61.1172 73.3965 61.1172C72.7402 61.1172 72.1582 60.9961 71.6504 60.7539C71.1465 60.5117 70.75 60.1426 70.4609 59.6465C70.1758 59.1504 70.0332 58.5254 70.0332 57.7715C70.0332 57.0059 70.1621 56.3691 70.4199 55.8613C70.6816 55.3496 71.0449 54.9668 71.5098 54.7129C71.9746 54.4551 72.5156 54.3262 73.1328 54.3262ZM73.1445 55.5977C72.7969 55.5977 72.5078 55.709 72.2773 55.9316C72.0508 56.1543 71.9199 56.5039 71.8848 56.9805H74.3926C74.3887 56.7148 74.3398 56.4785 74.2461 56.2715C74.1562 56.0645 74.0195 55.9004 73.8359 55.7793C73.6562 55.6582 73.4258 55.5977 73.1445 55.5977ZM82.3086 51.8828V54.4141C83.0664 54.4766 83.7051 54.6543 84.2246 54.9473C84.7441 55.2363 85.1387 55.6191 85.4082 56.0957C85.6777 56.5684 85.8125 57.1113 85.8125 57.7246C85.8125 58.334 85.6816 58.877 85.4199 59.3535C85.1621 59.8301 84.7734 60.2148 84.2539 60.5078C83.7383 60.8008 83.0898 60.9805 82.3086 61.0469V63.8828H80.6504V61.0469C79.8965 60.9766 79.2578 60.7949 78.7344 60.502C78.2109 60.2051 77.8105 59.8203 77.5332 59.3477C77.2598 58.8711 77.123 58.3301 77.123 57.7246C77.123 57.0996 77.25 56.5488 77.5039 56.0723C77.7578 55.5918 78.1445 55.209 78.6641 54.9238C79.1875 54.6348 79.8496 54.4648 80.6504 54.4141V51.8828H82.3086ZM80.6504 55.7559C80.3027 55.8027 80.002 55.916 79.748 56.0957C79.498 56.2754 79.3047 56.5059 79.168 56.7871C79.0312 57.0645 78.9629 57.377 78.9629 57.7246C78.9629 58.0801 79.0273 58.3984 79.1562 58.6797C79.2891 58.957 79.4805 59.1836 79.7305 59.3594C79.9844 59.5352 80.291 59.6465 80.6504 59.6934V55.7559ZM82.3086 55.7793V59.6934C82.6641 59.6465 82.9648 59.5352 83.2109 59.3594C83.4609 59.1836 83.6504 58.957 83.7793 58.6797C83.9121 58.3984 83.9785 58.0801 83.9785 57.7246C83.9785 57.2012 83.8281 56.7637 83.5273 56.4121C83.2305 56.0566 82.8242 55.8457 82.3086 55.7793ZM89.9961 54.3262C90.6016 54.3262 91.123 54.4434 91.5605 54.6777C91.998 54.9082 92.3359 55.2441 92.5742 55.6855C92.8125 56.127 92.9316 56.666 92.9316 57.3027V58.1699H88.707C88.7266 58.6738 88.877 59.0703 89.1582 59.3594C89.4434 59.6445 89.8379 59.7871 90.3418 59.7871C90.7598 59.7871 91.1426 59.7441 91.4902 59.6582C91.8379 59.5723 92.1953 59.4434 92.5625 59.2715V60.6543C92.2383 60.8145 91.8984 60.9316 91.543 61.0059C91.1914 61.0801 90.7637 61.1172 90.2598 61.1172C89.6035 61.1172 89.0215 60.9961 88.5137 60.7539C88.0098 60.5117 87.6133 60.1426 87.3242 59.6465C87.0391 59.1504 86.8965 58.5254 86.8965 57.7715C86.8965 57.0059 87.0254 56.3691 87.2832 55.8613C87.5449 55.3496 87.9082 54.9668 88.373 54.7129C88.8379 54.4551 89.3789 54.3262 89.9961 54.3262ZM90.0078 55.5977C89.6602 55.5977 89.3711 55.709 89.1406 55.9316C88.9141 56.1543 88.7832 56.5039 88.748 56.9805H91.2559C91.252 56.7148 91.2031 56.4785 91.1094 56.2715C91.0195 56.0645 90.8828 55.9004 90.6992 55.7793C90.5195 55.6582 90.2891 55.5977 90.0078 55.5977ZM98.0293 54.3262C98.7676 54.3262 99.3633 54.6133 99.8164 55.1875C100.273 55.7617 100.502 56.6035 100.502 57.7129C100.502 58.4551 100.395 59.0801 100.18 59.5879C99.9648 60.0918 99.668 60.4727 99.2891 60.7305C98.9102 60.9883 98.4746 61.1172 97.9824 61.1172C97.666 61.1172 97.3945 61.0781 97.168 61C96.9414 60.918 96.748 60.8145 96.5879 60.6895C96.4277 60.5605 96.2891 60.4238 96.1719 60.2793H96.0781C96.1094 60.4355 96.1328 60.5957 96.1484 60.7598C96.1641 60.9238 96.1719 61.084 96.1719 61.2402V63.8828H94.3848V54.4492H95.8379L96.0898 55.2988H96.1719C96.2891 55.123 96.4316 54.9609 96.5996 54.8125C96.7676 54.6641 96.9688 54.5469 97.2031 54.4609C97.4414 54.3711 97.7168 54.3262 98.0293 54.3262ZM97.4551 55.7559C97.1426 55.7559 96.8945 55.8203 96.7109 55.9492C96.5273 56.0781 96.3926 56.2715 96.3066 56.5293C96.2246 56.7871 96.1797 57.1133 96.1719 57.5078V57.7012C96.1719 58.123 96.2109 58.4805 96.2891 58.7734C96.3711 59.0664 96.5059 59.2891 96.6934 59.4414C96.8848 59.5938 97.1465 59.6699 97.4785 59.6699C97.752 59.6699 97.9766 59.5938 98.1523 59.4414C98.3281 59.2891 98.459 59.0664 98.5449 58.7734C98.6348 58.4766 98.6797 58.1152 98.6797 57.6895C98.6797 57.0488 98.5801 56.5664 98.3809 56.2422C98.1816 55.918 97.873 55.7559 97.4551 55.7559ZM104.662 54.3145C105.541 54.3145 106.215 54.5059 106.684 54.8887C107.152 55.2715 107.387 55.8535 107.387 56.6348V61H106.139L105.793 60.1094H105.746C105.559 60.3438 105.367 60.5352 105.172 60.6836C104.977 60.832 104.752 60.9414 104.498 61.0117C104.244 61.082 103.936 61.1172 103.572 61.1172C103.186 61.1172 102.838 61.043 102.529 60.8945C102.225 60.7461 101.984 60.5195 101.809 60.2148C101.633 59.9062 101.545 59.5156 101.545 59.043C101.545 58.3477 101.789 57.8359 102.277 57.5078C102.766 57.1758 103.498 56.9922 104.475 56.957L105.611 56.9219V56.6348C105.611 56.291 105.521 56.0391 105.342 55.8789C105.162 55.7188 104.912 55.6387 104.592 55.6387C104.275 55.6387 103.965 55.6836 103.66 55.7734C103.355 55.8633 103.051 55.9766 102.746 56.1133L102.154 54.9062C102.502 54.7227 102.891 54.5781 103.32 54.4727C103.754 54.3672 104.201 54.3145 104.662 54.3145ZM105.611 57.9648L104.92 57.9883C104.342 58.0039 103.939 58.1074 103.713 58.2988C103.49 58.4902 103.379 58.7422 103.379 59.0547C103.379 59.3281 103.459 59.5234 103.619 59.6406C103.779 59.7539 103.988 59.8105 104.246 59.8105C104.629 59.8105 104.951 59.6973 105.213 59.4707C105.479 59.2441 105.611 58.9219 105.611 58.5039V57.9648ZM115.098 61H113.311V55.791H111.664C111.582 56.752 111.484 57.5703 111.371 58.2461C111.258 58.9219 111.113 59.4727 110.938 59.8984C110.762 60.3203 110.543 60.6289 110.281 60.8242C110.02 61.0195 109.697 61.1172 109.314 61.1172C109.104 61.1172 108.914 61.1016 108.746 61.0703C108.582 61.0391 108.432 60.9922 108.295 60.9297V59.5C108.381 59.5352 108.473 59.5645 108.57 59.5879C108.668 59.6074 108.768 59.6172 108.869 59.6172C108.982 59.6172 109.09 59.5723 109.191 59.4824C109.293 59.3926 109.389 59.2383 109.479 59.0195C109.568 58.7969 109.652 58.4902 109.73 58.0996C109.812 57.709 109.887 57.2148 109.953 56.6172C110.02 56.0195 110.082 55.2969 110.141 54.4492H115.098V61Z" fill="#87909F"/>
<path d="M93.1973 18.6152C93.8079 18.6152 94.3503 18.7314 94.8242 18.9639C95.3027 19.1963 95.6787 19.5381 95.9521 19.9893C96.2256 20.4404 96.3623 20.9964 96.3623 21.6572C96.3623 22.3773 96.2119 22.9993 95.9111 23.5234C95.6149 24.043 95.1706 24.4417 94.5781 24.7197C93.9902 24.9977 93.2565 25.1367 92.377 25.1367C91.8529 25.1367 91.3584 25.0911 90.8936 25C90.4333 24.9134 90.0299 24.779 89.6836 24.5967V22.7715C90.0299 22.9538 90.4447 23.1087 90.9277 23.2363C91.4154 23.3594 91.8734 23.4209 92.3018 23.4209C92.721 23.4209 93.0742 23.3662 93.3613 23.2568C93.6484 23.1429 93.8649 22.9697 94.0107 22.7373C94.1611 22.5003 94.2363 22.1995 94.2363 21.835C94.2363 21.3473 94.0723 20.9736 93.7441 20.7139C93.416 20.4541 92.9124 20.3242 92.2334 20.3242C91.9736 20.3242 91.7025 20.3493 91.4199 20.3994C91.1419 20.4495 90.9095 20.4997 90.7227 20.5498L89.8818 20.0986L90.2578 15.0059H95.6787V16.7969H92.1104L91.9258 18.7588C92.0807 18.7269 92.2493 18.695 92.4316 18.6631C92.6139 18.6312 92.8691 18.6152 93.1973 18.6152ZM104.504 20.0029C104.504 20.8096 104.44 21.5296 104.312 22.1631C104.189 22.7965 103.989 23.3343 103.711 23.7764C103.438 24.2184 103.077 24.5557 102.631 24.7881C102.184 25.0205 101.642 25.1367 101.004 25.1367C100.202 25.1367 99.5433 24.9339 99.0283 24.5283C98.5133 24.1182 98.1328 23.5303 97.8867 22.7646C97.6406 21.9945 97.5176 21.0739 97.5176 20.0029C97.5176 18.9229 97.6292 18 97.8525 17.2344C98.0804 16.4642 98.4495 15.874 98.96 15.4639C99.4704 15.0537 100.152 14.8486 101.004 14.8486C101.801 14.8486 102.458 15.0537 102.973 15.4639C103.492 15.8695 103.877 16.4574 104.128 17.2275C104.379 17.9932 104.504 18.9183 104.504 20.0029ZM99.6162 20.0029C99.6162 20.764 99.6572 21.3997 99.7393 21.9102C99.8258 22.416 99.9694 22.7965 100.17 23.0518C100.37 23.307 100.648 23.4346 101.004 23.4346C101.355 23.4346 101.631 23.3092 101.831 23.0586C102.036 22.8034 102.182 22.4229 102.269 21.917C102.355 21.4066 102.398 20.7686 102.398 20.0029C102.398 19.2419 102.355 18.6061 102.269 18.0957C102.182 17.5853 102.036 17.2025 101.831 16.9473C101.631 16.6875 101.355 16.5576 101.004 16.5576C100.648 16.5576 100.37 16.6875 100.17 16.9473C99.9694 17.2025 99.8258 17.5853 99.7393 18.0957C99.6572 18.6061 99.6162 19.2419 99.6162 20.0029ZM107.812 14.8623C108.596 14.8623 109.191 15.1357 109.597 15.6826C110.002 16.2295 110.205 16.9974 110.205 17.9863C110.205 18.9753 110.014 19.7477 109.631 20.3037C109.248 20.8597 108.642 21.1377 107.812 21.1377C107.042 21.1377 106.457 20.8597 106.056 20.3037C105.655 19.7477 105.454 18.9753 105.454 17.9863C105.454 16.9974 105.641 16.2295 106.015 15.6826C106.393 15.1357 106.992 14.8623 107.812 14.8623ZM107.826 16.291C107.603 16.291 107.439 16.4323 107.334 16.7148C107.229 16.9974 107.177 17.4258 107.177 18C107.177 18.5742 107.229 19.0049 107.334 19.292C107.439 19.5791 107.603 19.7227 107.826 19.7227C108.049 19.7227 108.214 19.5814 108.318 19.2988C108.428 19.0117 108.482 18.5788 108.482 18C108.482 17.4258 108.428 16.9974 108.318 16.7148C108.214 16.4323 108.049 16.291 107.826 16.291ZM114.908 15.0059L109.364 25H107.724L113.268 15.0059H114.908ZM114.812 18.8545C115.596 18.8545 116.191 19.1279 116.597 19.6748C117.002 20.2217 117.205 20.9896 117.205 21.9785C117.205 22.9629 117.014 23.7331 116.631 24.2891C116.248 24.8451 115.642 25.123 114.812 25.123C114.042 25.123 113.457 24.8451 113.056 24.2891C112.655 23.7331 112.454 22.9629 112.454 21.9785C112.454 20.9896 112.641 20.2217 113.015 19.6748C113.393 19.1279 113.992 18.8545 114.812 18.8545ZM114.826 20.2832C114.603 20.2832 114.439 20.4245 114.334 20.707C114.229 20.9896 114.177 21.418 114.177 21.9922C114.177 22.5664 114.229 22.9971 114.334 23.2842C114.439 23.5713 114.603 23.7148 114.826 23.7148C115.049 23.7148 115.214 23.5736 115.318 23.291C115.428 23.0039 115.482 22.571 115.482 21.9922C115.482 21.418 115.428 20.9896 115.318 20.707C115.214 20.4245 115.049 20.2832 114.826 20.2832Z" fill="#F2F4F6"/>
<rect x="49.5" y="0.5" width="80" height="39" rx="7.5" stroke="#46B75B"/>
<path d="M74.5997 26.4L74.5999 24.0002C74.6 22.6746 73.5254 21.6 72.1999 21.6H65.8004C64.475 21.6 63.4005 22.6743 63.4004 23.9997L63.4001 26.4M71.4001 16C71.4001 17.3255 70.3256 18.4 69.0001 18.4C67.6746 18.4 66.6001 17.3255 66.6001 16C66.6001 14.6745 67.6746 13.6 69.0001 13.6C70.3256 13.6 71.4001 14.6745 71.4001 16Z" stroke="#46B75B" stroke-width="2" stroke-linecap="round" stroke-linejoin="round"/>
<path d="M211.773 88.4336C212.879 88.4336 213.686 88.6719 214.193 89.1484C214.701 89.6211 214.955 90.2734 214.955 91.1055C214.955 91.4805 214.898 91.8398 214.785 92.1836C214.672 92.5234 214.486 92.8262 214.229 93.0918C213.975 93.3574 213.635 93.5684 213.209 93.7246C212.783 93.877 212.258 93.9531 211.633 93.9531H210.854V97H209.037V88.4336H211.773ZM211.68 89.9219H210.854V92.4648H211.451C211.791 92.4648 212.086 92.4199 212.336 92.3301C212.586 92.2402 212.779 92.0996 212.916 91.9082C213.053 91.7168 213.121 91.4707 213.121 91.1699C213.121 90.748 213.004 90.4355 212.77 90.2324C212.535 90.0254 212.172 89.9219 211.68 89.9219ZM219.133 90.3262C219.738 90.3262 220.26 90.4434 220.697 90.6777C221.135 90.9082 221.473 91.2441 221.711 91.6855C221.949 92.127 222.068 92.666 222.068 93.3027V94.1699H217.844C217.863 94.6738 218.014 95.0703 218.295 95.3594C218.58 95.6445 218.975 95.7871 219.479 95.7871C219.896 95.7871 220.279 95.7441 220.627 95.6582C220.975 95.5723 221.332 95.4434 221.699 95.2715V96.6543C221.375 96.8145 221.035 96.9316 220.68 97.0059C220.328 97.0801 219.9 97.1172 219.396 97.1172C218.74 97.1172 218.158 96.9961 217.65 96.7539C217.146 96.5117 216.75 96.1426 216.461 95.6465C216.176 95.1504 216.033 94.5254 216.033 93.7715C216.033 93.0059 216.162 92.3691 216.42 91.8613C216.682 91.3496 217.045 90.9668 217.51 90.7129C217.975 90.4551 218.516 90.3262 219.133 90.3262ZM219.145 91.5977C218.797 91.5977 218.508 91.709 218.277 91.9316C218.051 92.1543 217.92 92.5039 217.885 92.9805H220.393C220.389 92.7148 220.34 92.4785 220.246 92.2715C220.156 92.0645 220.02 91.9004 219.836 91.7793C219.656 91.6582 219.426 91.5977 219.145 91.5977ZM228.309 87.8828V90.4141C229.066 90.4766 229.705 90.6543 230.225 90.9473C230.744 91.2363 231.139 91.6191 231.408 92.0957C231.678 92.5684 231.812 93.1113 231.812 93.7246C231.812 94.334 231.682 94.877 231.42 95.3535C231.162 95.8301 230.773 96.2148 230.254 96.5078C229.738 96.8008 229.09 96.9805 228.309 97.0469V99.8828H226.65V97.0469C225.896 96.9766 225.258 96.7949 224.734 96.502C224.211 96.2051 223.811 95.8203 223.533 95.3477C223.26 94.8711 223.123 94.3301 223.123 93.7246C223.123 93.0996 223.25 92.5488 223.504 92.0723C223.758 91.5918 224.145 91.209 224.664 90.9238C225.188 90.6348 225.85 90.4648 226.65 90.4141V87.8828H228.309ZM226.65 91.7559C226.303 91.8027 226.002 91.916 225.748 92.0957C225.498 92.2754 225.305 92.5059 225.168 92.7871C225.031 93.0645 224.963 93.377 224.963 93.7246C224.963 94.0801 225.027 94.3984 225.156 94.6797C225.289 94.957 225.48 95.1836 225.73 95.3594C225.984 95.5352 226.291 95.6465 226.65 95.6934V91.7559ZM228.309 91.7793V95.6934C228.664 95.6465 228.965 95.5352 229.211 95.3594C229.461 95.1836 229.65 94.957 229.779 94.6797C229.912 94.3984 229.979 94.0801 229.979 93.7246C229.979 93.2012 229.828 92.7637 229.527 92.4121C229.23 92.0566 228.824 91.8457 228.309 91.7793ZM235.996 90.3262C236.602 90.3262 237.123 90.4434 237.561 90.6777C237.998 90.9082 238.336 91.2441 238.574 91.6855C238.812 92.127 238.932 92.666 238.932 93.3027V94.1699H234.707C234.727 94.6738 234.877 95.0703 235.158 95.3594C235.443 95.6445 235.838 95.7871 236.342 95.7871C236.76 95.7871 237.143 95.7441 237.49 95.6582C237.838 95.5723 238.195 95.4434 238.562 95.2715V96.6543C238.238 96.8145 237.898 96.9316 237.543 97.0059C237.191 97.0801 236.764 97.1172 236.26 97.1172C235.604 97.1172 235.021 96.9961 234.514 96.7539C234.01 96.5117 233.613 96.1426 233.324 95.6465C233.039 95.1504 232.896 94.5254 232.896 93.7715C232.896 93.0059 233.025 92.3691 233.283 91.8613C233.545 91.3496 233.908 90.9668 234.373 90.7129C234.838 90.4551 235.379 90.3262 235.996 90.3262ZM236.008 91.5977C235.66 91.5977 235.371 91.709 235.141 91.9316C234.914 92.1543 234.783 92.5039 234.748 92.9805H237.256C237.252 92.7148 237.203 92.4785 237.109 92.2715C237.02 92.0645 236.883 91.9004 236.699 91.7793C236.52 91.6582 236.289 91.5977 236.008 91.5977ZM244.029 90.3262C244.768 90.3262 245.363 90.6133 245.816 91.1875C246.273 91.7617 246.502 92.6035 246.502 93.7129C246.502 94.4551 246.395 95.0801 246.18 95.5879C245.965 96.0918 245.668 96.4727 245.289 96.7305C244.91 96.9883 244.475 97.1172 243.982 97.1172C243.666 97.1172 243.395 97.0781 243.168 97C242.941 96.918 242.748 96.8145 242.588 96.6895C242.428 96.5605 242.289 96.4238 242.172 96.2793H242.078C242.109 96.4355 242.133 96.5957 242.148 96.7598C242.164 96.9238 242.172 97.084 242.172 97.2402V99.8828H240.385V90.4492H241.838L242.09 91.2988H242.172C242.289 91.123 242.432 90.9609 242.6 90.8125C242.768 90.6641 242.969 90.5469 243.203 90.4609C243.441 90.3711 243.717 90.3262 244.029 90.3262ZM243.455 91.7559C243.143 91.7559 242.895 91.8203 242.711 91.9492C242.527 92.0781 242.393 92.2715 242.307 92.5293C242.225 92.7871 242.18 93.1133 242.172 93.5078V93.7012C242.172 94.123 242.211 94.4805 242.289 94.7734C242.371 95.0664 242.506 95.2891 242.693 95.4414C242.885 95.5938 243.146 95.6699 243.479 95.6699C243.752 95.6699 243.977 95.5938 244.152 95.4414C244.328 95.2891 244.459 95.0664 244.545 94.7734C244.635 94.4766 244.68 94.1152 244.68 93.6895C244.68 93.0488 244.58 92.5664 244.381 92.2422C244.182 91.918 243.873 91.7559 243.455 91.7559ZM250.662 90.3145C251.541 90.3145 252.215 90.5059 252.684 90.8887C253.152 91.2715 253.387 91.8535 253.387 92.6348V97H252.139L251.793 96.1094H251.746C251.559 96.3438 251.367 96.5352 251.172 96.6836C250.977 96.832 250.752 96.9414 250.498 97.0117C250.244 97.082 249.936 97.1172 249.572 97.1172C249.186 97.1172 248.838 97.043 248.529 96.8945C248.225 96.7461 247.984 96.5195 247.809 96.2148C247.633 95.9062 247.545 95.5156 247.545 95.043C247.545 94.3477 247.789 93.8359 248.277 93.5078C248.766 93.1758 249.498 92.9922 250.475 92.957L251.611 92.9219V92.6348C251.611 92.291 251.521 92.0391 251.342 91.8789C251.162 91.7188 250.912 91.6387 250.592 91.6387C250.275 91.6387 249.965 91.6836 249.66 91.7734C249.355 91.8633 249.051 91.9766 248.746 92.1133L248.154 90.9062C248.502 90.7227 248.891 90.5781 249.32 90.4727C249.754 90.3672 250.201 90.3145 250.662 90.3145ZM251.611 93.9648L250.92 93.9883C250.342 94.0039 249.939 94.1074 249.713 94.2988C249.49 94.4902 249.379 94.7422 249.379 95.0547C249.379 95.3281 249.459 95.5234 249.619 95.6406C249.779 95.7539 249.988 95.8105 250.246 95.8105C250.629 95.8105 250.951 95.6973 251.213 95.4707C251.479 95.2441 251.611 94.9219 251.611 94.5039V93.9648ZM261.098 97H259.311V91.791H257.664C257.582 92.752 257.484 93.5703 257.371 94.2461C257.258 94.9219 257.113 95.4727 256.938 95.8984C256.762 96.3203 256.543 96.6289 256.281 96.8242C256.02 97.0195 255.697 97.1172 255.314 97.1172C255.104 97.1172 254.914 97.1016 254.746 97.0703C254.582 97.0391 254.432 96.9922 254.295 96.9297V95.5C254.381 95.5352 254.473 95.5645 254.57 95.5879C254.668 95.6074 254.768 95.6172 254.869 95.6172C254.982 95.6172 255.09 95.5723 255.191 95.4824C255.293 95.3926 255.389 95.2383 255.479 95.0195C255.568 94.7969 255.652 94.4902 255.73 94.0996C255.812 93.709 255.887 93.2148 255.953 92.6172C256.02 92.0195 256.082 91.2969 256.141 90.4492H261.098V97Z" fill="#87909F"/>
<rect x="215.5" y="36.5" width="39" height="39" rx="7.5" stroke="#46B75B"/>
<path d="M240.6 62.4L240.6 60.0002C240.6 58.6746 239.525 57.6 238.2 57.6H231.8C230.475 57.6 229.401 58.6743 229.4 59.9997L229.4 62.4M237.4 52C237.4 53.3255 236.326 54.4 235 54.4C233.675 54.4 232.6 53.3255 232.6 52C232.6 50.6745 233.675 49.6 235 49.6C236.326 49.6 237.4 50.6745 237.4 52Z" stroke="#46B75B" stroke-width="2" stroke-linecap="round" stroke-linejoin="round"/>
<path d="M211.773 185.434C212.879 185.434 213.686 185.672 214.193 186.148C214.701 186.621 214.955 187.273 214.955 188.105C214.955 188.48 214.898 188.84 214.785 189.184C214.672 189.523 214.486 189.826 214.229 190.092C213.975 190.357 213.635 190.568 213.209 190.725C212.783 190.877 212.258 190.953 211.633 190.953H210.854V194H209.037V185.434H211.773ZM211.68 186.922H210.854V189.465H211.451C211.791 189.465 212.086 189.42 212.336 189.33C212.586 189.24 212.779 189.1 212.916 188.908C213.053 188.717 213.121 188.471 213.121 188.17C213.121 187.748 213.004 187.436 212.77 187.232C212.535 187.025 212.172 186.922 211.68 186.922ZM219.133 187.326C219.738 187.326 220.26 187.443 220.697 187.678C221.135 187.908 221.473 188.244 221.711 188.686C221.949 189.127 222.068 189.666 222.068 190.303V191.17H217.844C217.863 191.674 218.014 192.07 218.295 192.359C218.58 192.645 218.975 192.787 219.479 192.787C219.896 192.787 220.279 192.744 220.627 192.658C220.975 192.572 221.332 192.443 221.699 192.271V193.654C221.375 193.814 221.035 193.932 220.68 194.006C220.328 194.08 219.9 194.117 219.396 194.117C218.74 194.117 218.158 193.996 217.65 193.754C217.146 193.512 216.75 193.143 216.461 192.646C216.176 192.15 216.033 191.525 216.033 190.771C216.033 190.006 216.162 189.369 216.42 188.861C216.682 188.35 217.045 187.967 217.51 187.713C217.975 187.455 218.516 187.326 219.133 187.326ZM219.145 188.598C218.797 188.598 218.508 188.709 218.277 188.932C218.051 189.154 217.92 189.504 217.885 189.98H220.393C220.389 189.715 220.34 189.479 220.246 189.271C220.156 189.064 220.02 188.9 219.836 188.779C219.656 188.658 219.426 188.598 219.145 188.598ZM228.309 184.883V187.414C229.066 187.477 229.705 187.654 230.225 187.947C230.744 188.236 231.139 188.619 231.408 189.096C231.678 189.568 231.812 190.111 231.812 190.725C231.812 191.334 231.682 191.877 231.42 192.354C231.162 192.83 230.773 193.215 230.254 193.508C229.738 193.801 229.09 193.98 228.309 194.047V196.883H226.65V194.047C225.896 193.977 225.258 193.795 224.734 193.502C224.211 193.205 223.811 192.82 223.533 192.348C223.26 191.871 223.123 191.33 223.123 190.725C223.123 190.1 223.25 189.549 223.504 189.072C223.758 188.592 224.145 188.209 224.664 187.924C225.188 187.635 225.85 187.465 226.65 187.414V184.883H228.309ZM226.65 188.756C226.303 188.803 226.002 188.916 225.748 189.096C225.498 189.275 225.305 189.506 225.168 189.787C225.031 190.064 224.963 190.377 224.963 190.725C224.963 191.08 225.027 191.398 225.156 191.68C225.289 191.957 225.48 192.184 225.73 192.359C225.984 192.535 226.291 192.646 226.65 192.693V188.756ZM228.309 188.779V192.693C228.664 192.646 228.965 192.535 229.211 192.359C229.461 192.184 229.65 191.957 229.779 191.68C229.912 191.398 229.979 191.08 229.979 190.725C229.979 190.201 229.828 189.764 229.527 189.412C229.23 189.057 228.824 188.846 228.309 188.779ZM235.996 187.326C236.602 187.326 237.123 187.443 237.561 187.678C237.998 187.908 238.336 188.244 238.574 188.686C238.812 189.127 238.932 189.666 238.932 190.303V191.17H234.707C234.727 191.674 234.877 192.07 235.158 192.359C235.443 192.645 235.838 192.787 236.342 192.787C236.76 192.787 237.143 192.744 237.49 192.658C237.838 192.572 238.195 192.443 238.562 192.271V193.654C238.238 193.814 237.898 193.932 237.543 194.006C237.191 194.08 236.764 194.117 236.26 194.117C235.604 194.117 235.021 193.996 234.514 193.754C234.01 193.512 233.613 193.143 233.324 192.646C233.039 192.15 232.896 191.525 232.896 190.771C232.896 190.006 233.025 189.369 233.283 188.861C233.545 188.35 233.908 187.967 234.373 187.713C234.838 187.455 235.379 187.326 235.996 187.326ZM236.008 188.598C235.66 188.598 235.371 188.709 235.141 188.932C234.914 189.154 234.783 189.504 234.748 189.98H237.256C237.252 189.715 237.203 189.479 237.109 189.271C237.02 189.064 236.883 188.9 236.699 188.779C236.52 188.658 236.289 188.598 236.008 188.598ZM244.029 187.326C244.768 187.326 245.363 187.613 245.816 188.188C246.273 188.762 246.502 189.604 246.502 190.713C246.502 191.455 246.395 192.08 246.18 192.588C245.965 193.092 245.668 193.473 245.289 193.73C244.91 193.988 244.475 194.117 243.982 194.117C243.666 194.117 243.395 194.078 243.168 194C242.941 193.918 242.748 193.814 242.588 193.689C242.428 193.561 242.289 193.424 242.172 193.279H242.078C242.109 193.436 242.133 193.596 242.148 193.76C242.164 193.924 242.172 194.084 242.172 194.24V196.883H240.385V187.449H241.838L242.09 188.299H242.172C242.289 188.123 242.432 187.961 242.6 187.812C242.768 187.664 242.969 187.547 243.203 187.461C243.441 187.371 243.717 187.326 244.029 187.326ZM243.455 188.756C243.143 188.756 242.895 188.82 242.711 188.949C242.527 189.078 242.393 189.271 242.307 189.529C242.225 189.787 242.18 190.113 242.172 190.508V190.701C242.172 191.123 242.211 191.48 242.289 191.773C242.371 192.066 242.506 192.289 242.693 192.441C242.885 192.594 243.146 192.67 243.479 192.67C243.752 192.67 243.977 192.594 244.152 192.441C244.328 192.289 244.459 192.066 244.545 191.773C244.635 191.477 244.68 191.115 244.68 190.689C244.68 190.049 244.58 189.566 244.381 189.242C244.182 188.918 243.873 188.756 243.455 188.756ZM250.662 187.314C251.541 187.314 252.215 187.506 252.684 187.889C253.152 188.271 253.387 188.854 253.387 189.635V194H252.139L251.793 193.109H251.746C251.559 193.344 251.367 193.535 251.172 193.684C250.977 193.832 250.752 193.941 250.498 194.012C250.244 194.082 249.936 194.117 249.572 194.117C249.186 194.117 248.838 194.043 248.529 193.895C248.225 193.746 247.984 193.52 247.809 193.215C247.633 192.906 247.545 192.516 247.545 192.043C247.545 191.348 247.789 190.836 248.277 190.508C248.766 190.176 249.498 189.992 250.475 189.957L251.611 189.922V189.635C251.611 189.291 251.521 189.039 251.342 188.879C251.162 188.719 250.912 188.639 250.592 188.639C250.275 188.639 249.965 188.684 249.66 188.773C249.355 188.863 249.051 188.977 248.746 189.113L248.154 187.906C248.502 187.723 248.891 187.578 249.32 187.473C249.754 187.367 250.201 187.314 250.662 187.314ZM251.611 190.965L250.92 190.988C250.342 191.004 249.939 191.107 249.713 191.299C249.49 191.49 249.379 191.742 249.379 192.055C249.379 192.328 249.459 192.523 249.619 192.641C249.779 192.754 249.988 192.811 250.246 192.811C250.629 192.811 250.951 192.697 251.213 192.471C251.479 192.244 251.611 191.922 251.611 191.504V190.965ZM261.098 194H259.311V188.791H257.664C257.582 189.752 257.484 190.57 257.371 191.246C257.258 191.922 257.113 192.473 256.938 192.898C256.762 193.32 256.543 193.629 256.281 193.824C256.02 194.02 255.697 194.117 255.314 194.117C255.104 194.117 254.914 194.102 254.746 194.07C254.582 194.039 254.432 193.992 254.295 193.93V192.5C254.381 192.535 254.473 192.564 254.57 192.588C254.668 192.607 254.768 192.617 254.869 192.617C254.982 192.617 255.09 192.572 255.191 192.482C255.293 192.393 255.389 192.238 255.479 192.02C255.568 191.797 255.652 191.49 255.73 191.1C255.812 190.709 255.887 190.215 255.953 189.617C256.02 189.02 256.082 188.297 256.141 187.449H261.098V194Z" fill="#87909F"/>
<rect x="215.5" y="133.5" width="39" height="39" rx="7.5" stroke="#46B75B"/>
<path d="M240.6 159.4L240.6 157C240.6 155.675 239.525 154.6 238.2 154.6H231.8C230.475 154.6 229.401 155.674 229.4 157L229.4 159.4M237.4 149C237.4 150.325 236.326 151.4 235 151.4C233.675 151.4 232.6 150.325 232.6 149C232.6 147.674 233.675 146.6 235 146.6C236.326 146.6 237.4 147.674 237.4 149Z" stroke="#46B75B" stroke-width="2" stroke-linecap="round" stroke-linejoin="round"/>
<path d="M56.7676 150.822C56.4199 150.822 56.1113 150.891 55.8418 151.027C55.5762 151.16 55.3516 151.354 55.168 151.607C54.9883 151.861 54.8516 152.168 54.7578 152.527C54.6641 152.887 54.6172 153.291 54.6172 153.74C54.6172 154.346 54.6914 154.863 54.8398 155.293C54.9922 155.719 55.2266 156.045 55.543 156.271C55.8594 156.494 56.2676 156.605 56.7676 156.605C57.1152 156.605 57.4629 156.566 57.8105 156.488C58.1621 156.41 58.543 156.299 58.9531 156.154V157.678C58.5742 157.834 58.2012 157.945 57.834 158.012C57.4668 158.082 57.0547 158.117 56.5977 158.117C55.7148 158.117 54.9883 157.936 54.418 157.572C53.8516 157.205 53.4316 156.693 53.1582 156.037C52.8848 155.377 52.748 154.607 52.748 153.729C52.748 153.08 52.8359 152.486 53.0117 151.947C53.1875 151.408 53.4453 150.941 53.7852 150.547C54.125 150.152 54.5449 149.848 55.0449 149.633C55.5449 149.418 56.1191 149.311 56.7676 149.311C57.1934 149.311 57.6191 149.365 58.0449 149.475C58.4746 149.58 58.8848 149.727 59.2754 149.914L58.6895 151.391C58.3691 151.238 58.0469 151.105 57.7227 150.992C57.3984 150.879 57.0801 150.822 56.7676 150.822ZM59.7031 151.449H61.6602L62.8965 155.135C62.9355 155.252 62.9688 155.371 62.9961 155.492C63.0234 155.613 63.0469 155.738 63.0664 155.867C63.0859 155.996 63.1016 156.131 63.1133 156.271H63.1484C63.1719 156.061 63.2031 155.863 63.2422 155.68C63.2852 155.496 63.3379 155.314 63.4004 155.135L64.6133 151.449H66.5293L63.7578 158.838C63.5898 159.291 63.3711 159.668 63.1016 159.969C62.832 160.273 62.5215 160.502 62.1699 160.654C61.8223 160.807 61.4395 160.883 61.0215 160.883C60.8184 160.883 60.6426 160.871 60.4941 160.848C60.3457 160.828 60.2188 160.807 60.1133 160.783V159.365C60.1953 159.385 60.2988 159.402 60.4238 159.418C60.5488 159.434 60.6797 159.441 60.8164 159.441C61.0664 159.441 61.2812 159.389 61.4609 159.283C61.6406 159.178 61.791 159.035 61.9121 158.855C62.0332 158.68 62.1289 158.486 62.1992 158.275L62.3047 157.953L59.7031 151.449ZM67.0742 154.074C67.0742 153.109 67.1934 152.289 67.4316 151.613C67.6699 150.938 68.0488 150.398 68.5684 149.996C69.0879 149.59 69.7695 149.314 70.6133 149.17C71.0352 149.096 71.4629 149.035 71.8965 148.988C72.334 148.938 72.7871 148.881 73.2559 148.818L73.4609 150.383C73.2578 150.406 73.0371 150.432 72.7988 150.459C72.5605 150.486 72.3203 150.516 72.0781 150.547C71.8359 150.574 71.6016 150.604 71.375 150.635C71.1484 150.662 70.9434 150.689 70.7598 150.717C70.3613 150.779 70.0293 150.877 69.7637 151.01C69.498 151.143 69.2949 151.354 69.1543 151.643C69.0137 151.932 68.9277 152.348 68.8965 152.891H68.9844C69.0781 152.742 69.2109 152.592 69.3828 152.439C69.5547 152.283 69.7676 152.154 70.0215 152.053C70.2754 151.947 70.5684 151.895 70.9004 151.895C71.4238 151.895 71.877 152.002 72.2598 152.217C72.6426 152.432 72.9375 152.752 73.1445 153.178C73.3555 153.6 73.4609 154.127 73.4609 154.76C73.4609 155.502 73.3242 156.123 73.0508 156.623C72.7812 157.119 72.4062 157.492 71.9258 157.742C71.4453 157.992 70.8887 158.117 70.2559 158.117C69.7715 158.117 69.334 158.029 68.9434 157.854C68.5527 157.678 68.2168 157.418 67.9355 157.074C67.6582 156.73 67.4453 156.309 67.2969 155.809C67.1484 155.305 67.0742 154.727 67.0742 154.074ZM70.3613 156.67C70.6152 156.67 70.8359 156.615 71.0234 156.506C71.2148 156.393 71.3633 156.209 71.4688 155.955C71.5781 155.697 71.6328 155.352 71.6328 154.918C71.6328 154.395 71.5449 153.98 71.3691 153.676C71.1973 153.367 70.9023 153.213 70.4844 153.213C70.2305 153.213 69.9922 153.275 69.7695 153.4C69.5508 153.521 69.3652 153.662 69.2129 153.822C69.0605 153.979 68.9551 154.111 68.8965 154.221C68.8965 154.529 68.9199 154.83 68.9668 155.123C69.0176 155.412 69.0977 155.674 69.207 155.908C69.3164 156.143 69.4648 156.328 69.6523 156.465C69.8438 156.602 70.0801 156.67 70.3613 156.67ZM80.8906 151.449V158H79.0977V152.791H76.7246V158H74.9375V151.449H80.8906ZM85.4492 151.314C86.3281 151.314 87.002 151.506 87.4707 151.889C87.9395 152.271 88.1738 152.854 88.1738 153.635V158H86.9258L86.5801 157.109H86.5332C86.3457 157.344 86.1543 157.535 85.959 157.684C85.7637 157.832 85.5391 157.941 85.2852 158.012C85.0312 158.082 84.7227 158.117 84.3594 158.117C83.9727 158.117 83.625 158.043 83.3164 157.895C83.0117 157.746 82.7715 157.52 82.5957 157.215C82.4199 156.906 82.332 156.516 82.332 156.043C82.332 155.348 82.5762 154.836 83.0645 154.508C83.5527 154.176 84.2852 153.992 85.2617 153.957L86.3984 153.922V153.635C86.3984 153.291 86.3086 153.039 86.1289 152.879C85.9492 152.719 85.6992 152.639 85.3789 152.639C85.0625 152.639 84.752 152.684 84.4473 152.773C84.1426 152.863 83.8379 152.977 83.5332 153.113L82.9414 151.906C83.2891 151.723 83.6777 151.578 84.1074 151.473C84.541 151.367 84.9883 151.314 85.4492 151.314ZM86.3984 154.965L85.707 154.988C85.1289 155.004 84.7266 155.107 84.5 155.299C84.2773 155.49 84.166 155.742 84.166 156.055C84.166 156.328 84.2461 156.523 84.4062 156.641C84.5664 156.754 84.7754 156.811 85.0332 156.811C85.416 156.811 85.7383 156.697 86 156.471C86.2656 156.244 86.3984 155.922 86.3984 155.504V154.965ZM93.6641 151.326C94.4023 151.326 94.998 151.613 95.4512 152.188C95.9082 152.762 96.1367 153.604 96.1367 154.713C96.1367 155.455 96.0293 156.08 95.8145 156.588C95.5996 157.092 95.3027 157.473 94.9238 157.73C94.5449 157.988 94.1094 158.117 93.6172 158.117C93.3008 158.117 93.0293 158.078 92.8027 158C92.5762 157.918 92.3828 157.814 92.2227 157.689C92.0625 157.561 91.9238 157.424 91.8066 157.279H91.7129C91.7441 157.436 91.7676 157.596 91.7832 157.76C91.7988 157.924 91.8066 158.084 91.8066 158.24V160.883H90.0195V151.449H91.4727L91.7246 152.299H91.8066C91.9238 152.123 92.0664 151.961 92.2344 151.812C92.4023 151.664 92.6035 151.547 92.8379 151.461C93.0762 151.371 93.3516 151.326 93.6641 151.326ZM93.0898 152.756C92.7773 152.756 92.5293 152.82 92.3457 152.949C92.1621 153.078 92.0273 153.271 91.9414 153.529C91.8594 153.787 91.8145 154.113 91.8066 154.508V154.701C91.8066 155.123 91.8457 155.48 91.9238 155.773C92.0059 156.066 92.1406 156.289 92.3281 156.441C92.5195 156.594 92.7812 156.67 93.1133 156.67C93.3867 156.67 93.6113 156.594 93.7871 156.441C93.9629 156.289 94.0938 156.066 94.1797 155.773C94.2695 155.477 94.3145 155.115 94.3145 154.689C94.3145 154.049 94.2148 153.566 94.0156 153.242C93.8164 152.918 93.5078 152.756 93.0898 152.756ZM103.033 152.791H100.889V158H99.1016V152.791H96.9512V151.449H103.033V152.791ZM106.045 151.449V153.969H108.541V151.449H110.328V158H108.541V155.299H106.045V158H104.258V151.449H106.045ZM114.904 151.326C115.51 151.326 116.031 151.443 116.469 151.678C116.906 151.908 117.244 152.244 117.482 152.686C117.721 153.127 117.84 153.666 117.84 154.303V155.17H113.615C113.635 155.674 113.785 156.07 114.066 156.359C114.352 156.645 114.746 156.787 115.25 156.787C115.668 156.787 116.051 156.744 116.398 156.658C116.746 156.572 117.104 156.443 117.471 156.271V157.654C117.146 157.814 116.807 157.932 116.451 158.006C116.1 158.08 115.672 158.117 115.168 158.117C114.512 158.117 113.93 157.996 113.422 157.754C112.918 157.512 112.521 157.143 112.232 156.646C111.947 156.15 111.805 155.525 111.805 154.771C111.805 154.006 111.934 153.369 112.191 152.861C112.453 152.35 112.816 151.967 113.281 151.713C113.746 151.455 114.287 151.326 114.904 151.326ZM114.916 152.598C114.568 152.598 114.279 152.709 114.049 152.932C113.822 153.154 113.691 153.504 113.656 153.98H116.164C116.16 153.715 116.111 153.479 116.018 153.271C115.928 153.064 115.791 152.9 115.607 152.779C115.428 152.658 115.197 152.598 114.916 152.598ZM122.938 151.326C123.676 151.326 124.271 151.613 124.725 152.188C125.182 152.762 125.41 153.604 125.41 154.713C125.41 155.455 125.303 156.08 125.088 156.588C124.873 157.092 124.576 157.473 124.197 157.73C123.818 157.988 123.383 158.117 122.891 158.117C122.574 158.117 122.303 158.078 122.076 158C121.85 157.918 121.656 157.814 121.496 157.689C121.336 157.561 121.197 157.424 121.08 157.279H120.986C121.018 157.436 121.041 157.596 121.057 157.76C121.072 157.924 121.08 158.084 121.08 158.24V160.883H119.293V151.449H120.746L120.998 152.299H121.08C121.197 152.123 121.34 151.961 121.508 151.812C121.676 151.664 121.877 151.547 122.111 151.461C122.35 151.371 122.625 151.326 122.938 151.326ZM122.363 152.756C122.051 152.756 121.803 152.82 121.619 152.949C121.436 153.078 121.301 153.271 121.215 153.529C121.133 153.787 121.088 154.113 121.08 154.508V154.701C121.08 155.123 121.119 155.48 121.197 155.773C121.279 156.066 121.414 156.289 121.602 156.441C121.793 156.594 122.055 156.67 122.387 156.67C122.66 156.67 122.885 156.594 123.061 156.441C123.236 156.289 123.367 156.066 123.453 155.773C123.543 155.477 123.588 155.115 123.588 154.689C123.588 154.049 123.488 153.566 123.289 153.242C123.09 152.918 122.781 152.756 122.363 152.756Z" fill="#87909F"/>
<path d="M94.7832 122H92.6709V116.217C92.6709 116.057 92.6732 115.861 92.6777 115.629C92.6823 115.392 92.6891 115.15 92.6982 114.904C92.7074 114.654 92.7165 114.428 92.7256 114.228C92.6755 114.287 92.5729 114.389 92.418 114.535C92.2676 114.676 92.1263 114.804 91.9941 114.918L90.8457 115.841L89.8271 114.569L93.0469 112.006H94.7832V122ZM104.504 117.003C104.504 117.81 104.44 118.53 104.312 119.163C104.189 119.797 103.989 120.334 103.711 120.776C103.438 121.218 103.077 121.556 102.631 121.788C102.184 122.021 101.642 122.137 101.004 122.137C100.202 122.137 99.5433 121.934 99.0283 121.528C98.5133 121.118 98.1328 120.53 97.8867 119.765C97.6406 118.994 97.5176 118.074 97.5176 117.003C97.5176 115.923 97.6292 115 97.8525 114.234C98.0804 113.464 98.4495 112.874 98.96 112.464C99.4704 112.054 100.152 111.849 101.004 111.849C101.801 111.849 102.458 112.054 102.973 112.464C103.492 112.869 103.877 113.457 104.128 114.228C104.379 114.993 104.504 115.918 104.504 117.003ZM99.6162 117.003C99.6162 117.764 99.6572 118.4 99.7393 118.91C99.8258 119.416 99.9694 119.797 100.17 120.052C100.37 120.307 100.648 120.435 101.004 120.435C101.355 120.435 101.631 120.309 101.831 120.059C102.036 119.803 102.182 119.423 102.269 118.917C102.355 118.407 102.398 117.769 102.398 117.003C102.398 116.242 102.355 115.606 102.269 115.096C102.182 114.585 102.036 114.202 101.831 113.947C101.631 113.688 101.355 113.558 101.004 113.558C100.648 113.558 100.37 113.688 100.17 113.947C99.9694 114.202 99.8258 114.585 99.7393 115.096C99.6572 115.606 99.6162 116.242 99.6162 117.003ZM107.812 111.862C108.596 111.862 109.191 112.136 109.597 112.683C110.002 113.229 110.205 113.997 110.205 114.986C110.205 115.975 110.014 116.748 109.631 117.304C109.248 117.86 108.642 118.138 107.812 118.138C107.042 118.138 106.457 117.86 106.056 117.304C105.655 116.748 105.454 115.975 105.454 114.986C105.454 113.997 105.641 113.229 106.015 112.683C106.393 112.136 106.992 111.862 107.812 111.862ZM107.826 113.291C107.603 113.291 107.439 113.432 107.334 113.715C107.229 113.997 107.177 114.426 107.177 115C107.177 115.574 107.229 116.005 107.334 116.292C107.439 116.579 107.603 116.723 107.826 116.723C108.049 116.723 108.214 116.581 108.318 116.299C108.428 116.012 108.482 115.579 108.482 115C108.482 114.426 108.428 113.997 108.318 113.715C108.214 113.432 108.049 113.291 107.826 113.291ZM114.908 112.006L109.364 122H107.724L113.268 112.006H114.908ZM114.812 115.854C115.596 115.854 116.191 116.128 116.597 116.675C117.002 117.222 117.205 117.99 117.205 118.979C117.205 119.963 117.014 120.733 116.631 121.289C116.248 121.845 115.642 122.123 114.812 122.123C114.042 122.123 113.457 121.845 113.056 121.289C112.655 120.733 112.454 119.963 112.454 118.979C112.454 117.99 112.641 117.222 113.015 116.675C113.393 116.128 113.992 115.854 114.812 115.854ZM114.826 117.283C114.603 117.283 114.439 117.424 114.334 117.707C114.229 117.99 114.177 118.418 114.177 118.992C114.177 119.566 114.229 119.997 114.334 120.284C114.439 120.571 114.603 120.715 114.826 120.715C115.049 120.715 115.214 120.574 115.318 120.291C115.428 120.004 115.482 119.571 115.482 118.992C115.482 118.418 115.428 117.99 115.318 117.707C115.214 117.424 115.049 117.283 114.826 117.283Z" fill="#F2F4F6"/>
<rect x="49.5" y="97.5" width="80" height="39" rx="7.5" stroke="#5020F5"/>
<path d="M74.5997 123.4L74.5999 121C74.6 119.675 73.5254 118.6 72.1999 118.6H65.8004C64.475 118.6 63.4005 119.674 63.4004 121L63.4001 123.4M71.4001 113C71.4001 114.325 70.3256 115.4 69.0001 115.4C67.6746 115.4 66.6001 114.325 66.6001 113C66.6001 111.674 67.6746 110.6 69.0001 110.6C70.3256 110.6 71.4001 111.674 71.4001 113Z" stroke="#5020F5" stroke-width="2" stroke-linecap="round" stroke-linejoin="round"/>
</svg>
