<svg width="7" height="8" viewBox="0 0 7 8" xmlns="http://www.w3.org/2000/svg">
<path d="M6.35178 6.11121C6.43168 6.11103 6.50986 6.08806 6.57716 6.04501C6.64446 6.00196 6.69809 5.9406 6.73175 5.86814C6.76541 5.79568 6.7777 5.71513 6.76718 5.63593C6.75667 5.55673 6.72378 5.48217 6.67238 5.42101L3.82198 2.03791C3.78256 1.99108 3.73337 1.95343 3.67787 1.92761C3.62237 1.90178 3.5619 1.8884 3.50068 1.8884C3.43947 1.8884 3.37899 1.90178 3.32349 1.92761C3.26799 1.95343 3.21881 1.99108 3.17938 2.03791L0.327581 5.42101C0.276182 5.48217 0.243295 5.55673 0.23278 5.63593C0.222265 5.71513 0.234557 5.79568 0.268214 5.86814C0.301871 5.9406 0.355498 6.00196 0.422799 6.04501C0.490101 6.08806 0.568287 6.11103 0.648181 6.11121H6.35178Z"/>
</svg>
