<svg width="19" height="18" viewBox="0 0 19 18" fill="none" xmlns="http://www.w3.org/2000/svg">
<path fill-rule="evenodd" clip-rule="evenodd" d="M15.8975 8.6025C16.0028 8.70797 16.062 8.85094 16.062 9C16.062 9.14906 16.0028 9.29203 15.8975 9.3975L11.3975 13.8975C11.346 13.9528 11.2839 13.9971 11.2149 14.0278C11.1459 14.0586 11.0714 14.0751 10.9959 14.0764C10.9204 14.0778 10.8453 14.0639 10.7753 14.0356C10.7053 14.0073 10.6416 13.9652 10.5882 13.9118C10.5348 13.8584 10.4927 13.7947 10.4644 13.7247C10.4361 13.6547 10.4222 13.5796 10.4236 13.5041C10.4249 13.4286 10.4414 13.3541 10.4722 13.2851C10.5029 13.2161 10.5472 13.154 10.6025 13.1025L14.1425 9.5625L3.50001 9.5625C3.35082 9.5625 3.20775 9.50324 3.10226 9.39775C2.99677 9.29226 2.93751 9.14918 2.93751 9C2.93751 8.85081 2.99677 8.70774 3.10226 8.60225C3.20775 8.49676 3.35082 8.4375 3.50001 8.4375L14.1425 8.4375L10.6025 4.8975C10.5472 4.846 10.5029 4.7839 10.4722 4.7149C10.4414 4.6459 10.4249 4.57142 10.4236 4.49589C10.4222 4.42036 10.4361 4.34534 10.4644 4.2753C10.4927 4.20526 10.5348 4.14163 10.5882 4.08822C10.6416 4.03481 10.7053 3.9927 10.7753 3.96441C10.8453 3.93612 10.9204 3.92222 10.9959 3.92356C11.0714 3.92489 11.1459 3.94142 11.2149 3.97216C11.2839 4.00291 11.346 4.04723 11.3975 4.1025L15.8975 8.6025Z" fill="#F2F4F6"/>
</svg>
