<svg width="20" height="20" viewBox="0 0 20 20" fill="none" xmlns="http://www.w3.org/2000/svg"><path d="M12.763 12.711a.75.75 0 00.474-1.422l-.474 1.422zM10 11h-.75c0 .323.207.61.513.711L10 11zm.75-4.181a.75.75 0 00-1.5 0h1.5zm2.487 4.47l-3-1-.474 1.422 3 1 .474-1.422zM10.75 11V6.819h-1.5V11h1.5zm6.5-1A7.25 7.25 0 0110 17.25v1.5A8.75 8.75 0 0018.75 10h-1.5zM10 17.25A7.25 7.25 0 012.75 10h-1.5A8.75 8.75 0 0010 18.75v-1.5zM2.75 10A7.25 7.25 0 0110 2.75v-1.5A8.75 8.75 0 001.25 10h1.5zM10 2.75A7.25 7.25 0 0117.25 10h1.5A8.75 8.75 0 0010 1.25v1.5z" fill="#F2F4F6"/></svg>