<svg width="16" height="16" viewBox="0 0 16 16" fill="none" xmlns="http://www.w3.org/2000/svg">
<path d="M8 15C9.85652 15 11.637 14.2625 12.9497 12.9497C14.2625 11.637 15 9.85652 15 8C15 6.14348 14.2625 4.36301 12.9497 3.05025C11.637 1.7375 9.85652 1 8 1C6.14348 1 4.36301 1.7375 3.05025 3.05025C1.7375 4.36301 1 6.14348 1 8C1 9.85652 1.7375 11.637 3.05025 12.9497C4.36301 14.2625 6.14348 15 8 15ZM6.044 5.032C6.548 4.516 7.244 4.264 8.132 4.264C8.9 4.264 9.524 4.468 10.004 4.9C10.484 5.32 10.724 5.896 10.724 6.616C10.724 7.204 10.568 7.696 10.268 8.08C10.16 8.212 9.824 8.524 9.26 9.016C9.05145 9.18769 8.87997 9.39999 8.756 9.64C8.624 9.88 8.564 10.144 8.564 10.432V10.636H7.28V10.432C7.28 9.988 7.352 9.604 7.52 9.292C7.676 8.956 8.132 8.464 8.876 7.804L9.08 7.576C9.296 7.3 9.416 7.012 9.416 6.7C9.416 6.28 9.296 5.956 9.068 5.716C8.828 5.476 8.48 5.356 8.048 5.356C7.508 5.356 7.112 5.524 6.872 5.872C6.656 6.16 6.548 6.568 6.548 7.096H5.288C5.288 6.22 5.54 5.536 6.044 5.032ZM7.292 11.524C7.37439 11.4439 7.47216 11.3813 7.57941 11.3401C7.68667 11.2988 7.80117 11.2797 7.916 11.284C8.168 11.284 8.384 11.356 8.552 11.524C8.72 11.68 8.804 11.884 8.804 12.136C8.80507 12.2525 8.78219 12.3681 8.73678 12.4754C8.69137 12.5827 8.62439 12.6796 8.54 12.76C8.37048 12.9171 8.14708 13.003 7.916 13C7.80139 13.0021 7.6875 12.9813 7.58104 12.9388C7.47459 12.8963 7.3777 12.8329 7.29609 12.7524C7.21447 12.6719 7.14977 12.5759 7.10579 12.4701C7.06182 12.3642 7.03945 12.2506 7.04 12.136C7.04 11.884 7.124 11.68 7.292 11.524Z" fill="#6D6E73"/>
</svg>
