<svg width="24" height="24" viewBox="0 0 24 24" xmlns="http://www.w3.org/2000/svg"><path fill-rule="evenodd" clip-rule="evenodd" d="M24 12c0 6.627-5.373 12-12 12S0 18.627 0 12 5.373 0 12 0s12 5.373 12 12zm-5.754-1.754c.968 0 1.754.786 1.754 1.754 0 .716-.435 1.333-1.01 1.614.028.168.042.337.042.52 0 2.694-3.13 4.87-7.004 4.87-3.873 0-7.003-2.176-7.003-4.87 0-.183.014-.366.042-.534A1.748 1.748 0 014.028 12c0-.968.786-1.754 1.755-1.754.463 0 .898.196 1.207.49 1.207-.883 2.877-1.43 4.744-1.487l.884-4.182a.342.342 0 01.14-.197c.07-.042.155-.056.239-.042l2.905.618a1.214 1.214 0 011.109-.702c.688 0 1.249.561 1.249 1.249a1.25 1.25 0 01-2.498.056l-2.597-.547-.8 3.747c1.825.07 3.48.632 4.674 1.488.309-.309.73-.491 1.207-.491zM9.249 12C8.562 12 8 12.561 8 13.25c0 .687.562 1.248 1.25 1.248.687 0 1.248-.561 1.248-1.249A1.25 1.25 0 009.249 12zm2.765 5.46c.478 0 2.106-.056 2.962-.913a.361.361 0 00.028-.463.33.33 0 00-.463 0c-.548.534-1.685.73-2.513.73-.828 0-1.979-.197-2.512-.73a.33.33 0 00-.463 0 .33.33 0 000 .463c.842.842 2.484.913 2.961.913zm1.488-4.21c0 .687.561 1.248 1.25 1.248.687 0 1.248-.561 1.248-1.249A1.25 1.25 0 0014.751 12c-.688 0-1.249.561-1.249 1.25z"/></svg>