<svg width="24" height="24" viewBox="0 0 24 24" xmlns="http://www.w3.org/2000/svg"><path d="M17.177 8.663a9.362 9.362 0 005.476 1.76V6.478c-.387 0-.772-.04-1.15-.121v3.104a9.364 9.364 0 01-5.477-1.759v8.048c0 4.026-3.251 7.289-7.263 7.289a7.21 7.21 0 01-4.043-1.233A7.229 7.229 0 009.913 24c4.012 0 7.264-3.263 7.264-7.29V8.664zm1.418-3.978a5.506 5.506 0 01-1.418-3.218V.96h-1.09a5.521 5.521 0 002.508 3.725zM7.257 18.718a3.328 3.328 0 01-.678-2.019 3.328 3.328 0 014.33-3.178V9.49a7.302 7.302 0 00-1.149-.067v3.138a3.328 3.328 0 00-4.33 3.178c0 1.302.743 2.43 1.827 2.979z"/><path d="M16.026 7.703a9.364 9.364 0 005.477 1.759V6.358a5.493 5.493 0 01-2.908-1.673A5.522 5.522 0 0116.087.96h-2.863v15.75a3.329 3.329 0 01-3.322 3.324 3.314 3.314 0 01-2.645-1.316 3.335 3.335 0 01-1.828-2.979 3.328 3.328 0 014.33-3.178V9.423c-3.94.082-7.11 3.313-7.11 7.288 0 1.984.79 3.782 2.071 5.096a7.21 7.21 0 004.043 1.233c4.012 0 7.263-3.264 7.263-7.29V7.704z"/></svg>