<svg width="58" height="58" viewBox="0 0 58 58" fill="none" xmlns="http://www.w3.org/2000/svg"><g filter="url(#filter0_b_2709_4304)"><rect x="1" y="1" width="56" height="56" rx="16" fill="url(#paint0_radial_2709_4304)" fill-opacity=".2"/><rect x="1" y="1" width="56" height="56" rx="16" stroke="url(#paint1_linear_2709_4304)"/></g><g clip-path="url(#clip0_2709_4304)"><path fill-rule="evenodd" clip-rule="evenodd" d="M32.948 16.957c.796-2.789 4.748-2.789 5.544 0a1.716 1.716 0 002.068 1.194c2.813-.705 4.79 2.718 2.772 4.802a1.716 1.716 0 000 2.387c2.018 2.084.041 5.507-2.772 4.802a1.716 1.716 0 00-2.068 1.194c-.796 2.789-4.748 2.789-5.544 0a1.716 1.716 0 00-2.068-1.194c-2.813.705-4.79-2.718-2.772-4.802a1.716 1.716 0 000-2.387c-2.018-2.084-.041-5.507 2.772-4.802a1.716 1.716 0 002.068-1.194zm6.331 5.23a.583.583 0 10-.896-.747l-2.694 3.232c-.288.347-.465.557-.611.689a.595.595 0 01-.136.098l-.008-.004a.595.595 0 01-.127-.094c-.146-.132-.323-.342-.612-.689l-1.138-1.366a.583.583 0 10-.896.747l1.163 1.396c.255.307.486.583.7.777.235.212.53.4.918.4.389 0 .684-.188.918-.4.215-.194.445-.47.7-.777l2.72-3.262z" fill="url(#paint2_linear_2709_4304)"/></g><g clip-path="url(#clip1_2709_4304)"><g filter="url(#filter1_b_2709_4304)" fill-rule="evenodd" clip-rule="evenodd"><path d="M23.444 17.497c1.274-4.462 7.598-4.462 8.872 0a2.746 2.746 0 003.308 1.91c4.501-1.128 7.663 4.349 4.436 7.683a2.746 2.746 0 000 3.82c3.227 3.334.065 8.811-4.436 7.683a2.746 2.746 0 00-3.308 1.91c-1.274 4.462-7.598 4.462-8.872 0a2.746 2.746 0 00-3.308-1.91c-4.501 1.128-7.663-4.349-4.436-7.683a2.746 2.746 0 000-3.82c-3.227-3.334-.065-8.811 4.436-7.683a2.746 2.746 0 003.308-1.91z" fill="#28D03B" fill-opacity=".35"/><path d="M23.444 17.497c1.274-4.462 7.598-4.462 8.872 0a2.746 2.746 0 003.308 1.91c4.501-1.128 7.663 4.349 4.436 7.683a2.746 2.746 0 000 3.82c3.227 3.334.065 8.811-4.436 7.683a2.746 2.746 0 00-3.308 1.91c-1.274 4.462-7.598 4.462-8.872 0a2.746 2.746 0 00-3.308-1.91c-4.501 1.128-7.663-4.349-4.436-7.683a2.746 2.746 0 000-3.82c-3.227-3.334-.065-8.811 4.436-7.683a2.746 2.746 0 003.308-1.91z" stroke="url(#paint3_linear_2709_4304)" stroke-width=".373" stroke-linecap="round"/></g><g filter="url(#filter2_d_2709_4304)"><path fill-rule="evenodd" clip-rule="evenodd" d="M33.575 25.864a.933.933 0 10-1.434-1.195l-4.31 5.172c-.462.554-.745.89-.979 1.101a.954.954 0 01-.216.158.954.954 0 01-.217-.158c-.233-.21-.517-.547-.978-1.1l-1.822-2.186a.933.933 0 00-1.434 1.195l1.861 2.233c.41.49.778.933 1.122 1.244.374.338.846.64 1.468.64.621 0 1.093-.302 1.468-.64.344-.311.712-.753 1.121-1.244l4.35-5.22z" fill="url(#paint4_linear_2709_4304)"/></g></g><defs><linearGradient id="paint1_linear_2709_4304" x1="29" y1="1" x2="29" y2="57" gradientUnits="userSpaceOnUse"><stop stop-color="#fff"/><stop offset="1" stop-color="#fff" stop-opacity="0"/></linearGradient><linearGradient id="paint2_linear_2709_4304" x1="27.283" y1="33.428" x2="46.077" y2="17.072" gradientUnits="userSpaceOnUse"><stop stop-color="#209440"/><stop offset="1" stop-color="#2EFF36"/></linearGradient><linearGradient id="paint3_linear_2709_4304" x1="14.381" y1="14.15" x2="43.958" y2="41.01" gradientUnits="userSpaceOnUse"><stop stop-color="#fff" stop-opacity=".25"/><stop offset="1" stop-color="#fff" stop-opacity="0"/></linearGradient><linearGradient id="paint4_linear_2709_4304" x1="27.98" y1="34.807" x2="39.4" y2="19.478" gradientUnits="userSpaceOnUse"><stop stop-color="#fff"/><stop offset="1" stop-color="#fff" stop-opacity=".2"/></linearGradient><filter id="filter0_b_2709_4304" x="-8.46" y="-8.46" width="74.92" height="74.92" filterUnits="userSpaceOnUse" color-interpolation-filters="sRGB"><feFlood flood-opacity="0" result="BackgroundImageFix"/><feGaussianBlur in="BackgroundImageFix" stdDeviation="4.48"/><feComposite in2="SourceAlpha" operator="in" result="effect1_backgroundBlur_2709_4304"/><feBlend in="SourceGraphic" in2="effect1_backgroundBlur_2709_4304" result="shape"/></filter><filter id="filter1_b_2709_4304" x="5.233" y="5.004" width="45.294" height="47.993" filterUnits="userSpaceOnUse" color-interpolation-filters="sRGB"><feFlood flood-opacity="0" result="BackgroundImageFix"/><feGaussianBlur in="BackgroundImageFix" stdDeviation="4.48"/><feComposite in2="SourceAlpha" operator="in" result="effect1_backgroundBlur_2709_4304"/><feBlend in="SourceGraphic" in2="effect1_backgroundBlur_2709_4304" result="shape"/></filter><filter id="filter2_d_2709_4304" x="20.753" y="23.118" width="16.684" height="13.496" filterUnits="userSpaceOnUse" color-interpolation-filters="sRGB"><feFlood flood-opacity="0" result="BackgroundImageFix"/><feColorMatrix in="SourceAlpha" values="0 0 0 0 0 0 0 0 0 0 0 0 0 0 0 0 0 0 127 0" result="hardAlpha"/><feOffset dx="1.216" dy="1.216"/><feGaussianBlur stdDeviation="1.216"/><feColorMatrix values="0 0 0 0 0.152941 0 0 0 0 0.784314 0 0 0 0 0.235294 0 0 0 0.5 0"/><feBlend in2="BackgroundImageFix" result="effect1_dropShadow_2709_4304"/><feBlend in="SourceGraphic" in2="effect1_dropShadow_2709_4304" result="shape"/></filter><clipPath id="clip0_2709_4304"><path fill="#fff" transform="translate(26.387 14.813)" d="M0 0h18.667v18.667H0z"/></clipPath><clipPath id="clip1_2709_4304"><path fill="#fff" transform="translate(12.947 14.067)" d="M0 0h29.867v29.867H0z"/></clipPath><radialGradient id="paint0_radial_2709_4304" cx="0" cy="0" r="1" gradientUnits="userSpaceOnUse" gradientTransform="rotate(45 -.707 1.707) scale(79.196)"><stop stop-color="#FAFAFA"/><stop offset="1" stop-color="#F7F7F7" stop-opacity="0"/></radialGradient></defs></svg>ues="0 0 0 0 0.152941 0 0 0 0 0.784314 0 0 0 0 0.235294 0 0 0 0.5 0"/>
<feBlend mode="normal" in2="BackgroundImageFix" result="effect1_dropShadow_2709_4304"/>
<feBlend mode="normal" in="SourceGraphic" in2="effect1_dropShadow_2709_4304" result="shape"/>
</filter>
<radialGradient id="paint0_radial_2709_4304" cx="0" cy="0" r="1" gradientUnits="userSpaceOnUse" gradientTransform="translate(1 1) rotate(45) scale(79.196)">
<stop stop-color="#FAFAFA"/>
<stop offset="1" stop-color="#F7F7F7" stop-opacity="0"/>
</radialGradient>
<linearGradient id="paint1_linear_2709_4304" x1="29" y1="1" x2="29" y2="57" gradientUnits="userSpaceOnUse">
<stop stop-color="white"/>
<stop offset="1" stop-color="white" stop-opacity="0"/>
</linearGradient>
<linearGradient id="paint2_linear_2709_4304" x1="27.283" y1="33.4277" x2="46.077" y2="17.0716" gradientUnits="userSpaceOnUse">
<stop stop-color="#209440"/>
<stop offset="1" stop-color="#2EFF36"/>
</linearGradient>
<linearGradient id="paint3_linear_2709_4304" x1="14.3807" y1="14.1502" x2="43.9579" y2="41.0103" gradientUnits="userSpaceOnUse">
<stop stop-color="white" stop-opacity="0.25"/>
<stop offset="1" stop-color="white" stop-opacity="0"/>
</linearGradient>
<linearGradient id="paint4_linear_2709_4304" x1="27.9797" y1="34.8066" x2="39.4" y2="19.4779" gradientUnits="userSpaceOnUse">
<stop stop-color="white"/>
<stop offset="1" stop-color="white" stop-opacity="0.2"/>
</linearGradient>
<clipPath id="clip0_2709_4304">
<rect width="18.6667" height="18.6667" fill="white" transform="translate(26.3867 14.8133)"/>
</clipPath>
<clipPath id="clip1_2709_4304">
<rect width="29.8667" height="29.8667" fill="white" transform="translate(12.9467 14.0667)"/>
</clipPath>
</defs>
</svg>
