<svg width="58" height="58" viewBox="0 0 58 58" fill="none" xmlns="http://www.w3.org/2000/svg"><g filter="url(#filter0_b_2709_4305)"><rect x="1" y="1" width="56" height="56" rx="16" fill="url(#paint0_radial_2709_4305)" fill-opacity=".2"/><rect x="1" y="1" width="56" height="56" rx="16" stroke="url(#paint1_linear_2709_4305)"/></g><path d="M30.915 29.495c-2.521-2.521-3.782-3.782-3.782-5.348 0-1.567 1.26-2.827 3.782-5.348l.204-.204c2.52-2.521 3.781-3.782 5.348-3.782 1.566 0 2.827 1.26 5.348 3.782l.203.204c2.521 2.52 3.782 3.781 3.782 5.348 0 1.566-1.26 2.827-3.782 5.348l-.203.203c-2.521 2.521-3.782 3.782-5.348 3.782-1.567 0-2.827-1.26-5.348-3.782l-.204-.203z" fill="url(#paint2_linear_2709_4305)"/><g filter="url(#filter1_b_2709_4305)" fill-rule="evenodd" clip-rule="evenodd"><path d="M26.778 18.336a7.18 7.18 0 01.71 0c.913.045 1.753.31 2.69.745.911.423 1.97 1.035 3.311 1.809l.076.044c1.34.773 2.4 1.385 3.223 1.963.845.594 1.494 1.19 1.99 1.957.128.199.247.404.355.614.417.814.607 1.674.699 2.702.09 1.002.09 2.225.09 3.773v.088c0 1.547 0 2.77-.09 3.772-.092 1.029-.282 1.889-.7 2.702-.107.21-.226.415-.354.614-.496.768-1.145 1.363-1.99 1.957-.823.578-1.882 1.19-3.223 1.964l-.076.044c-1.34.773-2.4 1.385-3.311 1.808-.937.435-1.777.7-2.69.745a7.18 7.18 0 01-.71 0c-.912-.045-1.752-.31-2.69-.745-.91-.423-1.97-1.035-3.31-1.809l-.077-.043c-1.34-.774-2.4-1.386-3.222-1.964-.845-.594-1.495-1.189-1.99-1.957a7.153 7.153 0 01-.355-.614c-.417-.813-.608-1.674-.7-2.702-.089-1.001-.089-2.225-.089-3.772v-.088c0-1.548 0-2.771.09-3.773.091-1.028.282-1.889.699-2.702a7.17 7.17 0 01.355-.614c.495-.768 1.145-1.363 1.99-1.957.822-.578 1.882-1.19 3.222-1.963l.076-.044c1.34-.774 2.4-1.386 3.312-1.81.937-.434 1.777-.699 2.69-.744z" fill="#28D03B" fill-opacity=".35"/><path d="M26.778 18.336a7.18 7.18 0 01.71 0c.913.045 1.753.31 2.69.745.911.423 1.97 1.035 3.311 1.809l.076.044c1.34.773 2.4 1.385 3.223 1.963.845.594 1.494 1.19 1.99 1.957.128.199.247.404.355.614.417.814.607 1.674.699 2.702.09 1.002.09 2.225.09 3.773v.088c0 1.547 0 2.77-.09 3.772-.092 1.029-.282 1.889-.7 2.702-.107.21-.226.415-.354.614-.496.768-1.145 1.363-1.99 1.957-.823.578-1.882 1.19-3.223 1.964l-.076.044c-1.34.773-2.4 1.385-3.311 1.808-.937.435-1.777.7-2.69.745a7.18 7.18 0 01-.71 0c-.912-.045-1.752-.31-2.69-.745-.91-.423-1.97-1.035-3.31-1.809l-.077-.043c-1.34-.774-2.4-1.386-3.222-1.964-.845-.594-1.495-1.189-1.99-1.957a7.153 7.153 0 01-.355-.614c-.417-.813-.608-1.674-.7-2.702-.089-1.001-.089-2.225-.089-3.772v-.088c0-1.548 0-2.771.09-3.773.091-1.028.282-1.889.699-2.702a7.17 7.17 0 01.355-.614c.495-.768 1.145-1.363 1.99-1.957.822-.578 1.882-1.19 3.222-1.963l.076-.044c1.34-.774 2.4-1.386 3.312-1.81.937-.434 1.777-.699 2.69-.744z" stroke="url(#paint3_linear_2709_4305)" stroke-width=".373"/></g><g filter="url(#filter2_d_2709_4305)"><path fill-rule="evenodd" clip-rule="evenodd" d="M34.193 28.842a.933.933 0 00-1.675-.822L30.7 31.725c-.563 1.148-2.219 1.092-2.703-.092-1.094-2.674-4.834-2.8-6.107-.207l-1.817 3.705a.933.933 0 101.676.822l1.817-3.705c.564-1.148 2.22-1.092 2.703.092 1.094 2.674 4.835 2.801 6.107.207l1.817-3.705z" fill="url(#paint4_linear_2709_4305)"/></g><defs><linearGradient id="paint1_linear_2709_4305" x1="29" y1="1" x2="29" y2="57" gradientUnits="userSpaceOnUse"><stop stop-color="#fff"/><stop offset="1" stop-color="#fff" stop-opacity="0"/></linearGradient><linearGradient id="paint2_linear_2709_4305" x1="27.133" y1="33.48" x2="46.198" y2="15.229" gradientUnits="userSpaceOnUse"><stop stop-color="#209440"/><stop offset="1" stop-color="#2EFF36"/></linearGradient><linearGradient id="paint3_linear_2709_4305" x1="14.345" y1="18.327" x2="41.617" y2="43.833" gradientUnits="userSpaceOnUse"><stop stop-color="#fff" stop-opacity=".25"/><stop offset="1" stop-color="#fff" stop-opacity="0"/></linearGradient><linearGradient id="paint4_linear_2709_4305" x1="27.254" y1="38.389" x2="38.508" y2="20.803" gradientUnits="userSpaceOnUse"><stop stop-color="#fff"/><stop offset="1" stop-color="#fff" stop-opacity=".2"/></linearGradient><filter id="filter0_b_2709_4305" x="-8.46" y="-8.46" width="74.92" height="74.92" filterUnits="userSpaceOnUse" color-interpolation-filters="sRGB"><feFlood flood-opacity="0" result="BackgroundImageFix"/><feGaussianBlur in="BackgroundImageFix" stdDeviation="4.48"/><feComposite in2="SourceAlpha" operator="in" result="effect1_backgroundBlur_2709_4305"/><feBlend in="SourceGraphic" in2="effect1_backgroundBlur_2709_4305" result="shape"/></filter><filter id="filter1_b_2709_4305" x="5.198" y="9.18" width="43.87" height="45.613" filterUnits="userSpaceOnUse" color-interpolation-filters="sRGB"><feFlood flood-opacity="0" result="BackgroundImageFix"/><feGaussianBlur in="BackgroundImageFix" stdDeviation="4.48"/><feComposite in2="SourceAlpha" operator="in" result="effect1_backgroundBlur_2709_4305"/><feBlend in="SourceGraphic" in2="effect1_backgroundBlur_2709_4305" result="shape"/></filter><filter id="filter2_d_2709_4305" x="18.762" y="26.282" width="19.174" height="13.84" filterUnits="userSpaceOnUse" color-interpolation-filters="sRGB"><feFlood flood-opacity="0" result="BackgroundImageFix"/><feColorMatrix in="SourceAlpha" values="0 0 0 0 0 0 0 0 0 0 0 0 0 0 0 0 0 0 127 0" result="hardAlpha"/><feOffset dx="1.216" dy="1.216"/><feGaussianBlur stdDeviation="1.216"/><feColorMatrix values="0 0 0 0 0.788235 0 0 0 0 0.152941 0 0 0 0 0.666667 0 0 0 0.5 0"/><feBlend in2="BackgroundImageFix" result="effect1_dropShadow_2709_4305"/><feBlend in="SourceGraphic" in2="effect1_dropShadow_2709_4305" result="shape"/></filter><radialGradient id="paint0_radial_2709_4305" cx="0" cy="0" r="1" gradientUnits="userSpaceOnUse" gradientTransform="rotate(45 -.707 1.707) scale(79.196)"><stop stop-color="#FAFAFA"/><stop offset="1" stop-color="#F7F7F7" stop-opacity="0"/></radialGradient></defs></svg><feFlood flood-opacity="0" result="BackgroundImageFix"/>
<feColorMatrix in="SourceAlpha" type="matrix" values="0 0 0 0 0 0 0 0 0 0 0 0 0 0 0 0 0 0 127 0" result="hardAlpha"/>
<feOffset dx="1.21551" dy="1.21551"/>
<feGaussianBlur stdDeviation="1.21551"/>
<feColorMatrix type="matrix" values="0 0 0 0 0.788235 0 0 0 0 0.152941 0 0 0 0 0.666667 0 0 0 0.5 0"/>
<feBlend mode="normal" in2="BackgroundImageFix" result="effect1_dropShadow_2709_4305"/>
<feBlend mode="normal" in="SourceGraphic" in2="effect1_dropShadow_2709_4305" result="shape"/>
</filter>
<radialGradient id="paint0_radial_2709_4305" cx="0" cy="0" r="1" gradientUnits="userSpaceOnUse" gradientTransform="translate(1 1) rotate(45) scale(79.196)">
<stop stop-color="#FAFAFA"/>
<stop offset="1" stop-color="#F7F7F7" stop-opacity="0"/>
</radialGradient>
<linearGradient id="paint1_linear_2709_4305" x1="29" y1="1" x2="29" y2="57" gradientUnits="userSpaceOnUse">
<stop stop-color="white"/>
<stop offset="1" stop-color="white" stop-opacity="0"/>
</linearGradient>
<linearGradient id="paint2_linear_2709_4305" x1="27.1333" y1="33.48" x2="46.1977" y2="15.2288" gradientUnits="userSpaceOnUse">
<stop stop-color="#209440"/>
<stop offset="1" stop-color="#2EFF36"/>
</linearGradient>
<linearGradient id="paint3_linear_2709_4305" x1="14.345" y1="18.327" x2="41.617" y2="43.8334" gradientUnits="userSpaceOnUse">
<stop stop-color="white" stop-opacity="0.25"/>
<stop offset="1" stop-color="white" stop-opacity="0"/>
</linearGradient>
<linearGradient id="paint4_linear_2709_4305" x1="27.2537" y1="38.3885" x2="38.5079" y2="20.8033" gradientUnits="userSpaceOnUse">
<stop stop-color="white"/>
<stop offset="1" stop-color="white" stop-opacity="0.2"/>
</linearGradient>
</defs>
</svg>
