<svg width="58" height="58" viewBox="0 0 58 58" fill="none" xmlns="http://www.w3.org/2000/svg">
<g filter="url(#filter0_b_1971_16979)">
<rect x="1" y="1" width="56" height="56" rx="16" fill="url(#paint0_radial_1971_16979)" fill-opacity="0.2"/>
<rect x="1" y="1" width="56" height="56" rx="16" stroke="url(#paint1_linear_1971_16979)"/>
</g>
<circle cx="36.4666" cy="35.3466" r="9.33333" fill="url(#paint2_linear_1971_16979)"/>
<g filter="url(#filter1_b_1971_16979)">
<path fill-rule="evenodd" clip-rule="evenodd" d="M18.4982 16.6239C18.6291 16.5288 18.7644 16.4414 18.905 16.3609C18.9502 16.4615 19.0141 16.5557 19.0967 16.6383C20.7027 18.2443 21.9633 19.5029 23.0745 20.3923C24.1995 21.2927 25.2531 21.8837 26.467 22.076C27.2086 22.1935 27.9641 22.1935 28.7057 22.076C29.8857 21.8891 30.9139 21.3255 32.0038 20.4673C33.0797 19.6199 34.2875 18.4257 35.808 16.9063C35.8567 16.8576 35.899 16.8048 35.9347 16.749C36.3945 17.1072 36.802 17.5284 37.145 18.0004C38.3333 19.636 38.3333 21.9692 38.3333 26.6355V29.1244C38.3333 33.7908 38.3333 36.1239 37.145 37.7595C36.7612 38.2878 36.2967 38.7523 35.7685 39.1361C34.1328 40.3244 31.7997 40.3244 27.1333 40.3244C22.467 40.3244 20.1338 40.3244 18.4982 39.1361C17.97 38.7523 17.5055 38.2878 17.1217 37.7595C15.9333 36.1239 15.9333 33.7908 15.9333 29.1244V26.6355C15.9333 21.9692 15.9333 19.636 17.1217 18.0004C17.5055 17.4722 17.97 17.0077 18.4982 16.6239Z" fill="#28D03B" fill-opacity="0.35"/>
<path d="M27.1333 15.4355C30.4933 15.4355 32.6436 15.4355 34.1948 15.8792C32.8006 17.2697 31.7577 18.285 30.8488 19.0008C29.8912 19.7549 29.1571 20.1146 28.4137 20.2323C27.8655 20.3191 27.3071 20.3191 26.759 20.2323C25.9942 20.1112 25.2395 19.7342 24.241 18.9349C23.3112 18.1908 22.2415 17.141 20.8073 15.7089C22.2909 15.4355 24.2741 15.4355 27.1333 15.4355Z" fill="#28D03B" fill-opacity="0.35"/>
<path d="M19.0753 16.2844L18.991 16.0966L18.8123 16.1989C18.6658 16.2827 18.5249 16.3738 18.3885 16.4729C17.8444 16.8682 17.366 17.3466 16.9707 17.8907C16.3495 18.7456 16.0466 19.7744 15.8963 21.1614C15.7467 22.5424 15.7467 24.3005 15.7467 26.6236V26.6355V29.1244V29.1363C15.7467 31.4594 15.7467 33.2176 15.8963 34.5986C16.0466 35.9855 16.3495 37.0143 16.9707 37.8693C17.366 38.4133 17.8444 38.8918 18.3885 39.2871C19.2434 39.9083 20.2723 40.2112 21.6592 40.3615C23.0402 40.5111 24.7984 40.5111 27.1215 40.5111H27.1333H27.1452C29.4683 40.5111 31.2265 40.5111 32.6075 40.3615C33.9944 40.2112 35.0232 39.9083 35.8782 39.2871C36.4223 38.8918 36.9007 38.4133 37.296 37.8693C37.9172 37.0143 38.2201 35.9855 38.3704 34.5986C38.52 33.2175 38.52 31.4594 38.52 29.1363V29.1244V26.6355V26.6237C38.52 24.3005 38.52 22.5424 38.3704 21.1614C38.2201 19.7744 37.9172 18.7456 37.296 17.8907C36.9428 17.4045 36.523 16.9706 36.0494 16.6017L35.888 16.476L35.7776 16.6483C35.749 16.6928 35.7152 16.7351 35.676 16.7743C34.1533 18.2959 32.9538 19.4815 31.8883 20.3206C30.8117 21.1685 29.8128 21.7117 28.6765 21.8916C27.9542 22.006 27.2184 22.006 26.4962 21.8916C25.3272 21.7065 24.3035 21.1369 23.1912 20.2466C22.0898 19.3651 20.8374 18.115 19.2287 16.5063C19.1623 16.44 19.1113 16.3647 19.0753 16.2844ZM34.3266 16.0113L34.5515 15.787L34.2461 15.6997C32.6697 15.2489 30.4978 15.2489 27.1734 15.2489L27.1333 15.2489H27.11C24.271 15.2489 22.2738 15.2489 20.7735 15.5253L20.4238 15.5898L20.6754 15.841C22.1077 17.2712 23.185 18.3289 24.1243 19.0807C25.1355 19.89 25.9201 20.2884 26.7298 20.4167C27.2973 20.5066 27.8754 20.5066 28.4429 20.4167C29.23 20.292 29.9935 19.912 30.9643 19.1474C31.8833 18.4237 32.934 17.4003 34.3266 16.0113Z" stroke="url(#paint3_linear_1971_16979)" stroke-width="0.373333" stroke-linecap="round"/>
</g>
<g filter="url(#filter2_d_1971_16979)">
<path fill-rule="evenodd" clip-rule="evenodd" d="M24.6444 26.9467C24.1289 26.9467 23.7111 27.3645 23.7111 27.88C23.7111 28.3955 24.1289 28.8133 24.6444 28.8133H29.6222C30.1376 28.8133 30.5555 28.3955 30.5555 27.88C30.5555 27.3645 30.1376 26.9467 29.6222 26.9467H24.6444ZM22.1555 31.9244C21.64 31.9244 21.2222 32.3423 21.2222 32.8578C21.2222 33.3732 21.64 33.7911 22.1555 33.7911H32.1111C32.6265 33.7911 33.0444 33.3732 33.0444 32.8578C33.0444 32.3423 32.6265 31.9244 32.1111 31.9244H22.1555Z" fill="url(#paint4_linear_1971_16979)"/>
</g>
<defs>
<filter id="filter0_b_1971_16979" x="-8.46" y="-8.46" width="74.92" height="74.92" filterUnits="userSpaceOnUse" color-interpolation-filters="sRGB">
<feFlood flood-opacity="0" result="BackgroundImageFix"/>
<feGaussianBlur in="BackgroundImageFix" stdDeviation="4.48"/>
<feComposite in2="SourceAlpha" operator="in" result="effect1_backgroundBlur_1971_16979"/>
<feBlend mode="normal" in="SourceGraphic" in2="effect1_backgroundBlur_1971_16979" result="shape"/>
</filter>
<filter id="filter1_b_1971_16979" x="6.60006" y="6.10219" width="41.0667" height="43.5556" filterUnits="userSpaceOnUse" color-interpolation-filters="sRGB">
<feFlood flood-opacity="0" result="BackgroundImageFix"/>
<feGaussianBlur in="BackgroundImageFix" stdDeviation="4.48"/>
<feComposite in2="SourceAlpha" operator="in" result="effect1_backgroundBlur_1971_16979"/>
<feBlend mode="normal" in="SourceGraphic" in2="effect1_backgroundBlur_1971_16979" result="shape"/>
</filter>
<filter id="filter2_d_1971_16979" x="20.0067" y="25.7311" width="16.6843" height="11.7065" filterUnits="userSpaceOnUse" color-interpolation-filters="sRGB">
<feFlood flood-opacity="0" result="BackgroundImageFix"/>
<feColorMatrix in="SourceAlpha" type="matrix" values="0 0 0 0 0 0 0 0 0 0 0 0 0 0 0 0 0 0 127 0" result="hardAlpha"/>
<feOffset dx="1.21551" dy="1.21551"/>
<feGaussianBlur stdDeviation="1.21551"/>
<feColorMatrix type="matrix" values="0 0 0 0 0.152941 0 0 0 0 0.784314 0 0 0 0 0.235294 0 0 0 0.5 0"/>
<feBlend mode="normal" in2="BackgroundImageFix" result="effect1_dropShadow_1971_16979"/>
<feBlend mode="normal" in="SourceGraphic" in2="effect1_dropShadow_1971_16979" result="shape"/>
</filter>
<radialGradient id="paint0_radial_1971_16979" cx="0" cy="0" r="1" gradientUnits="userSpaceOnUse" gradientTransform="translate(1 1) rotate(45) scale(79.196)">
<stop stop-color="#FAFAFA"/>
<stop offset="1" stop-color="#F7F7F7" stop-opacity="0"/>
</radialGradient>
<linearGradient id="paint1_linear_1971_16979" x1="29" y1="1" x2="29" y2="57" gradientUnits="userSpaceOnUse">
<stop stop-color="white"/>
<stop offset="1" stop-color="white" stop-opacity="0"/>
</linearGradient>
<linearGradient id="paint2_linear_1971_16979" x1="27.1333" y1="44.68" x2="46.1977" y2="26.4288" gradientUnits="userSpaceOnUse">
<stop stop-color="#209440"/>
<stop offset="1" stop-color="#2EFF36"/>
</linearGradient>
<linearGradient id="paint3_linear_1971_16979" x1="15.9333" y1="15.4355" x2="40.6946" y2="37.6981" gradientUnits="userSpaceOnUse">
<stop stop-color="white" stop-opacity="0.25"/>
<stop offset="1" stop-color="white" stop-opacity="0"/>
</linearGradient>
<linearGradient id="paint4_linear_1971_16979" x1="27.2328" y1="35.2493" x2="35.5071" y2="21.2396" gradientUnits="userSpaceOnUse">
<stop stop-color="white"/>
<stop offset="1" stop-color="white" stop-opacity="0.2"/>
</linearGradient>
</defs>
</svg>
