<svg width="58" height="58" viewBox="0 0 58 58" fill="none" xmlns="http://www.w3.org/2000/svg"><g filter="url(#filter0_b_1971_16979)"><rect x="1" y="1" width="56" height="56" rx="16" fill="url(#paint0_radial_1971_16979)" fill-opacity=".2"/><rect x="1" y="1" width="56" height="56" rx="16" stroke="url(#paint1_linear_1971_16979)"/></g><circle cx="36.467" cy="35.347" r="9.333" fill="url(#paint2_linear_1971_16979)"/><g filter="url(#filter1_b_1971_16979)"><path fill-rule="evenodd" clip-rule="evenodd" d="M18.498 16.624c.131-.095.266-.183.407-.263.045.1.11.195.192.277 1.606 1.606 2.866 2.865 3.977 3.754 1.125.9 2.18 1.492 3.393 1.684a7.153 7.153 0 002.239 0c1.18-.187 2.208-.75 3.298-1.609 1.076-.847 2.284-2.041 3.804-3.56a.935.935 0 00.127-.158c.46.358.867.78 1.21 1.251 1.188 1.636 1.188 3.97 1.188 8.636v2.488c0 4.667 0 7-1.188 8.636a6.222 6.222 0 01-1.377 1.376c-1.635 1.188-3.968 1.188-8.635 1.188-4.666 0-7 0-8.635-1.188a6.222 6.222 0 01-1.376-1.377c-1.189-1.635-1.189-3.968-1.189-8.635v-2.488c0-4.667 0-7 1.189-8.636a6.224 6.224 0 011.376-1.376z" fill="#28D03B" fill-opacity=".35"/><path d="M27.133 15.435c3.36 0 5.51 0 7.062.444-1.394 1.39-2.437 2.406-3.346 3.122-.958.754-1.692 1.114-2.435 1.231a5.29 5.29 0 01-1.655 0c-.765-.12-1.52-.498-2.518-1.297-.93-.744-2-1.794-3.434-3.226 1.484-.274 3.467-.274 6.326-.274z" fill="#28D03B" fill-opacity=".35"/><path d="M19.075 16.284l-.084-.187-.179.102a4.634 4.634 0 00-.424.274 6.408 6.408 0 00-1.417 1.418c-.622.855-.924 1.883-1.075 3.27-.15 1.381-.15 3.14-.15 5.463v2.512c0 2.323 0 4.082.15 5.463.15 1.387.453 2.415 1.075 3.27a6.41 6.41 0 001.418 1.418c.854.621 1.883.924 3.27 1.075 1.381.15 3.14.15 5.463.15h.023c2.323 0 4.082 0 5.463-.15 1.386-.15 2.415-.454 3.27-1.075a6.41 6.41 0 001.418-1.418c.621-.855.924-1.883 1.074-3.27.15-1.381.15-3.14.15-5.463v-2.512c0-2.323 0-4.082-.15-5.463-.15-1.387-.453-2.415-1.074-3.27a6.408 6.408 0 00-1.247-1.29l-.161-.125-.11.172a.756.756 0 01-.102.126c-1.523 1.522-2.722 2.707-3.788 3.547-1.076.848-2.075 1.39-3.212 1.57a6.968 6.968 0 01-2.18 0c-1.169-.184-2.192-.754-3.305-1.644-1.101-.882-2.354-2.132-3.962-3.74a.742.742 0 01-.154-.223zm15.252-.273l.224-.224-.305-.087c-1.576-.451-3.748-.451-7.073-.451h-.063c-2.839 0-4.836 0-6.337.276l-.35.065.252.251c1.433 1.43 2.51 2.488 3.45 3.24 1.01.809 1.795 1.207 2.605 1.336.567.09 1.145.09 1.713 0 .787-.125 1.55-.505 2.521-1.27.92-.723 1.97-1.747 3.363-3.136z" stroke="url(#paint3_linear_1971_16979)" stroke-width=".373" stroke-linecap="round"/></g><g filter="url(#filter2_d_1971_16979)"><path fill-rule="evenodd" clip-rule="evenodd" d="M24.644 26.947a.933.933 0 100 1.866h4.978a.933.933 0 100-1.866h-4.978zm-2.488 4.977a.933.933 0 000 1.867h9.955a.933.933 0 000-1.867h-9.955z" fill="url(#paint4_linear_1971_16979)"/></g><defs><linearGradient id="paint1_linear_1971_16979" x1="29" y1="1" x2="29" y2="57" gradientUnits="userSpaceOnUse"><stop stop-color="#fff"/><stop offset="1" stop-color="#fff" stop-opacity="0"/></linearGradient><linearGradient id="paint2_linear_1971_16979" x1="27.133" y1="44.68" x2="46.198" y2="26.429" gradientUnits="userSpaceOnUse"><stop stop-color="#209440"/><stop offset="1" stop-color="#2EFF36"/></linearGradient><linearGradient id="paint3_linear_1971_16979" x1="15.933" y1="15.435" x2="40.695" y2="37.698" gradientUnits="userSpaceOnUse"><stop stop-color="#fff" stop-opacity=".25"/><stop offset="1" stop-color="#fff" stop-opacity="0"/></linearGradient><linearGradient id="paint4_linear_1971_16979" x1="27.233" y1="35.249" x2="35.507" y2="21.24" gradientUnits="userSpaceOnUse"><stop stop-color="#fff"/><stop offset="1" stop-color="#fff" stop-opacity=".2"/></linearGradient><filter id="filter0_b_1971_16979" x="-8.46" y="-8.46" width="74.92" height="74.92" filterUnits="userSpaceOnUse" color-interpolation-filters="sRGB"><feFlood flood-opacity="0" result="BackgroundImageFix"/><feGaussianBlur in="BackgroundImageFix" stdDeviation="4.48"/><feComposite in2="SourceAlpha" operator="in" result="effect1_backgroundBlur_1971_16979"/><feBlend in="SourceGraphic" in2="effect1_backgroundBlur_1971_16979" result="shape"/></filter><filter id="filter1_b_1971_16979" x="6.6" y="6.102" width="41.067" height="43.556" filterUnits="userSpaceOnUse" color-interpolation-filters="sRGB"><feFlood flood-opacity="0" result="BackgroundImageFix"/><feGaussianBlur in="BackgroundImageFix" stdDeviation="4.48"/><feComposite in2="SourceAlpha" operator="in" result="effect1_backgroundBlur_1971_16979"/><feBlend in="SourceGraphic" in2="effect1_backgroundBlur_1971_16979" result="shape"/></filter><filter id="filter2_d_1971_16979" x="20.007" y="25.731" width="16.684" height="11.707" filterUnits="userSpaceOnUse" color-interpolation-filters="sRGB"><feFlood flood-opacity="0" result="BackgroundImageFix"/><feColorMatrix in="SourceAlpha" values="0 0 0 0 0 0 0 0 0 0 0 0 0 0 0 0 0 0 127 0" result="hardAlpha"/><feOffset dx="1.216" dy="1.216"/><feGaussianBlur stdDeviation="1.216"/><feColorMatrix values="0 0 0 0 0.152941 0 0 0 0 0.784314 0 0 0 0 0.235294 0 0 0 0.5 0"/><feBlend in2="BackgroundImageFix" result="effect1_dropShadow_1971_16979"/><feBlend in="SourceGraphic" in2="effect1_dropShadow_1971_16979" result="shape"/></filter><radialGradient id="paint0_radial_1971_16979" cx="0" cy="0" r="1" gradientUnits="userSpaceOnUse" gradientTransform="rotate(45 -.707 1.707) scale(79.196)"><stop stop-color="#FAFAFA"/><stop offset="1" stop-color="#F7F7F7" stop-opacity="0"/></radialGradient></defs></svg>0 0 0 0 0 0 0 0 0 0 0 0 0 0 0 0 0 0 127 0" result="hardAlpha"/>
<feOffset dx="1.21551" dy="1.21551"/>
<feGaussianBlur stdDeviation="1.21551"/>
<feColorMatrix type="matrix" values="0 0 0 0 0.152941 0 0 0 0 0.784314 0 0 0 0 0.235294 0 0 0 0.5 0"/>
<feBlend mode="normal" in2="BackgroundImageFix" result="effect1_dropShadow_1971_16979"/>
<feBlend mode="normal" in="SourceGraphic" in2="effect1_dropShadow_1971_16979" result="shape"/>
</filter>
<radialGradient id="paint0_radial_1971_16979" cx="0" cy="0" r="1" gradientUnits="userSpaceOnUse" gradientTransform="translate(1 1) rotate(45) scale(79.196)">
<stop stop-color="#FAFAFA"/>
<stop offset="1" stop-color="#F7F7F7" stop-opacity="0"/>
</radialGradient>
<linearGradient id="paint1_linear_1971_16979" x1="29" y1="1" x2="29" y2="57" gradientUnits="userSpaceOnUse">
<stop stop-color="white"/>
<stop offset="1" stop-color="white" stop-opacity="0"/>
</linearGradient>
<linearGradient id="paint2_linear_1971_16979" x1="27.1333" y1="44.68" x2="46.1977" y2="26.4288" gradientUnits="userSpaceOnUse">
<stop stop-color="#209440"/>
<stop offset="1" stop-color="#2EFF36"/>
</linearGradient>
<linearGradient id="paint3_linear_1971_16979" x1="15.9333" y1="15.4355" x2="40.6946" y2="37.6981" gradientUnits="userSpaceOnUse">
<stop stop-color="white" stop-opacity="0.25"/>
<stop offset="1" stop-color="white" stop-opacity="0"/>
</linearGradient>
<linearGradient id="paint4_linear_1971_16979" x1="27.2328" y1="35.2493" x2="35.5071" y2="21.2396" gradientUnits="userSpaceOnUse">
<stop stop-color="white"/>
<stop offset="1" stop-color="white" stop-opacity="0.2"/>
</linearGradient>
</defs>
</svg>
