<svg width="58" height="58" viewBox="0 0 58 58" fill="none" xmlns="http://www.w3.org/2000/svg">
<g filter="url(#filter0_b_1971_17459)">
<rect x="1" y="1" width="56" height="56" rx="16" fill="url(#paint0_radial_1971_17459)" fill-opacity="0.2"/>
<rect x="1" y="1" width="56" height="56" rx="16" stroke="url(#paint1_linear_1971_17459)"/>
</g>
<path d="M34.0283 25.7602L35.7632 22.941C35.9684 22.6076 36.332 22.4044 36.7235 22.4044C37.4146 22.4044 37.9431 23.0204 37.838 23.7035L37.649 24.9322C37.4445 26.2613 38.4729 27.46 39.8176 27.46H40.3541C42.3273 27.46 43.6107 29.5365 42.7282 31.3014L41.835 33.088C41.1762 34.4055 39.8296 35.2378 38.3566 35.2378H36.0934C35.0451 35.2378 34.1178 34.7192 33.5542 33.9246C33.5618 33.8448 33.5656 33.764 33.5656 33.6822V27.46C33.5656 27.2025 33.5272 26.9541 33.4556 26.72C33.5935 26.4668 33.777 26.1686 34.0283 25.7602Z" fill="url(#paint2_linear_1971_17459)"/>
<path d="M32.399 33.6822C32.399 34.4339 31.7896 35.0433 31.0379 35.0433C30.2861 35.0433 29.6768 34.4339 29.6768 33.6822V27.46C29.6768 26.7083 30.2861 26.0989 31.0379 26.0989C31.7896 26.0989 32.399 26.7083 32.399 27.46V33.6822Z" fill="url(#paint3_linear_1971_17459)"/>
<g clip-path="url(#clip0_1971_17459)">
<g filter="url(#filter1_b_1971_17459)">
<circle cx="27.1334" cy="29" r="13.8133" fill="#5925BA" fill-opacity="0.35"/>
<circle cx="27.1334" cy="29" r="14" stroke="url(#paint4_linear_1971_17459)" stroke-width="0.373333" stroke-linecap="round"/>
</g>
<g filter="url(#filter2_d_1971_17459)">
<path d="M24.2725 24.4331L26.5553 20.7425C26.8253 20.306 27.3037 20.04 27.8189 20.04C28.7283 20.04 29.4237 20.8464 29.2854 21.7406L29.0367 23.3491C28.7676 25.0891 30.1207 26.6582 31.8902 26.6582H32.5961C35.1925 26.6582 36.8812 29.3766 35.7201 31.6871L34.5446 34.0259C33.6779 35.7506 31.906 36.84 29.9678 36.84H26.9898C25.6104 36.84 24.3903 36.1612 23.6486 35.121C23.6586 35.0166 23.6637 34.9107 23.6637 34.8037V26.6582C23.6637 26.3212 23.6131 25.9959 23.5189 25.6896C23.7003 25.3581 23.9418 24.9677 24.2725 24.4331Z" fill="url(#paint5_linear_1971_17459)"/>
<path d="M22.1286 34.8037C22.1286 35.7877 21.3267 36.5855 20.3376 36.5855C19.3485 36.5855 18.5466 35.7877 18.5466 34.8037V26.6582C18.5466 25.6741 19.3485 24.8764 20.3376 24.8764C21.3267 24.8764 22.1286 25.6741 22.1286 26.6582V34.8037Z" fill="url(#paint6_linear_1971_17459)"/>
</g>
</g>
<defs>
<filter id="filter0_b_1971_17459" x="-8.46" y="-8.46" width="74.92" height="74.92" filterUnits="userSpaceOnUse" color-interpolation-filters="sRGB">
<feFlood flood-opacity="0" result="BackgroundImageFix"/>
<feGaussianBlur in="BackgroundImageFix" stdDeviation="4.48"/>
<feComposite in2="SourceAlpha" operator="in" result="effect1_backgroundBlur_1971_17459"/>
<feBlend mode="normal" in="SourceGraphic" in2="effect1_backgroundBlur_1971_17459" result="shape"/>
</filter>
<filter id="filter1_b_1971_17459" x="3.98678" y="5.85335" width="46.2933" height="46.2933" filterUnits="userSpaceOnUse" color-interpolation-filters="sRGB">
<feFlood flood-opacity="0" result="BackgroundImageFix"/>
<feGaussianBlur in="BackgroundImageFix" stdDeviation="4.48"/>
<feComposite in2="SourceAlpha" operator="in" result="effect1_backgroundBlur_1971_17459"/>
<feBlend mode="normal" in="SourceGraphic" in2="effect1_backgroundBlur_1971_17459" result="shape"/>
</filter>
<filter id="filter2_d_1971_17459" x="17.4266" y="18.92" width="23.52" height="22.7734" filterUnits="userSpaceOnUse" color-interpolation-filters="sRGB">
<feFlood flood-opacity="0" result="BackgroundImageFix"/>
<feColorMatrix in="SourceAlpha" type="matrix" values="0 0 0 0 0 0 0 0 0 0 0 0 0 0 0 0 0 0 127 0" result="hardAlpha"/>
<feOffset dx="1.86667" dy="1.86667"/>
<feGaussianBlur stdDeviation="1.49333"/>
<feColorMatrix type="matrix" values="0 0 0 0 0.176471 0 0 0 0 0.556863 0 0 0 0 0.678431 0 0 0 0.5 0"/>
<feBlend mode="normal" in2="BackgroundImageFix" result="effect1_dropShadow_1971_17459"/>
<feBlend mode="normal" in="SourceGraphic" in2="effect1_dropShadow_1971_17459" result="shape"/>
</filter>
<radialGradient id="paint0_radial_1971_17459" cx="0" cy="0" r="1" gradientUnits="userSpaceOnUse" gradientTransform="translate(1 1) rotate(45) scale(79.196)">
<stop stop-color="#FAFAFA"/>
<stop offset="1" stop-color="#F7F7F7" stop-opacity="0"/>
</radialGradient>
<linearGradient id="paint1_linear_1971_17459" x1="29" y1="1" x2="29" y2="57" gradientUnits="userSpaceOnUse">
<stop stop-color="white"/>
<stop offset="1" stop-color="white" stop-opacity="0"/>
</linearGradient>
<linearGradient id="paint2_linear_1971_17459" x1="29.6768" y1="35.2378" x2="42.7958" y2="22.1872" gradientUnits="userSpaceOnUse">
<stop stop-color="#4C2094"/>
<stop offset="1" stop-color="#712EFF"/>
</linearGradient>
<linearGradient id="paint3_linear_1971_17459" x1="29.6768" y1="35.2378" x2="42.7958" y2="22.1872" gradientUnits="userSpaceOnUse">
<stop stop-color="#4C2094"/>
<stop offset="1" stop-color="#712EFF"/>
</linearGradient>
<linearGradient id="paint4_linear_1971_17459" x1="13.3201" y1="15.1866" x2="40.9607" y2="42.7993" gradientUnits="userSpaceOnUse">
<stop stop-color="white" stop-opacity="0.25"/>
<stop offset="1" stop-color="white" stop-opacity="0"/>
</linearGradient>
<linearGradient id="paint5_linear_1971_17459" x1="27.4677" y1="40.4192" x2="50.6526" y2="16.6822" gradientUnits="userSpaceOnUse">
<stop stop-color="white"/>
<stop offset="1" stop-color="white" stop-opacity="0.2"/>
</linearGradient>
<linearGradient id="paint6_linear_1971_17459" x1="27.4677" y1="40.4192" x2="50.6526" y2="16.6822" gradientUnits="userSpaceOnUse">
<stop stop-color="white"/>
<stop offset="1" stop-color="white" stop-opacity="0.2"/>
</linearGradient>
<clipPath id="clip0_1971_17459">
<rect width="29.8667" height="29.8667" fill="white" transform="translate(12.2 14.0667)"/>
</clipPath>
</defs>
</svg>
