<svg width="58" height="58" viewBox="0 0 58 58" fill="none" xmlns="http://www.w3.org/2000/svg">
<g filter="url(#filter0_b_1971_17476)">
<rect x="1" y="1" width="56" height="56" rx="16" fill="url(#paint0_radial_1971_17476)" fill-opacity="0.2"/>
<rect x="1" y="1" width="56" height="56" rx="16" stroke="url(#paint1_linear_1971_17476)"/>
</g>
<g clip-path="url(#clip0_1971_17476)">
<g clip-path="url(#clip1_1971_17476)">
<path fill-rule="evenodd" clip-rule="evenodd" d="M19.0889 19.6531C20.4687 19.2833 21.5502 18.9935 22.4332 18.8566C23.3342 18.7168 24.0965 18.7238 24.8202 19.0016C25.2583 19.1698 25.6673 19.4059 26.032 19.7012C26.6344 20.1891 27.0216 20.8457 27.3511 21.696C27.674 22.5291 27.9638 23.6107 28.3335 24.9904L28.3517 25.0585C28.7214 26.4382 29.0112 27.5197 29.1481 28.4026C29.2879 29.3037 29.2809 30.066 29.0031 30.7897C28.8349 31.2278 28.5989 31.6367 28.3035 32.0015C27.8157 32.6039 27.159 32.9911 26.3088 33.3206C25.4756 33.6434 24.3941 33.9332 23.0144 34.3029L22.9463 34.3212C21.5666 34.6909 20.485 34.9807 19.6021 35.1176C18.701 35.2574 17.9387 35.2504 17.215 34.9726C16.7769 34.8044 16.368 34.5683 16.0033 34.273C15.4008 33.7851 15.0137 33.1285 14.6842 32.2782C14.3613 31.4451 14.0715 30.3636 13.7018 28.9838L13.6836 28.9158C13.3139 27.5361 13.0241 26.4545 12.8871 25.5716C12.7474 24.6705 12.7543 23.9082 13.0321 23.1845C13.2003 22.7464 13.4364 22.3375 13.7317 21.9728C14.2196 21.3703 14.8763 20.9831 15.7265 20.6536C16.5596 20.3308 17.6412 20.041 19.0209 19.6713L19.0889 19.6531ZM20.5746 23.0797C20.4912 22.7686 20.1713 22.5839 19.8601 22.6673C19.5489 22.7507 19.3643 23.0705 19.4477 23.3817L21.4607 30.8945C21.5441 31.2056 21.8639 31.3903 22.1751 31.3069C22.4863 31.2236 22.671 30.9037 22.5876 30.5925L20.5746 23.0797ZM24.3849 25.2796C24.3015 24.9684 23.9816 24.7838 23.6705 24.8672C23.3593 24.9505 23.1746 25.2704 23.258 25.5816L24.4658 30.0892C24.5492 30.4004 24.869 30.5851 25.1802 30.5017C25.4914 30.4183 25.6761 30.0985 25.5927 29.7873L24.3849 25.2796ZM18.7773 28.3926C18.6939 28.0814 18.374 27.8968 18.0629 27.9801C17.7517 28.0635 17.567 28.3834 17.6504 28.6946L18.4556 31.6997C18.539 32.0109 18.8588 32.1955 19.17 32.1122C19.4812 32.0288 19.6659 31.7089 19.5825 31.3977L18.7773 28.3926Z" fill="url(#paint2_linear_1971_17476)"/>
</g>
<g clip-path="url(#clip2_1971_17476)">
<g filter="url(#filter1_b_1971_17476)">
<path fill-rule="evenodd" clip-rule="evenodd" d="M33.3148 17.2909C35.5224 17.8824 37.2529 18.3461 38.5859 18.8627C39.9463 19.3899 40.997 20.0094 41.7775 20.9733C42.25 21.5568 42.6278 22.2111 42.8969 22.9121C43.3414 24.07 43.3525 25.2897 43.1289 26.7314C42.9098 28.1441 42.4461 29.8746 41.8546 32.0821L41.8254 32.1911C41.2339 34.3986 40.7702 36.129 40.2536 37.462C39.7264 38.8224 39.1069 39.8731 38.143 40.6536C37.5595 41.1262 36.9052 41.5039 36.2042 41.773C35.0463 42.2175 33.8266 42.2286 32.3849 42.005C30.9722 41.7859 29.2417 41.3222 27.0342 40.7307L26.9252 40.7015C24.7177 40.11 22.9873 39.6464 21.6543 39.1298C20.2939 38.6026 19.2432 37.9831 18.4627 37.0192C17.9901 36.4356 17.6124 35.7814 17.3433 35.0804C16.8988 33.9224 16.8877 32.7028 17.1113 31.2611C17.3304 29.8483 17.7941 28.1179 18.3856 25.9103L18.4148 25.8015C19.0063 23.5939 19.4699 21.8634 19.9866 20.5304C20.5137 19.17 21.1332 18.1194 22.0971 17.3388C22.6807 16.8663 23.3349 16.4885 24.0359 16.2194C25.1939 15.7749 26.4135 15.7638 27.8552 15.9874C29.268 16.2065 30.9984 16.6702 33.206 17.2617L33.3148 17.2909Z" fill="#5925BA" fill-opacity="0.35"/>
<path fill-rule="evenodd" clip-rule="evenodd" d="M33.3148 17.2909C35.5224 17.8824 37.2529 18.3461 38.5859 18.8627C39.9463 19.3899 40.997 20.0094 41.7775 20.9733C42.25 21.5568 42.6278 22.2111 42.8969 22.9121C43.3414 24.07 43.3525 25.2897 43.1289 26.7314C42.9098 28.1441 42.4461 29.8746 41.8546 32.0821L41.8254 32.1911C41.2339 34.3986 40.7702 36.129 40.2536 37.462C39.7264 38.8224 39.1069 39.8731 38.143 40.6536C37.5595 41.1262 36.9052 41.5039 36.2042 41.773C35.0463 42.2175 33.8266 42.2286 32.3849 42.005C30.9722 41.7859 29.2417 41.3222 27.0342 40.7307L26.9252 40.7015C24.7177 40.11 22.9873 39.6464 21.6543 39.1298C20.2939 38.6026 19.2432 37.9831 18.4627 37.0192C17.9901 36.4356 17.6124 35.7814 17.3433 35.0804C16.8988 33.9224 16.8877 32.7028 17.1113 31.2611C17.3304 29.8483 17.7941 28.1179 18.3856 25.9103L18.4148 25.8015C19.0063 23.5939 19.4699 21.8634 19.9866 20.5304C20.5137 19.17 21.1332 18.1194 22.0971 17.3388C22.6807 16.8663 23.3349 16.4885 24.0359 16.2194C25.1939 15.7749 26.4135 15.7638 27.8552 15.9874C29.268 16.2065 30.9984 16.6702 33.206 17.2617L33.3148 17.2909Z" stroke="url(#paint3_linear_1971_17476)" stroke-width="0.373333" stroke-linecap="round"/>
</g>
<g filter="url(#filter2_d_1971_17476)">
<path fill-rule="evenodd" clip-rule="evenodd" d="M32.6321 23.2277C32.7655 22.7298 32.47 22.218 31.9721 22.0846C31.4742 21.9512 30.9625 22.2467 30.8291 22.7446L27.6082 34.765C27.4748 35.2629 27.7703 35.7747 28.2682 35.9081C28.7661 36.0415 29.2778 35.746 29.4113 35.2481L32.6321 23.2277ZM36.1519 29.3242C36.2853 28.8263 35.9899 28.3145 35.492 28.1811C34.9941 28.0477 34.4823 28.3432 34.3489 28.8411L32.4164 36.0533C32.2829 36.5512 32.5784 37.063 33.0763 37.1964C33.5742 37.3298 34.086 37.0343 34.2194 36.5364L36.1519 29.3242ZM25.8914 29.1516C26.0248 28.6537 25.7294 28.1419 25.2315 28.0085C24.7336 27.8751 24.2218 28.1706 24.0884 28.6685L22.8 33.4766C22.6666 33.9745 22.9621 34.4863 23.46 34.6197C23.9579 34.7531 24.4697 34.4577 24.6031 33.9598L25.8914 29.1516Z" fill="url(#paint4_linear_1971_17476)"/>
</g>
</g>
</g>
<defs>
<filter id="filter0_b_1971_17476" x="-8.46" y="-8.46" width="74.92" height="74.92" filterUnits="userSpaceOnUse" color-interpolation-filters="sRGB">
<feFlood flood-opacity="0" result="BackgroundImageFix"/>
<feGaussianBlur in="BackgroundImageFix" stdDeviation="4.48"/>
<feComposite in2="SourceAlpha" operator="in" result="effect1_backgroundBlur_1971_17476"/>
<feBlend mode="normal" in="SourceGraphic" in2="effect1_backgroundBlur_1971_17476" result="shape"/>
</filter>
<filter id="filter1_b_1971_17476" x="-7.21826" y="-8.34229" width="74.6768" height="74.677" filterUnits="userSpaceOnUse" color-interpolation-filters="sRGB">
<feFlood flood-opacity="0" result="BackgroundImageFix"/>
<feGaussianBlur in="BackgroundImageFix" stdDeviation="12"/>
<feComposite in2="SourceAlpha" operator="in" result="effect1_backgroundBlur_1971_17476"/>
<feBlend mode="normal" in="SourceGraphic" in2="effect1_backgroundBlur_1971_17476" result="shape"/>
</filter>
<filter id="filter2_d_1971_17476" x="19.7681" y="19.0526" width="29.416" height="31.1758" filterUnits="userSpaceOnUse" color-interpolation-filters="sRGB">
<feFlood flood-opacity="0" result="BackgroundImageFix"/>
<feColorMatrix in="SourceAlpha" type="matrix" values="0 0 0 0 0 0 0 0 0 0 0 0 0 0 0 0 0 0 127 0" result="hardAlpha"/>
<feOffset dx="5" dy="5"/>
<feGaussianBlur stdDeviation="4"/>
<feColorMatrix type="matrix" values="0 0 0 0 0.176471 0 0 0 0 0.556863 0 0 0 0 0.678431 0 0 0 0.5 0"/>
<feBlend mode="normal" in2="BackgroundImageFix" result="effect1_dropShadow_1971_17476"/>
<feBlend mode="normal" in="SourceGraphic" in2="effect1_dropShadow_1971_17476" result="shape"/>
</filter>
<radialGradient id="paint0_radial_1971_17476" cx="0" cy="0" r="1" gradientUnits="userSpaceOnUse" gradientTransform="translate(1 1) rotate(45) scale(79.196)">
<stop stop-color="#FAFAFA"/>
<stop offset="1" stop-color="#F7F7F7" stop-opacity="0"/>
</radialGradient>
<linearGradient id="paint1_linear_1971_17476" x1="29" y1="1" x2="29" y2="57" gradientUnits="userSpaceOnUse">
<stop stop-color="white"/>
<stop offset="1" stop-color="white" stop-opacity="0"/>
</linearGradient>
<linearGradient id="paint2_linear_1971_17476" x1="15.6554" y1="36.2748" x2="26.7794" y2="17.9419" gradientUnits="userSpaceOnUse">
<stop stop-color="#4C2094"/>
<stop offset="1" stop-color="#712EFF"/>
</linearGradient>
<linearGradient id="paint3_linear_1971_17476" x1="21.5405" y1="14.136" x2="38.7147" y2="43.8478" gradientUnits="userSpaceOnUse">
<stop stop-color="white" stop-opacity="0.25"/>
<stop offset="1" stop-color="white" stop-opacity="0"/>
</linearGradient>
<linearGradient id="paint4_linear_1971_17476" x1="27.5752" y1="38.8788" x2="50.2905" y2="28.7656" gradientUnits="userSpaceOnUse">
<stop stop-color="white"/>
<stop offset="1" stop-color="white" stop-opacity="0.2"/>
</linearGradient>
<clipPath id="clip0_1971_17476">
<rect width="37.3333" height="37.3333" fill="white" transform="translate(10.3333 10.3334)"/>
</clipPath>
<clipPath id="clip1_1971_17476">
<rect width="18.6667" height="18.6667" fill="white" transform="translate(9.58667 20.3875) rotate(-15)"/>
</clipPath>
<clipPath id="clip2_1971_17476">
<rect width="29.8667" height="29.8667" fill="white" transform="translate(19.5605 10.7067) rotate(15)"/>
</clipPath>
</defs>
</svg>
