<svg width="562" height="562" viewBox="0 0 562 562" fill="none" xmlns="http://www.w3.org/2000/svg">
<g opacity="0.4" filter="url(#filter0_f_5826_3985)">
<circle cx="281" cy="281" r="133" fill="#46B75B"/>
</g>
<g clip-path="url(#clip0_5826_3985)">
<path d="M343.514 243.201L349.239 249.721C346.792 246.933 343.461 244.866 339.48 243.939C335.68 243.055 331.801 243.33 328.215 244.529L322.49 238.009C326.076 236.81 329.955 236.535 333.756 237.419C337.736 238.346 341.066 240.413 343.514 243.201Z" fill="#D9D9D9"/>
<path d="M349.239 249.921C349.211 249.921 349.183 249.915 349.157 249.903C349.131 249.891 349.108 249.874 349.089 249.853C346.582 246.998 343.244 245.021 339.435 244.134C335.806 243.289 331.948 243.492 328.279 244.719C328.241 244.732 328.201 244.733 328.163 244.723C328.125 244.712 328.091 244.691 328.065 244.661L322.34 238.141C322.318 238.117 322.303 238.087 322.295 238.055C322.287 238.022 322.288 237.989 322.297 237.957C322.305 237.925 322.322 237.896 322.344 237.872C322.367 237.847 322.395 237.829 322.427 237.819C326.167 236.568 330.1 236.362 333.801 237.224C337.692 238.129 341.103 240.15 343.665 243.068L349.39 249.588C349.415 249.617 349.432 249.653 349.437 249.691C349.443 249.729 349.437 249.768 349.422 249.803C349.406 249.838 349.38 249.868 349.348 249.889C349.315 249.91 349.278 249.921 349.239 249.921L349.239 249.921ZM334.94 243.221C336.488 243.221 338.026 243.395 339.526 243.744C342.127 244.349 344.513 245.453 346.575 246.99L343.364 243.333C340.858 240.478 337.519 238.501 333.71 237.614C330.176 236.792 326.425 236.962 322.842 238.106L328.279 244.297C330.463 243.581 332.712 243.221 334.94 243.221H334.94Z" fill="#111111"/>
<path d="M304.395 370L310.12 376.52C307.672 373.732 304.342 371.665 300.362 370.739C296.561 369.854 292.681 370.134 289.096 371.333L283.371 364.813C286.956 363.614 290.836 363.334 294.637 364.219C298.617 365.145 301.948 367.212 304.395 370Z" fill="#1C732C"/>
<path d="M310.12 376.72C310.092 376.72 310.063 376.714 310.037 376.702C310.011 376.691 309.988 376.673 309.97 376.652C307.463 373.798 304.125 371.821 300.316 370.934C296.691 370.09 292.834 370.294 289.159 371.523C289.122 371.535 289.081 371.537 289.043 371.526C289.005 371.516 288.971 371.495 288.945 371.465L283.22 364.945C283.198 364.92 283.183 364.89 283.175 364.858C283.168 364.826 283.168 364.792 283.177 364.76C283.185 364.728 283.202 364.699 283.225 364.675C283.247 364.651 283.276 364.633 283.307 364.623C287.052 363.37 290.986 363.163 294.682 364.023C298.573 364.929 301.984 366.95 304.546 369.867L310.27 376.387C310.296 376.416 310.312 376.452 310.318 376.49C310.324 376.528 310.318 376.567 310.302 376.602C310.286 376.637 310.261 376.667 310.228 376.688C310.196 376.709 310.158 376.72 310.12 376.72L310.12 376.72ZM295.832 370.022C297.377 370.022 298.911 370.195 300.407 370.543C303.008 371.149 305.395 372.253 307.456 373.789L304.245 370.132C301.739 367.278 298.401 365.301 294.592 364.414C291.062 363.592 287.31 363.764 283.722 364.909L289.159 371.101C291.349 370.383 293.601 370.022 295.832 370.022Z" fill="#111111"/>
<path d="M444.114 216.278C454.19 218.623 459.807 228.779 456.667 238.959L423.234 347.327L377.042 336.576C377.985 340.04 377.972 343.877 376.788 347.714C373.428 358.602 361.971 365.394 351.201 362.887C340.428 360.38 334.419 349.523 337.778 338.634C338.962 334.797 341.155 331.468 343.967 328.877L297.774 318.125L312.177 271.438C314.592 274.034 317.792 275.957 321.593 276.842C332.362 279.348 343.82 272.557 347.179 261.668C350.537 250.783 344.525 239.925 333.755 237.419C329.954 236.534 326.075 236.81 322.49 238.009L336.894 191.322L444.114 216.278Z" fill="white"/>
<path d="M355.733 363.606C354.209 363.606 352.676 363.436 351.156 363.083C346 361.883 341.74 358.749 339.16 354.259C336.47 349.576 335.911 344.006 337.587 338.575C338.704 334.954 340.764 331.646 343.556 328.987L297.729 318.321C297.702 318.314 297.677 318.303 297.654 318.286C297.632 318.27 297.614 318.249 297.6 318.225C297.587 318.202 297.578 318.175 297.575 318.148C297.572 318.12 297.574 318.093 297.583 318.066L311.986 271.379C311.996 271.346 312.015 271.315 312.041 271.291C312.067 271.267 312.098 271.25 312.133 271.243C312.167 271.235 312.203 271.236 312.236 271.246C312.27 271.257 312.3 271.276 312.324 271.302C314.792 273.955 318.013 275.803 321.638 276.647C332.294 279.128 343.665 272.381 346.988 261.609C348.629 256.289 348.083 250.834 345.449 246.249C342.925 241.855 338.756 238.789 333.71 237.614C330.081 236.769 326.223 236.972 322.554 238.199C322.519 238.211 322.481 238.213 322.445 238.205C322.409 238.196 322.376 238.178 322.35 238.153C322.323 238.127 322.305 238.094 322.296 238.059C322.287 238.023 322.288 237.985 322.299 237.95L336.702 191.263C336.717 191.214 336.75 191.173 336.794 191.148C336.838 191.123 336.89 191.115 336.939 191.127L444.16 216.083C448.985 217.206 452.971 220.139 455.385 224.341C457.903 228.724 458.426 233.937 456.858 239.018L423.426 347.386C423.411 347.435 423.378 347.476 423.334 347.501C423.29 347.526 423.239 347.534 423.189 347.522L377.32 336.846C378.215 340.375 378.098 344.146 376.979 347.773C374.069 357.205 365.094 363.605 355.733 363.606L355.733 363.606ZM298.029 317.979L344.012 328.682C344.048 328.69 344.08 328.708 344.106 328.733C344.133 328.759 344.151 328.791 344.161 328.826C344.17 328.861 344.169 328.898 344.159 328.933C344.149 328.968 344.129 329 344.103 329.024C341.223 331.678 339.103 335.022 337.97 338.693C336.328 344.017 336.874 349.474 339.508 354.059C342.031 358.452 346.2 361.518 351.247 362.692C361.903 365.173 373.273 358.426 376.597 347.655C377.727 343.99 377.814 340.177 376.849 336.628C376.839 336.595 376.839 336.559 376.847 336.526C376.856 336.492 376.873 336.461 376.897 336.436C376.921 336.411 376.952 336.393 376.985 336.383C377.018 336.373 377.053 336.372 377.087 336.38L423.098 347.09L456.475 238.9C458.01 233.926 457.499 228.826 455.038 224.541C452.68 220.436 448.784 217.571 444.069 216.473L337.03 191.559L322.796 237.699C326.425 236.556 330.222 236.391 333.801 237.224C338.956 238.424 343.216 241.558 345.796 246.049C348.486 250.732 349.046 256.3 347.371 261.728C344.461 271.16 335.485 277.56 326.125 277.56C324.601 277.56 323.068 277.391 321.548 277.037C317.959 276.202 314.758 274.402 312.268 271.825L298.029 317.979Z" fill="#111111"/>
<path d="M368.116 263.722L354.665 260.591L346.712 286.368L360.164 289.499L368.116 263.722Z" fill="#FF4761"/>
<path d="M360.164 289.7C360.149 289.7 360.133 289.698 360.118 289.694L346.667 286.564C346.64 286.557 346.615 286.546 346.593 286.529C346.571 286.513 346.552 286.492 346.539 286.468C346.525 286.444 346.516 286.418 346.513 286.391C346.51 286.363 346.513 286.336 346.521 286.309L354.473 260.532C354.488 260.484 354.521 260.443 354.565 260.418C354.609 260.392 354.661 260.385 354.71 260.396L368.161 263.527C368.188 263.533 368.213 263.545 368.235 263.561C368.258 263.578 368.276 263.598 368.29 263.622C368.303 263.646 368.312 263.673 368.315 263.7C368.318 263.727 368.316 263.755 368.307 263.781L360.355 289.558C360.343 289.599 360.317 289.635 360.283 289.66C360.248 289.686 360.207 289.7 360.164 289.7ZM346.967 286.222L360.028 289.262L367.862 263.868L354.801 260.829L346.967 286.222Z" fill="#111111"/>
<path d="M391.577 256.076L378.126 252.945L366.401 290.951L379.852 294.082L391.577 256.076Z" fill="#FF4761"/>
<path d="M379.853 294.282C379.837 294.282 379.822 294.28 379.807 294.277L366.355 291.146C366.329 291.14 366.303 291.128 366.281 291.112C366.259 291.096 366.241 291.075 366.227 291.051C366.213 291.027 366.205 291.001 366.202 290.973C366.199 290.946 366.201 290.918 366.209 290.892L377.934 252.886C377.949 252.838 377.982 252.797 378.026 252.772C378.07 252.746 378.122 252.739 378.171 252.75L391.623 255.881C391.65 255.887 391.675 255.899 391.697 255.915C391.719 255.932 391.738 255.952 391.751 255.976C391.765 256 391.774 256.026 391.777 256.054C391.78 256.081 391.777 256.109 391.769 256.135L380.044 294.141C380.031 294.182 380.006 294.218 379.972 294.243C379.937 294.268 379.896 294.282 379.853 294.282H379.853ZM366.656 290.805L379.716 293.844L391.323 256.223L378.262 253.183L366.656 290.805Z" fill="#111111"/>
<path d="M413.477 253.491L400.029 250.361L386.093 295.534L399.541 298.665L413.477 253.491Z" fill="#FF4761"/>
<path d="M399.541 298.865C399.526 298.865 399.51 298.863 399.495 298.86L386.048 295.73C386.021 295.724 385.996 295.712 385.974 295.696C385.952 295.679 385.933 295.658 385.919 295.634C385.906 295.611 385.897 295.584 385.894 295.557C385.891 295.53 385.894 295.502 385.902 295.476L399.838 250.302C399.853 250.254 399.886 250.213 399.93 250.188C399.974 250.163 400.025 250.155 400.075 250.166L413.522 253.296C413.549 253.303 413.574 253.314 413.596 253.331C413.619 253.347 413.637 253.368 413.651 253.392C413.664 253.416 413.673 253.442 413.676 253.469C413.679 253.497 413.677 253.524 413.668 253.551L399.732 298.724C399.72 298.765 399.694 298.8 399.66 298.826C399.625 298.851 399.584 298.865 399.541 298.865ZM386.348 295.388L399.404 298.427L413.222 253.638L400.166 250.599L386.348 295.388Z" fill="#111111"/>
<path d="M458.965 228.204L453.24 221.685C457.145 226.132 458.647 232.541 456.667 238.96L423.234 347.327L428.959 353.847L462.391 245.48C464.372 239.061 462.87 232.652 458.965 228.205V228.204Z" fill="#9A9A9A"/>
<path d="M428.959 354.048C428.902 354.048 428.847 354.023 428.808 353.98L423.084 347.459C423.061 347.434 423.046 347.403 423.039 347.369C423.031 347.336 423.033 347.301 423.043 347.268L456.475 238.9C458.366 232.771 457.101 226.384 453.09 221.816C453.071 221.797 453.057 221.774 453.048 221.748C453.039 221.723 453.034 221.696 453.036 221.67C453.037 221.643 453.044 221.616 453.055 221.592C453.067 221.568 453.083 221.546 453.104 221.529C453.124 221.511 453.147 221.498 453.173 221.489C453.198 221.481 453.225 221.477 453.252 221.48C453.279 221.482 453.305 221.489 453.329 221.502C453.353 221.514 453.374 221.531 453.391 221.552L459.116 228.072C463.219 232.745 464.515 239.275 462.583 245.538L429.151 353.906C429.138 353.947 429.113 353.983 429.078 354.009C429.044 354.034 429.002 354.048 428.959 354.048ZM423.459 347.279L428.873 353.446L462.2 245.42C464.091 239.291 462.825 232.905 458.815 228.336L455.534 224.6C457.887 228.857 458.399 234.023 456.858 239.018L423.459 347.279Z" fill="#111111"/>
<path d="M423.234 347.327L389.802 455.695C386.661 465.875 375.95 472.23 365.874 469.885L258.654 444.929L264.379 451.449L371.599 476.405C381.675 478.751 392.386 472.395 395.527 462.215L428.959 353.847L423.234 347.327Z" fill="url(#paint0_linear_5826_3985)"/>
<path d="M375.837 477.09C374.395 477.091 372.958 476.927 371.554 476.6L264.334 451.644C264.293 451.635 264.256 451.613 264.229 451.581L258.504 445.061C258.476 445.029 258.459 444.989 258.455 444.947C258.452 444.905 258.461 444.863 258.483 444.826C258.505 444.79 258.537 444.762 258.576 444.745C258.615 444.728 258.659 444.724 258.7 444.734L365.92 469.69C375.877 472.008 386.505 465.703 389.611 455.636L423.043 347.268C423.054 347.234 423.073 347.204 423.099 347.18C423.126 347.156 423.158 347.139 423.193 347.132C423.227 347.124 423.264 347.126 423.297 347.137C423.331 347.148 423.361 347.168 423.385 347.195L429.11 353.715C429.156 353.767 429.171 353.84 429.151 353.906L395.719 462.274C392.995 471.101 384.596 477.09 375.837 477.09ZM264.487 451.268L371.644 476.21C381.602 478.528 392.23 472.223 395.335 462.156L428.735 353.895L423.32 347.729L389.993 455.754C386.827 466.018 375.988 472.445 365.829 470.08L259.216 445.266L264.487 451.268Z" fill="#111111"/>
<path d="M423.234 347.327L389.802 455.695C386.661 465.875 375.95 472.23 365.874 469.885L258.654 444.929L273.058 398.242C275.472 400.837 278.673 402.761 282.474 403.646C293.243 406.152 304.701 399.361 308.06 388.472C311.419 377.583 305.407 366.725 294.637 364.219C290.836 363.334 286.956 363.614 283.371 364.813L297.774 318.126L343.967 328.877C341.155 331.468 338.962 334.797 337.779 338.634C334.419 349.523 340.428 360.38 351.201 362.888C361.971 365.394 373.429 358.603 376.788 347.714C377.972 343.877 377.985 340.041 377.042 336.576L423.234 347.328L423.234 347.327Z" fill="#46B75B"/>
<path d="M370.112 470.57C368.67 470.571 367.233 470.407 365.829 470.08L258.609 445.124C258.582 445.118 258.557 445.106 258.535 445.09C258.513 445.073 258.494 445.053 258.48 445.029C258.467 445.005 258.458 444.979 258.455 444.951C258.452 444.924 258.455 444.896 258.463 444.87L272.866 398.182C272.877 398.149 272.896 398.118 272.921 398.095C272.947 398.071 272.979 398.054 273.013 398.046C273.047 398.038 273.083 398.039 273.117 398.05C273.15 398.06 273.18 398.079 273.204 398.105C275.672 400.758 278.893 402.606 282.519 403.45C293.175 405.93 304.545 399.185 307.868 388.413C309.51 383.09 308.964 377.633 306.329 373.048C303.806 368.654 299.637 365.588 294.591 364.414C290.966 363.57 287.109 363.774 283.434 365.003C283.399 365.014 283.362 365.016 283.326 365.008C283.29 365 283.257 364.982 283.23 364.956C283.204 364.93 283.185 364.898 283.176 364.862C283.167 364.826 283.168 364.789 283.179 364.754L297.582 318.066C297.597 318.018 297.63 317.977 297.674 317.952C297.718 317.926 297.77 317.919 297.819 317.93L344.012 328.682C344.048 328.69 344.08 328.708 344.106 328.733C344.132 328.759 344.151 328.791 344.16 328.826C344.17 328.861 344.169 328.898 344.159 328.933C344.149 328.968 344.129 329 344.102 329.024C341.223 331.678 339.102 335.021 337.97 338.693C336.327 344.017 336.873 349.474 339.508 354.059C342.031 358.451 346.2 361.518 351.247 362.692C361.903 365.172 373.273 358.426 376.596 347.655C377.727 343.989 377.814 340.176 376.848 336.628C376.839 336.594 376.839 336.559 376.847 336.526C376.856 336.492 376.873 336.461 376.897 336.436C376.921 336.411 376.951 336.393 376.985 336.383C377.018 336.373 377.053 336.372 377.087 336.38L423.28 347.132C423.307 347.138 423.332 347.15 423.354 347.166C423.376 347.183 423.394 347.203 423.408 347.227C423.422 347.251 423.43 347.278 423.433 347.305C423.437 347.332 423.434 347.36 423.426 347.386L389.994 455.754C387.27 464.581 378.872 470.57 370.112 470.57V470.57ZM258.909 444.783L365.92 469.69C375.876 472.008 386.505 465.703 389.61 455.636L422.98 347.473L377.32 336.846C378.215 340.376 378.098 344.146 376.979 347.773C374.069 357.205 365.094 363.605 355.733 363.606C354.209 363.606 352.676 363.436 351.156 363.083C346 361.882 341.74 358.749 339.16 354.259C336.47 349.576 335.911 344.006 337.587 338.575C338.704 334.954 340.764 331.646 343.556 328.987L297.91 318.363L283.676 364.503C287.31 363.358 291.107 363.191 294.682 364.023C299.837 365.223 304.097 368.357 306.677 372.848C309.367 377.531 309.926 383.101 308.251 388.531C304.867 399.499 293.283 406.367 282.428 403.84C278.839 403.005 275.638 401.206 273.148 398.628L258.909 444.783Z" fill="#111111"/>
<path d="M360.652 372.292C349.661 369.733 337.97 376.666 334.543 387.775L334.536 387.798C344.927 390.751 350.611 401.499 347.297 412.28C347.608 412.368 347.922 412.45 348.24 412.524C359.232 415.082 370.922 408.15 374.349 397.04C377.777 385.931 371.644 374.85 360.652 372.291" fill="#FCBF14"/>
<path d="M352.865 413.253C351.31 413.253 349.746 413.08 348.195 412.719C347.875 412.645 347.558 412.562 347.242 412.473C347.216 412.465 347.192 412.453 347.172 412.437C347.151 412.42 347.133 412.399 347.121 412.376C347.108 412.352 347.1 412.327 347.097 412.3C347.095 412.274 347.097 412.247 347.105 412.221C348.722 406.96 348.238 401.534 345.742 396.942C343.359 392.556 339.36 389.377 334.482 387.991C334.456 387.983 334.432 387.971 334.411 387.955C334.391 387.938 334.373 387.918 334.36 387.894C334.348 387.871 334.34 387.846 334.337 387.819C334.334 387.793 334.336 387.766 334.344 387.741C334.344 387.74 334.351 387.717 334.352 387.716C337.804 376.526 349.623 369.519 360.697 372.097C365.957 373.321 370.303 376.518 372.934 381.099C375.679 385.877 376.25 391.56 374.541 397.099C371.572 406.723 362.415 413.253 352.865 413.253L352.865 413.253ZM347.548 412.142C347.795 412.209 348.043 412.272 348.286 412.329C349.788 412.678 351.326 412.854 352.869 412.853C362.248 412.853 371.241 406.437 374.158 396.981C375.834 391.549 375.276 385.979 372.587 381.298C370.012 376.815 365.757 373.685 360.607 372.487C349.789 369.968 338.248 376.769 334.789 387.662C339.682 389.108 343.691 392.329 346.095 396.75C348.612 401.381 349.125 406.839 347.548 412.142Z" fill="#111111"/>
<path d="M333.597 387.555C322.605 384.996 310.915 391.929 307.488 403.038C304.061 414.148 310.194 425.229 321.185 427.787C332.177 430.346 343.863 423.412 347.29 412.303L347.297 412.28C350.611 401.499 344.927 390.752 334.536 387.798C334.225 387.71 333.912 387.629 333.597 387.555" fill="white"/>
<path d="M325.808 428.516C324.236 428.517 322.67 428.338 321.14 427.982C315.88 426.758 311.534 423.561 308.903 418.98C306.158 414.202 305.587 408.519 307.297 402.979C310.749 391.789 322.568 384.782 333.642 387.36C333.951 387.431 334.27 387.514 334.591 387.605C339.574 389.021 343.659 392.269 346.094 396.751C348.642 401.438 349.137 406.974 347.488 412.339L347.482 412.36C344.513 421.985 335.356 428.515 325.808 428.516L325.808 428.516ZM328.968 387.226C319.589 387.226 310.597 393.642 307.679 403.098C306.003 408.53 306.561 414.1 309.25 418.78C311.826 423.264 316.081 426.394 321.23 427.592C332.102 430.122 343.707 423.237 347.099 412.243L347.104 412.224C348.722 406.96 348.238 401.534 345.742 396.942C343.359 392.556 339.36 389.377 334.481 387.99C334.167 387.901 333.854 387.82 333.551 387.75C332.049 387.401 330.511 387.225 328.968 387.226Z" fill="#111111"/>
<path d="M332.618 395.574L330.384 395.054L329.495 397.935C327.883 397.759 326.487 398.011 325.31 398.696C324.113 399.396 323.291 400.462 322.85 401.891C322.417 403.297 322.527 404.563 323.185 405.692C323.839 406.819 325.101 407.906 326.972 408.947C328.302 409.734 329.194 410.477 329.642 411.167C330.093 411.861 330.195 412.611 329.947 413.413C329.655 414.361 329.063 415.029 328.173 415.411C327.283 415.793 326.211 415.834 324.95 415.541C323.667 415.242 322.771 414.685 322.272 413.867C321.773 413.05 321.711 412.039 322.085 410.827L319.422 410.207C318.891 411.931 318.975 413.415 319.675 414.657C320.361 415.871 321.546 416.753 323.215 417.32L322.44 419.833L324.673 420.353L325.443 417.859L325.471 417.862C327.281 418.104 328.812 417.892 330.062 417.22C331.313 416.548 332.165 415.477 332.619 414.005C332.904 413.08 332.957 412.229 332.783 411.45C332.609 410.67 332.19 409.925 331.53 409.216C330.866 408.505 329.87 407.767 328.541 406.993C327.211 406.218 326.305 405.493 325.832 404.818C325.355 404.142 325.256 403.356 325.531 402.465C325.827 401.505 326.362 400.824 327.132 400.431C327.9 400.033 328.859 399.97 330.001 400.235C331.093 400.489 331.851 401.056 332.271 401.93C332.69 402.808 332.709 403.862 332.33 405.094L332.302 405.183L334.949 405.799L334.981 405.711C335.531 403.926 335.518 402.412 334.935 401.172C334.356 399.938 333.289 399.029 331.738 398.453L331.73 398.451L332.618 395.574" fill="#FCBF14"/>
<path d="M324.674 420.553C324.659 420.553 324.644 420.551 324.628 420.548L322.395 420.028C322.368 420.022 322.343 420.01 322.321 419.993C322.298 419.977 322.28 419.956 322.266 419.932C322.253 419.909 322.244 419.882 322.241 419.855C322.238 419.827 322.24 419.8 322.249 419.773L322.967 417.445C321.343 416.858 320.178 415.954 319.501 414.756C318.776 413.469 318.685 411.919 319.231 410.148C319.246 410.1 319.279 410.059 319.323 410.033C319.367 410.008 319.418 410.001 319.468 410.012L322.13 410.632C322.157 410.638 322.182 410.65 322.204 410.666C322.227 410.682 322.245 410.703 322.259 410.727C322.272 410.751 322.281 410.777 322.284 410.805C322.287 410.832 322.285 410.86 322.276 410.886C321.918 412.05 321.972 412.991 322.444 413.763C322.91 414.527 323.769 415.06 324.996 415.345C326.21 415.628 327.252 415.588 328.094 415.227C328.935 414.865 329.479 414.253 329.756 413.353C329.988 412.603 329.896 411.923 329.475 411.276C329.043 410.612 328.167 409.886 326.871 409.119C324.982 408.069 323.682 406.948 323.012 405.792C322.329 404.621 322.21 403.288 322.659 401.832C323.113 400.36 323.971 399.247 325.209 398.522C326.375 397.843 327.768 397.573 329.352 397.718L330.193 394.994C330.208 394.946 330.24 394.905 330.284 394.88C330.328 394.854 330.38 394.847 330.429 394.858L332.663 395.378C332.69 395.384 332.715 395.396 332.737 395.412C332.759 395.429 332.778 395.45 332.791 395.473C332.805 395.497 332.814 395.524 332.817 395.551C332.82 395.578 332.817 395.606 332.809 395.632L331.977 398.329C333.481 398.926 334.537 399.853 335.117 401.087C335.718 402.365 335.736 403.941 335.172 405.769L335.138 405.866C335.104 405.962 335.003 406.016 334.904 405.993L332.256 405.377C332.23 405.371 332.204 405.359 332.182 405.343C332.16 405.326 332.142 405.306 332.128 405.282C332.114 405.258 332.106 405.231 332.103 405.204C332.099 405.177 332.102 405.149 332.11 405.123L332.138 405.034C332.501 403.858 332.484 402.842 332.09 402.016C331.699 401.202 330.981 400.669 329.956 400.43C328.862 400.175 327.943 400.235 327.224 400.608C326.506 400.975 326.002 401.62 325.723 402.524C325.464 403.363 325.553 404.076 325.995 404.702C326.45 405.349 327.34 406.061 328.641 406.819C330.006 407.613 330.999 408.352 331.676 409.078C332.359 409.813 332.797 410.596 332.978 411.405C333.16 412.218 333.104 413.112 332.81 414.064C332.342 415.58 331.45 416.702 330.157 417.396C328.909 418.066 327.371 418.295 325.585 418.077L324.865 420.411C324.852 420.452 324.827 420.488 324.792 420.513C324.758 420.538 324.716 420.552 324.674 420.552L324.674 420.553ZM322.695 419.686L324.537 420.115L325.251 417.8C325.279 417.71 325.368 417.649 325.46 417.659L325.488 417.662C327.259 417.899 328.763 417.691 329.967 417.044C331.164 416.401 331.992 415.359 332.427 413.946C332.7 413.063 332.754 412.237 332.587 411.494C332.422 410.754 332.017 410.034 331.383 409.352C330.742 408.665 329.751 407.929 328.44 407.166C327.088 406.379 326.155 405.627 325.668 404.933C325.156 404.209 325.046 403.359 325.34 402.407C325.652 401.395 326.224 400.67 327.041 400.253C327.845 399.835 328.857 399.764 330.046 400.04C331.195 400.308 332.004 400.914 332.451 401.843C332.877 402.736 332.912 403.809 332.556 405.036L334.816 405.563C335.322 403.875 335.302 402.425 334.753 401.258C334.199 400.077 333.162 399.197 331.67 398.642C331.624 398.626 331.585 398.594 331.56 398.552C331.545 398.528 331.536 398.502 331.532 398.474C331.529 398.447 331.531 398.419 331.538 398.392L332.362 395.72L330.52 395.292L329.686 397.994C329.672 398.038 329.643 398.076 329.604 398.102C329.566 398.127 329.519 398.138 329.473 398.134C327.908 397.963 326.542 398.21 325.411 398.869C324.263 399.541 323.465 400.578 323.041 401.95C322.627 403.295 322.733 404.52 323.358 405.591C323.992 406.684 325.241 407.755 327.07 408.772C328.424 409.574 329.345 410.342 329.81 411.058C330.293 411.801 330.404 412.613 330.139 413.472C329.829 414.476 329.194 415.19 328.252 415.595C327.33 415.991 326.204 416.039 324.905 415.736C323.57 415.425 322.626 414.832 322.101 413.972C321.603 413.156 321.513 412.148 321.833 410.974L319.561 410.445C319.108 412.032 319.205 413.415 319.85 414.559C320.502 415.713 321.656 416.578 323.279 417.13C323.329 417.147 323.37 417.182 323.393 417.229C323.417 417.275 323.422 417.329 323.406 417.379L322.694 419.686H322.695Z" fill="#111111"/>
<rect opacity="0.6" x="454.485" y="387" width="12" height="12" rx="2" transform="rotate(45 454.485 387)" fill="white"/>
</g>
<g clip-path="url(#clip1_5826_3985)">
<path d="M246.482 239.981L253.148 236.882C254.067 240.583 254.037 244.549 252.855 248.374C251.127 253.967 247.278 258.17 242.499 260.393L235.833 263.492C240.613 261.27 244.461 257.067 246.19 251.473C247.372 247.648 247.402 243.682 246.482 239.981Z" fill="#1C732C"/>
<path d="M235.834 263.692C235.788 263.692 235.744 263.677 235.708 263.648C235.673 263.62 235.648 263.58 235.638 263.535C235.628 263.491 235.634 263.444 235.654 263.403C235.674 263.362 235.708 263.33 235.749 263.31C240.699 261.008 244.339 256.784 245.999 251.414C247.129 247.756 247.229 243.819 246.288 240.029C246.277 239.984 246.282 239.936 246.302 239.894C246.322 239.852 246.356 239.819 246.398 239.799L253.063 236.7C253.118 236.675 253.18 236.675 253.234 236.7C253.288 236.726 253.328 236.775 253.342 236.833C254.301 240.693 254.199 244.704 253.047 248.432C251.354 253.912 247.638 258.224 242.583 260.574L235.918 263.673C235.89 263.686 235.862 263.692 235.834 263.692V263.692ZM246.716 240.093C247.633 243.904 247.518 247.856 246.381 251.532C245.095 255.694 242.643 259.182 239.323 261.649L242.414 260.211C247.365 257.909 251.005 253.684 252.664 248.314C253.771 244.732 253.89 240.883 253.011 237.166L246.716 240.093Z" fill="#111111"/>
<path d="M306.438 210.266L313.104 207.167L298.723 253.699L292.058 256.798L306.438 210.266Z" fill="url(#paint1_linear_5826_3985)"/>
<path d="M292.058 256.998C292.026 256.998 291.996 256.991 291.967 256.977C291.939 256.963 291.915 256.942 291.897 256.917C291.878 256.892 291.865 256.862 291.86 256.831C291.855 256.8 291.857 256.769 291.866 256.739L306.247 210.207C306.255 210.18 306.269 210.155 306.287 210.134C306.306 210.113 306.328 210.096 306.354 210.084L313.019 206.985C313.054 206.969 313.093 206.963 313.132 206.968C313.17 206.974 313.206 206.99 313.235 207.016C313.264 207.041 313.285 207.075 313.296 207.112C313.307 207.149 313.306 207.189 313.295 207.226L298.914 253.758C298.906 253.785 298.892 253.809 298.874 253.83C298.856 253.851 298.833 253.868 298.808 253.88L292.142 256.979C292.116 256.992 292.087 256.998 292.058 256.998ZM306.603 210.41L292.382 256.426L298.558 253.555L312.779 207.539L306.603 210.41Z" fill="#111111"/>
<path d="M316.735 176.949L323.4 173.849C326.94 173.049 330.772 173.242 334.522 174.625C345.147 178.546 351.047 190.521 347.694 201.374C345.966 206.966 342.116 211.168 337.336 213.391L330.67 216.49C335.45 214.268 339.3 210.065 341.028 204.473C344.382 193.621 338.482 181.645 327.856 177.725C324.107 176.341 320.275 176.148 316.735 176.949Z" fill="#1C732C"/>
<path d="M330.671 216.691C330.625 216.691 330.581 216.675 330.545 216.647C330.51 216.618 330.485 216.578 330.475 216.534C330.465 216.489 330.471 216.443 330.491 216.402C330.511 216.361 330.545 216.328 330.586 216.309C335.538 214.006 339.178 209.782 340.837 204.414C344.154 193.68 338.3 181.791 327.787 177.912C324.206 176.591 320.4 176.325 316.779 177.144C316.731 177.155 316.68 177.147 316.637 177.123C316.594 177.099 316.561 177.06 316.545 177.013C316.529 176.966 316.531 176.915 316.55 176.87C316.57 176.824 316.605 176.788 316.65 176.767L323.316 173.667C323.328 173.661 323.342 173.657 323.356 173.653C327.052 172.818 330.937 173.089 334.591 174.437C345.3 178.389 351.264 190.499 347.885 201.433C346.192 206.91 342.476 211.222 337.42 213.573L330.755 216.672C330.727 216.685 330.699 216.691 330.671 216.691ZM320.957 176.278C323.302 176.278 325.659 176.7 327.926 177.537C338.635 181.488 344.599 193.598 341.22 204.532C339.934 208.692 337.481 212.18 334.161 214.646L337.251 213.209C342.203 210.907 345.844 206.683 347.502 201.315C350.819 190.581 344.965 178.692 334.452 174.813C330.878 173.494 327.08 173.227 323.465 174.04L318.241 176.469C319.141 176.342 320.049 176.278 320.957 176.278V176.278Z" fill="#111111"/>
<path d="M331.115 130.417L337.78 127.317L323.4 173.849L316.735 176.948L331.115 130.417Z" fill="#1C732C"/>
<path d="M316.735 177.149C316.703 177.149 316.672 177.141 316.644 177.127C316.616 177.113 316.592 177.093 316.573 177.067C316.555 177.042 316.542 177.013 316.537 176.982C316.532 176.951 316.534 176.919 316.543 176.889L330.924 130.357C330.932 130.331 330.946 130.306 330.964 130.285C330.982 130.264 331.005 130.247 331.03 130.235L337.696 127.135C337.731 127.119 337.77 127.113 337.808 127.119C337.847 127.124 337.883 127.14 337.912 127.166C337.941 127.191 337.963 127.225 337.973 127.262C337.984 127.3 337.983 127.339 337.972 127.376L323.591 173.908C323.583 173.935 323.569 173.959 323.551 173.981C323.533 174.002 323.51 174.019 323.485 174.03L316.819 177.13C316.793 177.142 316.764 177.149 316.735 177.149V177.149ZM331.28 130.561L317.059 176.577L323.235 173.705L337.456 127.689L331.28 130.561H331.28Z" fill="#111111"/>
<path d="M231.993 88.2824C227.176 86.505 222.205 86.8227 218.004 88.7765L211.338 91.8758C215.54 89.922 220.511 89.6046 225.328 91.3817L331.115 130.416L337.78 127.317L231.993 88.2824Z" fill="#1C732C"/>
<path d="M331.115 130.617C331.092 130.617 331.068 130.613 331.046 130.604L225.258 91.5698C220.661 89.8733 215.747 90.0469 211.423 92.0576C211.375 92.08 211.32 92.0824 211.27 92.0641C211.22 92.0459 211.179 92.0086 211.157 91.9604C211.135 91.9122 211.132 91.8571 211.15 91.8072C211.169 91.7573 211.206 91.7167 211.254 91.6943L217.919 88.5948C222.341 86.5387 227.364 86.3608 232.062 88.0945L337.85 127.129C337.887 127.143 337.919 127.167 337.942 127.199C337.965 127.231 337.978 127.269 337.98 127.309C337.982 127.348 337.972 127.388 337.951 127.421C337.93 127.455 337.9 127.482 337.865 127.499L331.199 130.598C331.173 130.611 331.144 130.617 331.115 130.617ZM218.865 90.0115C221.051 90.0115 223.258 90.4046 225.397 91.1939L331.106 130.2L337.259 127.338L231.924 88.4704C227.326 86.7742 222.413 86.9474 218.088 88.9581L214.856 90.4613C216.171 90.162 217.516 90.0112 218.865 90.0117V90.0115Z" fill="#111111"/>
<path d="M331.115 130.417L316.735 176.949C320.275 176.148 324.107 176.341 327.856 177.725C338.482 181.645 344.382 193.621 341.028 204.473C337.676 215.322 326.338 220.941 315.712 217.02C311.963 215.637 308.81 213.248 306.438 210.266L292.058 256.798L246.482 239.981C247.402 243.682 247.372 247.648 246.19 251.473C242.836 262.325 231.503 267.942 220.874 264.02C210.248 260.099 204.348 248.123 207.702 237.271C208.884 233.446 211.064 230.274 213.849 227.94L168.274 211.123L201.652 103.115C204.788 92.9693 215.386 87.7135 225.328 91.3818L331.115 130.416V130.417Z" fill="#46B75B"/>
<path d="M227.791 265.475C225.456 265.475 223.098 265.054 220.805 264.208C210.095 260.256 204.132 248.146 207.511 237.212C208.627 233.598 210.681 230.424 213.459 228.009L168.205 211.311C168.157 211.293 168.117 211.257 168.094 211.211C168.072 211.165 168.068 211.113 168.083 211.064L201.461 103.056C202.997 98.0865 206.339 94.1164 210.872 91.8776C215.388 89.6468 220.546 89.4039 225.397 91.1941L331.184 130.229C331.232 130.247 331.272 130.282 331.295 130.328C331.317 130.374 331.322 130.427 331.306 130.476L317.027 176.68C320.622 175.935 324.383 176.229 327.926 177.537C338.635 181.488 344.599 193.599 341.22 204.533C339.579 209.842 336.007 214.083 331.163 216.476C326.337 218.861 320.825 219.12 315.643 217.208C312.111 215.905 308.963 213.653 306.519 210.684L292.249 256.857C292.241 256.883 292.228 256.907 292.21 256.928C292.193 256.949 292.171 256.965 292.147 256.977C292.122 256.989 292.096 256.996 292.068 256.998C292.041 256.999 292.014 256.995 291.989 256.986L246.764 240.299C247.628 244.046 247.497 247.922 246.381 251.532C244.74 256.844 241.169 261.086 236.326 263.478C233.636 264.807 230.732 265.475 227.791 265.475H227.791ZM168.521 211.001L213.919 227.752C213.952 227.764 213.981 227.785 214.003 227.812C214.026 227.839 214.041 227.871 214.047 227.906C214.053 227.94 214.049 227.976 214.037 228.009C214.025 228.042 214.005 228.071 213.978 228.093C211.126 230.484 209.022 233.678 207.893 237.331C204.576 248.065 210.43 259.953 220.943 263.832C226.023 265.707 231.423 265.454 236.149 263.119C240.892 260.776 244.39 256.619 245.999 251.414C247.129 247.756 247.229 243.819 246.288 240.029C246.279 239.994 246.28 239.957 246.291 239.922C246.302 239.888 246.322 239.856 246.349 239.832C246.376 239.808 246.409 239.791 246.445 239.785C246.48 239.778 246.517 239.781 246.551 239.793L291.929 256.537L306.247 210.207C306.258 210.172 306.278 210.141 306.305 210.117C306.332 210.093 306.365 210.076 306.401 210.07C306.437 210.063 306.474 210.066 306.508 210.079C306.542 210.091 306.572 210.113 306.595 210.141C309.026 213.198 312.203 215.512 315.782 216.833C320.859 218.706 326.259 218.452 330.986 216.117C335.731 213.774 339.229 209.618 340.837 204.414C344.154 193.68 338.3 181.792 327.787 177.912C324.206 176.591 320.4 176.325 316.779 177.144C316.744 177.152 316.709 177.15 316.675 177.14C316.642 177.129 316.611 177.11 316.588 177.085C316.564 177.059 316.547 177.027 316.539 176.993C316.531 176.959 316.533 176.923 316.543 176.889L330.867 130.539L225.258 91.5698C220.511 89.8185 215.465 90.0552 211.049 92.2369C206.616 94.4266 203.347 98.311 201.844 103.175L168.521 211.001Z" fill="#111111"/>
<path d="M255.752 148.753C251.949 147.35 247.893 149.357 246.691 153.244C245.492 157.126 247.604 161.41 251.407 162.813C255.209 164.216 259.262 162.208 260.462 158.325C261.663 154.439 259.554 150.157 255.752 148.753" fill="#FCBF14"/>
<path d="M253.882 163.462C253.032 163.462 252.173 163.309 251.338 163.001C247.442 161.563 245.272 157.16 246.5 153.184C247.098 151.249 248.399 149.704 250.164 148.832C251.923 147.963 253.932 147.868 255.821 148.565C259.715 150.002 261.883 154.407 260.653 158.384C260.056 160.318 258.755 161.863 256.991 162.735C256.024 163.213 254.96 163.462 253.882 163.462V163.462ZM253.276 148.505C252.258 148.504 251.254 148.739 250.342 149.191C248.676 150.014 247.448 151.474 246.883 153.303C245.716 157.078 247.777 161.26 251.476 162.625C253.26 163.283 255.155 163.195 256.814 162.375C258.478 161.553 259.706 160.094 260.271 158.266C261.438 154.488 259.38 150.305 255.682 148.941C254.892 148.649 254.08 148.504 253.276 148.504L253.276 148.505Z" fill="#111111"/>
<path d="M250.147 166.888C242.924 164.223 235.291 167.103 231.565 173.386L261.317 184.364C261.843 176.9 257.367 169.552 250.147 166.888" fill="#FCBF14"/>
<path d="M261.317 184.564C261.294 184.564 261.27 184.56 261.248 184.552L231.495 173.573C231.468 173.563 231.443 173.547 231.422 173.526C231.402 173.505 231.386 173.48 231.376 173.452C231.366 173.425 231.363 173.395 231.365 173.366C231.368 173.337 231.378 173.308 231.393 173.283C235.27 166.748 243.011 164.041 250.217 166.7C257.416 169.357 262.063 176.626 261.517 184.378C261.513 184.429 261.491 184.476 261.454 184.51C261.417 184.545 261.368 184.564 261.317 184.564ZM231.861 173.282L261.134 184.083C261.543 176.608 257.028 169.641 250.078 167.076C243.132 164.513 235.677 167.065 231.861 173.282Z" fill="#111111"/>
<path d="M226.996 150.533C223.193 149.13 219.139 151.143 217.939 155.025C216.74 158.908 218.847 163.194 222.65 164.597C226.456 166.001 230.51 163.989 231.71 160.106C232.91 156.224 230.803 151.938 226.996 150.533" fill="white"/>
<path d="M225.126 165.247C224.275 165.247 223.416 165.093 222.581 164.785C218.687 163.348 216.519 158.943 217.748 154.966C218.346 153.031 219.648 151.485 221.414 150.613C223.172 149.744 225.179 149.649 227.066 150.346C230.961 151.783 233.131 156.188 231.902 160.166C231.304 162.101 230.002 163.647 228.237 164.519C227.27 164.998 226.205 165.247 225.126 165.247L225.126 165.247ZM224.524 150.286C223.506 150.285 222.503 150.52 221.591 150.972C219.925 151.795 218.696 153.255 218.131 155.085C216.964 158.862 219.022 163.045 222.719 164.409C224.504 165.068 226.401 164.979 228.06 164.159C229.725 163.337 230.954 161.876 231.519 160.047C232.686 156.27 230.626 152.087 226.927 150.721C226.138 150.43 225.327 150.285 224.524 150.285L224.524 150.286Z" fill="#111111"/>
<path d="M221.39 168.672C214.17 166.008 206.534 168.888 202.811 175.171L232.564 186.149C233.085 178.685 228.614 171.338 221.39 168.672" fill="white"/>
<path d="M232.564 186.35C232.54 186.35 232.517 186.345 232.495 186.337L202.742 175.359C202.715 175.349 202.69 175.333 202.669 175.312C202.648 175.291 202.633 175.266 202.623 175.238C202.613 175.21 202.609 175.181 202.612 175.152C202.615 175.122 202.624 175.094 202.639 175.069C204.482 171.96 207.352 169.583 210.722 168.378C214.193 167.136 217.906 167.173 221.46 168.484C228.657 171.14 233.305 178.41 232.764 186.163C232.76 186.214 232.738 186.261 232.701 186.296C232.663 186.33 232.615 186.35 232.564 186.349V186.35ZM203.108 175.067L232.381 185.868C232.786 178.393 228.269 171.425 221.321 168.86C214.374 166.297 206.92 168.849 203.108 175.067Z" fill="#111111"/>
<path d="M277.629 169.217C273.827 167.813 269.769 169.825 268.569 173.707C267.369 177.59 269.48 181.877 273.283 183.28C277.086 184.683 281.143 182.672 282.343 178.79C283.543 174.907 281.432 170.62 277.629 169.217Z" fill="white"/>
<path d="M275.757 183.929C274.907 183.929 274.049 183.776 273.214 183.468C269.318 182.03 267.149 177.625 268.378 173.648C268.975 171.714 270.277 170.168 272.043 169.296C273.802 168.427 275.81 168.332 277.699 169.029C281.594 170.467 283.764 174.872 282.535 178.849C281.937 180.783 280.635 182.329 278.87 183.201C277.902 183.68 276.837 183.93 275.757 183.929ZM275.155 168.968C274.137 168.968 273.132 169.203 272.22 169.655C270.554 170.478 269.325 171.938 268.76 173.766C267.593 177.544 269.653 181.727 273.352 183.092C275.136 183.75 277.033 183.661 278.692 182.842C280.358 182.019 281.587 180.559 282.152 178.731C283.32 174.953 281.259 170.77 277.56 169.405C276.771 169.113 275.959 168.969 275.156 168.969L275.155 168.968Z" fill="#111111"/>
<path d="M272.024 187.356C264.8 184.69 257.168 187.571 253.445 193.854L283.193 204.831C283.718 197.368 279.247 190.021 272.024 187.356Z" fill="white"/>
<path d="M283.193 205.032C283.17 205.032 283.147 205.027 283.124 205.019L253.375 194.042C253.348 194.032 253.323 194.016 253.302 193.995C253.282 193.974 253.266 193.949 253.256 193.921C253.246 193.894 253.243 193.864 253.245 193.835C253.248 193.806 253.258 193.777 253.272 193.752C255.115 190.643 257.985 188.266 261.354 187.06C264.824 185.819 268.537 185.856 272.093 187.168C279.292 189.824 283.939 197.093 283.393 204.845C283.39 204.896 283.367 204.943 283.33 204.978C283.293 205.012 283.244 205.032 283.193 205.032ZM253.741 193.75L283.01 204.55C283.419 197.076 278.904 190.108 271.954 187.543C265.007 184.98 257.553 187.532 253.741 193.75Z" fill="#111111"/>
</g>
<g clip-path="url(#clip2_5826_3985)">
<path d="M199.128 317.996L192.726 326.469C194.835 323.678 196.086 320.19 196.141 316.286C196.195 312.501 195.115 308.828 193.204 305.599L199.606 297.127C201.517 300.356 202.597 304.029 202.543 307.813C202.488 311.718 201.236 315.206 199.128 317.996Z" fill="#9A9A9A"/>
<path d="M192.726 326.669C192.689 326.669 192.652 326.659 192.62 326.639C192.589 326.62 192.563 326.591 192.546 326.558C192.53 326.525 192.523 326.487 192.526 326.45C192.53 326.413 192.544 326.378 192.566 326.348C194.721 323.496 195.888 320.016 195.941 316.283C195.993 312.663 194.986 309.004 193.032 305.701C193.011 305.667 193.002 305.628 193.004 305.588C193.006 305.548 193.02 305.51 193.044 305.479L199.446 297.006C199.466 296.98 199.492 296.959 199.522 296.945C199.551 296.931 199.584 296.924 199.617 296.926C199.65 296.928 199.682 296.938 199.71 296.955C199.738 296.972 199.762 296.996 199.778 297.024C201.771 300.39 202.796 304.122 202.744 307.816C202.69 311.634 201.495 315.196 199.288 318.117L192.886 326.589C192.867 326.614 192.843 326.634 192.815 326.648C192.787 326.662 192.757 326.669 192.726 326.669V326.669ZM193.445 305.613C195.392 308.949 196.394 312.637 196.342 316.289C196.306 318.822 195.768 321.243 194.765 323.438L198.968 317.875C201.123 315.024 202.29 311.543 202.343 307.81C202.393 304.284 201.44 300.722 199.584 297.487L193.444 305.613L193.445 305.613Z" fill="#111111"/>
<path d="M274.275 379.639L267.873 388.112C264.185 392.993 257.874 395.74 250.754 394.857C246.81 394.367 243.149 392.826 240.06 390.569L246.461 382.096C249.551 384.354 253.212 385.895 257.156 386.384C264.275 387.267 270.587 384.521 274.275 379.639Z" fill="#9A9A9A"/>
<path d="M253.38 395.221C252.507 395.221 251.622 395.166 250.729 395.055C246.892 394.579 243.161 393.084 239.942 390.73C239.92 390.715 239.902 390.695 239.888 390.672C239.875 390.649 239.866 390.624 239.862 390.598C239.858 390.572 239.859 390.545 239.866 390.519C239.872 390.493 239.884 390.469 239.9 390.448L246.302 381.975C246.333 381.933 246.38 381.906 246.432 381.898C246.484 381.89 246.537 381.903 246.58 381.934C249.745 384.248 253.41 385.718 257.18 386.185C263.991 387.029 270.322 384.538 274.115 379.519C274.147 379.476 274.195 379.448 274.247 379.441C274.3 379.434 274.353 379.448 274.396 379.48C274.438 379.512 274.466 379.559 274.473 379.612C274.481 379.664 274.467 379.718 274.435 379.76L268.033 388.233C264.651 392.708 259.302 395.221 253.379 395.221L253.38 395.221ZM240.343 390.526C243.47 392.771 247.074 394.198 250.779 394.658C257.59 395.502 263.921 393.011 267.713 387.991L271.899 382.451C268.026 385.757 262.736 387.279 257.131 386.583C253.357 386.115 249.687 384.66 246.503 382.373L240.343 390.526Z" fill="#111111"/>
<path d="M134.443 414.323C123.982 413.025 115.617 403.834 115.76 393.794L117.278 286.913L110.876 295.385L109.358 402.266C109.216 412.307 117.58 421.497 128.041 422.795L239.406 436.612L245.808 428.139L134.443 414.323Z" fill="url(#paint2_linear_5826_3985)"/>
<path d="M239.406 436.812C239.397 436.812 239.389 436.811 239.381 436.81L128.017 422.994C117.474 421.686 109.014 412.386 109.158 402.263L110.676 295.382C110.676 295.34 110.691 295.298 110.716 295.264L117.118 286.792C117.144 286.758 117.179 286.733 117.22 286.721C117.26 286.708 117.303 286.709 117.343 286.723C117.383 286.736 117.418 286.762 117.442 286.797C117.467 286.832 117.479 286.873 117.479 286.915L115.96 393.796C115.819 403.721 124.122 412.84 134.468 414.123L245.832 427.94C245.867 427.944 245.9 427.958 245.928 427.979C245.956 428 245.978 428.028 245.992 428.061C246.006 428.093 246.011 428.128 246.006 428.163C246.002 428.198 245.989 428.231 245.967 428.259L239.566 436.732C239.547 436.757 239.523 436.777 239.495 436.791C239.467 436.804 239.437 436.812 239.406 436.812V436.812ZM111.076 295.453L109.559 402.269C109.417 412.194 117.72 421.312 128.066 422.596L239.316 436.398L245.438 428.295L134.419 414.521C123.876 413.213 115.416 403.913 115.56 393.79L117.069 287.521L111.076 295.453Z" fill="#111111"/>
<path d="M247.584 303.079L246.93 349.122C250.072 347.637 253.765 347.009 257.708 347.498C268.898 348.886 277.843 358.715 277.691 369.454C277.538 380.194 268.346 387.772 257.156 386.384C253.212 385.895 249.551 384.354 246.462 382.096L245.808 428.139L134.443 414.323C123.982 413.025 115.618 403.834 115.76 393.794L117.278 286.913L165.253 292.865C163.26 295.609 162.08 299.002 162.026 302.786C161.874 313.522 170.819 323.354 182.009 324.743C193.199 326.131 202.391 318.549 202.544 307.813C202.597 304.028 201.517 300.356 199.606 297.127L247.584 303.079H247.584Z" fill="white"/>
<path d="M245.808 428.339C245.799 428.339 245.791 428.339 245.783 428.338L134.419 414.521C123.876 413.214 115.416 403.914 115.56 393.791L117.078 286.91C117.078 286.882 117.085 286.854 117.097 286.829C117.108 286.803 117.126 286.78 117.147 286.762C117.168 286.743 117.193 286.729 117.22 286.721C117.247 286.713 117.275 286.71 117.303 286.714L165.277 292.666C165.312 292.67 165.345 292.683 165.373 292.704C165.401 292.725 165.423 292.753 165.437 292.785C165.451 292.817 165.456 292.852 165.452 292.887C165.448 292.921 165.435 292.954 165.415 292.982C163.38 295.785 162.278 299.176 162.227 302.789C162.076 313.411 170.961 323.171 182.033 324.544C187.573 325.23 192.757 323.752 196.631 320.379C200.244 317.233 202.273 312.769 202.343 307.811C202.394 304.19 201.388 300.531 199.433 297.229C199.414 297.197 199.405 297.16 199.406 297.122C199.407 297.085 199.418 297.049 199.438 297.017C199.459 296.986 199.488 296.961 199.522 296.945C199.556 296.93 199.593 296.924 199.63 296.928L247.609 302.881C247.658 302.887 247.703 302.911 247.735 302.948C247.768 302.985 247.785 303.033 247.784 303.082L247.135 348.807C250.348 347.358 254.004 346.837 257.733 347.299C269.002 348.697 278.044 358.637 277.891 369.457C277.819 374.533 275.741 379.102 272.042 382.323C268.081 385.772 262.785 387.284 257.131 386.583C253.417 386.122 249.804 384.707 246.656 382.483L246.008 428.142C246.007 428.195 245.986 428.245 245.948 428.282C245.911 428.319 245.86 428.339 245.808 428.339ZM117.475 287.139L115.96 393.797C115.819 403.722 124.122 412.84 134.468 414.124L245.61 427.913L246.261 382.093C246.262 382.057 246.272 382.021 246.292 381.989C246.311 381.958 246.339 381.933 246.372 381.917C246.405 381.9 246.442 381.893 246.478 381.896C246.515 381.899 246.55 381.913 246.58 381.934C249.745 384.248 253.411 385.718 257.181 386.185C262.721 386.873 267.905 385.394 271.779 382.021C275.391 378.875 277.42 374.412 277.49 369.452C277.641 358.83 268.756 349.071 257.684 347.697C253.918 347.23 250.229 347.785 247.016 349.303C246.985 349.318 246.951 349.324 246.917 349.322C246.883 349.32 246.85 349.309 246.822 349.291C246.793 349.272 246.77 349.247 246.754 349.217C246.738 349.187 246.729 349.154 246.73 349.12L247.381 303.256L199.981 297.375C201.84 300.649 202.794 304.25 202.744 307.816C202.672 312.89 200.594 317.459 196.894 320.681C192.933 324.13 187.638 325.643 181.984 324.941C170.715 323.543 161.672 313.603 161.826 302.784C161.877 299.205 162.937 295.837 164.895 293.022L117.475 287.139Z" fill="#111111"/>
<path d="M152.794 341.849L152.011 378.854L210.455 386.105L211.237 349.1L152.794 341.849Z" fill="white"/>
<path d="M210.454 386.305C210.446 386.305 210.438 386.304 210.43 386.303L151.986 379.052C151.937 379.046 151.892 379.022 151.859 378.985C151.827 378.947 151.809 378.899 151.81 378.849L152.593 341.845C152.594 341.817 152.6 341.789 152.612 341.764C152.624 341.738 152.641 341.716 152.662 341.697C152.684 341.679 152.708 341.665 152.735 341.657C152.762 341.649 152.79 341.647 152.818 341.65L211.262 348.901C211.311 348.907 211.356 348.931 211.389 348.969C211.421 349.006 211.439 349.054 211.438 349.104L210.655 386.109C210.654 386.161 210.632 386.211 210.595 386.248C210.557 386.284 210.507 386.305 210.454 386.305ZM152.215 378.677L210.259 385.878L211.033 349.276L152.989 342.075L152.215 378.677Z" fill="#111111"/>
<path d="M211.431 339.932L152.988 332.681L152.794 341.849L211.237 349.1L211.431 339.932Z" fill="#FFB6C0"/>
<path d="M211.237 349.3C211.229 349.3 211.221 349.3 211.213 349.299L152.769 342.048C152.72 342.042 152.674 342.017 152.642 341.98C152.61 341.942 152.592 341.894 152.593 341.845L152.787 332.677C152.788 332.649 152.794 332.622 152.806 332.596C152.818 332.571 152.835 332.548 152.856 332.53C152.878 332.512 152.902 332.498 152.929 332.49C152.956 332.482 152.984 332.479 153.012 332.483L211.456 339.734C211.505 339.74 211.55 339.764 211.583 339.801C211.615 339.839 211.633 339.887 211.632 339.937L211.438 349.104C211.437 349.156 211.415 349.206 211.377 349.243C211.34 349.28 211.29 349.3 211.237 349.3ZM152.998 341.672L211.042 348.874L211.227 340.109L153.183 332.908L152.998 341.672Z" fill="#111111"/>
<path d="M165.211 329.451C164.096 329.312 163.174 330.069 163.151 331.14L163.033 336.73C163.01 337.801 163.896 338.782 165.011 338.92C166.126 339.058 167.053 338.303 167.075 337.232L167.194 331.641C167.216 330.57 166.326 329.589 165.211 329.451Z" fill="#FF4761"/>
<path d="M165.277 339.137C165.181 339.137 165.084 339.131 164.986 339.119C163.774 338.968 162.808 337.895 162.832 336.726L162.951 331.135C162.962 330.577 163.195 330.074 163.606 329.719C164.042 329.341 164.621 329.176 165.236 329.252C166.451 329.402 167.419 330.476 167.394 331.645L167.276 337.236C167.264 337.793 167.031 338.295 166.621 338.65C166.252 338.968 165.783 339.137 165.277 339.137ZM164.947 329.634C164.538 329.634 164.161 329.768 163.868 330.022C163.544 330.302 163.361 330.701 163.351 331.144L163.233 336.735C163.212 337.704 164.021 338.596 165.035 338.721C165.538 338.783 166.007 338.651 166.358 338.347C166.682 338.067 166.866 337.67 166.875 337.228L166.993 331.637C167.014 330.667 166.203 329.776 165.186 329.65C165.107 329.64 165.027 329.635 164.947 329.635L164.947 329.634Z" fill="#111111"/>
<path d="M199.408 333.693C198.293 333.555 197.37 334.311 197.348 335.382L197.229 340.973C197.207 342.044 198.092 343.024 199.208 343.163C200.323 343.301 201.245 342.545 201.268 341.474L201.386 335.883C201.409 334.812 200.523 333.832 199.408 333.693Z" fill="#FF4761"/>
<path d="M199.473 343.38C199.377 343.38 199.281 343.374 199.183 343.361C197.97 343.211 197.004 342.138 197.029 340.969L197.147 335.378C197.159 334.82 197.392 334.317 197.803 333.962C198.239 333.584 198.818 333.419 199.432 333.495C200.645 333.645 201.611 334.718 201.586 335.888L201.468 341.478C201.456 342.036 201.224 342.539 200.813 342.894C200.446 343.212 199.978 343.38 199.473 343.38ZM199.144 333.877C198.735 333.877 198.358 334.011 198.065 334.265C197.741 334.545 197.557 334.943 197.548 335.387L197.43 340.977C197.409 341.947 198.218 342.838 199.232 342.964C199.733 343.026 200.201 342.894 200.551 342.592C200.875 342.312 201.058 341.913 201.067 341.47L201.186 335.879C201.206 334.909 200.397 334.018 199.383 333.892C199.304 333.882 199.224 333.877 199.144 333.877Z" fill="#111111"/>
<path d="M171.091 350.019L160.152 348.661L159.929 359.169L170.869 360.526L171.091 350.019Z" fill="#FF4761"/>
<path d="M170.869 360.726C170.861 360.726 170.853 360.726 170.844 360.725L159.905 359.367C159.855 359.361 159.81 359.337 159.778 359.3C159.745 359.262 159.728 359.214 159.729 359.164L159.951 348.657C159.952 348.629 159.958 348.602 159.97 348.576C159.982 348.551 159.999 348.528 160.02 348.51C160.042 348.492 160.066 348.478 160.093 348.47C160.12 348.462 160.148 348.459 160.176 348.463L171.116 349.82C171.165 349.826 171.21 349.85 171.243 349.888C171.275 349.925 171.293 349.973 171.292 350.023L171.069 360.53C171.068 360.583 171.047 360.632 171.009 360.669C170.972 360.706 170.921 360.726 170.869 360.726V360.726ZM160.134 358.992L170.674 360.3L170.887 350.195L160.347 348.887L160.134 358.992V358.992Z" fill="#111111"/>
<path d="M187.361 352.037L176.421 350.68L176.199 361.187L187.138 362.544L187.361 352.037Z" fill="#FF4761"/>
<path d="M187.138 362.745C187.13 362.745 187.122 362.744 187.114 362.743L176.174 361.386C176.125 361.38 176.08 361.356 176.047 361.318C176.015 361.281 175.997 361.232 175.998 361.183L176.22 350.676C176.221 350.647 176.228 350.62 176.239 350.595C176.251 350.569 176.269 350.547 176.29 350.528C176.311 350.51 176.336 350.496 176.363 350.488C176.389 350.48 176.418 350.478 176.445 350.481L187.385 351.838C187.434 351.844 187.48 351.868 187.512 351.906C187.545 351.943 187.562 351.992 187.561 352.041L187.339 362.548C187.338 362.601 187.316 362.651 187.279 362.687C187.241 362.724 187.191 362.744 187.138 362.744V362.745ZM176.403 361.011L186.943 362.318L187.157 352.214L176.617 350.906L176.403 361.011Z" fill="#111111"/>
<path d="M203.634 354.056L192.695 352.699L192.473 363.206L203.412 364.563L203.634 354.056Z" fill="#FF4761"/>
<path d="M203.412 364.764C203.404 364.764 203.396 364.763 203.388 364.762L192.448 363.405C192.398 363.399 192.353 363.375 192.321 363.337C192.288 363.3 192.271 363.251 192.272 363.202L192.494 352.695C192.495 352.667 192.501 352.639 192.513 352.614C192.525 352.588 192.542 352.566 192.563 352.547C192.585 352.529 192.609 352.515 192.636 352.507C192.663 352.499 192.691 352.497 192.719 352.5L203.659 353.857C203.708 353.863 203.753 353.887 203.786 353.925C203.818 353.962 203.836 354.011 203.835 354.06L203.613 364.568C203.611 364.62 203.59 364.67 203.552 364.706C203.515 364.743 203.465 364.764 203.412 364.764ZM192.677 363.03L203.217 364.337L203.43 354.232L192.89 352.925L192.677 363.03V363.03Z" fill="#111111"/>
<path d="M170.78 364.752L159.84 363.394L159.618 373.902L170.557 375.259L170.78 364.752Z" fill="#FF4761"/>
<path d="M170.557 375.46C170.549 375.46 170.541 375.459 170.533 375.458L159.593 374.101C159.544 374.095 159.498 374.071 159.466 374.033C159.433 373.995 159.416 373.947 159.417 373.898L159.639 363.39C159.64 363.362 159.646 363.335 159.658 363.309C159.67 363.284 159.687 363.261 159.709 363.243C159.73 363.225 159.755 363.211 159.781 363.203C159.808 363.195 159.837 363.192 159.864 363.196L170.804 364.553C170.853 364.559 170.899 364.583 170.931 364.621C170.964 364.658 170.981 364.707 170.98 364.756L170.758 375.264C170.757 375.316 170.735 375.366 170.698 375.403C170.66 375.439 170.61 375.46 170.557 375.46ZM159.822 373.726L170.362 375.033L170.576 364.928L160.036 363.621L159.822 373.726Z" fill="#111111"/>
<path d="M187.049 366.77L176.109 365.413L175.887 375.92L186.827 377.278L187.049 366.77Z" fill="#FF4761"/>
<path d="M186.827 377.478C186.818 377.478 186.81 377.477 186.802 377.476L175.862 376.119C175.813 376.113 175.768 376.089 175.735 376.051C175.703 376.014 175.685 375.966 175.687 375.916L175.909 365.409C175.909 365.381 175.916 365.353 175.928 365.328C175.94 365.302 175.957 365.28 175.978 365.262C175.999 365.243 176.024 365.23 176.051 365.221C176.078 365.213 176.106 365.211 176.134 365.214L187.073 366.572C187.123 366.578 187.168 366.602 187.2 366.639C187.233 366.677 187.25 366.725 187.249 366.775L187.027 377.282C187.026 377.335 187.004 377.384 186.967 377.421C186.929 377.458 186.879 377.478 186.827 377.478ZM176.091 375.744L186.631 377.052L186.845 366.947L176.305 365.639L176.091 375.744Z" fill="#111111"/>
<path d="M203.323 368.789L192.383 367.432L192.161 377.939L203.101 379.297L203.323 368.789Z" fill="#FF4761"/>
<path d="M203.101 379.497C203.092 379.497 203.084 379.496 203.076 379.495L192.136 378.138C192.087 378.132 192.042 378.108 192.009 378.07C191.977 378.033 191.959 377.985 191.96 377.935L192.183 367.428C192.183 367.4 192.19 367.372 192.202 367.347C192.214 367.321 192.231 367.299 192.252 367.28C192.273 367.262 192.298 367.248 192.325 367.24C192.352 367.232 192.38 367.23 192.408 367.233L203.347 368.591C203.397 368.597 203.442 368.621 203.474 368.658C203.507 368.696 203.524 368.744 203.523 368.794L203.301 379.301C203.3 379.353 203.278 379.403 203.241 379.44C203.203 379.477 203.153 379.497 203.101 379.497ZM192.365 377.763L202.905 379.07L203.119 368.966L192.579 367.658L192.365 377.763Z" fill="#111111"/>
</g>
<g clip-path="url(#clip3_5826_3985)">
<path d="M418.45 182.975L418.448 182.977L418.45 182.973L418.449 182.974C421.649 173.786 423.867 168.787 424.26 163.653C424.347 161.723 424.062 159.925 423.623 157.164C423.612 157.101 423.603 157.039 423.593 156.977C422.37 150.076 422.734 143.989 424.773 137.29C425.268 135.798 426.009 133.595 427.314 131.125C433.691 119.08 445.562 110.761 458.826 109.337C475.201 107.58 490.911 115.671 498.849 129.949C506.761 144.18 505.145 161.618 495.176 174.715C493.578 176.815 491.708 178.625 490.629 179.582C490.63 179.577 490.631 179.572 490.633 179.566C490.623 179.575 490.614 179.585 490.604 179.594C485.303 184.263 479.864 187.128 472.996 188.875C472.962 188.884 472.93 188.895 472.895 188.904C470.213 189.651 468.469 190.137 466.753 191.021C461.959 193.851 460.499 195.825 452.854 203.09L453.245 202.707L452.851 203.093L452.854 203.09C452.455 203.481 452.049 203.878 451.624 204.288L451.626 204.285C449.49 206.38 447.221 207.652 444.292 208.401C444.272 208.406 444.253 208.412 444.233 208.417L444.192 208.428C444.202 208.425 444.21 208.422 444.219 208.42C442.829 208.758 440.636 208.477 437.791 207.476C430.728 204.99 422.327 199.017 419.027 194.135C418.311 193.076 417.896 192.156 417.753 191.389C417.755 191.4 417.756 191.41 417.758 191.421L417.752 191.386L417.745 191.342C417.211 188.369 417.429 185.782 418.45 182.975Z" fill="white"/>
<path d="M438.558 207.955C440.938 208.708 442.881 208.944 444.216 208.637C444.225 208.636 444.234 208.634 444.243 208.632L444.332 208.609C447.309 207.848 449.597 206.565 451.76 204.449C452.173 204.05 452.585 203.65 452.995 203.247L452.999 203.244L453.003 203.24C454.779 201.552 456.198 200.173 457.449 198.956C461.518 194.999 463.202 193.362 466.86 191.203C468.549 190.334 470.3 189.846 472.952 189.107C472.973 189.101 472.994 189.095 473.015 189.089L473.052 189.078C479.947 187.325 485.399 184.454 490.722 179.771C490.739 179.763 490.755 179.753 490.769 179.74C491.554 179.044 493.57 177.174 495.344 174.843C500.284 168.352 503.253 160.722 503.929 152.775C504.61 144.761 502.917 136.832 499.034 129.847C491.054 115.494 475.262 107.361 458.804 109.128C452.283 109.827 445.907 112.23 440.367 116.075C434.861 119.896 430.283 125.066 427.128 131.027C425.789 133.558 425.027 135.853 424.572 137.223C422.52 143.968 422.154 150.07 423.385 157.014L423.393 157.067C423.4 157.112 423.407 157.156 423.415 157.2C423.849 159.928 424.135 161.732 424.05 163.643C423.745 167.609 422.342 171.498 420.217 177.384C419.627 179.019 418.958 180.873 418.252 182.9L418.251 182.901L418.25 182.903L418.246 182.915L418.245 182.92C417.215 185.76 416.997 188.37 417.536 191.379L417.55 191.46L417.551 191.46L417.551 191.463C417.552 191.469 417.554 191.474 417.555 191.48C417.715 192.284 418.151 193.217 418.852 194.253C422.168 199.16 430.632 205.181 437.721 207.675C437.998 207.772 438.277 207.866 438.558 207.955ZM444.167 208.215C442.759 208.558 440.578 208.233 437.861 207.277C430.845 204.809 422.474 198.86 419.201 194.017C418.519 193.007 418.101 192.11 417.96 191.351L417.96 191.351L417.96 191.348C417.959 191.346 417.959 191.345 417.959 191.344L417.956 191.326L417.952 191.305C417.425 188.367 417.64 185.821 418.648 183.047C418.651 183.04 418.653 183.033 418.655 183.026C419.358 181.006 420.025 179.158 420.614 177.528C422.751 171.609 424.162 167.699 424.471 163.669C424.559 161.709 424.27 159.888 423.831 157.132L423.801 156.944C422.582 150.066 422.944 144.024 424.974 137.352C425.424 135.998 426.179 133.724 427.501 131.224C430.625 125.323 435.157 120.204 440.608 116.422C446.09 112.616 452.398 110.239 458.849 109.547C475.139 107.798 490.767 115.847 498.665 130.052C502.507 136.963 504.182 144.808 503.508 152.739C502.839 160.606 499.9 168.161 495.008 174.588C493.296 176.837 491.354 178.653 490.543 179.376C490.523 179.385 490.505 179.397 490.489 179.412L490.471 179.429C485.187 184.083 479.784 186.931 472.943 188.671L472.842 188.7C470.162 189.447 468.393 189.939 466.656 190.834C462.944 193.024 461.249 194.672 457.155 198.653C456.008 199.768 454.721 201.02 453.147 202.521C453.129 202.53 453.112 202.542 453.097 202.556L452.706 202.94C452.298 203.34 451.889 203.738 451.477 204.135C449.367 206.204 447.135 207.457 444.239 208.197L444.182 208.212L444.169 208.215L444.168 208.215L444.167 208.215ZM412.786 220.918C415.622 221.916 418.995 224.314 420.32 226.274C421.197 227.572 420.957 228.353 419.851 228.444C416.538 228.627 412.171 225.834 410.323 223.211C409.893 222.566 409.728 222.135 409.619 221.85C409.135 220.504 410.382 220.072 412.786 220.918Z" fill="#111111"/>
<path d="M417.08 228.245C418.037 228.548 418.986 228.703 419.863 228.654C420.565 228.596 420.851 228.292 420.968 228.047C421.19 227.585 421.031 226.949 420.495 226.156C419.15 224.167 415.723 221.728 412.856 220.719C411.25 220.154 410.084 220.125 409.573 220.639C409.368 220.845 409.174 221.236 409.421 221.921C409.535 222.219 409.704 222.663 410.147 223.328C411.542 225.307 414.345 227.379 417.08 228.245ZM412.716 221.117C415.511 222.1 418.844 224.467 420.145 226.392C420.579 227.033 420.736 227.556 420.588 227.865C420.461 228.129 420.108 228.211 419.834 228.234C416.596 228.413 412.311 225.667 410.495 223.09C410.082 222.469 409.923 222.052 409.817 221.776C409.68 221.395 409.699 221.112 409.873 220.936C410.252 220.556 411.317 220.624 412.716 221.117Z" fill="#111111"/>
<path d="M408.287 209.223C409.565 209.12 411.348 209.43 413.553 210.206C416.103 211.103 418.842 212.492 421.416 214.119C425.449 216.67 429.078 219.809 430.945 222.571C432.965 225.559 432.418 227.36 429.928 227.575L419.879 228.442C420.958 228.349 420.896 227.512 420.29 226.475C419.561 225.229 417.909 223.919 416.162 222.814C415.047 222.109 413.861 221.508 412.756 221.119C411.801 220.783 411.029 220.649 410.475 220.693C409.637 220.76 409.33 221.036 409.617 221.842L406.236 212.34C405.574 210.478 406.353 209.378 408.287 209.223Z" fill="#46B75B"/>
<path d="M419.816 228.643C419.842 228.651 419.87 228.654 419.898 228.652L429.946 227.785C431.081 227.687 431.859 227.261 432.198 226.552C432.656 225.592 432.283 224.174 431.12 222.453C429.311 219.777 425.726 216.595 421.529 213.941C418.842 212.242 416.108 210.881 413.623 210.007C411.465 209.247 409.615 208.904 408.27 209.012C407.218 209.096 406.487 209.445 406.097 210.047C405.711 210.642 405.691 211.437 406.037 212.41L409.417 221.911L409.418 221.913C409.437 221.965 409.475 222.008 409.526 222.033C409.577 222.057 409.635 222.06 409.687 222.041C409.74 222.022 409.783 221.983 409.807 221.933C409.831 221.882 409.834 221.824 409.816 221.772C409.71 221.474 409.695 221.264 409.771 221.146C409.856 221.015 410.092 220.935 410.492 220.903C411.033 220.859 411.793 221.003 412.686 221.317C413.741 221.689 414.904 222.268 416.049 222.992C417.467 223.889 419.322 225.239 420.107 226.581C420.47 227.2 420.595 227.686 420.459 227.948C420.376 228.108 420.175 228.204 419.863 228.231L419.861 228.231C419.812 228.236 419.767 228.257 419.732 228.291C419.697 228.325 419.675 228.37 419.67 228.418C419.665 228.467 419.676 228.516 419.703 228.557C419.729 228.597 419.769 228.628 419.816 228.643ZM412.727 210.152C412.975 210.23 413.226 210.314 413.483 210.405C415.939 211.269 418.643 212.615 421.304 214.297C425.453 216.922 428.992 220.059 430.77 222.689C431.845 224.28 432.207 225.553 431.816 226.371C431.475 227.086 430.591 227.306 429.909 227.365L420.831 228.148C420.832 228.146 420.833 228.144 420.834 228.142C421.045 227.737 420.923 227.14 420.472 226.369C419.644 224.954 417.733 223.558 416.275 222.636C415.104 221.895 413.911 221.302 412.826 220.92C411.875 220.586 411.057 220.435 410.458 220.483C410.119 220.51 409.713 220.576 409.482 220.833L406.436 212.27C406.136 211.427 406.141 210.756 406.452 210.277C406.767 209.79 407.39 209.506 408.304 209.433C409.434 209.342 410.952 209.59 412.727 210.152Z" fill="#1C732C"/>
<path d="M429.9 227.577C431.206 227.443 433.095 227.039 434.418 225.087C435.014 224.162 434.717 222.662 433.376 220.678C430.062 215.775 421.626 209.778 414.534 207.282C410.31 205.796 407.515 205.887 406.645 207.238C405.427 209.226 405.823 211.086 406.226 212.312C405.12 209.253 407.997 208.251 413.553 210.206C420.1 212.51 427.886 218.046 430.945 222.571C432.972 225.571 432.414 227.374 429.9 227.577Z" fill="#111111"/>
<path d="M429.836 227.778C429.862 227.787 429.89 227.79 429.917 227.787C430.05 227.777 430.182 227.761 430.314 227.74C431.629 227.556 433.349 227.041 434.593 225.205C435.264 224.164 434.902 222.559 433.551 220.56C430.221 215.633 421.721 209.588 414.604 207.083C410.404 205.605 407.437 205.62 406.468 207.124C405.352 208.945 405.536 210.654 405.881 211.9C405.921 212.064 405.97 212.225 406.028 212.384C406.047 212.435 406.086 212.477 406.136 212.501C406.186 212.524 406.243 212.528 406.295 212.51C406.347 212.492 406.39 212.454 406.415 212.405C406.439 212.356 406.444 212.299 406.427 212.247C406.378 212.096 406.328 211.936 406.282 211.767C406.107 211.026 406.218 210.451 406.614 210.052C407.565 209.094 410.135 209.227 413.483 210.405C419.983 212.692 427.738 218.203 430.77 222.689C431.847 224.282 432.208 225.556 431.815 226.374C431.528 226.972 430.861 227.223 430.248 227.323C430.12 227.341 429.996 227.356 429.878 227.368C429.83 227.373 429.785 227.394 429.751 227.429C429.716 227.463 429.695 227.508 429.69 227.556C429.685 227.604 429.697 227.653 429.724 227.693C429.75 227.733 429.79 227.764 429.836 227.778ZM413.645 207.207C413.913 207.291 414.185 207.382 414.464 207.48C421.509 209.959 429.914 215.933 433.201 220.796C434.432 222.618 434.802 224.101 434.241 224.973C433.597 225.922 432.81 226.491 432.026 226.838C432.091 226.749 432.148 226.655 432.195 226.556C432.657 225.596 432.285 224.177 431.12 222.453C428.044 217.903 420.195 212.32 413.623 210.007C410.009 208.735 407.415 208.646 406.314 209.755C406.217 209.852 406.122 209.969 406.04 210.111C406.035 209.263 406.229 208.32 406.825 207.348C407.605 206.137 410.128 206.093 413.645 207.207Z" fill="#111111"/>
<path d="M417.987 189.746C418.191 189.433 418.498 189.188 418.904 189.015C420.235 188.448 422.621 188.661 425.84 189.794C429.436 191.059 433.378 193.228 436.817 195.696C440.135 198.078 442.984 200.738 444.605 203.135C445.938 205.107 446.235 206.599 445.65 207.514L434.426 225.076C435.013 224.157 434.715 222.658 433.376 220.678C431.749 218.271 428.888 215.6 425.556 213.209C422.103 210.73 418.144 208.552 414.534 207.282C411.301 206.144 408.905 205.93 407.569 206.499C407.162 206.672 406.853 206.919 406.649 207.233L417.987 189.746Z" fill="#46B75B"/>
<path d="M434.362 225.277C434.406 225.291 434.454 225.29 434.498 225.274C434.541 225.258 434.579 225.228 434.603 225.189L434.604 225.188L445.828 207.628C446.485 206.599 446.123 205.004 444.779 203.017C443.201 200.681 440.417 198.021 436.94 195.525C433.328 192.933 429.411 190.827 425.91 189.595C422.765 188.488 420.248 188.214 418.821 188.821C418.376 189.01 418.036 189.283 417.81 189.631L406.471 207.119C406.456 207.142 406.445 207.168 406.439 207.196C406.433 207.223 406.434 207.251 406.439 207.279C406.445 207.307 406.456 207.333 406.472 207.356C406.487 207.379 406.508 207.399 406.531 207.414C406.555 207.429 406.581 207.44 406.609 207.445C406.637 207.45 406.665 207.449 406.692 207.443C406.72 207.437 406.746 207.425 406.769 207.409C406.792 207.393 406.811 207.372 406.826 207.348L406.827 207.346C407.008 207.069 407.285 206.849 407.652 206.693C408.987 206.125 411.408 206.405 414.464 207.48C417.943 208.704 421.839 210.8 425.434 213.38C428.885 215.857 431.644 218.491 433.202 220.796C434.431 222.614 434.802 224.094 434.249 224.962L434.248 224.962C434.231 224.989 434.22 225.02 434.216 225.052C434.213 225.084 434.216 225.117 434.227 225.147C434.238 225.178 434.256 225.205 434.28 225.228C434.303 225.25 434.331 225.267 434.362 225.277ZM424.951 189.719C425.219 189.804 425.492 189.895 425.77 189.993C429.235 191.212 433.114 193.298 436.694 195.868C440.131 198.335 442.878 200.957 444.43 203.253C445.654 205.064 446.024 206.537 445.472 207.401L434.922 223.907C434.89 222.99 434.429 221.859 433.551 220.56C431.966 218.215 429.17 215.543 425.679 213.038C422.052 210.435 418.119 208.32 414.604 207.083C411.459 205.977 408.944 205.699 407.508 206.296L418.164 189.861C418.344 189.584 418.621 189.365 418.987 189.209C420.195 188.695 422.294 188.878 424.951 189.719Z" fill="#111111"/>
</g>
<g clip-path="url(#clip4_5826_3985)">
<path d="M148.652 308.209L143.274 312.979L128.407 309.329L133.786 304.56L148.652 308.209Z" fill="#1C732C"/>
<path d="M143.247 313.155L143.232 313.152L128.365 309.502C128.334 309.494 128.305 309.478 128.282 309.455C128.259 309.432 128.243 309.404 128.235 309.372C128.227 309.341 128.228 309.308 128.238 309.277C128.248 309.246 128.266 309.218 128.29 309.197L133.668 304.427C133.689 304.408 133.715 304.394 133.743 304.387C133.771 304.38 133.8 304.38 133.828 304.387L148.694 308.037C148.726 308.045 148.755 308.061 148.777 308.084C148.8 308.107 148.817 308.136 148.824 308.167C148.832 308.199 148.831 308.232 148.821 308.263C148.812 308.293 148.794 308.321 148.77 308.343L143.391 313.112C143.372 313.13 143.349 313.142 143.324 313.15C143.299 313.157 143.272 313.159 143.247 313.155ZM128.778 309.238L143.226 312.785L148.281 308.301L133.834 304.755L128.778 309.238Z" fill="#111111"/>
<path d="M133.786 304.56L128.408 309.329C123.879 313.04 118.076 315.769 111.338 317.029C91.1291 320.811 70.1398 309.983 64.4563 292.844C60.8058 281.836 64.3573 270.901 72.7198 263.485L78.0979 258.715C69.7354 266.131 66.1839 277.066 69.8344 288.074C75.5179 305.213 96.5072 316.041 116.716 312.26C123.455 310.999 129.257 308.271 133.786 304.56Z" fill="#1C732C"/>
<path d="M96.1723 317.408C81.4564 315.11 68.5547 305.767 64.288 292.9C60.7299 282.17 63.838 271.124 72.6021 263.352L77.9804 258.582C77.9978 258.567 78.0181 258.555 78.0401 258.547C78.0621 258.54 78.0854 258.536 78.1086 258.538C78.1319 258.539 78.1546 258.545 78.1755 258.555C78.1964 258.566 78.2151 258.58 78.2306 258.597C78.246 258.615 78.2578 258.635 78.2654 258.657C78.273 258.679 78.2762 258.703 78.2747 258.726C78.2733 258.749 78.2673 258.772 78.2571 258.793C78.2469 258.814 78.2327 258.833 78.2153 258.848L78.2011 258.861C69.5578 266.535 66.4928 277.434 70.0026 288.018C75.6501 305.048 96.5917 315.845 116.684 312.085C123.16 310.873 129.034 308.224 133.673 304.422C133.709 304.392 133.756 304.377 133.803 304.381C133.849 304.384 133.893 304.407 133.923 304.443C133.954 304.479 133.969 304.525 133.965 304.572C133.961 304.619 133.939 304.663 133.903 304.693L128.525 309.463C123.834 313.306 117.904 315.981 111.37 317.204C106.273 318.158 101.119 318.181 96.1723 317.408ZM74.6536 262.007L72.837 263.618C64.1828 271.293 61.1128 282.197 64.6245 292.787C70.2718 309.818 91.2137 320.615 111.306 316.855C117.781 315.643 123.656 312.993 128.295 309.192L130.881 306.899C126.769 309.567 121.95 311.461 116.749 312.434C96.4881 316.225 75.3676 305.322 69.6665 288.13C66.6034 278.894 68.481 269.422 74.6536 262.007Z" fill="#111111"/>
<path d="M143.017 274.381C145.698 282.464 144.492 290.507 140.353 297.147L148.652 308.21L133.786 304.56C129.257 308.27 123.455 310.999 116.717 312.26C96.5075 316.041 75.5182 305.213 69.8347 288.074C64.1511 270.935 75.9258 253.974 96.1349 250.193C116.344 246.412 137.334 257.241 143.017 274.381Z" fill="#46B75B"/>
<path d="M101.551 312.639C86.8345 310.341 73.933 300.997 69.6663 288.13C67.1522 280.549 67.9699 272.63 71.9692 265.835C76.7182 257.764 85.5144 251.999 96.1021 250.018C116.363 246.227 137.484 257.131 143.185 274.325C145.771 282.121 144.841 290.217 140.568 297.138L148.794 308.103C148.816 308.132 148.828 308.167 148.829 308.204C148.83 308.241 148.82 308.277 148.8 308.307C148.78 308.338 148.751 308.362 148.717 308.375C148.683 308.389 148.645 308.391 148.61 308.382L133.829 304.753C129.155 308.562 123.251 311.218 116.749 312.434C111.651 313.388 106.497 313.411 101.551 312.639ZM111.253 250.164C106.343 249.397 101.228 249.42 96.1671 250.367C85.6799 252.33 76.9715 258.033 72.2745 266.015C68.3284 272.721 67.5213 280.535 70.0028 288.018C75.6502 305.048 96.5918 315.845 116.684 312.085C123.16 310.873 129.034 308.223 133.674 304.422C133.695 304.405 133.72 304.392 133.747 304.386C133.773 304.38 133.801 304.38 133.828 304.387L148.212 307.919L140.212 297.254C140.19 297.225 140.178 297.191 140.176 297.155C140.175 297.119 140.184 297.084 140.203 297.053C144.474 290.202 145.413 282.17 142.849 274.437C138.624 261.696 125.839 252.443 111.253 250.164Z" fill="#111111"/>
<path d="M121.069 273.941C123.279 273.528 125.707 275.107 126.492 277.473C127.275 279.836 126.118 282.089 123.908 282.502C121.696 282.916 119.267 281.334 118.483 278.971C117.699 276.606 118.857 274.355 121.069 273.941Z" fill="white"/>
<path d="M122.528 282.693C120.692 282.406 118.96 280.972 118.315 279.028C117.899 277.771 118.001 276.471 118.596 275.46C119.123 274.564 119.99 273.963 121.037 273.767C123.329 273.339 125.851 274.976 126.66 277.417C127.076 278.673 126.974 279.973 126.378 280.985C125.851 281.881 124.985 282.482 123.94 282.677C123.474 282.764 122.997 282.766 122.528 282.693ZM121.102 274.116C120.157 274.293 119.376 274.834 118.902 275.64C118.358 276.563 118.268 277.757 118.652 278.915C119.407 281.195 121.751 282.725 123.876 282.328C124.819 282.151 125.599 281.61 126.073 280.805C126.617 279.881 126.708 278.687 126.324 277.529C125.568 275.25 123.225 273.719 121.102 274.116Z" fill="#111111"/>
<path d="M88.9438 279.952C91.154 279.539 93.5821 281.118 94.3664 283.484C95.1501 285.847 93.9928 288.1 91.7825 288.513C89.5703 288.927 87.1415 287.345 86.3577 284.982C85.5735 282.617 86.7315 280.366 88.9438 279.952Z" fill="white"/>
<path d="M90.4022 288.703C88.5662 288.417 86.8344 286.982 86.1897 285.038C85.7731 283.782 85.8755 282.482 86.4706 281.471C86.9978 280.575 87.8647 279.974 88.9114 279.778C91.2032 279.349 93.7251 280.986 94.5347 283.427C94.9511 284.683 94.8484 285.984 94.2528 286.996C93.7259 287.891 92.86 288.492 91.815 288.688C91.3482 288.775 90.8719 288.777 90.4022 288.703ZM90.276 280.113C89.8434 280.045 89.4055 280.047 88.9762 280.127C88.0318 280.304 87.2503 280.845 86.776 281.651C86.233 282.574 86.1421 283.768 86.5262 284.926C87.2819 287.205 89.6257 288.736 91.7503 288.339C92.6932 288.162 93.4735 287.621 93.9478 286.816C94.4912 285.892 94.5824 284.698 94.1985 283.54C93.5953 281.721 91.9821 280.379 90.276 280.113Z" fill="#111111"/>
<path d="M105.007 276.947C107.217 276.533 109.645 278.113 110.429 280.478C111.213 282.841 110.056 285.094 107.845 285.508C105.633 285.922 103.204 284.34 102.421 281.977C101.636 279.611 102.794 277.361 105.007 276.947Z" fill="white"/>
<path d="M106.465 285.698C104.629 285.411 102.897 283.977 102.252 282.033C101.836 280.777 101.938 279.477 102.533 278.465C103.06 277.57 103.927 276.968 104.974 276.772C107.265 276.344 109.788 277.981 110.597 280.422C111.014 281.678 110.911 282.979 110.315 283.991C109.789 284.886 108.923 285.487 107.878 285.682C107.411 285.77 106.934 285.771 106.465 285.698ZM105.039 277.122C104.094 277.298 103.313 277.84 102.839 278.646C102.296 279.568 102.205 280.762 102.589 281.921C103.345 284.2 105.688 285.731 107.813 285.333C108.756 285.157 109.536 284.616 110.011 283.81C110.554 282.887 110.645 281.693 110.261 280.535C109.505 278.255 107.163 276.724 105.039 277.122Z" fill="#111111"/>
</g>
<rect opacity="0.6" x="140.485" y="131" width="12" height="12" rx="2" transform="rotate(45 140.485 131)" fill="white"/>
<rect opacity="0.6" x="85.3135" y="444" width="16" height="16" rx="4" transform="rotate(45 85.3135 444)" fill="white"/>
<rect opacity="0.6" x="380.313" y="137" width="10" height="10" rx="2" transform="rotate(45 380.313 137)" fill="white"/>
<rect opacity="0.6" x="161.243" y="243" width="6" height="6" rx="1" transform="rotate(45 161.243 243)" fill="white"/>
<defs>
<filter id="filter0_f_5826_3985" x="0" y="0" width="562" height="562" filterUnits="userSpaceOnUse" color-interpolation-filters="sRGB">
<feFlood flood-opacity="0" result="BackgroundImageFix"/>
<feBlend mode="normal" in="SourceGraphic" in2="BackgroundImageFix" result="shape"/>
<feGaussianBlur stdDeviation="74" result="effect1_foregroundBlur_5826_3985"/>
</filter>
<linearGradient id="paint0_linear_5826_3985" x1="323.515" y1="458.764" x2="415.952" y2="373.89" gradientUnits="userSpaceOnUse">
<stop stop-color="#111111"/>
<stop offset="0.478" stop-color="#1C732C"/>
</linearGradient>
<linearGradient id="paint1_linear_5826_3985" x1="289.781" y1="203.606" x2="307.088" y2="241.969" gradientUnits="userSpaceOnUse">
<stop stop-color="#111111"/>
<stop offset="1" stop-color="#1C732C"/>
</linearGradient>
<linearGradient id="paint2_linear_5826_3985" x1="107.879" y1="346.088" x2="228.803" y2="429.808" gradientUnits="userSpaceOnUse">
<stop stop-color="#9A9A9A"/>
<stop offset="0.256" stop-color="white"/>
<stop offset="0.832" stop-color="#9A9A9A"/>
</linearGradient>
<clipPath id="clip0_5826_3985">
<rect width="205.009" height="285.971" fill="white" transform="translate(258.454 191.122)"/>
</clipPath>
<clipPath id="clip1_5826_3985">
<rect width="180.761" height="178.556" fill="white" transform="translate(168.074 86.9136)"/>
</clipPath>
<clipPath id="clip2_5826_3985">
<rect width="168.737" height="150.1" fill="white" transform="translate(109.156 286.712)"/>
</clipPath>
<clipPath id="clip3_5826_3985">
<rect width="81.3624" height="129.659" fill="white" transform="matrix(-0.953364 -0.301822 -0.301822 0.953364 514.399 123.057)"/>
</clipPath>
<clipPath id="clip4_5826_3985">
<rect width="88.9776" height="69.138" fill="white" transform="translate(68.9326 243.186) rotate(8.87875)"/>
</clipPath>
</defs>
</svg>
