<svg width="501" height="501" viewBox="0 0 501 501" fill="none" xmlns="http://www.w3.org/2000/svg">
<g clip-path="url(#clip0_1715_3491)">
<path d="M312.514 213.201L318.239 219.721C315.792 216.933 312.461 214.866 308.48 213.939C304.68 213.055 300.801 213.33 297.215 214.529L291.49 208.009C295.076 206.81 298.955 206.535 302.756 207.419C306.736 208.346 310.066 210.413 312.514 213.201Z" fill="#D9D9D9"/>
<path d="M318.239 219.921C318.211 219.921 318.183 219.915 318.157 219.903C318.131 219.891 318.108 219.874 318.089 219.853C315.582 216.998 312.244 215.021 308.435 214.134C304.806 213.289 300.948 213.492 297.279 214.719C297.241 214.732 297.201 214.733 297.163 214.723C297.125 214.712 297.091 214.691 297.065 214.661L291.34 208.141C291.318 208.117 291.303 208.087 291.295 208.055C291.287 208.022 291.288 207.989 291.297 207.957C291.305 207.925 291.322 207.896 291.344 207.872C291.367 207.847 291.395 207.829 291.427 207.819C295.167 206.568 299.1 206.362 302.801 207.224C306.692 208.129 310.103 210.15 312.665 213.068L318.39 219.588C318.415 219.617 318.432 219.653 318.437 219.691C318.443 219.729 318.437 219.768 318.422 219.803C318.406 219.838 318.38 219.868 318.348 219.889C318.315 219.91 318.278 219.921 318.239 219.921L318.239 219.921ZM303.94 213.221C305.488 213.221 307.026 213.395 308.526 213.744C311.127 214.349 313.513 215.453 315.575 216.99L312.364 213.333C309.858 210.478 306.519 208.501 302.71 207.614C299.176 206.792 295.425 206.962 291.842 208.106L297.279 214.297C299.463 213.581 301.712 213.221 303.94 213.221H303.94Z" fill="#111111"/>
<path d="M273.395 340L279.12 346.52C276.672 343.732 273.342 341.665 269.362 340.739C265.561 339.854 261.681 340.134 258.096 341.333L252.371 334.813C255.956 333.614 259.836 333.334 263.637 334.219C267.617 335.145 270.948 337.212 273.395 340Z" fill="#1C732C"/>
<path d="M279.12 346.72C279.092 346.72 279.063 346.714 279.037 346.702C279.011 346.691 278.988 346.673 278.97 346.652C276.463 343.798 273.125 341.821 269.316 340.934C265.691 340.09 261.834 340.294 258.159 341.523C258.122 341.535 258.081 341.537 258.043 341.526C258.005 341.516 257.971 341.495 257.945 341.465L252.22 334.945C252.198 334.92 252.183 334.89 252.175 334.858C252.168 334.826 252.168 334.792 252.177 334.76C252.185 334.728 252.202 334.699 252.225 334.675C252.247 334.651 252.276 334.633 252.307 334.623C256.052 333.37 259.986 333.163 263.682 334.023C267.573 334.929 270.984 336.95 273.546 339.867L279.27 346.387C279.296 346.416 279.312 346.452 279.318 346.49C279.324 346.528 279.318 346.567 279.302 346.602C279.286 346.637 279.261 346.667 279.228 346.688C279.196 346.709 279.158 346.72 279.12 346.72L279.12 346.72ZM264.832 340.022C266.377 340.022 267.911 340.195 269.407 340.543C272.008 341.149 274.395 342.253 276.456 343.789L273.245 340.132C270.739 337.278 267.401 335.301 263.592 334.414C260.062 333.592 256.31 333.764 252.722 334.909L258.159 341.101C260.349 340.383 262.601 340.022 264.832 340.022Z" fill="#111111"/>
<path d="M413.114 186.278C423.19 188.623 428.807 198.779 425.667 208.959L392.234 317.327L346.042 306.576C346.985 310.04 346.972 313.877 345.788 317.714C342.428 328.602 330.971 335.394 320.201 332.887C309.428 330.38 303.419 319.523 306.778 308.634C307.962 304.797 310.155 301.468 312.967 298.877L266.774 288.125L281.177 241.438C283.592 244.034 286.792 245.957 290.593 246.842C301.362 249.348 312.82 242.557 316.179 231.668C319.537 220.783 313.525 209.925 302.755 207.419C298.954 206.534 295.075 206.81 291.49 208.009L305.894 161.322L413.114 186.278Z" fill="white"/>
<path d="M324.733 333.606C323.209 333.606 321.676 333.436 320.156 333.083C315 331.883 310.74 328.749 308.16 324.259C305.47 319.576 304.911 314.006 306.587 308.575C307.704 304.954 309.764 301.646 312.556 298.987L266.729 288.321C266.702 288.314 266.677 288.303 266.654 288.286C266.632 288.27 266.614 288.249 266.6 288.225C266.587 288.202 266.578 288.175 266.575 288.148C266.572 288.12 266.574 288.093 266.583 288.066L280.986 241.379C280.996 241.346 281.015 241.315 281.041 241.291C281.067 241.267 281.098 241.25 281.133 241.243C281.167 241.235 281.203 241.236 281.236 241.246C281.27 241.257 281.3 241.276 281.324 241.302C283.792 243.955 287.013 245.803 290.638 246.647C301.294 249.128 312.665 242.381 315.988 231.609C317.629 226.289 317.083 220.834 314.449 216.249C311.925 211.855 307.756 208.789 302.71 207.614C299.081 206.769 295.223 206.972 291.554 208.199C291.519 208.211 291.481 208.213 291.445 208.205C291.409 208.196 291.376 208.178 291.35 208.153C291.323 208.127 291.305 208.094 291.296 208.059C291.287 208.023 291.288 207.985 291.299 207.95L305.702 161.263C305.717 161.214 305.75 161.173 305.794 161.148C305.838 161.123 305.89 161.115 305.939 161.127L413.16 186.083C417.985 187.206 421.971 190.139 424.385 194.341C426.903 198.724 427.426 203.937 425.858 209.018L392.426 317.386C392.411 317.435 392.378 317.476 392.334 317.501C392.29 317.526 392.239 317.534 392.189 317.522L346.32 306.846C347.215 310.375 347.098 314.146 345.979 317.773C343.069 327.205 334.094 333.605 324.733 333.606L324.733 333.606ZM267.029 287.979L313.012 298.682C313.048 298.69 313.08 298.708 313.106 298.733C313.133 298.759 313.151 298.791 313.161 298.826C313.17 298.861 313.169 298.898 313.159 298.933C313.149 298.968 313.129 299 313.103 299.024C310.223 301.678 308.103 305.022 306.97 308.693C305.328 314.017 305.874 319.474 308.508 324.059C311.031 328.452 315.2 331.518 320.247 332.692C330.903 335.173 342.273 328.426 345.597 317.655C346.727 313.99 346.814 310.177 345.849 306.628C345.839 306.595 345.839 306.559 345.847 306.526C345.856 306.492 345.873 306.461 345.897 306.436C345.921 306.411 345.952 306.393 345.985 306.383C346.018 306.373 346.053 306.372 346.087 306.38L392.098 317.09L425.475 208.9C427.01 203.926 426.499 198.826 424.038 194.541C421.68 190.436 417.784 187.571 413.069 186.473L306.03 161.559L291.796 207.699C295.425 206.556 299.222 206.391 302.801 207.224C307.956 208.424 312.216 211.558 314.796 216.049C317.486 220.732 318.046 226.3 316.371 231.728C313.461 241.16 304.485 247.56 295.125 247.56C293.601 247.56 292.068 247.391 290.548 247.037C286.959 246.202 283.758 244.402 281.268 241.825L267.029 287.979Z" fill="#111111"/>
<path d="M337.116 233.722L323.665 230.591L315.712 256.368L329.164 259.499L337.116 233.722Z" fill="#FF4761"/>
<path d="M329.164 259.7C329.149 259.7 329.133 259.698 329.118 259.694L315.667 256.564C315.64 256.557 315.615 256.546 315.593 256.529C315.571 256.513 315.552 256.492 315.539 256.468C315.525 256.444 315.516 256.418 315.513 256.391C315.51 256.363 315.513 256.336 315.521 256.309L323.473 230.532C323.488 230.484 323.521 230.443 323.565 230.418C323.609 230.392 323.661 230.385 323.71 230.396L337.161 233.527C337.188 233.533 337.213 233.545 337.235 233.561C337.258 233.578 337.276 233.598 337.29 233.622C337.303 233.646 337.312 233.673 337.315 233.7C337.318 233.727 337.316 233.755 337.307 233.781L329.355 259.558C329.343 259.599 329.317 259.635 329.283 259.66C329.248 259.686 329.207 259.7 329.164 259.7ZM315.967 256.222L329.028 259.262L336.862 233.868L323.801 230.829L315.967 256.222Z" fill="#111111"/>
<path d="M360.577 226.076L347.126 222.945L335.401 260.951L348.852 264.082L360.577 226.076Z" fill="#FF4761"/>
<path d="M348.853 264.282C348.837 264.282 348.822 264.28 348.807 264.277L335.355 261.146C335.329 261.14 335.303 261.128 335.281 261.112C335.259 261.096 335.241 261.075 335.227 261.051C335.213 261.027 335.205 261.001 335.202 260.973C335.199 260.946 335.201 260.918 335.209 260.892L346.934 222.886C346.949 222.838 346.982 222.797 347.026 222.772C347.07 222.746 347.122 222.739 347.171 222.75L360.623 225.881C360.65 225.887 360.675 225.899 360.697 225.915C360.719 225.932 360.738 225.952 360.751 225.976C360.765 226 360.774 226.026 360.777 226.054C360.78 226.081 360.777 226.109 360.769 226.135L349.044 264.141C349.031 264.182 349.006 264.218 348.972 264.243C348.937 264.268 348.896 264.282 348.853 264.282H348.853ZM335.656 260.805L348.716 263.844L360.323 226.223L347.262 223.183L335.656 260.805Z" fill="#111111"/>
<path d="M382.477 223.491L369.029 220.361L355.093 265.534L368.541 268.665L382.477 223.491Z" fill="#FF4761"/>
<path d="M368.541 268.865C368.526 268.865 368.51 268.863 368.495 268.86L355.048 265.73C355.021 265.724 354.996 265.712 354.974 265.696C354.952 265.679 354.933 265.658 354.919 265.634C354.906 265.611 354.897 265.584 354.894 265.557C354.891 265.53 354.894 265.502 354.902 265.476L368.838 220.302C368.853 220.254 368.886 220.213 368.93 220.188C368.974 220.163 369.025 220.155 369.075 220.166L382.522 223.296C382.549 223.303 382.574 223.314 382.596 223.331C382.619 223.347 382.637 223.368 382.651 223.392C382.664 223.416 382.673 223.442 382.676 223.469C382.679 223.497 382.677 223.524 382.668 223.551L368.732 268.724C368.72 268.765 368.694 268.8 368.66 268.826C368.625 268.851 368.584 268.865 368.541 268.865ZM355.348 265.388L368.404 268.427L382.222 223.638L369.166 220.599L355.348 265.388Z" fill="#111111"/>
<path d="M427.965 198.204L422.24 191.685C426.145 196.132 427.647 202.541 425.667 208.96L392.234 317.327L397.959 323.847L431.391 215.48C433.372 209.061 431.87 202.652 427.965 198.205V198.204Z" fill="#9A9A9A"/>
<path d="M397.959 324.048C397.902 324.048 397.847 324.023 397.808 323.98L392.084 317.459C392.061 317.434 392.046 317.403 392.039 317.369C392.031 317.336 392.033 317.301 392.043 317.268L425.475 208.9C427.366 202.771 426.101 196.384 422.09 191.816C422.071 191.797 422.057 191.774 422.048 191.748C422.039 191.723 422.034 191.696 422.036 191.67C422.037 191.643 422.044 191.616 422.055 191.592C422.067 191.568 422.083 191.546 422.104 191.529C422.124 191.511 422.147 191.498 422.173 191.489C422.198 191.481 422.225 191.477 422.252 191.48C422.279 191.482 422.305 191.489 422.329 191.502C422.353 191.514 422.374 191.531 422.391 191.552L428.116 198.072C432.219 202.745 433.515 209.275 431.583 215.538L398.151 323.906C398.138 323.947 398.113 323.983 398.078 324.009C398.044 324.034 398.002 324.048 397.959 324.048ZM392.459 317.279L397.873 323.446L431.2 215.42C433.091 209.291 431.825 202.905 427.815 198.336L424.534 194.6C426.887 198.857 427.399 204.023 425.858 209.018L392.459 317.279Z" fill="#111111"/>
<path d="M392.234 317.327L358.802 425.695C355.661 435.875 344.95 442.23 334.874 439.885L227.654 414.929L233.379 421.449L340.599 446.405C350.675 448.751 361.386 442.395 364.527 432.215L397.959 323.847L392.234 317.327Z" fill="url(#paint0_linear_1715_3491)"/>
<path d="M344.837 447.09C343.395 447.091 341.958 446.927 340.554 446.6L233.334 421.644C233.293 421.635 233.256 421.613 233.229 421.581L227.504 415.061C227.476 415.029 227.459 414.989 227.455 414.947C227.452 414.905 227.461 414.863 227.483 414.826C227.505 414.79 227.537 414.762 227.576 414.745C227.615 414.728 227.659 414.724 227.7 414.734L334.92 439.69C344.877 442.008 355.505 435.703 358.611 425.636L392.043 317.268C392.054 317.234 392.073 317.204 392.099 317.18C392.126 317.156 392.158 317.139 392.193 317.132C392.227 317.124 392.264 317.126 392.297 317.137C392.331 317.148 392.361 317.168 392.385 317.195L398.11 323.715C398.156 323.767 398.171 323.84 398.151 323.906L364.719 432.274C361.995 441.101 353.596 447.09 344.837 447.09ZM233.487 421.268L340.644 446.21C350.602 448.528 361.23 442.223 364.335 432.156L397.735 323.895L392.32 317.729L358.993 425.754C355.827 436.018 344.988 442.445 334.829 440.08L228.216 415.266L233.487 421.268Z" fill="#111111"/>
<path d="M392.234 317.327L358.802 425.695C355.661 435.875 344.95 442.23 334.874 439.885L227.654 414.929L242.058 368.242C244.472 370.837 247.673 372.761 251.474 373.646C262.243 376.152 273.701 369.361 277.06 358.472C280.419 347.583 274.407 336.725 263.637 334.219C259.836 333.334 255.956 333.614 252.371 334.813L266.774 288.126L312.967 298.877C310.155 301.468 307.962 304.797 306.779 308.634C303.419 319.523 309.428 330.38 320.201 332.888C330.971 335.394 342.429 328.603 345.788 317.714C346.972 313.877 346.985 310.041 346.042 306.576L392.234 317.328L392.234 317.327Z" fill="#46B75B"/>
<path d="M339.112 440.57C337.67 440.571 336.233 440.407 334.829 440.08L227.609 415.124C227.582 415.118 227.557 415.106 227.535 415.09C227.513 415.073 227.494 415.053 227.48 415.029C227.467 415.005 227.458 414.979 227.455 414.951C227.452 414.924 227.455 414.896 227.463 414.87L241.866 368.182C241.877 368.149 241.896 368.118 241.921 368.095C241.947 368.071 241.979 368.054 242.013 368.046C242.047 368.038 242.083 368.039 242.117 368.05C242.15 368.06 242.18 368.079 242.204 368.105C244.672 370.758 247.893 372.606 251.519 373.45C262.175 375.93 273.545 369.185 276.868 358.413C278.51 353.09 277.964 347.633 275.329 343.048C272.806 338.654 268.637 335.588 263.591 334.414C259.966 333.57 256.109 333.774 252.434 335.003C252.399 335.014 252.362 335.016 252.326 335.008C252.29 335 252.257 334.982 252.23 334.956C252.204 334.93 252.185 334.898 252.176 334.862C252.167 334.826 252.168 334.789 252.179 334.754L266.582 288.066C266.597 288.018 266.63 287.977 266.674 287.952C266.718 287.926 266.77 287.919 266.819 287.93L313.012 298.682C313.048 298.69 313.08 298.708 313.106 298.733C313.132 298.759 313.151 298.791 313.16 298.826C313.17 298.861 313.169 298.898 313.159 298.933C313.149 298.968 313.129 299 313.102 299.024C310.223 301.678 308.102 305.021 306.97 308.693C305.327 314.017 305.873 319.474 308.508 324.059C311.031 328.451 315.2 331.518 320.247 332.692C330.903 335.172 342.273 328.426 345.596 317.655C346.727 313.989 346.814 310.176 345.848 306.628C345.839 306.594 345.839 306.559 345.847 306.526C345.856 306.492 345.873 306.461 345.897 306.436C345.921 306.411 345.951 306.393 345.985 306.383C346.018 306.373 346.053 306.372 346.087 306.38L392.28 317.132C392.307 317.138 392.332 317.15 392.354 317.166C392.376 317.183 392.394 317.203 392.408 317.227C392.422 317.251 392.43 317.278 392.433 317.305C392.437 317.332 392.434 317.36 392.426 317.386L358.994 425.754C356.27 434.581 347.872 440.57 339.112 440.57V440.57ZM227.909 414.783L334.92 439.69C344.876 442.008 355.505 435.703 358.61 425.636L391.98 317.473L346.32 306.846C347.215 310.376 347.098 314.146 345.979 317.773C343.069 327.205 334.094 333.605 324.733 333.606C323.209 333.606 321.676 333.436 320.156 333.083C315 331.882 310.74 328.749 308.16 324.259C305.47 319.576 304.911 314.006 306.587 308.575C307.704 304.954 309.764 301.646 312.556 298.987L266.91 288.363L252.676 334.503C256.31 333.358 260.107 333.191 263.682 334.023C268.837 335.223 273.097 338.357 275.677 342.848C278.367 347.531 278.926 353.101 277.251 358.531C273.867 369.499 262.283 376.367 251.428 373.84C247.839 373.005 244.638 371.206 242.148 368.628L227.909 414.783Z" fill="#111111"/>
<path d="M329.652 342.292C318.661 339.733 306.97 346.666 303.543 357.775L303.536 357.798C313.927 360.751 319.611 371.499 316.297 382.28C316.608 382.368 316.922 382.45 317.24 382.524C328.232 385.082 339.922 378.15 343.349 367.04C346.777 355.931 340.644 344.85 329.652 342.291" fill="#FCBF14"/>
<path d="M321.865 383.253C320.31 383.253 318.746 383.08 317.195 382.719C316.875 382.645 316.558 382.562 316.242 382.473C316.216 382.465 316.192 382.453 316.172 382.437C316.151 382.42 316.133 382.399 316.121 382.376C316.108 382.352 316.1 382.327 316.097 382.3C316.095 382.274 316.097 382.247 316.105 382.221C317.722 376.96 317.238 371.534 314.742 366.942C312.359 362.556 308.36 359.377 303.482 357.991C303.456 357.983 303.432 357.971 303.411 357.955C303.391 357.938 303.373 357.918 303.36 357.894C303.348 357.871 303.34 357.846 303.337 357.819C303.334 357.793 303.336 357.766 303.344 357.741C303.344 357.74 303.351 357.717 303.352 357.716C306.804 346.526 318.623 339.519 329.697 342.097C334.957 343.321 339.303 346.518 341.934 351.099C344.679 355.877 345.25 361.56 343.541 367.099C340.572 376.723 331.415 383.253 321.865 383.253L321.865 383.253ZM316.548 382.142C316.795 382.209 317.043 382.272 317.286 382.329C318.788 382.678 320.326 382.854 321.869 382.853C331.248 382.853 340.241 376.437 343.158 366.981C344.834 361.549 344.276 355.979 341.587 351.298C339.012 346.815 334.757 343.685 329.607 342.487C318.789 339.968 307.248 346.769 303.789 357.662C308.682 359.108 312.691 362.329 315.095 366.75C317.612 371.381 318.125 376.839 316.548 382.142Z" fill="#111111"/>
<path d="M302.597 357.555C291.605 354.996 279.915 361.929 276.488 373.038C273.061 384.148 279.194 395.229 290.185 397.787C301.177 400.346 312.863 393.412 316.29 382.303L316.297 382.28C319.611 371.499 313.927 360.752 303.536 357.798C303.225 357.71 302.912 357.629 302.597 357.555" fill="white"/>
<path d="M294.808 398.516C293.236 398.517 291.67 398.338 290.14 397.982C284.88 396.758 280.534 393.561 277.903 388.98C275.158 384.202 274.587 378.519 276.297 372.979C279.749 361.789 291.568 354.782 302.642 357.36C302.951 357.431 303.27 357.514 303.591 357.605C308.574 359.021 312.659 362.269 315.094 366.751C317.642 371.438 318.137 376.974 316.488 382.339L316.482 382.36C313.513 391.985 304.356 398.515 294.808 398.516L294.808 398.516ZM297.968 357.226C288.589 357.226 279.597 363.642 276.679 373.098C275.003 378.53 275.561 384.1 278.25 388.78C280.826 393.264 285.081 396.394 290.23 397.592C301.102 400.122 312.707 393.237 316.099 382.243L316.104 382.224C317.722 376.96 317.238 371.534 314.742 366.942C312.359 362.556 308.36 359.377 303.481 357.99C303.167 357.901 302.854 357.82 302.551 357.75C301.049 357.401 299.511 357.225 297.968 357.226Z" fill="#111111"/>
<path d="M301.618 365.574L299.384 365.054L298.495 367.935C296.883 367.759 295.487 368.011 294.31 368.696C293.113 369.396 292.291 370.462 291.85 371.891C291.417 373.297 291.527 374.563 292.185 375.692C292.839 376.819 294.101 377.906 295.972 378.947C297.302 379.734 298.194 380.477 298.642 381.167C299.093 381.861 299.195 382.611 298.947 383.413C298.655 384.361 298.063 385.029 297.173 385.411C296.283 385.793 295.211 385.834 293.95 385.541C292.667 385.242 291.771 384.685 291.272 383.867C290.773 383.05 290.711 382.039 291.085 380.827L288.422 380.207C287.891 381.931 287.975 383.415 288.675 384.657C289.361 385.871 290.546 386.753 292.215 387.32L291.44 389.833L293.673 390.353L294.443 387.859L294.471 387.862C296.281 388.104 297.812 387.892 299.062 387.22C300.313 386.548 301.165 385.477 301.619 384.005C301.904 383.08 301.957 382.229 301.783 381.45C301.609 380.67 301.19 379.925 300.53 379.216C299.866 378.505 298.87 377.767 297.541 376.993C296.211 376.218 295.305 375.493 294.832 374.818C294.355 374.142 294.256 373.356 294.531 372.465C294.827 371.505 295.362 370.824 296.132 370.431C296.9 370.033 297.859 369.97 299.001 370.235C300.093 370.489 300.851 371.056 301.271 371.93C301.69 372.808 301.709 373.862 301.33 375.094L301.302 375.183L303.949 375.799L303.981 375.711C304.531 373.926 304.518 372.412 303.935 371.172C303.356 369.938 302.289 369.029 300.738 368.453L300.73 368.451L301.618 365.574" fill="#FCBF14"/>
<path d="M293.674 390.553C293.659 390.553 293.644 390.551 293.628 390.548L291.395 390.028C291.368 390.022 291.343 390.01 291.321 389.993C291.298 389.977 291.28 389.956 291.266 389.932C291.253 389.909 291.244 389.882 291.241 389.855C291.238 389.827 291.24 389.8 291.249 389.773L291.967 387.445C290.343 386.858 289.178 385.954 288.501 384.756C287.776 383.469 287.685 381.919 288.231 380.148C288.246 380.1 288.279 380.059 288.323 380.033C288.367 380.008 288.418 380.001 288.468 380.012L291.13 380.632C291.157 380.638 291.182 380.65 291.204 380.666C291.227 380.682 291.245 380.703 291.259 380.727C291.272 380.751 291.281 380.777 291.284 380.805C291.287 380.832 291.285 380.86 291.276 380.886C290.918 382.05 290.972 382.991 291.444 383.763C291.91 384.527 292.769 385.06 293.996 385.345C295.21 385.628 296.252 385.588 297.094 385.227C297.935 384.865 298.479 384.253 298.756 383.353C298.988 382.603 298.896 381.923 298.475 381.276C298.043 380.612 297.167 379.886 295.871 379.119C293.982 378.069 292.682 376.948 292.012 375.792C291.329 374.621 291.21 373.288 291.659 371.832C292.113 370.36 292.971 369.247 294.209 368.522C295.375 367.843 296.768 367.573 298.352 367.718L299.193 364.994C299.208 364.946 299.24 364.905 299.284 364.88C299.328 364.854 299.38 364.847 299.429 364.858L301.663 365.378C301.69 365.384 301.715 365.396 301.737 365.412C301.759 365.429 301.778 365.45 301.791 365.473C301.805 365.497 301.814 365.524 301.817 365.551C301.82 365.578 301.817 365.606 301.809 365.632L300.977 368.329C302.481 368.926 303.537 369.853 304.117 371.087C304.718 372.365 304.736 373.941 304.172 375.769L304.138 375.866C304.104 375.962 304.003 376.016 303.904 375.993L301.256 375.377C301.23 375.371 301.204 375.359 301.182 375.343C301.16 375.326 301.142 375.306 301.128 375.282C301.114 375.258 301.106 375.231 301.103 375.204C301.099 375.177 301.102 375.149 301.11 375.123L301.138 375.034C301.501 373.858 301.484 372.842 301.09 372.016C300.699 371.202 299.981 370.669 298.956 370.43C297.862 370.175 296.943 370.235 296.224 370.608C295.506 370.975 295.002 371.62 294.723 372.524C294.464 373.363 294.553 374.076 294.995 374.702C295.45 375.349 296.34 376.061 297.641 376.819C299.006 377.613 299.999 378.352 300.676 379.078C301.359 379.813 301.797 380.596 301.978 381.405C302.16 382.218 302.104 383.112 301.81 384.064C301.342 385.58 300.45 386.702 299.157 387.396C297.909 388.066 296.371 388.295 294.585 388.077L293.865 390.411C293.852 390.452 293.827 390.488 293.792 390.513C293.758 390.538 293.716 390.552 293.674 390.552L293.674 390.553ZM291.695 389.686L293.537 390.115L294.251 387.8C294.279 387.71 294.368 387.649 294.46 387.659L294.488 387.662C296.259 387.899 297.763 387.691 298.967 387.044C300.164 386.401 300.992 385.359 301.427 383.946C301.7 383.063 301.754 382.237 301.587 381.494C301.422 380.754 301.017 380.034 300.383 379.352C299.742 378.665 298.751 377.929 297.44 377.166C296.088 376.379 295.155 375.627 294.668 374.933C294.156 374.209 294.046 373.359 294.34 372.407C294.652 371.395 295.224 370.67 296.041 370.253C296.845 369.835 297.857 369.764 299.046 370.04C300.195 370.308 301.004 370.914 301.451 371.843C301.877 372.736 301.912 373.809 301.556 375.036L303.816 375.563C304.322 373.875 304.302 372.425 303.753 371.258C303.199 370.077 302.162 369.197 300.67 368.642C300.624 368.626 300.585 368.594 300.56 368.552C300.545 368.528 300.536 368.502 300.532 368.474C300.529 368.447 300.531 368.419 300.538 368.392L301.362 365.72L299.52 365.292L298.686 367.994C298.672 368.038 298.643 368.076 298.604 368.102C298.566 368.127 298.519 368.138 298.473 368.134C296.908 367.963 295.542 368.21 294.411 368.869C293.263 369.541 292.465 370.578 292.041 371.95C291.627 373.295 291.733 374.52 292.358 375.591C292.992 376.684 294.241 377.755 296.07 378.772C297.424 379.574 298.345 380.342 298.81 381.058C299.293 381.801 299.404 382.613 299.139 383.472C298.829 384.476 298.194 385.19 297.252 385.595C296.33 385.991 295.204 386.039 293.905 385.736C292.57 385.425 291.626 384.832 291.101 383.972C290.603 383.156 290.513 382.148 290.833 380.974L288.561 380.445C288.108 382.032 288.205 383.415 288.85 384.559C289.502 385.713 290.656 386.578 292.279 387.13C292.329 387.147 292.37 387.182 292.393 387.229C292.417 387.275 292.422 387.329 292.406 387.379L291.694 389.686H291.695Z" fill="#111111"/>
<rect opacity="0.6" x="423.485" y="357" width="12" height="12" rx="2" transform="rotate(45 423.485 357)" fill="white"/>
</g>
<g clip-path="url(#clip1_1715_3491)">
<path d="M215.482 209.981L222.148 206.882C223.067 210.583 223.037 214.549 221.855 218.374C220.127 223.967 216.278 228.17 211.499 230.393L204.833 233.492C209.613 231.27 213.461 227.067 215.19 221.473C216.372 217.648 216.402 213.682 215.482 209.981Z" fill="#1C732C"/>
<path d="M204.834 233.692C204.788 233.692 204.744 233.677 204.708 233.648C204.673 233.62 204.648 233.58 204.638 233.535C204.628 233.491 204.634 233.444 204.654 233.403C204.674 233.362 204.708 233.33 204.749 233.31C209.699 231.008 213.339 226.784 214.999 221.414C216.129 217.756 216.229 213.819 215.288 210.029C215.277 209.984 215.282 209.936 215.302 209.894C215.322 209.852 215.356 209.819 215.398 209.799L222.063 206.7C222.118 206.675 222.18 206.675 222.234 206.7C222.288 206.726 222.328 206.775 222.342 206.833C223.301 210.693 223.199 214.704 222.047 218.432C220.354 223.912 216.638 228.224 211.583 230.574L204.918 233.673C204.89 233.686 204.862 233.692 204.834 233.692V233.692ZM215.716 210.093C216.633 213.904 216.518 217.856 215.381 221.532C214.095 225.694 211.643 229.182 208.323 231.649L211.414 230.211C216.365 227.909 220.005 223.684 221.664 218.314C222.771 214.732 222.89 210.883 222.011 207.166L215.716 210.093Z" fill="#111111"/>
<path d="M275.438 180.266L282.104 177.167L267.723 223.699L261.058 226.798L275.438 180.266Z" fill="url(#paint1_linear_1715_3491)"/>
<path d="M261.058 226.998C261.026 226.998 260.996 226.991 260.967 226.977C260.939 226.963 260.915 226.942 260.897 226.917C260.878 226.892 260.865 226.862 260.86 226.831C260.855 226.8 260.857 226.769 260.866 226.739L275.247 180.207C275.255 180.18 275.269 180.155 275.287 180.134C275.306 180.113 275.328 180.096 275.354 180.084L282.019 176.985C282.054 176.969 282.093 176.963 282.132 176.968C282.17 176.974 282.206 176.99 282.235 177.016C282.264 177.041 282.285 177.075 282.296 177.112C282.307 177.149 282.306 177.189 282.295 177.226L267.914 223.758C267.906 223.785 267.892 223.809 267.874 223.83C267.856 223.851 267.833 223.868 267.808 223.88L261.142 226.979C261.116 226.992 261.087 226.998 261.058 226.998ZM275.603 180.41L261.382 226.426L267.558 223.555L281.779 177.539L275.603 180.41Z" fill="#111111"/>
<path d="M285.735 146.949L292.4 143.849C295.94 143.049 299.772 143.242 303.522 144.625C314.147 148.546 320.047 160.521 316.694 171.374C314.966 176.966 311.116 181.168 306.336 183.391L299.67 186.49C304.45 184.268 308.3 180.065 310.028 174.473C313.382 163.621 307.482 151.645 296.856 147.725C293.107 146.341 289.275 146.148 285.735 146.949Z" fill="#1C732C"/>
<path d="M299.671 186.691C299.625 186.691 299.581 186.675 299.545 186.647C299.51 186.618 299.485 186.578 299.475 186.534C299.465 186.489 299.471 186.443 299.491 186.402C299.511 186.361 299.545 186.328 299.586 186.309C304.538 184.006 308.178 179.782 309.837 174.414C313.154 163.68 307.3 151.791 296.787 147.912C293.206 146.591 289.4 146.325 285.779 147.144C285.731 147.155 285.68 147.147 285.637 147.123C285.594 147.099 285.561 147.06 285.545 147.013C285.529 146.966 285.531 146.915 285.55 146.87C285.57 146.824 285.605 146.788 285.65 146.767L292.316 143.667C292.328 143.661 292.342 143.657 292.356 143.653C296.052 142.818 299.937 143.089 303.591 144.437C314.3 148.389 320.264 160.499 316.885 171.433C315.192 176.91 311.476 181.222 306.42 183.573L299.755 186.672C299.727 186.685 299.699 186.691 299.671 186.691ZM289.957 146.278C292.302 146.278 294.659 146.7 296.926 147.537C307.635 151.488 313.599 163.598 310.22 174.532C308.934 178.692 306.481 182.18 303.161 184.646L306.251 183.209C311.203 180.907 314.844 176.683 316.502 171.315C319.819 160.581 313.965 148.692 303.452 144.813C299.878 143.494 296.08 143.227 292.465 144.04L287.241 146.469C288.141 146.342 289.049 146.278 289.957 146.278V146.278Z" fill="#111111"/>
<path d="M300.115 100.417L306.78 97.3171L292.4 143.849L285.735 146.948L300.115 100.417Z" fill="#1C732C"/>
<path d="M285.735 147.149C285.703 147.149 285.672 147.141 285.644 147.127C285.616 147.113 285.592 147.093 285.573 147.067C285.555 147.042 285.542 147.013 285.537 146.982C285.532 146.951 285.534 146.919 285.543 146.889L299.924 100.357C299.932 100.331 299.946 100.306 299.964 100.285C299.982 100.264 300.005 100.247 300.03 100.235L306.696 97.1354C306.731 97.119 306.77 97.1132 306.808 97.1186C306.847 97.124 306.883 97.1405 306.912 97.166C306.941 97.1915 306.963 97.2249 306.973 97.2622C306.984 97.2995 306.983 97.3391 306.972 97.3761L292.591 143.908C292.583 143.935 292.569 143.959 292.551 143.981C292.533 144.002 292.51 144.019 292.485 144.03L285.819 147.13C285.793 147.142 285.764 147.149 285.735 147.149V147.149ZM300.28 100.561L286.059 146.577L292.235 143.705L306.456 97.689L300.28 100.561H300.28Z" fill="#111111"/>
<path d="M200.993 58.2824C196.176 56.505 191.205 56.8227 187.004 58.7765L180.338 61.8758C184.54 59.922 189.511 59.6046 194.328 61.3817L300.115 100.416L306.78 97.3171L200.993 58.2824Z" fill="#1C732C"/>
<path d="M300.115 100.617C300.092 100.617 300.068 100.613 300.046 100.604L194.258 61.5698C189.661 59.8733 184.747 60.0469 180.423 62.0576C180.375 62.08 180.32 62.0824 180.27 62.0641C180.22 62.0459 180.179 62.0086 180.157 61.9604C180.135 61.9122 180.132 61.8571 180.15 61.8072C180.169 61.7573 180.206 61.7167 180.254 61.6943L186.919 58.5948C191.341 56.5387 196.364 56.3608 201.062 58.0945L306.85 97.1292C306.887 97.143 306.919 97.1674 306.942 97.1994C306.965 97.2314 306.978 97.2695 306.98 97.309C306.982 97.3484 306.972 97.3875 306.951 97.4213C306.93 97.455 306.9 97.482 306.865 97.4987L300.199 100.598C300.173 100.611 300.144 100.617 300.115 100.617ZM187.865 60.0115C190.051 60.0115 192.258 60.4046 194.397 61.1939L300.106 100.2L306.259 97.3383L200.924 58.4704C196.326 56.7742 191.413 56.9474 187.088 58.9581L183.856 60.4613C185.171 60.162 186.516 60.0112 187.865 60.0117V60.0115Z" fill="#111111"/>
<path d="M300.115 100.417L285.735 146.949C289.275 146.148 293.107 146.341 296.856 147.725C307.482 151.645 313.382 163.621 310.028 174.473C306.676 185.322 295.338 190.941 284.712 187.02C280.963 185.637 277.81 183.248 275.438 180.266L261.058 226.798L215.482 209.981C216.402 213.682 216.372 217.648 215.19 221.473C211.836 232.325 200.503 237.942 189.874 234.02C179.248 230.099 173.348 218.123 176.702 207.271C177.884 203.446 180.064 200.274 182.849 197.94L137.274 181.123L170.652 73.1154C173.788 62.9693 184.386 57.7135 194.328 61.3818L300.115 100.416V100.417Z" fill="#46B75B"/>
<path d="M196.791 235.475C194.456 235.475 192.098 235.054 189.805 234.208C179.095 230.256 173.132 218.146 176.511 207.212C177.627 203.598 179.681 200.424 182.459 198.009L137.205 181.311C137.157 181.293 137.117 181.257 137.094 181.211C137.072 181.165 137.068 181.113 137.083 181.064L170.461 73.0563C171.997 68.0865 175.339 64.1164 179.872 61.8776C184.388 59.6468 189.546 59.4039 194.397 61.1941L300.184 100.229C300.232 100.247 300.272 100.282 300.295 100.328C300.317 100.374 300.322 100.427 300.306 100.476L286.027 146.68C289.622 145.935 293.383 146.229 296.926 147.537C307.635 151.488 313.599 163.599 310.22 174.533C308.579 179.842 305.007 184.083 300.163 186.476C295.337 188.861 289.825 189.12 284.643 187.208C281.111 185.905 277.963 183.653 275.519 180.684L261.249 226.857C261.241 226.883 261.228 226.907 261.21 226.928C261.193 226.949 261.171 226.965 261.147 226.977C261.122 226.989 261.096 226.996 261.068 226.998C261.041 226.999 261.014 226.995 260.989 226.986L215.764 210.299C216.628 214.046 216.497 217.922 215.381 221.532C213.74 226.844 210.169 231.086 205.326 233.478C202.636 234.807 199.732 235.475 196.791 235.475H196.791ZM137.521 181.001L182.919 197.752C182.952 197.764 182.981 197.785 183.003 197.812C183.026 197.839 183.041 197.871 183.047 197.906C183.053 197.94 183.049 197.976 183.037 198.009C183.025 198.042 183.005 198.071 182.978 198.093C180.126 200.484 178.022 203.678 176.893 207.331C173.576 218.065 179.43 229.953 189.943 233.832C195.023 235.707 200.423 235.454 205.149 233.119C209.892 230.776 213.39 226.619 214.999 221.414C216.129 217.756 216.229 213.819 215.288 210.029C215.279 209.994 215.28 209.957 215.291 209.922C215.302 209.888 215.322 209.856 215.349 209.832C215.376 209.808 215.409 209.791 215.445 209.785C215.48 209.778 215.517 209.781 215.551 209.793L260.929 226.537L275.247 180.207C275.258 180.172 275.278 180.141 275.305 180.117C275.332 180.093 275.365 180.076 275.401 180.07C275.437 180.063 275.474 180.066 275.508 180.079C275.542 180.091 275.572 180.113 275.595 180.141C278.026 183.198 281.203 185.512 284.782 186.833C289.859 188.706 295.259 188.452 299.986 186.117C304.731 183.774 308.229 179.618 309.837 174.414C313.154 163.68 307.3 151.792 296.787 147.912C293.206 146.591 289.4 146.325 285.779 147.144C285.744 147.152 285.709 147.15 285.675 147.14C285.642 147.129 285.611 147.11 285.588 147.085C285.564 147.059 285.547 147.027 285.539 146.993C285.531 146.959 285.533 146.923 285.543 146.889L299.867 100.539L194.258 61.5698C189.511 59.8185 184.465 60.0552 180.049 62.2369C175.616 64.4266 172.347 68.311 170.844 73.1749L137.521 181.001Z" fill="#111111"/>
<path d="M224.752 118.753C220.949 117.35 216.893 119.357 215.691 123.244C214.492 127.126 216.604 131.41 220.407 132.813C224.209 134.216 228.262 132.208 229.462 128.325C230.663 124.439 228.554 120.157 224.752 118.753" fill="#FCBF14"/>
<path d="M222.882 133.462C222.032 133.462 221.173 133.309 220.338 133.001C216.442 131.563 214.272 127.16 215.5 123.184C216.098 121.249 217.399 119.704 219.164 118.832C220.923 117.963 222.932 117.868 224.821 118.565C228.715 120.002 230.883 124.407 229.653 128.384C229.056 130.318 227.755 131.863 225.991 132.735C225.024 133.213 223.96 133.462 222.882 133.462V133.462ZM222.276 118.505C221.258 118.504 220.254 118.739 219.342 119.191C217.676 120.014 216.448 121.474 215.883 123.303C214.716 127.078 216.777 131.26 220.476 132.625C222.26 133.283 224.155 133.195 225.814 132.375C227.478 131.553 228.706 130.094 229.271 128.266C230.438 124.488 228.38 120.305 224.682 118.941C223.892 118.649 223.08 118.504 222.276 118.504L222.276 118.505Z" fill="#111111"/>
<path d="M219.147 136.888C211.924 134.223 204.291 137.103 200.565 143.386L230.317 154.364C230.843 146.9 226.367 139.552 219.147 136.888" fill="#FCBF14"/>
<path d="M230.317 154.564C230.294 154.564 230.27 154.56 230.248 154.552L200.495 143.573C200.468 143.563 200.443 143.547 200.422 143.526C200.402 143.505 200.386 143.48 200.376 143.452C200.366 143.425 200.363 143.395 200.365 143.366C200.368 143.337 200.378 143.308 200.393 143.283C204.27 136.748 212.011 134.041 219.217 136.7C226.416 139.357 231.063 146.626 230.517 154.378C230.513 154.429 230.491 154.476 230.454 154.51C230.417 154.545 230.368 154.564 230.317 154.564ZM200.861 143.282L230.134 154.083C230.543 146.608 226.028 139.641 219.078 137.076C212.132 134.513 204.677 137.065 200.861 143.282Z" fill="#111111"/>
<path d="M195.996 120.533C192.193 119.13 188.139 121.143 186.939 125.025C185.74 128.908 187.847 133.194 191.65 134.597C195.456 136.001 199.51 133.989 200.71 130.106C201.91 126.224 199.803 121.938 195.996 120.533" fill="white"/>
<path d="M194.126 135.247C193.275 135.247 192.416 135.093 191.581 134.785C187.687 133.348 185.519 128.943 186.748 124.966C187.346 123.031 188.648 121.485 190.414 120.613C192.172 119.744 194.179 119.649 196.066 120.346C199.961 121.783 202.131 126.188 200.902 130.166C200.304 132.101 199.002 133.647 197.237 134.519C196.27 134.998 195.205 135.247 194.126 135.247L194.126 135.247ZM193.524 120.286C192.506 120.285 191.503 120.52 190.591 120.972C188.925 121.795 187.696 123.255 187.131 125.085C185.964 128.862 188.022 133.045 191.719 134.409C193.504 135.068 195.401 134.979 197.06 134.159C198.725 133.337 199.954 131.876 200.519 130.047C201.686 126.27 199.626 122.087 195.927 120.721C195.138 120.43 194.327 120.285 193.524 120.285L193.524 120.286Z" fill="#111111"/>
<path d="M190.39 138.672C183.17 136.008 175.534 138.888 171.811 145.171L201.564 156.149C202.085 148.685 197.614 141.338 190.39 138.672" fill="white"/>
<path d="M201.564 156.35C201.54 156.35 201.517 156.345 201.495 156.337L171.742 145.359C171.715 145.349 171.69 145.333 171.669 145.312C171.648 145.291 171.633 145.266 171.623 145.238C171.613 145.21 171.609 145.181 171.612 145.152C171.615 145.122 171.624 145.094 171.639 145.069C173.482 141.96 176.352 139.583 179.722 138.378C183.193 137.136 186.906 137.173 190.46 138.484C197.657 141.14 202.305 148.41 201.764 156.163C201.76 156.214 201.738 156.261 201.701 156.296C201.663 156.33 201.615 156.35 201.564 156.349V156.35ZM172.108 145.067L201.381 155.868C201.786 148.393 197.269 141.425 190.321 138.86C183.374 136.297 175.92 138.849 172.108 145.067Z" fill="#111111"/>
<path d="M246.629 139.217C242.827 137.813 238.769 139.825 237.569 143.707C236.369 147.59 238.48 151.877 242.283 153.28C246.086 154.683 250.143 152.672 251.343 148.79C252.543 144.907 250.432 140.62 246.629 139.217Z" fill="white"/>
<path d="M244.757 153.929C243.907 153.929 243.049 153.776 242.214 153.468C238.318 152.03 236.149 147.625 237.378 143.648C237.975 141.714 239.277 140.168 241.043 139.296C242.802 138.427 244.81 138.332 246.699 139.029C250.594 140.467 252.764 144.872 251.535 148.849C250.937 150.783 249.635 152.329 247.87 153.201C246.902 153.68 245.837 153.93 244.757 153.929ZM244.155 138.968C243.137 138.968 242.132 139.203 241.22 139.655C239.554 140.478 238.325 141.938 237.76 143.766C236.593 147.544 238.653 151.727 242.352 153.092C244.136 153.75 246.033 153.661 247.692 152.842C249.358 152.019 250.587 150.559 251.152 148.731C252.32 144.953 250.259 140.77 246.56 139.405C245.771 139.113 244.959 138.969 244.156 138.969L244.155 138.968Z" fill="#111111"/>
<path d="M241.024 157.356C233.8 154.69 226.168 157.571 222.445 163.854L252.193 174.831C252.718 167.368 248.247 160.021 241.024 157.356Z" fill="white"/>
<path d="M252.193 175.032C252.17 175.032 252.147 175.027 252.124 175.019L222.375 164.042C222.348 164.032 222.323 164.016 222.302 163.995C222.282 163.974 222.266 163.949 222.256 163.921C222.246 163.894 222.243 163.864 222.245 163.835C222.248 163.806 222.258 163.777 222.272 163.752C224.115 160.643 226.985 158.266 230.354 157.06C233.824 155.819 237.537 155.856 241.093 157.168C248.292 159.824 252.939 167.093 252.393 174.845C252.39 174.896 252.367 174.943 252.33 174.978C252.293 175.012 252.244 175.032 252.193 175.032ZM222.741 163.75L252.01 174.55C252.419 167.076 247.904 160.108 240.954 157.543C234.007 154.98 226.553 157.532 222.741 163.75Z" fill="#111111"/>
</g>
<g clip-path="url(#clip2_1715_3491)">
<path d="M168.128 287.996L161.726 296.469C163.835 293.678 165.086 290.19 165.141 286.286C165.195 282.501 164.115 278.828 162.204 275.599L168.606 267.127C170.517 270.356 171.597 274.029 171.543 277.813C171.488 281.718 170.236 285.206 168.128 287.996Z" fill="#9A9A9A"/>
<path d="M161.726 296.669C161.689 296.669 161.652 296.659 161.62 296.639C161.589 296.62 161.563 296.591 161.546 296.558C161.53 296.525 161.523 296.487 161.526 296.45C161.53 296.413 161.544 296.378 161.566 296.348C163.721 293.496 164.888 290.016 164.941 286.283C164.993 282.663 163.986 279.004 162.032 275.701C162.011 275.667 162.002 275.628 162.004 275.588C162.006 275.548 162.02 275.51 162.044 275.479L168.446 267.006C168.466 266.98 168.492 266.959 168.522 266.945C168.551 266.931 168.584 266.924 168.617 266.926C168.65 266.928 168.682 266.938 168.71 266.955C168.738 266.972 168.762 266.996 168.778 267.024C170.771 270.39 171.796 274.122 171.744 277.816C171.69 281.634 170.495 285.196 168.288 288.117L161.886 296.589C161.867 296.614 161.843 296.634 161.815 296.648C161.787 296.662 161.757 296.669 161.726 296.669V296.669ZM162.445 275.613C164.392 278.949 165.394 282.637 165.342 286.289C165.306 288.822 164.768 291.243 163.765 293.438L167.968 287.875C170.123 285.024 171.29 281.543 171.343 277.81C171.393 274.284 170.44 270.722 168.584 267.487L162.444 275.613L162.445 275.613Z" fill="#111111"/>
<path d="M243.275 349.639L236.873 358.112C233.185 362.993 226.874 365.74 219.754 364.857C215.81 364.367 212.149 362.826 209.06 360.569L215.461 352.096C218.551 354.354 222.212 355.895 226.156 356.384C233.275 357.267 239.587 354.521 243.275 349.639Z" fill="#9A9A9A"/>
<path d="M222.38 365.221C221.507 365.221 220.622 365.166 219.729 365.055C215.892 364.579 212.161 363.084 208.942 360.73C208.92 360.715 208.902 360.695 208.888 360.672C208.875 360.649 208.866 360.624 208.862 360.598C208.858 360.572 208.859 360.545 208.866 360.519C208.872 360.493 208.884 360.469 208.9 360.448L215.302 351.975C215.333 351.933 215.38 351.906 215.432 351.898C215.484 351.89 215.537 351.903 215.58 351.934C218.745 354.248 222.41 355.718 226.18 356.185C232.991 357.029 239.322 354.538 243.115 349.519C243.147 349.476 243.195 349.448 243.247 349.441C243.3 349.434 243.353 349.448 243.396 349.48C243.438 349.512 243.466 349.559 243.473 349.612C243.481 349.664 243.467 349.718 243.435 349.76L237.033 358.233C233.651 362.708 228.302 365.221 222.379 365.221L222.38 365.221ZM209.343 360.526C212.47 362.771 216.074 364.198 219.779 364.658C226.59 365.502 232.921 363.011 236.713 357.991L240.899 352.451C237.026 355.757 231.736 357.279 226.131 356.583C222.357 356.115 218.687 354.66 215.503 352.373L209.343 360.526Z" fill="#111111"/>
<path d="M103.443 384.323C92.9816 383.025 84.6174 373.834 84.76 363.794L86.2783 256.913L79.8764 265.385L78.3582 372.266C78.2155 382.307 86.5798 391.497 97.0414 392.795L208.406 406.612L214.808 398.139L103.443 384.323Z" fill="url(#paint2_linear_1715_3491)"/>
<path d="M208.406 406.812C208.397 406.812 208.389 406.811 208.381 406.81L97.0167 392.994C86.4742 391.686 78.014 382.386 78.1578 372.263L79.6759 265.382C79.6765 265.34 79.6906 265.298 79.7163 265.264L86.1184 256.792C86.1438 256.758 86.1792 256.733 86.2197 256.721C86.2601 256.708 86.3034 256.709 86.3435 256.723C86.3835 256.736 86.4181 256.762 86.4424 256.797C86.4667 256.832 86.4794 256.873 86.4786 256.915L84.9603 363.796C84.8193 373.721 93.1219 382.84 103.468 384.123L214.832 397.94C214.867 397.944 214.9 397.958 214.928 397.979C214.956 398 214.978 398.028 214.992 398.061C215.006 398.093 215.011 398.128 215.006 398.163C215.002 398.198 214.989 398.231 214.967 398.259L208.566 406.732C208.547 406.757 208.523 406.777 208.495 406.791C208.467 406.804 208.437 406.812 208.406 406.812V406.812ZM80.0758 265.453L78.5585 372.269C78.4175 382.194 86.72 391.312 97.066 392.596L208.316 406.398L214.438 398.295L103.419 384.521C92.8758 383.213 84.4158 373.913 84.5596 363.79L86.0691 257.521L80.0758 265.453Z" fill="#111111"/>
<path d="M216.584 273.079L215.93 319.122C219.072 317.637 222.765 317.009 226.708 317.498C237.898 318.886 246.843 328.715 246.691 339.454C246.538 350.194 237.346 357.772 226.156 356.384C222.212 355.895 218.551 354.354 215.462 352.096L214.808 398.139L103.443 384.323C92.9818 383.025 84.6176 373.834 84.7602 363.794L86.2783 256.913L134.253 262.865C132.26 265.609 131.08 269.002 131.026 272.786C130.874 283.522 139.819 293.354 151.009 294.743C162.199 296.131 171.391 288.549 171.544 277.813C171.597 274.028 170.517 270.356 168.606 267.127L216.584 273.079H216.584Z" fill="white"/>
<path d="M214.808 398.339C214.799 398.339 214.791 398.339 214.783 398.338L103.419 384.521C92.8759 383.214 84.4158 373.914 84.5597 363.791L86.0779 256.91C86.0784 256.882 86.0847 256.854 86.0966 256.829C86.1084 256.803 86.1255 256.78 86.1467 256.762C86.168 256.743 86.1928 256.729 86.2197 256.721C86.2466 256.713 86.275 256.71 86.3029 256.714L134.277 262.666C134.312 262.67 134.345 262.683 134.373 262.704C134.401 262.725 134.423 262.753 134.437 262.785C134.451 262.817 134.456 262.852 134.452 262.887C134.448 262.921 134.435 262.954 134.415 262.982C132.38 265.785 131.278 269.176 131.227 272.789C131.076 283.411 139.961 293.171 151.033 294.544C156.573 295.23 161.757 293.752 165.631 290.379C169.244 287.233 171.273 282.769 171.343 277.811C171.394 274.19 170.388 270.531 168.433 267.229C168.414 267.197 168.405 267.16 168.406 267.122C168.407 267.085 168.418 267.049 168.438 267.017C168.459 266.986 168.488 266.961 168.522 266.945C168.556 266.93 168.593 266.924 168.63 266.928L216.609 272.881C216.658 272.887 216.703 272.911 216.735 272.948C216.768 272.985 216.785 273.033 216.784 273.082L216.135 318.807C219.348 317.358 223.004 316.837 226.733 317.299C238.002 318.697 247.044 328.637 246.891 339.457C246.819 344.533 244.741 349.102 241.042 352.323C237.081 355.772 231.785 357.284 226.131 356.583C222.417 356.122 218.804 354.707 215.656 352.483L215.008 398.142C215.007 398.195 214.986 398.245 214.948 398.282C214.911 398.319 214.86 398.339 214.808 398.339ZM86.4752 257.139L84.9602 363.797C84.8191 373.722 93.1217 382.84 103.468 384.124L214.61 397.913L215.261 352.093C215.262 352.057 215.272 352.021 215.292 351.989C215.311 351.958 215.339 351.933 215.372 351.917C215.405 351.9 215.442 351.893 215.478 351.896C215.515 351.899 215.55 351.913 215.58 351.934C218.745 354.248 222.411 355.718 226.181 356.185C231.721 356.873 236.905 355.394 240.779 352.021C244.391 348.875 246.42 344.412 246.49 339.452C246.641 328.83 237.756 319.071 226.684 317.697C222.918 317.23 219.229 317.785 216.016 319.303C215.985 319.318 215.951 319.324 215.917 319.322C215.883 319.32 215.85 319.309 215.822 319.291C215.793 319.272 215.77 319.247 215.754 319.217C215.738 319.187 215.729 319.154 215.73 319.12L216.381 273.256L168.981 267.375C170.84 270.649 171.794 274.25 171.744 277.816C171.672 282.89 169.594 287.459 165.894 290.681C161.933 294.13 156.638 295.643 150.984 294.941C139.715 293.543 130.672 283.603 130.826 272.784C130.877 269.205 131.937 265.837 133.895 263.022L86.4752 257.139Z" fill="#111111"/>
<path d="M121.794 311.849L121.011 348.854L179.455 356.105L180.237 319.1L121.794 311.849Z" fill="white"/>
<path d="M179.454 356.305C179.446 356.305 179.438 356.304 179.43 356.303L120.986 349.052C120.937 349.046 120.892 349.022 120.859 348.985C120.827 348.947 120.809 348.899 120.81 348.849L121.593 311.845C121.594 311.817 121.6 311.789 121.612 311.764C121.624 311.738 121.641 311.716 121.662 311.697C121.684 311.679 121.708 311.665 121.735 311.657C121.762 311.649 121.79 311.647 121.818 311.65L180.262 318.901C180.311 318.907 180.356 318.931 180.389 318.969C180.421 319.006 180.439 319.054 180.438 319.104L179.655 356.109C179.654 356.161 179.632 356.211 179.595 356.248C179.557 356.284 179.507 356.305 179.454 356.305ZM121.215 348.677L179.259 355.878L180.033 319.276L121.989 312.075L121.215 348.677Z" fill="#111111"/>
<path d="M180.431 309.932L121.988 302.681L121.794 311.849L180.237 319.1L180.431 309.932Z" fill="#FFB6C0"/>
<path d="M180.237 319.3C180.229 319.3 180.221 319.3 180.213 319.299L121.769 312.048C121.72 312.042 121.674 312.017 121.642 311.98C121.61 311.942 121.592 311.894 121.593 311.845L121.787 302.677C121.788 302.649 121.794 302.622 121.806 302.596C121.818 302.571 121.835 302.548 121.856 302.53C121.878 302.512 121.902 302.498 121.929 302.49C121.956 302.482 121.984 302.479 122.012 302.483L180.456 309.734C180.505 309.74 180.55 309.764 180.583 309.801C180.615 309.839 180.633 309.887 180.632 309.937L180.438 319.104C180.437 319.156 180.415 319.206 180.377 319.243C180.34 319.28 180.29 319.3 180.237 319.3ZM121.998 311.672L180.042 318.874L180.227 310.109L122.183 302.908L121.998 311.672Z" fill="#111111"/>
<path d="M134.211 299.451C133.096 299.312 132.174 300.069 132.151 301.14L132.033 306.73C132.01 307.801 132.896 308.782 134.011 308.92C135.126 309.058 136.053 308.303 136.075 307.232L136.194 301.641C136.216 300.57 135.326 299.589 134.211 299.451Z" fill="#FF4761"/>
<path d="M134.277 309.137C134.181 309.137 134.084 309.131 133.986 309.119C132.774 308.968 131.808 307.895 131.832 306.726L131.951 301.135C131.962 300.577 132.195 300.074 132.606 299.719C133.042 299.341 133.621 299.176 134.236 299.252C135.451 299.402 136.419 300.476 136.394 301.645L136.276 307.236C136.264 307.793 136.031 308.295 135.621 308.65C135.252 308.968 134.783 309.137 134.277 309.137ZM133.947 299.634C133.538 299.634 133.161 299.768 132.868 300.022C132.544 300.302 132.361 300.701 132.351 301.144L132.233 306.735C132.212 307.704 133.021 308.596 134.035 308.721C134.538 308.783 135.007 308.651 135.358 308.347C135.682 308.067 135.866 307.67 135.875 307.228L135.993 301.637C136.014 300.667 135.203 299.776 134.186 299.65C134.107 299.64 134.027 299.635 133.947 299.635L133.947 299.634Z" fill="#111111"/>
<path d="M168.408 303.693C167.293 303.555 166.37 304.311 166.348 305.382L166.229 310.973C166.207 312.044 167.092 313.024 168.208 313.163C169.323 313.301 170.245 312.545 170.268 311.474L170.386 305.883C170.409 304.812 169.523 303.832 168.408 303.693Z" fill="#FF4761"/>
<path d="M168.473 313.38C168.377 313.38 168.281 313.374 168.183 313.361C166.97 313.211 166.004 312.138 166.029 310.969L166.147 305.378C166.159 304.82 166.392 304.317 166.803 303.962C167.239 303.584 167.818 303.419 168.432 303.495C169.645 303.645 170.611 304.718 170.586 305.888L170.468 311.478C170.456 312.036 170.224 312.539 169.813 312.894C169.446 313.212 168.978 313.38 168.473 313.38ZM168.144 303.877C167.735 303.877 167.358 304.011 167.065 304.265C166.741 304.545 166.557 304.943 166.548 305.387L166.43 310.977C166.409 311.947 167.218 312.838 168.232 312.964C168.733 313.026 169.201 312.894 169.551 312.592C169.875 312.312 170.058 311.913 170.067 311.47L170.186 305.879C170.206 304.909 169.397 304.018 168.383 303.892C168.304 303.882 168.224 303.877 168.144 303.877Z" fill="#111111"/>
<path d="M140.091 320.019L129.152 318.661L128.929 329.169L139.869 330.526L140.091 320.019Z" fill="#FF4761"/>
<path d="M139.869 330.726C139.861 330.726 139.853 330.726 139.844 330.725L128.905 329.367C128.855 329.361 128.81 329.337 128.778 329.3C128.745 329.262 128.728 329.214 128.729 329.164L128.951 318.657C128.952 318.629 128.958 318.602 128.97 318.576C128.982 318.551 128.999 318.528 129.02 318.51C129.042 318.492 129.066 318.478 129.093 318.47C129.12 318.462 129.148 318.459 129.176 318.463L140.116 319.82C140.165 319.826 140.21 319.85 140.243 319.888C140.275 319.925 140.293 319.973 140.292 320.023L140.069 330.53C140.068 330.583 140.047 330.632 140.009 330.669C139.972 330.706 139.921 330.726 139.869 330.726V330.726ZM129.134 328.992L139.674 330.3L139.887 320.195L129.347 318.887L129.134 328.992V328.992Z" fill="#111111"/>
<path d="M156.361 322.037L145.421 320.68L145.199 331.187L156.138 332.544L156.361 322.037Z" fill="#FF4761"/>
<path d="M156.138 332.745C156.13 332.745 156.122 332.744 156.114 332.743L145.174 331.386C145.125 331.38 145.08 331.356 145.047 331.318C145.015 331.281 144.997 331.232 144.998 331.183L145.22 320.676C145.221 320.647 145.228 320.62 145.239 320.595C145.251 320.569 145.269 320.547 145.29 320.528C145.311 320.51 145.336 320.496 145.363 320.488C145.389 320.48 145.418 320.478 145.445 320.481L156.385 321.838C156.434 321.844 156.48 321.868 156.512 321.906C156.545 321.943 156.562 321.992 156.561 322.041L156.339 332.548C156.338 332.601 156.316 332.651 156.279 332.687C156.241 332.724 156.191 332.744 156.138 332.744V332.745ZM145.403 331.011L155.943 332.318L156.157 322.214L145.617 320.906L145.403 331.011Z" fill="#111111"/>
<path d="M172.634 324.056L161.695 322.699L161.473 333.206L172.412 334.563L172.634 324.056Z" fill="#FF4761"/>
<path d="M172.412 334.764C172.404 334.764 172.396 334.763 172.388 334.762L161.448 333.405C161.398 333.399 161.353 333.375 161.321 333.337C161.288 333.3 161.271 333.251 161.272 333.202L161.494 322.695C161.495 322.667 161.501 322.639 161.513 322.614C161.525 322.588 161.542 322.566 161.563 322.547C161.585 322.529 161.609 322.515 161.636 322.507C161.663 322.499 161.691 322.497 161.719 322.5L172.659 323.857C172.708 323.863 172.753 323.887 172.786 323.925C172.818 323.962 172.836 324.011 172.835 324.06L172.613 334.568C172.611 334.62 172.59 334.67 172.552 334.706C172.515 334.743 172.465 334.764 172.412 334.764ZM161.677 333.03L172.217 334.337L172.43 324.232L161.89 322.925L161.677 333.03V333.03Z" fill="#111111"/>
<path d="M139.78 334.752L128.84 333.394L128.618 343.902L139.557 345.259L139.78 334.752Z" fill="#FF4761"/>
<path d="M139.557 345.46C139.549 345.46 139.541 345.459 139.533 345.458L128.593 344.101C128.544 344.095 128.498 344.071 128.466 344.033C128.433 343.995 128.416 343.947 128.417 343.898L128.639 333.39C128.64 333.362 128.646 333.335 128.658 333.309C128.67 333.284 128.687 333.261 128.709 333.243C128.73 333.225 128.755 333.211 128.781 333.203C128.808 333.195 128.837 333.192 128.864 333.196L139.804 334.553C139.853 334.559 139.899 334.583 139.931 334.621C139.964 334.658 139.981 334.707 139.98 334.756L139.758 345.264C139.757 345.316 139.735 345.366 139.698 345.403C139.66 345.439 139.61 345.46 139.557 345.46ZM128.822 343.726L139.362 345.033L139.576 334.928L129.036 333.621L128.822 343.726Z" fill="#111111"/>
<path d="M156.049 336.77L145.109 335.413L144.887 345.92L155.827 347.278L156.049 336.77Z" fill="#FF4761"/>
<path d="M155.827 347.478C155.818 347.478 155.81 347.477 155.802 347.476L144.862 346.119C144.813 346.113 144.768 346.089 144.735 346.051C144.703 346.014 144.685 345.966 144.687 345.916L144.909 335.409C144.909 335.381 144.916 335.353 144.928 335.328C144.94 335.302 144.957 335.28 144.978 335.262C144.999 335.243 145.024 335.23 145.051 335.221C145.078 335.213 145.106 335.211 145.134 335.214L156.073 336.572C156.123 336.578 156.168 336.602 156.2 336.639C156.233 336.677 156.25 336.725 156.249 336.775L156.027 347.282C156.026 347.335 156.004 347.384 155.967 347.421C155.929 347.458 155.879 347.478 155.827 347.478ZM145.091 345.744L155.631 347.052L155.845 336.947L145.305 335.639L145.091 345.744Z" fill="#111111"/>
<path d="M172.323 338.789L161.383 337.432L161.161 347.939L172.101 349.297L172.323 338.789Z" fill="#FF4761"/>
<path d="M172.101 349.497C172.092 349.497 172.084 349.496 172.076 349.495L161.136 348.138C161.087 348.132 161.042 348.108 161.009 348.07C160.977 348.033 160.959 347.985 160.96 347.935L161.183 337.428C161.183 337.4 161.19 337.372 161.202 337.347C161.214 337.321 161.231 337.299 161.252 337.28C161.273 337.262 161.298 337.248 161.325 337.24C161.352 337.232 161.38 337.23 161.408 337.233L172.347 338.591C172.397 338.597 172.442 338.621 172.474 338.658C172.507 338.696 172.524 338.744 172.523 338.794L172.301 349.301C172.3 349.353 172.278 349.403 172.241 349.44C172.203 349.477 172.153 349.497 172.101 349.497ZM161.365 347.763L171.905 349.07L172.119 338.966L161.579 337.658L161.365 347.763Z" fill="#111111"/>
</g>
<g clip-path="url(#clip3_1715_3491)">
<path d="M387.45 152.975L387.448 152.977L387.45 152.973L387.449 152.974C390.649 143.786 392.867 138.787 393.26 133.653C393.347 131.723 393.062 129.925 392.623 127.164C392.612 127.101 392.603 127.039 392.593 126.977C391.37 120.076 391.734 113.989 393.773 107.29C394.268 105.798 395.009 103.595 396.314 101.125C402.691 89.0802 414.562 80.7609 427.826 79.3372C444.201 77.5799 459.911 85.6706 467.849 99.9494C475.761 114.18 474.145 131.618 464.176 144.715C462.578 146.815 460.708 148.625 459.629 149.582C459.63 149.577 459.631 149.572 459.633 149.566C459.623 149.575 459.614 149.585 459.604 149.594C454.303 154.263 448.864 157.128 441.996 158.875C441.962 158.884 441.93 158.895 441.895 158.904C439.213 159.651 437.469 160.137 435.753 161.021C430.959 163.851 429.499 165.825 421.854 173.09L422.245 172.707L421.851 173.093L421.854 173.09C421.455 173.481 421.049 173.878 420.624 174.288L420.626 174.285C418.49 176.38 416.221 177.652 413.292 178.401C413.272 178.406 413.253 178.412 413.233 178.417L413.192 178.428C413.202 178.425 413.21 178.422 413.219 178.42C411.829 178.758 409.636 178.477 406.791 177.476C399.728 174.99 391.327 169.017 388.027 164.135C387.311 163.076 386.896 162.156 386.753 161.389C386.755 161.4 386.756 161.41 386.758 161.421L386.752 161.386L386.745 161.342C386.211 158.369 386.429 155.782 387.45 152.975Z" fill="white"/>
<path d="M407.558 177.955C409.938 178.708 411.881 178.944 413.216 178.637C413.225 178.636 413.234 178.634 413.243 178.632L413.332 178.609C416.309 177.848 418.597 176.565 420.76 174.449C421.173 174.05 421.585 173.65 421.995 173.247L421.999 173.244L422.003 173.24C423.779 171.552 425.198 170.173 426.449 168.956C430.518 164.999 432.202 163.362 435.86 161.203C437.549 160.334 439.3 159.846 441.952 159.107C441.973 159.101 441.994 159.095 442.015 159.089L442.052 159.078C448.947 157.325 454.399 154.454 459.722 149.771C459.739 149.763 459.755 149.753 459.769 149.74C460.554 149.044 462.57 147.174 464.344 144.843C469.284 138.352 472.253 130.722 472.929 122.775C473.61 114.761 471.917 106.832 468.034 99.8472C460.054 85.4941 444.262 77.3611 427.804 79.1276C421.283 79.8275 414.907 82.2299 409.367 86.0751C403.861 89.896 399.283 95.0661 396.128 101.027C394.789 103.558 394.027 105.853 393.572 107.223C391.52 113.968 391.154 120.07 392.385 127.014L392.393 127.067C392.4 127.112 392.407 127.156 392.415 127.2C392.849 129.928 393.135 131.732 393.05 133.643C392.745 137.609 391.342 141.498 389.217 147.384C388.627 149.019 387.958 150.873 387.252 152.9L387.251 152.901L387.25 152.903L387.246 152.915L387.245 152.92C386.215 155.76 385.997 158.37 386.536 161.379L386.55 161.46L386.551 161.46L386.551 161.463C386.552 161.469 386.554 161.474 386.555 161.48C386.715 162.284 387.151 163.217 387.852 164.253C391.168 169.16 399.632 175.181 406.721 177.675C406.998 177.772 407.277 177.866 407.558 177.955ZM413.167 178.215C411.759 178.558 409.578 178.233 406.861 177.277C399.845 174.809 391.474 168.86 388.201 164.017C387.519 163.007 387.101 162.11 386.96 161.351L386.96 161.351L386.96 161.348C386.959 161.346 386.959 161.345 386.959 161.344L386.956 161.326L386.952 161.305C386.425 158.367 386.64 155.821 387.648 153.047C387.651 153.04 387.653 153.033 387.655 153.026C388.358 151.006 389.025 149.158 389.614 147.528C391.751 141.609 393.162 137.699 393.471 133.669C393.559 131.709 393.27 129.888 392.831 127.132L392.801 126.944C391.582 120.066 391.944 114.024 393.974 107.352C394.424 105.998 395.179 103.724 396.501 101.224C399.625 95.3228 404.157 90.2041 409.608 86.4215C415.09 82.6164 421.398 80.2392 427.849 79.5468C444.139 77.7985 459.767 85.8471 467.665 100.052C471.507 106.963 473.182 114.808 472.508 122.739C471.839 130.606 468.9 138.161 464.008 144.588C462.296 146.837 460.354 148.653 459.543 149.376C459.523 149.385 459.505 149.397 459.489 149.412L459.471 149.429C454.187 154.083 448.784 156.931 441.943 158.671L441.842 158.7C439.162 159.447 437.393 159.939 435.656 160.834C431.944 163.024 430.249 164.672 426.155 168.653C425.008 169.768 423.721 171.02 422.147 172.521C422.129 172.53 422.112 172.542 422.097 172.556L421.706 172.94C421.298 173.34 420.889 173.738 420.477 174.135C418.367 176.204 416.135 177.457 413.239 178.197L413.182 178.212L413.169 178.215L413.168 178.215L413.167 178.215ZM381.786 190.918C384.622 191.916 387.995 194.314 389.32 196.274C390.197 197.572 389.957 198.353 388.851 198.444C385.538 198.627 381.171 195.834 379.323 193.211C378.893 192.566 378.728 192.135 378.619 191.85C378.135 190.504 379.382 190.072 381.786 190.918Z" fill="#111111"/>
<path d="M386.08 198.245C387.037 198.548 387.986 198.703 388.863 198.654C389.565 198.596 389.851 198.292 389.968 198.047C390.19 197.585 390.031 196.949 389.495 196.156C388.15 194.167 384.723 191.728 381.856 190.719C380.25 190.154 379.084 190.125 378.573 190.639C378.368 190.845 378.174 191.236 378.421 191.921C378.535 192.219 378.704 192.663 379.147 193.328C380.542 195.307 383.345 197.379 386.08 198.245ZM381.716 191.117C384.511 192.1 387.844 194.467 389.145 196.392C389.579 197.033 389.736 197.556 389.588 197.865C389.461 198.129 389.108 198.211 388.834 198.234C385.596 198.413 381.311 195.667 379.495 193.09C379.082 192.469 378.923 192.052 378.817 191.776C378.68 191.395 378.699 191.112 378.873 190.936C379.252 190.556 380.317 190.624 381.716 191.117Z" fill="#111111"/>
<path d="M377.287 179.223C378.565 179.12 380.348 179.43 382.553 180.206C385.103 181.103 387.842 182.492 390.416 184.119C394.449 186.67 398.078 189.809 399.945 192.571C401.965 195.559 401.418 197.36 398.928 197.575L388.879 198.442C389.958 198.349 389.896 197.512 389.29 196.475C388.561 195.229 386.909 193.919 385.162 192.814C384.047 192.109 382.861 191.508 381.756 191.119C380.801 190.783 380.029 190.649 379.475 190.693C378.637 190.76 378.33 191.036 378.617 191.842L375.236 182.34C374.574 180.478 375.353 179.378 377.287 179.223Z" fill="#46B75B"/>
<path d="M388.816 198.643C388.842 198.651 388.87 198.654 388.898 198.652L398.946 197.785C400.081 197.687 400.859 197.261 401.198 196.552C401.656 195.592 401.283 194.174 400.12 192.453C398.311 189.777 394.726 186.595 390.529 183.941C387.842 182.242 385.108 180.881 382.623 180.007C380.465 179.247 378.615 178.904 377.27 179.012C376.218 179.096 375.487 179.445 375.097 180.047C374.711 180.642 374.691 181.437 375.037 182.41L378.417 191.911L378.418 191.913C378.437 191.965 378.475 192.008 378.526 192.033C378.577 192.057 378.635 192.06 378.687 192.041C378.74 192.022 378.783 191.983 378.807 191.933C378.831 191.882 378.834 191.824 378.816 191.772C378.71 191.474 378.695 191.264 378.771 191.146C378.856 191.015 379.092 190.935 379.492 190.903C380.033 190.859 380.793 191.003 381.686 191.317C382.741 191.689 383.904 192.268 385.049 192.992C386.467 193.889 388.322 195.239 389.107 196.581C389.47 197.2 389.595 197.686 389.459 197.948C389.376 198.108 389.175 198.204 388.863 198.231L388.861 198.231C388.812 198.236 388.767 198.257 388.732 198.291C388.697 198.325 388.675 198.37 388.67 198.418C388.665 198.467 388.676 198.516 388.703 198.557C388.729 198.597 388.769 198.628 388.816 198.643ZM381.727 180.152C381.975 180.23 382.226 180.314 382.483 180.405C384.939 181.269 387.643 182.615 390.304 184.297C394.453 186.922 397.992 190.059 399.77 192.689C400.845 194.28 401.207 195.553 400.816 196.371C400.475 197.086 399.591 197.306 398.909 197.365L389.831 198.148C389.832 198.146 389.833 198.144 389.834 198.142C390.045 197.737 389.923 197.14 389.472 196.369C388.644 194.954 386.733 193.558 385.275 192.636C384.104 191.895 382.911 191.302 381.826 190.92C380.875 190.586 380.057 190.435 379.458 190.483C379.119 190.51 378.713 190.576 378.482 190.833L375.436 182.27C375.136 181.427 375.141 180.756 375.452 180.277C375.767 179.79 376.39 179.506 377.304 179.433C378.434 179.342 379.952 179.59 381.727 180.152Z" fill="#1C732C"/>
<path d="M398.9 197.577C400.206 197.443 402.095 197.039 403.418 195.087C404.014 194.162 403.717 192.662 402.376 190.678C399.062 185.775 390.626 179.778 383.534 177.282C379.31 175.796 376.515 175.887 375.645 177.238C374.427 179.226 374.823 181.086 375.226 182.312C374.12 179.253 376.997 178.251 382.553 180.206C389.1 182.51 396.886 188.046 399.945 192.571C401.972 195.571 401.414 197.374 398.9 197.577Z" fill="#111111"/>
<path d="M398.836 197.778C398.862 197.787 398.89 197.79 398.917 197.787C399.05 197.777 399.182 197.761 399.314 197.74C400.629 197.556 402.349 197.041 403.593 195.205C404.264 194.164 403.902 192.559 402.551 190.56C399.221 185.633 390.721 179.588 383.604 177.083C379.404 175.605 376.437 175.62 375.468 177.124C374.352 178.945 374.536 180.654 374.881 181.9C374.921 182.064 374.97 182.225 375.028 182.384C375.047 182.435 375.086 182.477 375.136 182.501C375.186 182.524 375.243 182.528 375.295 182.51C375.347 182.492 375.39 182.454 375.415 182.405C375.439 182.356 375.444 182.299 375.427 182.247C375.378 182.096 375.328 181.936 375.282 181.767C375.107 181.026 375.218 180.451 375.614 180.052C376.565 179.094 379.135 179.227 382.483 180.405C388.983 182.692 396.738 188.203 399.77 192.689C400.847 194.282 401.208 195.556 400.815 196.374C400.528 196.972 399.861 197.223 399.248 197.323C399.12 197.341 398.996 197.356 398.878 197.368C398.83 197.373 398.785 197.394 398.751 197.429C398.716 197.463 398.695 197.508 398.69 197.556C398.685 197.604 398.697 197.653 398.724 197.693C398.75 197.733 398.79 197.764 398.836 197.778ZM382.645 177.207C382.913 177.291 383.185 177.382 383.464 177.48C390.509 179.959 398.914 185.933 402.201 190.796C403.432 192.618 403.802 194.101 403.241 194.973C402.597 195.922 401.81 196.491 401.026 196.838C401.091 196.749 401.148 196.655 401.195 196.556C401.657 195.596 401.285 194.177 400.12 192.453C397.044 187.903 389.195 182.32 382.623 180.007C379.009 178.735 376.415 178.646 375.314 179.755C375.217 179.852 375.122 179.969 375.04 180.111C375.035 179.263 375.229 178.32 375.825 177.348C376.605 176.137 379.128 176.093 382.645 177.207Z" fill="#111111"/>
<path d="M386.987 159.746C387.191 159.433 387.498 159.188 387.904 159.015C389.235 158.448 391.621 158.661 394.84 159.794C398.436 161.059 402.378 163.228 405.817 165.696C409.135 168.078 411.984 170.738 413.605 173.135C414.938 175.107 415.235 176.599 414.65 177.514L403.426 195.076C404.013 194.157 403.715 192.658 402.376 190.678C400.749 188.271 397.888 185.6 394.556 183.209C391.103 180.73 387.144 178.552 383.534 177.282C380.301 176.144 377.905 175.93 376.569 176.499C376.162 176.672 375.853 176.919 375.649 177.233L386.987 159.746Z" fill="#46B75B"/>
<path d="M403.362 195.277C403.406 195.291 403.454 195.29 403.498 195.274C403.541 195.258 403.579 195.228 403.603 195.189L403.604 195.188L414.828 177.628C415.485 176.599 415.123 175.004 413.779 173.017C412.201 170.681 409.417 168.021 405.94 165.525C402.328 162.933 398.411 160.827 394.91 159.595C391.765 158.488 389.248 158.214 387.821 158.821C387.376 159.01 387.036 159.283 386.81 159.631L375.471 177.119C375.456 177.142 375.445 177.168 375.439 177.196C375.433 177.223 375.434 177.251 375.439 177.279C375.445 177.307 375.456 177.333 375.472 177.356C375.487 177.379 375.508 177.399 375.531 177.414C375.555 177.429 375.581 177.44 375.609 177.445C375.637 177.45 375.665 177.449 375.692 177.443C375.72 177.437 375.746 177.425 375.769 177.409C375.792 177.393 375.811 177.372 375.826 177.348L375.827 177.346C376.008 177.069 376.285 176.849 376.652 176.693C377.987 176.125 380.408 176.405 383.464 177.48C386.943 178.704 390.839 180.8 394.434 183.38C397.885 185.857 400.644 188.491 402.202 190.796C403.431 192.614 403.802 194.094 403.249 194.962L403.248 194.962C403.231 194.989 403.22 195.02 403.216 195.052C403.213 195.084 403.216 195.117 403.227 195.147C403.238 195.178 403.256 195.205 403.28 195.228C403.303 195.25 403.331 195.267 403.362 195.277ZM393.951 159.719C394.219 159.804 394.492 159.895 394.77 159.993C398.235 161.212 402.114 163.298 405.694 165.868C409.131 168.335 411.878 170.957 413.43 173.253C414.654 175.064 415.024 176.537 414.472 177.401L403.922 193.907C403.89 192.99 403.429 191.859 402.551 190.56C400.966 188.215 398.17 185.543 394.679 183.038C391.052 180.435 387.119 178.32 383.604 177.083C380.459 175.977 377.944 175.699 376.508 176.296L387.164 159.861C387.344 159.584 387.621 159.365 387.987 159.209C389.195 158.695 391.294 158.878 393.951 159.719Z" fill="#111111"/>
</g>
<g clip-path="url(#clip4_1715_3491)">
<path d="M117.652 278.209L112.274 282.979L97.4075 279.329L102.786 274.56L117.652 278.209Z" fill="#1C732C"/>
<path d="M112.247 283.155L112.232 283.152L97.3649 279.502C97.3335 279.494 97.3048 279.478 97.2819 279.455C97.259 279.432 97.2428 279.404 97.2351 279.372C97.2274 279.341 97.2284 279.308 97.238 279.277C97.2476 279.246 97.2656 279.218 97.2898 279.197L102.668 274.427C102.689 274.408 102.715 274.394 102.743 274.387C102.771 274.38 102.8 274.38 102.828 274.387L117.694 278.037C117.726 278.045 117.755 278.061 117.777 278.084C117.8 278.107 117.817 278.136 117.824 278.167C117.832 278.199 117.831 278.232 117.821 278.263C117.812 278.293 117.794 278.321 117.77 278.343L112.391 283.112C112.372 283.13 112.349 283.142 112.324 283.15C112.299 283.157 112.272 283.159 112.247 283.155ZM97.7785 279.238L112.226 282.785L117.281 278.301L102.834 274.755L97.7785 279.238Z" fill="#111111"/>
<path d="M102.786 274.56L97.4075 279.329C92.8789 283.04 87.0765 285.769 80.3382 287.029C60.1291 290.811 39.1398 279.983 33.4563 262.844C29.8058 251.836 33.3573 240.901 41.7198 233.485L47.0979 228.715C38.7354 236.131 35.1839 247.066 38.8344 258.074C44.5179 275.213 65.5072 286.041 85.7163 282.26C92.4548 280.999 98.2569 278.271 102.786 274.56Z" fill="#1C732C"/>
<path d="M65.1723 287.408C50.4564 285.11 37.5547 275.767 33.288 262.9C29.7299 252.17 32.838 241.124 41.6021 233.352L46.9804 228.582C46.9978 228.567 47.0181 228.555 47.0401 228.547C47.0621 228.54 47.0854 228.536 47.1086 228.538C47.1319 228.539 47.1546 228.545 47.1755 228.555C47.1964 228.566 47.2151 228.58 47.2306 228.597C47.246 228.615 47.2578 228.635 47.2654 228.657C47.273 228.679 47.2762 228.703 47.2747 228.726C47.2733 228.749 47.2673 228.772 47.2571 228.793C47.2469 228.814 47.2327 228.833 47.2153 228.848L47.2011 228.861C38.5578 236.535 35.4928 247.434 39.0026 258.018C44.6501 275.048 65.5917 285.845 85.6839 282.085C92.1595 280.873 98.0343 278.224 102.673 274.422C102.709 274.392 102.756 274.377 102.803 274.381C102.849 274.384 102.893 274.407 102.923 274.443C102.954 274.479 102.969 274.525 102.965 274.572C102.961 274.619 102.939 274.663 102.903 274.693L97.5247 279.463C92.8343 283.306 86.9044 285.981 80.3703 287.204C75.2732 288.158 70.1192 288.181 65.1723 287.408ZM43.6536 232.007L41.837 233.618C33.1828 241.293 30.1128 252.197 33.6245 262.787C39.2718 279.818 60.2137 290.615 80.3058 286.855C86.7815 285.643 92.6562 282.993 97.2954 279.192L99.8812 276.899C95.7687 279.567 90.9501 281.461 85.749 282.434C65.4881 286.225 44.3676 275.322 38.6665 258.13C35.6034 248.894 37.481 239.422 43.6536 232.007Z" fill="#111111"/>
<path d="M112.017 244.381C114.698 252.464 113.492 260.507 109.353 267.147L117.652 278.21L102.786 274.56C98.2573 278.27 92.4549 280.999 85.7167 282.26C65.5075 286.041 44.5182 275.213 38.8347 258.074C33.1511 240.935 44.9258 223.974 65.1349 220.193C85.3436 216.412 106.334 227.241 112.017 244.381Z" fill="#46B75B"/>
<path d="M70.5505 282.639C55.8345 280.341 42.933 270.997 38.6663 258.13C36.1522 250.549 36.9699 242.63 40.9692 235.835C45.7182 227.764 54.5144 221.999 65.1021 220.018C85.3625 216.227 106.484 227.131 112.185 244.325C114.771 252.121 113.841 260.217 109.568 267.138L117.794 278.103C117.816 278.132 117.828 278.167 117.829 278.204C117.83 278.241 117.82 278.277 117.8 278.307C117.78 278.338 117.751 278.362 117.717 278.375C117.683 278.389 117.645 278.391 117.61 278.382L102.829 274.753C98.1548 278.562 92.2506 281.218 85.7487 282.434C80.6514 283.388 75.4975 283.411 70.5505 282.639ZM80.2533 220.164C75.3425 219.397 70.2284 219.42 65.1671 220.367C54.6799 222.33 45.9715 228.033 41.2745 236.015C37.3284 242.721 36.5213 250.535 39.0028 258.018C44.6502 275.048 65.5918 285.845 85.684 282.085C92.1597 280.873 98.0345 278.223 102.674 274.422C102.695 274.405 102.72 274.392 102.747 274.386C102.773 274.38 102.801 274.38 102.828 274.387L117.212 277.919L109.212 267.254C109.19 267.225 109.178 267.191 109.176 267.155C109.175 267.119 109.184 267.084 109.203 267.053C113.474 260.202 114.413 252.17 111.849 244.437C107.624 231.696 94.8386 222.443 80.2533 220.164Z" fill="#111111"/>
<path d="M90.0691 243.941C92.2794 243.528 94.7074 245.107 95.4917 247.473C96.2755 249.836 95.1181 252.089 92.9079 252.502C90.6956 252.916 88.2668 251.334 87.4833 248.971C86.699 246.606 87.8569 244.355 90.0691 243.941Z" fill="white"/>
<path d="M91.5277 252.693C89.6917 252.406 87.9599 250.972 87.3151 249.028C86.8986 247.771 87.0009 246.471 87.596 245.46C88.1231 244.564 88.99 243.963 90.0368 243.767C92.3286 243.339 94.8507 244.976 95.6599 247.417C96.0763 248.673 95.9738 249.973 95.3784 250.985C94.8514 251.881 93.9854 252.482 92.9404 252.677C92.4737 252.764 91.9972 252.766 91.5277 252.693ZM90.1017 244.116C89.1571 244.293 88.3756 244.834 87.9015 245.64C87.3584 246.563 87.2676 247.757 87.6516 248.915C88.4072 251.195 90.7511 252.725 92.8757 252.328C93.8187 252.151 94.599 251.61 95.0733 250.805C95.6166 249.881 95.7079 248.687 95.3238 247.529C94.5677 245.25 92.2253 243.719 90.1017 244.116Z" fill="#111111"/>
<path d="M57.9438 249.952C60.154 249.539 62.5821 251.118 63.3664 253.484C64.1501 255.847 62.9928 258.1 60.7825 258.513C58.5703 258.927 56.1415 257.345 55.3577 254.982C54.5735 252.617 55.7315 250.366 57.9438 249.952Z" fill="white"/>
<path d="M59.4022 258.703C57.5662 258.417 55.8344 256.982 55.1897 255.038C54.7731 253.782 54.8755 252.482 55.4706 251.471C55.9978 250.575 56.8647 249.974 57.9114 249.778C60.2032 249.349 62.7251 250.986 63.5347 253.427C63.9511 254.683 63.8484 255.984 63.2528 256.996C62.7259 257.891 61.86 258.492 60.815 258.688C60.3482 258.775 59.8719 258.777 59.4022 258.703ZM59.276 250.113C58.8434 250.045 58.4055 250.047 57.9762 250.127C57.0318 250.304 56.2503 250.845 55.776 251.651C55.233 252.574 55.1421 253.768 55.5262 254.926C56.2819 257.205 58.6257 258.736 60.7503 258.339C61.6932 258.162 62.4735 257.621 62.9478 256.816C63.4912 255.892 63.5824 254.698 63.1985 253.54C62.5953 251.721 60.9821 250.379 59.276 250.113Z" fill="#111111"/>
<path d="M74.0065 246.947C76.2168 246.533 78.6448 248.113 79.4291 250.478C80.2129 252.841 79.0555 255.094 76.8453 255.508C74.633 255.922 72.2042 254.34 71.4207 251.977C70.6362 249.611 71.7943 247.361 74.0065 246.947Z" fill="white"/>
<path d="M75.465 255.698C73.6288 255.411 71.8971 253.977 71.2524 252.033C70.8359 250.777 70.9382 249.477 71.5333 248.465C72.0604 247.57 72.9273 246.968 73.9741 246.772C76.2653 246.344 78.788 247.981 79.5972 250.422C80.0136 251.678 79.9111 252.979 79.3155 253.991C78.7887 254.886 77.9227 255.487 76.8778 255.682C76.411 255.77 75.9345 255.771 75.465 255.698ZM74.039 247.122C73.0944 247.298 72.3129 247.84 71.8388 248.646C71.2957 249.568 71.2048 250.762 71.5889 251.921C72.3445 254.2 74.6884 255.731 76.8131 255.333C77.756 255.157 78.5363 254.616 79.0106 253.81C79.5539 252.887 79.6452 251.693 79.2611 250.535C78.5053 248.255 76.1626 246.724 74.039 247.122Z" fill="#111111"/>
</g>
<rect opacity="0.6" x="109.485" y="101" width="12" height="12" rx="2" transform="rotate(45 109.485 101)" fill="white"/>
<rect opacity="0.6" x="54.3135" y="414" width="16" height="16" rx="4" transform="rotate(45 54.3135 414)" fill="white"/>
<rect opacity="0.6" x="349.313" y="107" width="10" height="10" rx="2" transform="rotate(45 349.313 107)" fill="white"/>
<rect opacity="0.6" x="130.243" y="213" width="6" height="6" rx="1" transform="rotate(45 130.243 213)" fill="white"/>
<defs>
<linearGradient id="paint0_linear_1715_3491" x1="292.515" y1="428.764" x2="384.952" y2="343.89" gradientUnits="userSpaceOnUse">
<stop stop-color="#111111"/>
<stop offset="0.478" stop-color="#1C732C"/>
</linearGradient>
<linearGradient id="paint1_linear_1715_3491" x1="258.781" y1="173.606" x2="276.088" y2="211.969" gradientUnits="userSpaceOnUse">
<stop stop-color="#111111"/>
<stop offset="1" stop-color="#1C732C"/>
</linearGradient>
<linearGradient id="paint2_linear_1715_3491" x1="76.8793" y1="316.088" x2="197.803" y2="399.808" gradientUnits="userSpaceOnUse">
<stop stop-color="#9A9A9A"/>
<stop offset="0.256" stop-color="white"/>
<stop offset="0.832" stop-color="#9A9A9A"/>
</linearGradient>
<clipPath id="clip0_1715_3491">
<rect width="205.009" height="285.971" fill="white" transform="translate(227.454 161.122)"/>
</clipPath>
<clipPath id="clip1_1715_3491">
<rect width="180.761" height="178.556" fill="white" transform="translate(137.074 56.9136)"/>
</clipPath>
<clipPath id="clip2_1715_3491">
<rect width="168.737" height="150.1" fill="white" transform="translate(78.156 256.712)"/>
</clipPath>
<clipPath id="clip3_1715_3491">
<rect width="81.3624" height="129.659" fill="white" transform="matrix(-0.953364 -0.301822 -0.301822 0.953364 483.399 93.0571)"/>
</clipPath>
<clipPath id="clip4_1715_3491">
<rect width="88.9776" height="69.138" fill="white" transform="translate(37.9326 213.186) rotate(8.87875)"/>
</clipPath>
</defs>
</svg>
