<svg width="20" height="14" viewBox="0 0 20 14" fill="none" xmlns="http://www.w3.org/2000/svg">
<g clip-path="url(#clip0_1327_7155)">
<rect width="20" height="14" rx="3" fill="#F93939"/>
<path d="M18.0952 0H1.90476C0.852791 0 0 0.835735 0 1.86667V12.1333C0 13.1643 0.852791 14 1.90476 14H18.0952C19.1472 14 20 13.1643 20 12.1333V1.86667C20 0.835735 19.1472 0 18.0952 0Z" fill="#F93939"/>
<path fill-rule="evenodd" clip-rule="evenodd" d="M4.76172 10.2666H19.9998V13.9999H4.76172V10.2666Z" fill="#249F58"/>
<path fill-rule="evenodd" clip-rule="evenodd" d="M2.85714 0L4.7619 1.4L2.85714 2.8V0ZM2.85714 2.8L4.7619 4.2L2.85714 5.6V2.8ZM2.85714 5.6L4.7619 7L2.85714 8.4V5.6ZM2.85714 8.4L4.7619 9.8L2.85714 11.2V8.4ZM2.85714 11.2L4.7619 12.6L2.85714 14V11.2ZM1.90476 0L0 1.4L1.90476 2.8V0ZM1.90476 2.8L0 4.2L1.90476 5.6V2.8ZM1.90476 5.6L0 7L1.90476 8.4V5.6ZM1.90476 8.4L0 9.8L1.90476 11.2V8.4ZM1.90476 11.2L0 12.6L1.90476 14V11.2ZM1.90476 0H2.85714V1.86667H1.90476V0ZM1.90476 12.1333H2.85714V14H1.90476V12.1333ZM1.90476 4.66667H2.85714V6.53333H1.90476V4.66667ZM1.90476 2.8H2.85714V3.73333H1.90476V2.8ZM1.90476 10.2667H2.85714V11.2H1.90476V10.2667ZM1.90476 7.46667H2.85714V9.33333H1.90476V7.46667Z" fill="white"/>
</g>
<defs>
<clipPath id="clip0_1327_7155">
<rect width="20" height="14" rx="3" fill="white"/>
</clipPath>
</defs>
</svg>
