<?xml version="1.0" encoding="utf-8"?><svg width="16" height="16" fill="none" xmlns="http://www.w3.org/2000/svg" viewBox="0 0 16 16"><path d="M7.887 6L10 8.107V8a2 2 0 00-2-2h-.113zm-2.867.533l1.033 1.034C6.02 7.707 6 7.847 6 8a2 2 0 002 2c.147 0 .293-.02.433-.053l1.034 1.033c-.447.22-.94.353-1.467.353A3.333 3.333 0 014.667 8c0-.527.133-1.02.353-1.467zM1.333 2.847l1.52 1.52.3.3c-1.1.866-1.966 2-2.486 3.333 1.153 2.927 4 5 7.333 5 1.033 0 2.02-.2 2.92-.56l.287.28 1.946 1.947.847-.847L2.18 2M8 4.667A3.333 3.333 0 0111.333 8c0 .427-.086.84-.24 1.213l1.954 1.954c1-.834 1.8-1.927 2.286-3.167-1.153-2.927-4-5-7.333-5-.933 0-1.827.167-2.667.467L6.78 4.9c.38-.147.787-.233 1.22-.233z" fill="#6D6E73"/></svg>