<?xml version="1.0" encoding="utf-8"?><svg width="24" height="24" xmlns="http://www.w3.org/2000/svg" viewBox="0 0 24 24"><path d="M24 11.828c0 3.179-.533 5.758-1.19 5.758-.658 0-1.19-2.578-1.19-5.758s.532-5.759 1.19-5.759c.657 0 1.19 2.578 1.19 5.759zM20.963 11.828c0 3.549-1.516 6.427-3.385 6.427-1.869 0-3.384-2.878-3.384-6.427 0-3.55 1.515-6.428 3.384-6.428 1.87 0 3.384 2.877 3.384 6.428M13.537 11.828c0 3.77-3.03 6.827-6.768 6.827S0 15.598 0 11.828 3.03 5 6.769 5c3.738 0 6.768 3.057 6.768 6.828z"/></svg>