<?xml version="1.0" encoding="utf-8"?><svg width="24" height="24" fill="none" xmlns="http://www.w3.org/2000/svg" viewBox="0 0 24 24"><path d="M15.6 12.81l-.546-.839-.014.01-.014.009.573.82zm0-1.377l-.594.806.045.032.048.028.5-.866zm-5.516-4.061l.593-.805-.028-.021-.03-.019-.535.845zm-1.156.607l1-.003V7.958l-1 .02zm.023 7.977l-1 .003v.029l.001.028.999-.06zm1.198.665l.485.875.046-.025.043-.03-.574-.82zM12 20.6A8.6 8.6 0 013.4 12h-2c0 5.854 4.747 10.6 10.6 10.6v-2zm8.6-8.6a8.6 8.6 0 01-8.6 8.6v2c5.855 0 10.6-4.746 10.6-10.6h-2zM12 3.4a8.6 8.6 0 018.6 8.6h2c0-5.854-4.745-10.6-10.6-10.6v2zm0-2C6.147 1.4 1.4 6.146 1.4 12h2A8.6 8.6 0 0112 3.4v-2zm4.146 12.248c.434-.283.983-.788.982-1.548 0-.783-.578-1.273-1.027-1.533L15.099 12.3c.104.06.124.092.11.073a.452.452 0 01-.082-.27c0-.143.056-.227.065-.24.004-.005-.027.037-.138.11l1.09 1.676zm.047-3.02l-5.515-4.061-1.186 1.61 5.515 4.062 1.186-1.611zm-5.573-4.1c-.47-.299-1.132-.47-1.757-.178-.68.318-.947 1.002-.934 1.649l2-.04c-.002-.06.01-.04-.02.018a.434.434 0 01-.2.185c-.185.087-.26-.01-.16.055l1.07-1.69zM7.928 7.98l.023 7.978 2-.006-.023-7.977-2 .005zm.024 8.035c.032.534.218 1.246.888 1.604.66.353 1.348.123 1.793-.124l-.968-1.75c-.099.055-.138.058-.122.056a.42.42 0 01.24.054.43.43 0 01.185.179c.008.017-.012-.017-.02-.138l-1.996.119zm2.77 1.425l5.45-3.812-1.146-1.639-5.45 3.812 1.146 1.639z" fill="#F2F4F6"/></svg>