<?xml version="1.0" encoding="utf-8"?><svg width="16" height="16" fill="none" xmlns="http://www.w3.org/2000/svg" viewBox="0 0 16 16"><path d="M8 15A7 7 0 108 1a7 7 0 000 14zM6.044 5.032c.504-.516 1.2-.768 2.088-.768.768 0 1.392.204 1.872.636.48.42.72.996.72 1.716 0 .588-.156 1.08-.456 1.464-.108.132-.444.444-1.008.936-.209.172-.38.384-.504.624-.132.24-.192.504-.192.792v.204H7.28v-.204c0-.444.072-.828.24-1.14.156-.336.612-.828 1.356-1.488l.204-.228c.216-.276.336-.564.336-.876 0-.42-.12-.744-.348-.984-.24-.24-.588-.36-1.02-.36-.54 0-.936.168-1.176.516-.216.288-.324.696-.324 1.224h-1.26c0-.876.252-1.56.756-2.064zm1.248 6.492a.85.85 0 01.624-.24c.252 0 .468.072.636.24.168.156.252.36.252.612a.851.851 0 01-.264.624.9.9 0 01-.624.24.86.86 0 01-.876-.864c0-.252.084-.456.252-.612z" fill="#6D6E73"/></svg>