<?xml version="1.0" encoding="utf-8"?><svg viewBox="0 0 24 24" xmlns="http://www.w3.org/2000/svg" xmlns:xlink="http://www.w3.org/1999/xlink"><style>:root>svg{display:none}:root>svg:target{display:block}</style><svg viewBox="0 0 7 8" id="arrow-down-mobile-menu-dropdown" xmlns="http://www.w3.org/2000/svg"><path d="M6.352 6.111a.42.42 0 00.32-.69l-2.85-3.383a.42.42 0 00-.643 0L.328 5.42a.42.42 0 00.32.69h5.704z"/></svg><svg fill="none" viewBox="0 0 19 18" id="arrow-right" xmlns="http://www.w3.org/2000/svg"><path fill-rule="evenodd" clip-rule="evenodd" d="M15.898 8.602a.563.563 0 010 .796l-4.5 4.5a.561.561 0 11-.796-.796l3.54-3.54H3.5a.562.562 0 110-1.124h10.643l-3.54-3.54a.561.561 0 11.795-.795l4.5 4.5z" fill="#F2F4F6"/></svg><svg fill="none" viewBox="0 0 15 12" id="burger" xmlns="http://www.w3.org/2000/svg"><path fill-rule="evenodd" clip-rule="evenodd" d="M0 0h15v1.5H0V0zm0 5.25h15v1.5H0v-1.5zm15 5.25H0V12h15v-1.5z" fill="#0BBA74"/></svg><svg fill="none" viewBox="0 0 20 20" id="clock" xmlns="http://www.w3.org/2000/svg"><path d="M12.763 12.711a.75.75 0 00.474-1.422l-.474 1.422zM10 11h-.75c0 .323.207.61.513.711L10 11zm.75-4.181a.75.75 0 00-1.5 0h1.5zm2.487 4.47l-3-1-.474 1.422 3 1 .474-1.422zM10.75 11V6.819h-1.5V11h1.5zm6.5-1A7.25 7.25 0 0110 17.25v1.5A8.75 8.75 0 0018.75 10h-1.5zM10 17.25A7.25 7.25 0 012.75 10h-1.5A8.75 8.75 0 0010 18.75v-1.5zM2.75 10A7.25 7.25 0 0110 2.75v-1.5A8.75 8.75 0 001.25 10h1.5zM10 2.75A7.25 7.25 0 0117.25 10h1.5A8.75 8.75 0 0010 1.25v1.5z" fill="#F2F4F6"/></svg><svg viewBox="0 0 20 20" id="close" xmlns="http://www.w3.org/2000/svg"><path d="M15.833 4.167L4.167 15.833m11.666 0L4.167 4.167" stroke="#87909F" stroke-width="2" stroke-linecap="round"/></svg><svg viewBox="0 0 24 24" id="discord" xmlns="http://www.w3.org/2000/svg"><path d="M20.317 4.156a19.792 19.792 0 00-4.885-1.516.074.074 0 00-.079.038c-.21.375-.444.864-.608 1.249a18.271 18.271 0 00-5.487 0 12.644 12.644 0 00-.617-1.25.077.077 0 00-.079-.037 19.737 19.737 0 00-4.885 1.516.07.07 0 00-.032.027C.533 8.832-.32 13.366.099 17.843a.082.082 0 00.031.057 19.9 19.9 0 005.993 3.03.078.078 0 00.084-.029c.462-.63.874-1.295 1.226-1.994.021-.04.001-.09-.041-.105a13.109 13.109 0 01-1.872-.893.077.077 0 01-.008-.127c.126-.095.252-.193.372-.292a.074.074 0 01.078-.01c3.927 1.793 8.18 1.793 12.061 0a.074.074 0 01.079.01c.12.098.245.197.372.292.044.032.04.1-.006.127-.598.35-1.22.645-1.873.892a.077.077 0 00-.041.106c.36.698.772 1.363 1.225 1.994a.076.076 0 00.084.028 19.834 19.834 0 006.002-3.03.077.077 0 00.032-.055c.5-5.176-.838-9.673-3.549-13.66a.06.06 0 00-.031-.028zM8.02 15.117c-1.182 0-2.157-1.086-2.157-2.419S6.82 10.28 8.02 10.28c1.21 0 2.176 1.095 2.157 2.42 0 1.332-.956 2.418-2.157 2.418zm7.975 0c-1.183 0-2.157-1.086-2.157-2.419s.955-2.419 2.157-2.419c1.21 0 2.176 1.095 2.157 2.42 0 1.332-.946 2.418-2.157 2.418z"/></svg><svg viewBox="0 0 24 24" id="facebook" xmlns="http://www.w3.org/2000/svg"><g clip-path="url(#gclip0_1974_18229)"><path d="M12 0C5.373 0 0 5.373 0 12c0 5.628 3.875 10.35 9.101 11.647v-7.98H6.627V12H9.1v-1.58c0-4.084 1.849-5.978 5.859-5.978.76 0 2.072.15 2.608.298v3.324c-.283-.03-.775-.044-1.386-.044-1.967 0-2.728.745-2.728 2.683V12h3.92l-.673 3.667h-3.247v8.245C19.396 23.195 24 18.135 24 12c0-6.627-5.373-12-12-12z"/></g><defs><clipPath id="gclip0_1974_18229"><path fill="#fff" d="M0 0h24v24H0z"/></clipPath></defs></svg><svg fill="none" viewBox="0 0 20 20" id="key" xmlns="http://www.w3.org/2000/svg"><path d="M7.5 7.5h.101m7.4 10.5l-5.577-5.498c-1.08.418-2.37.254-3.567-.097-2.853-.834-4.48-3.79-3.633-6.603.847-2.812 3.846-4.416 6.699-3.581 2.853.834 4.48 3.791 3.633 6.603l-.133.721L18 15.043V18h-3z" stroke="#F2F4F6" stroke-width="1.5" stroke-linecap="round" stroke-linejoin="round"/></svg><svg aria-hidden="true" viewBox="0 0 24 24" data-icon="GlobalOutlined" font-size="20" id="lang"><path d="M12 22C6.477 22 2 17.523 2 12S6.477 2 12 2s10 4.477 10 10-4.477 10-10 10zm-2.29-2.333A17.9 17.9 0 018.027 13H4.062a8.008 8.008 0 005.648 6.667zM10.03 13c.151 2.439.848 4.73 1.97 6.752A15.906 15.906 0 0013.97 13h-3.94zm9.908 0h-3.965a17.9 17.9 0 01-1.683 6.667A8.008 8.008 0 0019.938 13zM4.062 11h3.965A17.9 17.9 0 019.71 4.333 8.008 8.008 0 004.062 11zm5.969 0h3.938A15.904 15.904 0 0012 4.248 15.906 15.906 0 0010.03 11h.001zm4.259-6.667A17.9 17.9 0 0115.973 11h3.965a8.008 8.008 0 00-5.648-6.667z"/></svg><svg fill="none" viewBox="0 0 20 20" id="log-out" xmlns="http://www.w3.org/2000/svg"><path d="M12.206 6.5V4.75c0-.464-.186-.91-.517-1.237A1.772 1.772 0 0010.441 3H4.265c-.468 0-.917.184-1.248.513A1.743 1.743 0 002.5 4.75v10.5c0 .464.186.91.517 1.237.33.329.78.513 1.248.513h6.176c.468 0 .917-.184 1.248-.513.331-.328.517-.773.517-1.237V13.5M6.912 10H17.5m0 0l-2.647-2.625M17.5 10l-2.647 2.625" stroke="#FF4761" stroke-width="1.5" stroke-linecap="round" stroke-linejoin="round"/></svg><svg viewBox="0 0 24 24" id="medium" xmlns="http://www.w3.org/2000/svg"><path d="M24 11.828c0 3.179-.533 5.758-1.19 5.758-.658 0-1.19-2.578-1.19-5.758s.532-5.759 1.19-5.759c.657 0 1.19 2.578 1.19 5.759zM20.963 11.828c0 3.549-1.516 6.427-3.385 6.427-1.869 0-3.384-2.878-3.384-6.427 0-3.55 1.515-6.428 3.384-6.428 1.87 0 3.384 2.877 3.384 6.428M13.537 11.828c0 3.77-3.03 6.827-6.768 6.827S0 15.598 0 11.828 3.03 5 6.769 5c3.738 0 6.768 3.057 6.768 6.828z"/></svg><svg fill="none" viewBox="0 0 24 24" id="play-video" xmlns="http://www.w3.org/2000/svg"><path d="M15.6 12.81l-.546-.839-.014.01-.014.009.573.82zm0-1.377l-.594.806.045.032.048.028.5-.866zm-5.516-4.061l.593-.805-.028-.021-.03-.019-.535.845zm-1.156.607l1-.003V7.958l-1 .02zm.023 7.977l-1 .003v.029l.001.028.999-.06zm1.198.665l.485.875.046-.025.043-.03-.574-.82zM12 20.6A8.6 8.6 0 013.4 12h-2c0 5.854 4.747 10.6 10.6 10.6v-2zm8.6-8.6a8.6 8.6 0 01-8.6 8.6v2c5.855 0 10.6-4.746 10.6-10.6h-2zM12 3.4a8.6 8.6 0 018.6 8.6h2c0-5.854-4.745-10.6-10.6-10.6v2zm0-2C6.147 1.4 1.4 6.146 1.4 12h2A8.6 8.6 0 0112 3.4v-2zm4.146 12.248c.434-.283.983-.788.982-1.548 0-.783-.578-1.273-1.027-1.533L15.099 12.3c.104.06.124.092.11.073a.452.452 0 01-.082-.27c0-.143.056-.227.065-.24.004-.005-.027.037-.138.11l1.09 1.676zm.047-3.02l-5.515-4.061-1.186 1.61 5.515 4.062 1.186-1.611zm-5.573-4.1c-.47-.299-1.132-.47-1.757-.178-.68.318-.947 1.002-.934 1.649l2-.04c-.002-.06.01-.04-.02.018a.434.434 0 01-.2.185c-.185.087-.26-.01-.16.055l1.07-1.69zM7.928 7.98l.023 7.978 2-.006-.023-7.977-2 .005zm.024 8.035c.032.534.218 1.246.888 1.604.66.353 1.348.123 1.793-.124l-.968-1.75c-.099.055-.138.058-.122.056a.42.42 0 01.24.054.43.43 0 01.185.179c.008.017-.012-.017-.02-.138l-1.996.119zm2.77 1.425l5.45-3.812-1.146-1.639-5.45 3.812 1.146 1.639z" fill="#F2F4F6"/></svg><svg fill="none" viewBox="0 0 24 24" id="profile" xmlns="http://www.w3.org/2000/svg"><path d="M5 17.875c1.05-1.75 3.349-2.948 6.937-2.948s5.887 1.198 6.937 2.948M14.787 8.85a2.85 2.85 0 11-5.7 0 2.85 2.85 0 015.7 0z" stroke="#F2F4F6" stroke-width="2" stroke-linecap="round"/></svg><svg viewBox="0 0 24 24" id="reddit" xmlns="http://www.w3.org/2000/svg"><path fill-rule="evenodd" clip-rule="evenodd" d="M24 12c0 6.627-5.373 12-12 12S0 18.627 0 12 5.373 0 12 0s12 5.373 12 12zm-5.754-1.754c.968 0 1.754.786 1.754 1.754 0 .716-.435 1.333-1.01 1.614.028.168.042.337.042.52 0 2.694-3.13 4.87-7.004 4.87-3.873 0-7.003-2.176-7.003-4.87 0-.183.014-.366.042-.534A1.748 1.748 0 014.028 12c0-.968.786-1.754 1.755-1.754.463 0 .898.196 1.207.49 1.207-.883 2.877-1.43 4.744-1.487l.884-4.182a.342.342 0 01.14-.197c.07-.042.155-.056.239-.042l2.905.618a1.214 1.214 0 011.109-.702c.688 0 1.249.561 1.249 1.249a1.25 1.25 0 01-2.498.056l-2.597-.547-.8 3.747c1.825.07 3.48.632 4.674 1.488.309-.309.73-.491 1.207-.491zM9.249 12C8.562 12 8 12.561 8 13.25c0 .687.562 1.248 1.25 1.248.687 0 1.248-.561 1.248-1.249 0-.688-.56-1.249-1.249-1.249zm2.765 5.46c.478 0 2.106-.056 2.962-.913a.361.361 0 00.028-.463.33.33 0 00-.463 0c-.548.534-1.685.73-2.513.73-.828 0-1.979-.197-2.512-.73a.33.33 0 00-.463 0 .33.33 0 000 .463c.842.842 2.484.913 2.961.913zm1.488-4.21c0 .687.561 1.248 1.25 1.248.687 0 1.248-.561 1.248-1.249C16 12.561 15.44 12 14.751 12c-.688 0-1.249.561-1.249 1.25z"/></svg><svg fill="none" viewBox="0 0 20 20" id="security" xmlns="http://www.w3.org/2000/svg"><path d="M8 9.323l1.5 1.5 3-3m-8.5-3l4.658-2.33a3 3 0 012.684 0L16 4.824v6.69c0 2.31-2.135 3.87-6 6.31-3.865-2.44-6-4.5-6-6.31v-6.69z" stroke="#F2F4F6" stroke-width="1.5" stroke-linecap="round" stroke-linejoin="round"/></svg><svg viewBox="0 0 24 24" id="tiktok" xmlns="http://www.w3.org/2000/svg"><path d="M17.177 8.663a9.362 9.362 0 005.476 1.76V6.478c-.387 0-.772-.04-1.15-.121v3.104a9.364 9.364 0 01-5.477-1.759v8.048c0 4.026-3.251 7.289-7.263 7.289a7.21 7.21 0 01-4.043-1.233A7.229 7.229 0 009.913 24c4.012 0 7.264-3.263 7.264-7.29V8.664zm1.418-3.978a5.506 5.506 0 01-1.418-3.218V.96h-1.09a5.521 5.521 0 002.508 3.725zM7.257 18.718a3.328 3.328 0 01-.678-2.019 3.328 3.328 0 014.33-3.178V9.49a7.302 7.302 0 00-1.149-.067v3.138a3.328 3.328 0 00-4.33 3.178c0 1.302.743 2.43 1.827 2.979z"/><path d="M16.026 7.703a9.364 9.364 0 005.477 1.759V6.358a5.493 5.493 0 01-2.908-1.673A5.522 5.522 0 0116.087.96h-2.863v15.75a3.329 3.329 0 01-3.322 3.324 3.314 3.314 0 01-2.645-1.316 3.335 3.335 0 01-1.828-2.979 3.328 3.328 0 014.33-3.178V9.423c-3.94.082-7.11 3.313-7.11 7.288 0 1.984.79 3.782 2.071 5.096a7.21 7.21 0 004.043 1.233c4.012 0 7.263-3.264 7.263-7.29V7.704z"/></svg><svg viewBox="0 0 24 24" id="vk" xmlns="http://www.w3.org/2000/svg"><g clip-path="url(#qclip0_1974_18227)"><path fill-rule="evenodd" clip-rule="evenodd" d="M1.687 1.687C0 3.374 0 6.09 0 11.52v.96c0 5.43 0 8.146 1.687 9.833C3.374 24 6.09 24 11.52 24h.96c5.43 0 8.146 0 9.833-1.687C24 20.626 24 17.911 24 12.48v-.96c0-5.43 0-8.146-1.687-9.833C20.626 0 17.911 0 12.48 0h-.96C6.09 0 3.374 0 1.687 1.687zM4.05 7.3c.13 6.24 3.25 9.99 8.72 9.99h.31v-3.57c2.01.2 3.53 1.67 4.14 3.57h2.84c-.78-2.84-2.83-4.41-4.11-5.01 1.28-.74 3.08-2.54 3.51-4.98h-2.58c-.56 1.98-2.22 3.78-3.8 3.95V7.3H10.5v6.92c-1.6-.4-3.62-2.34-3.71-6.92H4.05z"/></g><defs><clipPath id="qclip0_1974_18227"><path fill="#fff" d="M0 0h24v24H0z"/></clipPath></defs></svg><svg viewBox="0 0 24 24" id="youtube" xmlns="http://www.w3.org/2000/svg"><path d="M23.76 7.2s-.233-1.655-.955-2.381c-.914-.957-1.936-.961-2.405-1.018-3.356-.243-8.395-.243-8.395-.243h-.01s-5.039 0-8.395.243c-.469.057-1.49.061-2.405 1.018-.722.726-.951 2.38-.951 2.38S0 9.146 0 11.087v1.819c0 1.94.24 3.885.24 3.885s.233 1.655.95 2.382c.915.956 2.115.923 2.65 1.026 1.92.183 8.16.24 8.16.24s5.044-.01 8.4-.25c.469-.055 1.49-.06 2.405-1.016.722-.727.956-2.382.956-2.382S24 14.85 24 12.905v-1.82c0-1.94-.24-3.885-.24-3.885zM9.52 15.112V8.367l6.483 3.384-6.483 3.361z"/></svg></svg>