<?xml version="1.0" encoding="utf-8"?><svg viewBox="0 0 24 24" xmlns="http://www.w3.org/2000/svg" xmlns:xlink="http://www.w3.org/1999/xlink"><style>:root>svg{display:none}:root>svg:target{display:block}</style><svg fill="none" viewBox="0 0 19 18" id="arrow-right" xmlns="http://www.w3.org/2000/svg"><path fill-rule="evenodd" clip-rule="evenodd" d="M15.898 8.602a.563.563 0 010 .796l-4.5 4.5a.561.561 0 11-.796-.796l3.54-3.54H3.5a.562.562 0 110-1.124h10.643l-3.54-3.54a.561.561 0 11.795-.795l4.5 4.5z" fill="#F2F4F6"/></svg><svg fill="none" viewBox="0 0 15 12" id="burger" xmlns="http://www.w3.org/2000/svg"><path fill-rule="evenodd" clip-rule="evenodd" d="M0 0h15v1.5H0V0zm0 5.25h15v1.5H0v-1.5zm15 5.25H0V12h15v-1.5z" fill="#0BBA74"/></svg><svg aria-hidden="true" viewBox="0 0 24 24" data-icon="GlobalOutlined" font-size="20" id="lang"><path d="M12 22C6.477 22 2 17.523 2 12S6.477 2 12 2s10 4.477 10 10-4.477 10-10 10zm-2.29-2.333A17.9 17.9 0 018.027 13H4.062a8.008 8.008 0 005.648 6.667zM10.03 13c.151 2.439.848 4.73 1.97 6.752A15.906 15.906 0 0013.97 13h-3.94zm9.908 0h-3.965a17.9 17.9 0 01-1.683 6.667A8.008 8.008 0 0019.938 13zM4.062 11h3.965A17.9 17.9 0 019.71 4.333 8.008 8.008 0 004.062 11zm5.969 0h3.938A15.904 15.904 0 0012 4.248 15.906 15.906 0 0010.03 11h.001zm4.259-6.667A17.9 17.9 0 0115.973 11h3.965a8.008 8.008 0 00-5.648-6.667z"/></svg><svg fill="none" viewBox="0 0 24 24" id="play-video" xmlns="http://www.w3.org/2000/svg"><path d="M15.6 12.81l-.546-.839-.014.01-.014.009.573.82zm0-1.377l-.594.806.045.032.048.028.5-.866zm-5.516-4.061l.593-.805-.028-.021-.03-.019-.535.845zm-1.156.607l1-.003V7.958l-1 .02zm.023 7.977l-1 .003v.029l.001.028.999-.06zm1.198.665l.485.875.046-.025.043-.03-.574-.82zM12 20.6A8.6 8.6 0 013.4 12h-2c0 5.854 4.747 10.6 10.6 10.6v-2zm8.6-8.6a8.6 8.6 0 01-8.6 8.6v2c5.855 0 10.6-4.746 10.6-10.6h-2zM12 3.4a8.6 8.6 0 018.6 8.6h2c0-5.854-4.745-10.6-10.6-10.6v2zm0-2C6.147 1.4 1.4 6.146 1.4 12h2A8.6 8.6 0 0112 3.4v-2zm4.146 12.248c.434-.283.983-.788.982-1.548 0-.783-.578-1.273-1.027-1.533L15.099 12.3c.104.06.124.092.11.073a.452.452 0 01-.082-.27c0-.143.056-.227.065-.24.004-.005-.027.037-.138.11l1.09 1.676zm.047-3.02l-5.515-4.061-1.186 1.61 5.515 4.062 1.186-1.611zm-5.573-4.1c-.47-.299-1.132-.47-1.757-.178-.68.318-.947 1.002-.934 1.649l2-.04c-.002-.06.01-.04-.02.018a.434.434 0 01-.2.185c-.185.087-.26-.01-.16.055l1.07-1.69zM7.928 7.98l.023 7.978 2-.006-.023-7.977-2 .005zm.024 8.035c.032.534.218 1.246.888 1.604.66.353 1.348.123 1.793-.124l-.968-1.75c-.099.055-.138.058-.122.056a.42.42 0 01.24.054.43.43 0 01.185.179c.008.017-.012-.017-.02-.138l-1.996.119zm2.77 1.425l5.45-3.812-1.146-1.639-5.45 3.812 1.146 1.639z" fill="#F2F4F6"/></svg><svg fill="none" viewBox="0 0 24 24" id="profile" xmlns="http://www.w3.org/2000/svg"><path d="M5 17.875c1.05-1.75 3.349-2.948 6.937-2.948s5.887 1.198 6.937 2.948M14.787 8.85a2.85 2.85 0 11-5.7 0 2.85 2.85 0 015.7 0z" stroke="#F2F4F6" stroke-width="2" stroke-linecap="round"/></svg></svg>