<svg width="12" height="12" viewBox="0 0 12 12" fill="none" xmlns="http://www.w3.org/2000/svg">
    <path d="M3.34359 10.7565C3.19612 10.6089 3.11328 10.4087 3.11328 10.2C3.11328 9.99133 3.19612 9.79118 3.34359 9.64352L6.98709 6.00002L3.34359 2.35652C3.20448 2.20724 3.12875 2.00979 3.13235 1.80577C3.13595 1.60176 3.2186 1.4071 3.36289 1.26282C3.50717 1.11854 3.70182 1.03589 3.90584 1.03229C4.10986 1.02869 4.3073 1.10442 4.45659 1.24352L8.65659 5.44352C8.80406 5.59118 8.88689 5.79133 8.88689 6.00002C8.88689 6.20871 8.80406 6.40887 8.65659 6.55652L4.45659 10.7565C4.30893 10.904 4.10878 10.9868 3.90009 10.9868C3.6914 10.9868 3.49124 10.904 3.34359 10.7565Z" fill="#292A2F"/>
  </svg>