<svg width="16" height="16" viewBox="0 0 16 16" fill="none" xmlns="http://www.w3.org/2000/svg">
<path d="M3.15488 4.90874H1.62363C1.41988 4.90874 1.25488 4.74374 1.25488 4.53999V3.63749C1.25488 3.43374 1.41988 3.26874 1.62363 3.26874H3.15488C3.35863 3.26874 3.52363 3.43374 3.52363 3.63749V4.53999C3.52324 4.63766 3.48426 4.73123 3.41519 4.8003C3.34612 4.86937 3.25256 4.90834 3.15488 4.90874Z" fill="#90A4AE"/>
<path d="M2.03516 5.06501H1.53516V3.76501C1.53516 3.62751 1.64766 3.51501 1.78516 3.51501C1.92266 3.51501 2.03516 3.62751 2.03516 3.76501V5.06501Z" fill="#94D1E0"/>
<path d="M5.29492 4.47499H4.60617C4.46867 4.47499 4.35742 4.36374 4.35742 4.22624V3.53749C4.35742 3.39999 4.42367 3.33999 4.60617 3.28874C4.78867 3.23749 5.12117 3.23124 5.29492 3.28874C5.43742 3.33624 5.54367 3.39999 5.54367 3.53749V4.22624C5.54367 4.36374 5.43117 4.47499 5.29492 4.47499Z" fill="#546E7A"/>
<path d="M0.5 7.36249H15.5V14.88H0.5V7.36249Z" fill="#212121"/>
<path d="M0.5 14.71V15.0512C0.5 15.2987 0.70125 15.5 0.94875 15.5H15.0525C15.3 15.5 15.5012 15.2987 15.5012 15.0512V14.71H0.5Z" fill="#B0BEC5"/>
<path d="M5.41746 5.06876H4.48121C4.17621 5.06876 3.92871 4.82126 3.92871 4.51626V4.43501C3.92871 4.13001 4.17621 3.88251 4.48121 3.88251H5.41746C5.72246 3.88251 5.96996 4.13001 5.96996 4.43501V4.51626C5.97014 4.58886 5.95598 4.66079 5.92827 4.7279C5.90057 4.79502 5.85988 4.856 5.80854 4.90734C5.7572 4.95868 5.69622 4.99937 5.62911 5.02707C5.56199 5.05477 5.49007 5.06894 5.41746 5.06876Z" fill="#90A4AE"/>
<path d="M15.2163 4.26999H1.00625C0.72625 4.26999 0.5 4.49624 0.5 4.77624V7.49124H15.5V4.55374C15.5 4.39624 15.3725 4.26999 15.2163 4.26999Z" fill="#B0BEC5"/>
<path d="M14.0615 6.905H11.7927C11.7291 6.905 11.668 6.87971 11.623 6.83471C11.578 6.7897 11.5527 6.72865 11.5527 6.665V5.08375C11.5527 4.95125 11.6602 4.84375 11.7927 4.84375H14.0615C14.194 4.84375 14.3015 4.95125 14.3015 5.08375V6.66625C14.3015 6.7975 14.1952 6.905 14.0615 6.905Z" fill="#78909C"/>
<path d="M11.5527 6.605V5.11C11.5527 4.9625 11.6715 4.84375 11.819 4.84375H14.0427C14.1677 4.84375 14.219 4.9125 14.219 4.9125L11.639 6.84C11.639 6.84 11.5527 6.7875 11.5527 6.605Z" fill="#757575"/>
<path d="M12.0547 5.22H13.7984V6.52875H12.0547V5.22Z" fill="#212121"/>
<path d="M1.3225 14.4838H0.7125C0.595 14.4838 0.5 14.3888 0.5 14.2713V8.53501C0.5 8.41751 0.595 8.32251 0.7125 8.32251H1.3225C1.44 8.32251 1.535 8.41751 1.535 8.53501V14.2713C1.535 14.3888 1.43875 14.4838 1.3225 14.4838ZM15.285 14.4838H14.675C14.5575 14.4838 14.4625 14.3888 14.4625 14.2713V8.53501C14.4625 8.41751 14.5575 8.32251 14.675 8.32251H15.285C15.4025 8.32251 15.4975 8.41751 15.4975 8.53501V14.2713C15.4975 14.3888 15.4025 14.4838 15.285 14.4838Z" fill="#616161"/>
<path d="M1.00488 15.33C0.867383 15.33 0.754883 15.2175 0.754883 15.08V14.775H1.25488V15.08C1.25488 15.1463 1.22854 15.2099 1.18166 15.2568C1.13478 15.3037 1.07119 15.33 1.00488 15.33ZM15.2324 7.31501H14.7324V4.76501C14.7324 4.62751 14.8449 4.51501 14.9824 4.51501C15.1199 4.51501 15.2324 4.62751 15.2324 4.76501V7.31501ZM1.39488 7.31501H0.894883V4.76501C0.894883 4.62751 1.00738 4.51501 1.14488 4.51501C1.28238 4.51501 1.39488 4.62751 1.39488 4.76501V7.31501ZM14.9824 15.33C14.8449 15.33 14.7324 15.2175 14.7324 15.08V14.775H15.2324V15.08C15.2324 15.1463 15.206 15.2099 15.1592 15.2568C15.1123 15.3037 15.0487 15.33 14.9824 15.33Z" fill="#B9E4EA"/>
<path d="M7.59715 6.3025C7.56965 6.3025 7.5459 6.28 7.5459 6.25125V4.9575C7.5459 4.93 7.5684 4.90625 7.59715 4.90625H10.4996C10.5271 4.90625 10.5509 4.92875 10.5509 4.9575V6.25125C10.5509 6.27875 10.5284 6.3025 10.4996 6.3025H7.59715Z" fill="#FCEBCD"/>
<path d="M10.4871 4.97V6.24H7.60965V4.97H10.4871ZM10.4996 4.84375H7.59715C7.53465 4.84375 7.4834 4.895 7.4834 4.9575V6.25125C7.4834 6.31375 7.53465 6.365 7.59715 6.365H10.4996C10.5621 6.365 10.6134 6.31375 10.6134 6.25125V4.9575C10.6134 4.895 10.5634 4.84375 10.4996 4.84375Z" fill="#78909C"/>
<path d="M8.06703 6.06124C7.97203 6.06124 7.89453 5.98374 7.89453 5.88874V5.32124C7.89453 5.22624 7.97203 5.14874 8.06703 5.14874C8.16203 5.14874 8.23953 5.22624 8.23953 5.32124V5.88874C8.23953 5.98374 8.16203 6.06124 8.06703 6.06124ZM8.55578 6.06124C8.48328 6.06124 8.42453 6.00249 8.42453 5.92999V5.27999C8.42453 5.24518 8.43836 5.2118 8.46297 5.18719C8.48759 5.16257 8.52097 5.14874 8.55578 5.14874C8.59059 5.14874 8.62397 5.16257 8.64859 5.18719C8.6732 5.2118 8.68703 5.24518 8.68703 5.27999V5.92999C8.68703 6.00249 8.62828 6.06124 8.55578 6.06124ZM8.98578 6.06124C8.96025 6.06124 8.93577 6.0511 8.91772 6.03305C8.89967 6.015 8.88953 5.99052 8.88953 5.96499V5.24624C8.88953 5.22072 8.89967 5.19623 8.91772 5.17818C8.93577 5.16013 8.96025 5.14999 8.98578 5.14999C9.01131 5.14999 9.03579 5.16013 9.05384 5.17818C9.07189 5.19623 9.08203 5.22072 9.08203 5.24624V5.96499C9.08203 6.01749 9.03953 6.06124 8.98578 6.06124Z" fill="white"/>
<path d="M9.04895 15.1375C11.3126 15.1375 13.1477 13.3024 13.1477 11.0388C13.1477 8.77508 11.3126 6.94 9.04895 6.94C6.78527 6.94 4.9502 8.77508 4.9502 11.0388C4.9502 13.3024 6.78527 15.1375 9.04895 15.1375Z" fill="#616161"/>
<path d="M9.04898 14.5975C11.0144 14.5975 12.6077 13.0042 12.6077 11.0388C12.6077 9.07332 11.0144 7.48001 9.04898 7.48001C7.08354 7.48001 5.49023 9.07332 5.49023 11.0388C5.49023 13.0042 7.08354 14.5975 9.04898 14.5975Z" fill="#E0E0E0"/>
<path d="M9.04906 13.58C10.4526 13.58 11.5903 12.4422 11.5903 11.0387C11.5903 9.63525 10.4526 8.4975 9.04906 8.4975C7.64557 8.4975 6.50781 9.63525 6.50781 11.0387C6.50781 12.4422 7.64557 13.58 9.04906 13.58Z" fill="#2F7889"/>
<path d="M9.04832 14.3087C10.8543 14.3087 12.3183 12.8447 12.3183 11.0387C12.3183 9.23277 10.8543 7.76874 9.04832 7.76874C7.24235 7.76874 5.77832 9.23277 5.77832 11.0387C5.77832 12.8447 7.24235 14.3087 9.04832 14.3087Z" fill="black"/>
<path d="M9.04914 13.5313C10.4257 13.5313 11.5416 12.4153 11.5416 11.0388C11.5416 9.66219 10.4257 8.54626 9.04914 8.54626C7.67257 8.54626 6.55664 9.66219 6.55664 11.0388C6.55664 12.4153 7.67257 13.5313 9.04914 13.5313Z" fill="#2F7889"/>
<path d="M8.45922 8.94749C7.67047 9.12624 7.19922 9.89374 7.19922 10.46C7.19922 10.9187 7.50297 10.8037 7.60047 10.6375C7.85172 10.2112 8.15547 9.85624 8.67922 9.70749C8.88922 9.64749 9.13422 9.51624 9.10922 9.27124C9.07422 8.92249 8.72797 8.88624 8.45922 8.94749Z" fill="#94D1E0"/>
<path opacity="0.25" d="M9.04902 12.1512C9.66344 12.1512 10.1615 11.6532 10.1615 11.0387C10.1615 10.4243 9.66344 9.92624 9.04902 9.92624C8.43461 9.92624 7.93652 10.4243 7.93652 11.0387C7.93652 11.6532 8.43461 12.1512 9.04902 12.1512Z" fill="black"/>
</svg>
