<svg width="16" height="16" viewBox="0 0 16 16" fill="none" xmlns="http://www.w3.org/2000/svg">
<g clip-path="url(#clip0_3895_4016)">
<path d="M0.5 0.5H15.5V15.5H0.5V0.5Z" fill="white"/>
<path d="M15.4998 3.04376H0.696055M15.4998 5.45876H0.683555M15.4998 7.87376H0.669805M15.4998 10.2888H0.657305M15.4998 12.705H0.643555" stroke="#B0BEC5" stroke-width="2" stroke-miterlimit="10"/>
<path d="M4.84008 15.2387H2.73633V6.92249C2.73633 6.75249 2.87383 6.61499 3.04383 6.61499H4.53258C4.70258 6.61499 4.84008 6.75249 4.84008 6.92249V15.2387Z" fill="#9CCC65"/>
<path d="M9.05227 15.2387H6.94727V9.35499C6.94727 9.18499 7.08477 9.04749 7.25477 9.04749H8.74352C8.91351 9.04749 9.05102 9.18499 9.05102 9.35499V15.2387H9.05227Z" fill="#F44336"/>
<path d="M12.9554 15.2387H11.4667C11.2967 15.2387 11.1592 15.1012 11.1592 14.9312V3.23249C11.1592 3.06249 11.2967 2.92499 11.4667 2.92499H12.9554C13.1254 2.92499 13.2629 3.06249 13.2629 3.23249V14.9312C13.2629 15.1012 13.1254 15.2387 12.9554 15.2387Z" fill="#0091EA"/>
<path d="M15.5 15H1V0.5H0.5V15.5H15.5V15Z" fill="#B0BEC5"/>
<path d="M15.25 0.75V15.25H0.75V0.75H15.25ZM15.5 0.5H0.5V15.5H15.5V0.5Z" fill="#B0BEC5"/>
</g>
<defs>
<clipPath id="clip0_3895_4016">
<rect width="16" height="16" fill="white"/>
</clipPath>
</defs>
</svg>
