<svg width="16" height="16" viewBox="0 0 16 16" fill="none" xmlns="http://www.w3.org/2000/svg">
<path d="M8.94863 8.57251H7.34363C7.34363 11.1175 6.81738 12.1375 6.81738 12.1375H9.47488C9.47488 12.1363 8.94863 11.1163 8.94863 8.57251Z" fill="#B7D5E5"/>
<path d="M4.92594 12.2713C4.91719 12.1288 4.93844 11.9413 4.93844 11.9413C4.93844 11.9413 10.5934 11.7063 11.0422 11.93C11.0422 11.93 11.1022 12.1375 11.0609 12.2725C10.9622 12.5888 9.68719 12.8725 7.99219 12.8725C6.29719 12.8725 4.94594 12.6025 4.92594 12.2713Z" fill="#2F7889"/>
<path d="M8.00039 12.595C9.69521 12.595 11.0691 12.3264 11.0691 11.995C11.0691 11.6636 9.69521 11.395 8.00039 11.395C6.30557 11.395 4.93164 11.6636 4.93164 11.995C4.93164 12.3264 6.30557 12.595 8.00039 12.595Z" fill="#B7D5E5"/>
<path d="M8.94914 8.57251H7.34414C7.34414 9.40251 7.28789 10.07 7.21289 10.5925L9.12664 10.88C9.02914 10.3213 8.94914 9.56251 8.94914 8.57251Z" fill="#69A1BA"/>
<path d="M6.9358 11.4325C6.9358 11.4325 6.4708 11.6225 6.5758 11.7612C6.7383 11.9787 7.19205 12.115 8.28955 12.1887C9.0608 12.24 8.7583 12.455 8.0333 12.4987C7.52455 12.5287 5.0858 12.5487 4.9408 12.04C4.8233 11.6262 6.5883 11.4325 6.9358 11.4325ZM12.4246 13.3137H3.5608C3.43955 13.3137 3.3183 13.3812 3.2508 13.4887L2.2783 14.8262C2.1883 14.9487 2.27705 15.1212 2.4283 15.1212H13.5696C13.7221 15.1212 13.8096 14.9487 13.7196 14.8262L12.7346 13.4762C12.6683 13.3812 12.5471 13.3137 12.4246 13.3137Z" fill="#EEEEEE"/>
<path opacity="0.57" d="M4.45168 13.9075H3.84418L3.92543 13.76H4.53293L4.45168 13.9075ZM5.41043 13.9075H4.80293L4.87043 13.76H5.50418L5.41043 13.9075ZM6.32793 13.9075H5.70668L5.80168 13.76H6.40793L6.32793 13.9075ZM7.23168 13.9075H6.62418L6.71918 13.76H7.29918L7.23168 13.9075ZM8.13543 13.9075H7.51418L7.56918 13.76H8.08168L8.13543 13.9075ZM9.03918 13.9075H8.43168L8.36418 13.76H8.94543L9.03918 13.9075ZM9.98418 13.9075H9.36293L9.25543 13.76H9.86293L9.98418 13.9075ZM10.8879 13.9075H10.2667L10.1592 13.76H10.7804L10.8879 13.9075ZM12.1154 13.9075H11.1842L11.0767 13.76H12.0217L12.1154 13.9075ZM11.6429 14.1513H12.2504L12.1429 13.9888H11.5217L11.6429 14.1513ZM10.6454 14.1513H11.2517L11.1304 13.9888H10.5229L10.6454 14.1513ZM9.72793 14.1513H10.3342L10.2404 13.9888H9.61918L9.72793 14.1513ZM8.74293 14.1513H9.34918L9.24168 13.9888H8.66168L8.74293 14.1513ZM7.86543 14.1513H8.47293L8.40543 13.9888H7.89293L7.86543 14.1513ZM6.98793 14.1513H7.59543L7.63668 13.9888H7.04293L6.98793 14.1513ZM6.03043 14.1513H6.63793L6.71918 13.9888H6.12543L6.03043 14.1513ZM4.95168 14.1513H5.57168L5.66668 13.9888H5.04543L4.95168 14.1513ZM3.71043 14.1513H4.62793L4.72168 13.9888H3.79043L3.71043 14.1513ZM9.51168 14.3938H10.1317L10.0242 14.2313H9.40418L9.51168 14.3938ZM8.54043 14.3938H9.14668L9.06668 14.2313H8.48668L8.54043 14.3938ZM7.37918 14.3938H8.00043L7.98668 14.2313H7.43418L7.37918 14.3938ZM6.28668 14.3938H6.90793L6.96168 14.2313H6.36793L6.28668 14.3938ZM5.14043 14.3938H5.74668L5.84168 14.2313H5.23418L5.14043 14.3938ZM3.58793 14.3938H4.81668L4.91043 14.2313H3.68293L3.58793 14.3938ZM10.5504 14.3938H12.3854L12.2779 14.2313H10.4429L10.5504 14.3938ZM11.9404 14.6363H12.5604L12.4392 14.475H11.8192L11.9404 14.6363ZM10.8067 14.6363H11.4142L11.2929 14.475H10.6854L10.8067 14.6363ZM5.90918 14.6363H10.0779L9.98418 14.475H6.00293L5.90918 14.6363ZM4.60043 14.6363H5.22043L5.28793 14.475H4.69418L4.60043 14.6363ZM3.44043 14.6363H4.04668L4.11418 14.475H3.52043L3.44043 14.6363Z" fill="#69A1BA"/>
<path d="M13.5865 15.5H2.41398C2.30398 15.5 2.20898 15.405 2.20898 15.2975V14.9975H13.794V15.2975C13.7927 15.405 13.6965 15.5 13.5865 15.5Z" fill="#2F7889"/>
<path d="M12.4253 13.44C12.5016 13.44 12.5878 13.485 12.6341 13.55L13.6616 14.9588C13.6678 14.9663 13.6678 14.975 13.6641 14.9838C13.6591 14.9925 13.6528 14.9963 13.6428 14.9963H2.35784C2.34784 14.9963 2.34159 14.9925 2.33659 14.9838C2.33422 14.9799 2.33317 14.9753 2.33363 14.9708C2.33408 14.9663 2.336 14.9621 2.33909 14.9588L3.35409 13.5638L3.35659 13.56L3.35909 13.5563C3.40284 13.485 3.48284 13.44 3.56284 13.44H12.4253ZM12.4253 13.3138H3.56159C3.44034 13.3138 3.31909 13.3813 3.25159 13.4888L2.23659 14.8838C2.16534 14.9825 2.23534 15.1213 2.35784 15.1213H13.6441C13.7666 15.1213 13.8366 14.9825 13.7653 14.8838L12.7378 13.475C12.6691 13.3813 12.5478 13.3138 12.4253 13.3138Z" fill="#B7D5E5"/>
<path d="M14.1827 9.9575H1.8177C1.70365 9.9575 1.59428 9.9122 1.51364 9.83156C1.433 9.75092 1.3877 9.64155 1.3877 9.5275V1.1525C1.3877 0.915004 1.5802 0.722504 1.8177 0.722504H14.1814C14.4189 0.722504 14.6114 0.915004 14.6114 1.1525V9.5275C14.6127 9.765 14.4202 9.9575 14.1827 9.9575Z" fill="#69A1BA"/>
<path d="M14.1827 9.73625H1.8177C1.70365 9.73625 1.59428 9.69095 1.51364 9.61031C1.433 9.52966 1.3877 9.42029 1.3877 9.30625V0.931251C1.3877 0.693751 1.5802 0.501251 1.8177 0.501251H14.1814C14.4189 0.501251 14.6114 0.693751 14.6114 0.931251V9.30625C14.6116 9.36265 14.6006 9.41853 14.5791 9.47069C14.5577 9.52285 14.5261 9.57025 14.4863 9.61019C14.4464 9.65014 14.3991 9.68183 14.347 9.70346C14.2949 9.72509 14.2391 9.73623 14.1827 9.73625Z" fill="#B7D5E5"/>
<path d="M1.90625 1.17249H14.0938V9.06249H1.90625V1.17249Z" fill="url(#paint0_radial_3895_4024)"/>
<path d="M2.04883 0.873749H3.44758" stroke="#EEEEEE" stroke-width="0.3" stroke-miterlimit="10" stroke-linecap="round"/>
<defs>
<radialGradient id="paint0_radial_3895_4024" cx="0" cy="0" r="1" gradientUnits="userSpaceOnUse" gradientTransform="translate(5.80813 -0.647015) scale(7.62163)">
<stop stop-color="#2F7889"/>
<stop offset="1" stop-color="#424242"/>
</radialGradient>
</defs>
</svg>
