<svg width="16" height="16" viewBox="0 0 16 16" fill="none" xmlns="http://www.w3.org/2000/svg">
<g clip-path="url(#clip0_3895_3998)">
<path d="M5.12672 14.335L3.85547 10.4325L5.73297 10.5437L5.82547 11.6412C5.94047 11.8575 6.21172 11.9562 6.32672 12.1725C6.38547 12.2837 6.39547 12.415 6.37922 12.54C6.34547 12.7987 6.20922 13.0787 6.34172 13.305C6.49797 13.5712 6.88797 13.6475 6.87547 14.0137C6.86297 14.3487 5.28922 14.8037 5.12672 14.335Z" fill="#C62828"/>
<path d="M4.93645 15.1763L4.8177 15.2175C4.70632 15.2562 4.58841 15.2726 4.4707 15.2657C4.35299 15.2588 4.23779 15.2288 4.13169 15.1774C4.02559 15.126 3.93066 15.0541 3.85233 14.966C3.774 14.8779 3.71381 14.7752 3.6752 14.6638L2.2002 10.41H4.2327C4.3052 10.6175 4.3302 10.6938 4.40395 10.9013C4.47145 11.09 4.56395 11.1838 4.50395 11.3838C4.44395 11.5813 4.39395 11.8063 4.49645 11.9988C4.61145 12.215 4.8827 12.3138 4.9977 12.53C5.05645 12.6413 5.06645 12.7725 5.0502 12.8975C5.01645 13.1563 4.8802 13.4363 5.0127 13.6625C5.16895 13.9288 5.55895 14.005 5.54645 14.3713C5.5352 14.7063 5.25145 15.0675 4.93645 15.1763Z" fill="#F44336"/>
<path d="M4.97207 13.2725C4.92457 13.4675 5.04082 13.4938 5.15832 13.4963C5.44457 13.5038 5.82207 13.3888 6.00832 13.305C6.07957 13.2738 6.14582 13.2325 6.20582 13.1863C6.25082 13.1513 6.28082 13.1 6.28457 13.0438C6.29332 12.88 6.35582 12.7063 6.37707 12.54C6.38582 12.4713 6.38582 12.4 6.37457 12.3325C6.36582 12.2788 6.30332 12.2513 6.25582 12.2775C6.13582 12.3438 5.92207 12.4538 5.77957 12.4825C5.49707 12.54 5.32332 12.535 5.20082 12.5375C5.10957 12.5388 5.03707 12.62 5.04957 12.71C5.05832 12.7725 5.05707 12.8363 5.04957 12.8975C5.03332 13.02 5.00207 13.1488 4.97207 13.2725ZM5.54582 14.37C5.37832 14.9025 4.96082 15.0875 4.52457 15.1163C4.10207 15.145 3.80957 14.9088 3.80957 14.9088C4.41457 15.8188 5.96707 15.2525 6.28207 15.08C6.76332 14.8163 6.84332 14.5488 6.87457 14.045C6.87707 14.0138 6.82457 13.9075 6.72582 13.9875C6.57582 14.1075 6.40582 14.1513 6.21582 14.19C5.98207 14.2375 5.85707 14.2238 5.76207 14.23C5.63957 14.2375 5.57832 14.265 5.54582 14.37Z" fill="#A12524"/>
<path d="M2.2002 10.41L2.59145 11.545C2.59145 11.545 2.8302 11.0138 3.7802 11.1113C4.42395 11.1775 4.61645 11.4025 4.61645 11.4025L4.6577 10.4425L2.2002 10.41Z" fill="#C62828"/>
<path d="M12.895 13.83C12.895 13.83 8.66875 10.7012 5.155 10.6075C3.64375 10.5675 2.5475 10.5637 2.28375 10.5637C1.45625 10.565 0.5 9.38874 0.5 7.31874C0.5 5.24874 1.57625 3.85249 2.40375 3.85249C2.52625 3.85249 3.835 3.92999 5.4175 3.88499C9.14 3.77999 12.895 0.807495 12.895 0.807495V13.83Z" fill="#E0E0E0"/>
<path d="M10.0176 9.1825C9.87637 9.435 9.87387 10.01 9.91137 10.5425C9.93887 10.9237 9.55762 11.2062 9.20137 11.0662C6.77137 10.1187 4.77637 10.2037 4.77637 10.2037L4.87262 10.6L5.15387 10.6075C7.27637 10.6637 9.65887 11.8275 11.2126 12.7412C11.2126 12.7412 10.7326 12.0512 10.4876 11.1087C10.2339 10.1262 10.0176 9.1825 10.0176 9.1825Z" fill="#BDBDBD"/>
<path d="M4.28375 7.31876C4.28375 6.13751 4.67 4.81251 5.15375 3.89126C3.6925 3.92126 2.52 3.85251 2.40375 3.85251C1.57625 3.85251 0.5 5.24876 0.5 7.31876C0.5 9.38876 1.45625 10.5638 2.285 10.5638C2.54875 10.5638 3.645 10.5675 5.15625 10.6075C5.165 10.6075 5.175 10.6088 5.18375 10.6088C4.62375 9.60376 4.28375 8.49626 4.28375 7.31876Z" fill="#F44336"/>
<path d="M12.895 13.83C14.3337 13.83 15.5 10.9148 15.5 7.31874C15.5 3.72268 14.3337 0.807495 12.895 0.807495C11.4563 0.807495 10.29 3.72268 10.29 7.31874C10.29 10.9148 11.4563 13.83 12.895 13.83Z" fill="#2F7889"/>
<path d="M10.4048 5.41376C10.331 6.01626 10.291 6.65626 10.291 7.32001C10.291 10.9163 11.4573 13.8313 12.896 13.8313C14.3348 13.8313 15.501 10.9163 15.501 7.32001C15.501 6.65626 15.461 6.01751 15.3873 5.41376H10.4048Z" fill="url(#paint0_linear_3895_3998)"/>
<path d="M12.895 14.205C11.1963 14.205 9.91504 11.245 9.91504 7.31875C9.91504 3.3925 11.1963 0.432495 12.895 0.432495C14.5938 0.432495 15.5 3.39375 15.5 7.31875C15.5 11.245 14.5938 14.205 12.895 14.205ZM12.895 1.1825C11.84 1.1825 10.665 3.7025 10.665 7.31875C10.665 10.935 11.84 13.455 12.895 13.455C13.95 13.455 15.125 10.935 15.125 7.31875C15.125 3.7025 13.95 1.1825 12.895 1.1825Z" fill="#E0E0E0"/>
<path d="M11.1949 2.90501C11.0824 3.21001 10.6761 3.88626 10.4886 6.11126C10.4824 6.18626 10.4411 6.51626 10.2574 6.51626C10.1349 6.51626 10.0986 6.33126 10.0986 6.07626C10.0986 5.08251 10.2636 3.98626 10.6474 2.90376C10.8649 2.29251 11.3511 2.48501 11.1949 2.90501Z" fill="white"/>
<path d="M10.7379 5.81125L13.1004 6.08625V8.57375L10.7554 8.99625C10.6004 7.03 10.7379 5.81125 10.7379 5.81125Z" fill="url(#paint1_radial_3895_3998)"/>
<path d="M13.0998 8.57499C13.4256 8.57499 13.6898 8.01815 13.6898 7.33124C13.6898 6.64434 13.4256 6.08749 13.0998 6.08749C12.7739 6.08749 12.5098 6.64434 12.5098 7.33124C12.5098 8.01815 12.7739 8.57499 13.0998 8.57499Z" fill="#E0E0E0"/>
<path d="M4.77832 10.925L4.68457 11.0875L5.08582 11.8712C5.13457 11.9662 5.23957 12.0187 5.34457 11.9987L6.02207 11.8625C6.02207 11.8625 6.21082 11.5937 6.24707 11.5325C6.28332 11.4712 6.26957 11.435 6.26957 11.435L5.49957 11.5825C5.49832 11.5825 4.80332 10.9325 4.77832 10.925Z" fill="#353738"/>
<path d="M5.29148 11.495L4.77148 10.9287L5.70773 10.925L6.23773 11.3837C6.30148 11.4512 6.26023 11.535 6.16898 11.55L5.64273 11.6325C5.51023 11.6525 5.37648 11.6012 5.29148 11.495Z" fill="#616161"/>
<path d="M7.18871 4.69125C7.98121 4.58625 8.76371 4.345 9.43371 3.90875C9.04496 4.9525 8.85996 6.21 9.00371 7.31625C8.63371 7.13375 8.25996 6.95125 7.86496 6.83375C7.53496 6.73625 7.19371 6.685 6.85246 6.645C5.99371 6.54125 5.19871 6.525 4.33496 6.54125C4.35996 6.54125 4.42871 5.9575 4.53371 5.5225C4.63871 5.0875 4.74621 4.835 4.74621 4.835C4.74621 4.835 6.43746 4.79125 7.18871 4.69125Z" fill="white"/>
<path d="M4.41027 4.78125C3.19777 4.8175 1.84402 4.83375 1.84402 4.83375C1.84402 4.83375 1.23277 5.36625 1.12402 6.54C1.12402 6.54 2.56777 6.54 3.87902 6.56375C3.97152 5.71875 4.24402 5.095 4.41027 4.78125Z" fill="#FF7555"/>
</g>
<defs>
<linearGradient id="paint0_linear_3895_3998" x1="12.8953" y1="12.9784" x2="12.8953" y2="5.65276" gradientUnits="userSpaceOnUse">
<stop stop-color="#353738"/>
<stop offset="1" stop-color="#353738" stop-opacity="0"/>
</linearGradient>
<radialGradient id="paint1_radial_3895_3998" cx="0" cy="0" r="1" gradientUnits="userSpaceOnUse" gradientTransform="translate(12.6513 7.531) scale(2.61475 4.449)">
<stop offset="0.416" stop-color="#82AEC0"/>
<stop offset="1" stop-color="#7FA9BB" stop-opacity="0"/>
</radialGradient>
<clipPath id="clip0_3895_3998">
<rect width="16" height="16" fill="white"/>
</clipPath>
</defs>
</svg>
