<svg width="16" height="16" viewBox="0 0 16 16" fill="none" xmlns="http://www.w3.org/2000/svg">
<g clip-path="url(#clip0_3895_3989)">
<path d="M7.97748 10.315C8.14623 9.83 8.27123 8.07875 6.35123 7.26625C4.61123 6.53 2.38123 7.6375 2.13248 7.895C1.70748 8.3375 1.38998 12.0625 1.38998 12.0625C1.36145 12.3428 1.35351 12.6248 1.36623 12.9063C1.37748 13.1475 1.41373 13.4125 1.59498 13.5738C1.70748 13.6737 1.85998 13.7163 2.00998 13.7238C2.38873 13.7438 2.74498 13.56 3.06248 13.3513C3.37498 13.8963 3.66748 14.405 3.74123 14.5188C3.91248 14.7875 4.09998 14.945 4.28998 14.97C4.68248 15.02 5.31498 14.8675 5.35123 14.07C5.37748 13.4887 5.02998 12.9238 5.02998 12.9238C5.38498 12.875 6.35873 14.17 6.68873 14.4275C6.93623 14.62 7.33748 14.6413 7.59623 14.4638C7.82748 14.3038 8.01748 14.0875 7.88998 13.5475C7.71873 12.8238 7.15748 12.2688 6.79123 12.0588C6.79123 12.0588 7.80873 10.8 7.97748 10.315Z" fill="#EDA600"/>
<path d="M14.5162 8.9925C14.1962 9.01875 13.5912 8.97625 13.2912 8.835C12.0987 8.275 8.11748 5.69499 8.11748 5.69499C7.68498 5.45999 6.33248 5.27999 5.79498 5.41374L2.32123 6.62249C1.57998 6.75749 0.986226 7.25875 1.00373 8.335C1.00623 8.49125 1.02373 8.81375 1.03123 8.9825C1.06248 9.3825 1.14748 10.4137 0.911226 11.05C0.646226 11.7662 0.446226 12.4 0.842476 12.5737C1.62623 12.9187 2.11748 12.545 2.33498 12.2C2.88998 11.3225 3.15748 9.85 3.17248 9.28125C3.17451 9.20548 3.16907 9.12969 3.15623 9.055C3.15623 9.05125 3.15623 9.04624 3.15748 9.0425C3.15748 9.0425 5.37748 9.04 6.60998 8.70625C6.60998 8.70625 7.11748 9.39 6.97623 10.3012C6.89998 10.7962 10.3175 14.9812 11.5337 14.9812C12.75 14.9812 12.64 14.8362 13.5575 14.8362C13.9775 14.8362 14.4025 15.1075 14.6312 14.9812C15.01 14.7737 15.3825 13.6312 15.3825 11.7437C15.3825 9.85625 15.0187 8.95125 14.5162 8.9925Z" fill="#FFCA28"/>
<path d="M7.26289 9.72374C7.30539 9.58749 7.39164 9.32624 7.51289 9.05249C7.68914 8.65624 10.1054 6.97249 10.1054 6.97249C9.80289 6.75249 8.96664 6.23624 8.96664 6.23624C8.96664 6.23624 7.34789 7.65999 6.78414 8.55499C6.75539 8.59999 5.93164 7.86749 5.56789 7.88874C5.20414 7.90999 4.25539 8.27749 3.70164 8.56749C3.55664 8.64374 3.38039 8.59624 3.28539 8.46249C3.19664 8.33624 3.08539 8.21499 2.99039 8.14124C2.90039 8.06999 2.73664 7.99624 2.57789 7.95624C2.48414 7.93374 2.42664 8.05374 2.50039 8.11624C2.85539 8.41999 3.11414 8.87374 3.15164 9.28499L3.25539 9.81374C3.55414 9.77624 6.55414 10.1675 6.55414 10.1675C6.55414 10.1675 8.07914 10.2312 8.11164 10.155C8.13539 10.1 7.68164 9.82374 7.26289 9.72374Z" fill="#EDA600"/>
<path d="M3.25618 14.105L1.82618 14.9412C1.63868 15.0512 1.40993 14.8862 1.45368 14.6737L1.79493 13.0525C1.82868 12.895 1.89368 12.745 1.98868 12.6137L10.3424 1.17874C10.4424 1.03999 10.6099 0.966245 10.7787 0.987495C10.9549 1.00999 11.1987 1.08749 11.4899 1.29624C11.7812 1.50624 11.9312 1.71249 12.0087 1.87249C12.0447 1.94831 12.0596 2.03242 12.0519 2.11599C12.0443 2.19957 12.0142 2.27954 11.9649 2.34749L3.61118 13.7825C3.51643 13.9134 3.39555 14.0232 3.25618 14.105Z" fill="#78909C"/>
<path d="M4.01523 13.2288L2.43273 12.005L1.98898 12.6125C1.8944 12.7436 1.82839 12.8931 1.79523 13.0513L1.45398 14.6725C1.40898 14.885 1.63773 15.05 1.82648 14.94L3.25648 14.1038C3.39612 14.0223 3.51707 13.9125 3.61148 13.7813L4.01523 13.2288Z" fill="#78909C"/>
<path d="M10.6101 10.4625C10.6101 10.4625 6.9788 9.67625 5.71005 10.195C5.0838 10.4513 4.32255 11.1188 3.9188 11.2288C3.51505 11.3388 3.1163 11.4388 2.78005 11.5338C1.9638 11.7613 2.10505 13.0063 2.9363 13.4225C3.67005 13.7888 3.84755 13.5525 4.49005 13.475C5.45255 13.3588 5.7363 13.2025 6.1363 13.1513C6.71005 13.0775 7.9263 13.2375 8.39755 13.5063C8.80005 13.735 9.8613 14.9975 11.5663 14.9975C13.4163 14.9775 13.5563 14.1463 14.2626 13.0763C14.3926 12.8775 10.6101 10.4625 10.6101 10.4625Z" fill="#FFCA28"/>
<path d="M14.2034 14.56C14.0209 14.5087 13.7946 14.4437 13.5546 14.4437C13.0984 14.4437 12.8671 14.4787 12.6446 14.5137C12.4671 14.5412 12.2834 14.5687 11.9534 14.5825H11.9434L11.9334 14.5837C11.8121 14.595 11.6896 14.6012 11.5659 14.6025C10.3671 14.6025 9.38335 13.9362 8.87085 13.5112C8.7096 13.3775 8.1846 13.0112 7.7246 12.8787C6.69335 12.5812 5.6296 12.865 5.4546 12.9112C5.1996 12.9775 4.52085 13.2925 3.92835 13.3662C3.66085 13.4 3.0171 13.3675 2.5746 12.7125C2.3721 12.4125 2.4271 11.9925 2.53335 11.6462C2.29585 11.915 2.0971 12.2775 1.4521 12.435C1.25335 12.4837 0.929601 12.4725 0.742101 12.3875C0.723351 12.3787 0.654601 12.3462 0.658351 12.3887C0.660851 12.4287 0.705851 12.4837 0.732101 12.5125C1.0671 12.8825 1.7321 12.9412 2.1821 12.5437C2.20835 12.9037 2.4171 13.28 2.7996 13.5112C3.5246 13.95 4.41835 13.7137 4.71835 13.6412C5.4371 13.4687 5.6396 13.2437 6.0396 13.195C6.26835 13.1675 7.13085 13.0387 7.9871 13.4287C8.75585 13.7787 9.86085 14.9962 11.5659 14.9962C11.7109 14.995 11.8434 14.9875 11.9684 14.9762C12.7359 14.9462 12.7659 14.8387 13.5546 14.8387C13.8959 14.8387 14.2396 15.0175 14.4796 15.0175C14.5359 15.0175 14.5859 15.0075 14.6284 14.9837C14.7559 14.9137 14.8821 14.7362 14.9946 14.4612C14.6059 14.77 14.2959 14.5862 14.2034 14.56Z" fill="#EDA600"/>
<path d="M5.24155 9.07624C5.33655 9.14249 5.4653 9.12249 5.5353 9.02999C6.3428 7.96749 10.7903 1.94749 11.0428 1.62249C11.2053 1.41374 10.7178 1.06374 10.484 1.34749L5.1878 8.77624C5.1203 8.87374 5.14405 9.00874 5.24155 9.07624Z" fill="#82AEC0"/>
</g>
<defs>
<clipPath id="clip0_3895_3989">
<rect width="16" height="16" fill="white"/>
</clipPath>
</defs>
</svg>
