<svg width="105" height="34" viewBox="0 0 105 34" fill="none" xmlns="http://www.w3.org/2000/svg">
<g clip-path="url(#clip0_663_1459)">
<path d="M7.77266 19.5557L7.70687 19.5005L1.07935 25.0897C1.68479 25.654 2.49619 26 3.38959 26H6.04689H17.9785L7.77266 19.5557Z" fill="url(#paint0_linear_663_1459)"/>
<path d="M12.2854 10.3626L0 0V7.76912L5.18207 12.1393C5.71506 12.5892 5.71506 13.4099 5.18207 13.8597L0 18.2309V22.6116C0 23.5904 0.41571 24.4712 1.07932 25.0898L7.77263 19.4442L12.2863 15.6374C13.9206 14.2591 13.9206 11.7418 12.2854 10.3626Z" fill="white"/>
<path d="M29.484 18.8218H32.2738L29.6584 15.075L29.7195 15.0483C30.4784 14.7185 31.0724 14.2362 31.4843 13.6157C31.8962 12.9952 32.105 12.246 32.105 11.3872C32.105 10.5294 31.8991 9.77642 31.4919 9.1502C31.0858 8.52399 30.4975 8.03407 29.7433 7.69284C28.9862 7.35066 28.0814 7.17719 27.0536 7.17719H22.0193V18.8209H24.6318V15.5468H27.2166L29.484 18.8218ZM24.6318 13.4908V9.2865H26.9029C27.7296 9.2865 28.3684 9.46856 28.8013 9.82789C29.238 10.1901 29.4592 10.7153 29.4592 11.3892C29.4592 12.0516 29.238 12.5739 28.8013 12.9418C28.3674 13.3069 27.7286 13.4918 26.902 13.4918H24.6318V13.4908Z" fill="white"/>
<path d="M36.9753 7.17816H34.3628V18.8218H36.9753V7.17816Z" fill="white"/>
<path d="M54.9537 7.17816L52.1763 15.6269L49.4504 7.17816H47.0104L44.1987 15.5582L41.5071 7.17816H38.8002L42.6274 18.8218H45.4544L48.1641 10.7458L50.789 18.8218H53.6322L57.4423 7.17816H54.9537Z" fill="white"/>
<path d="M66.4212 16.3036L67.4623 18.8218H70.1969L64.9891 7.17816H62.3728L57.1812 18.8218H59.8489L60.8901 16.3036H66.4212ZM63.6647 9.65158L65.6098 14.3468H61.7187L63.6647 9.65158Z" fill="white"/>
<path d="M79.783 7.17816H69.6467V9.28653H73.4091V18.8218H76.0206V9.28653H79.783V7.17816Z" fill="white"/>
<path d="M89.4052 13.9198V11.9125H83.9476V9.25221H90.127V7.17816H81.3523V18.8218H90.3454V16.7478H83.9476V13.9198H89.4052Z" fill="white"/>
<path d="M99.8839 18.8218H102.889L98.5452 12.7989L98.5681 12.7674L102.604 7.17816H99.799L97.1179 11.0298L94.3862 7.17816H91.4295L95.5218 12.8999L91.2122 18.8218H94.2003L97.0168 14.7014L99.8839 18.8218Z" fill="white"/>
</g>
<path d="M62.05 33V26H64.78C65.3933 26 65.9167 26.0967 66.35 26.29C66.7833 26.4833 67.1167 26.7633 67.35 27.13C67.5833 27.4967 67.7 27.9333 67.7 28.44C67.7 28.9467 67.5833 29.3833 67.35 29.75C67.1167 30.11 66.7833 30.39 66.35 30.59C65.9167 30.7833 65.3933 30.88 64.78 30.88H62.6L63.05 30.41V33H62.05ZM63.05 30.51L62.6 30.01H64.75C65.39 30.01 65.8733 29.8733 66.2 29.6C66.5333 29.3267 66.7 28.94 66.7 28.44C66.7 27.94 66.5333 27.5533 66.2 27.28C65.8733 27.0067 65.39 26.87 64.75 26.87H62.6L63.05 26.37V30.51ZM72.2703 33V31.88L72.2203 31.67V29.76C72.2203 29.3533 72.1003 29.04 71.8603 28.82C71.627 28.5933 71.2736 28.48 70.8003 28.48C70.487 28.48 70.1803 28.5333 69.8803 28.64C69.5803 28.74 69.327 28.8767 69.1203 29.05L68.7203 28.33C68.9936 28.11 69.3203 27.9433 69.7003 27.83C70.087 27.71 70.4903 27.65 70.9103 27.65C71.637 27.65 72.197 27.8267 72.5903 28.18C72.9836 28.5333 73.1803 29.0733 73.1803 29.8V33H72.2703ZM70.5303 33.06C70.137 33.06 69.7903 32.9933 69.4903 32.86C69.197 32.7267 68.9703 32.5433 68.8103 32.31C68.6503 32.07 68.5703 31.8 68.5703 31.5C68.5703 31.2133 68.637 30.9533 68.7703 30.72C68.9103 30.4867 69.1336 30.3 69.4403 30.16C69.7536 30.02 70.1736 29.95 70.7003 29.95H72.3803V30.64H70.7403C70.2603 30.64 69.937 30.72 69.7703 30.88C69.6036 31.04 69.5203 31.2333 69.5203 31.46C69.5203 31.72 69.6236 31.93 69.8303 32.09C70.037 32.2433 70.3236 32.32 70.6903 32.32C71.0503 32.32 71.3636 32.24 71.6303 32.08C71.9036 31.92 72.1003 31.6867 72.2203 31.38L72.4103 32.04C72.2836 32.3533 72.0603 32.6033 71.7403 32.79C71.4203 32.97 71.017 33.06 70.5303 33.06ZM74.9569 33V27.7H75.8769V29.14L75.7869 28.78C75.9335 28.4133 76.1802 28.1333 76.5269 27.94C76.8735 27.7467 77.3002 27.65 77.8069 27.65V28.58C77.7669 28.5733 77.7269 28.57 77.6869 28.57C77.6535 28.57 77.6202 28.57 77.5869 28.57C77.0735 28.57 76.6669 28.7233 76.3669 29.03C76.0669 29.3367 75.9169 29.78 75.9169 30.36V33H74.9569ZM81.0249 33.06C80.4916 33.06 80.0783 32.9167 79.7849 32.63C79.4916 32.3433 79.3449 31.9333 79.3449 31.4V26.54H80.3049V31.36C80.3049 31.6467 80.3749 31.8667 80.5149 32.02C80.6616 32.1733 80.8683 32.25 81.1349 32.25C81.4349 32.25 81.6849 32.1667 81.8849 32L82.1849 32.69C82.0383 32.8167 81.8616 32.91 81.6549 32.97C81.4549 33.03 81.2449 33.06 81.0249 33.06ZM78.4449 28.49V27.7H81.8249V28.49H78.4449ZM86.1755 27.65C86.6089 27.65 86.9889 27.7333 87.3155 27.9C87.6489 28.0667 87.9089 28.32 88.0955 28.66C88.2822 29 88.3755 29.43 88.3755 29.95V33H87.4155V30.06C87.4155 29.5467 87.2889 29.16 87.0355 28.9C86.7889 28.64 86.4389 28.51 85.9855 28.51C85.6455 28.51 85.3489 28.5767 85.0955 28.71C84.8422 28.8433 84.6455 29.04 84.5055 29.3C84.3722 29.56 84.3055 29.8833 84.3055 30.27V33H83.3455V27.7H84.2655V29.13L84.1155 28.75C84.2889 28.4033 84.5555 28.1333 84.9155 27.94C85.2755 27.7467 85.6955 27.65 86.1755 27.65ZM92.5122 33.06C91.9455 33.06 91.4455 32.9433 91.0122 32.71C90.5855 32.4767 90.2522 32.1567 90.0122 31.75C89.7789 31.3433 89.6622 30.8767 89.6622 30.35C89.6622 29.8233 89.7755 29.3567 90.0022 28.95C90.2355 28.5433 90.5522 28.2267 90.9522 28C91.3589 27.7667 91.8155 27.65 92.3222 27.65C92.8355 27.65 93.2889 27.7633 93.6822 27.99C94.0755 28.2167 94.3822 28.5367 94.6022 28.95C94.8289 29.3567 94.9422 29.8333 94.9422 30.38C94.9422 30.42 94.9389 30.4667 94.9322 30.52C94.9322 30.5733 94.9289 30.6233 94.9222 30.67H90.4122V29.98H94.4222L94.0322 30.22C94.0389 29.88 93.9689 29.5767 93.8222 29.31C93.6755 29.0433 93.4722 28.8367 93.2122 28.69C92.9589 28.5367 92.6622 28.46 92.3222 28.46C91.9889 28.46 91.6922 28.5367 91.4322 28.69C91.1722 28.8367 90.9689 29.0467 90.8222 29.32C90.6755 29.5867 90.6022 29.8933 90.6022 30.24V30.4C90.6022 30.7533 90.6822 31.07 90.8422 31.35C91.0089 31.6233 91.2389 31.8367 91.5322 31.99C91.8255 32.1433 92.1622 32.22 92.5422 32.22C92.8555 32.22 93.1389 32.1667 93.3922 32.06C93.6522 31.9533 93.8789 31.7933 94.0722 31.58L94.6022 32.2C94.3622 32.48 94.0622 32.6933 93.7022 32.84C93.3489 32.9867 92.9522 33.06 92.5122 33.06ZM96.2752 33V27.7H97.1952V29.14L97.1052 28.78C97.2519 28.4133 97.4986 28.1333 97.8452 27.94C98.1919 27.7467 98.6186 27.65 99.1252 27.65V28.58C99.0852 28.5733 99.0452 28.57 99.0052 28.57C98.9719 28.57 98.9386 28.57 98.9052 28.57C98.3919 28.57 97.9852 28.7233 97.6852 29.03C97.3852 29.3367 97.2352 29.78 97.2352 30.36V33H96.2752ZM101.887 33.06C101.447 33.06 101.027 33 100.627 32.88C100.234 32.76 99.9237 32.6133 99.697 32.44L100.097 31.68C100.324 31.8333 100.604 31.9633 100.937 32.07C101.27 32.1767 101.61 32.23 101.957 32.23C102.404 32.23 102.724 32.1667 102.917 32.04C103.117 31.9133 103.217 31.7367 103.217 31.51C103.217 31.3433 103.157 31.2133 103.037 31.12C102.917 31.0267 102.757 30.9567 102.557 30.91C102.364 30.8633 102.147 30.8233 101.907 30.79C101.667 30.75 101.427 30.7033 101.187 30.65C100.947 30.59 100.727 30.51 100.527 30.41C100.327 30.3033 100.167 30.16 100.047 29.98C99.927 29.7933 99.867 29.5467 99.867 29.24C99.867 28.92 99.957 28.64 100.137 28.4C100.317 28.16 100.57 27.9767 100.897 27.85C101.23 27.7167 101.624 27.65 102.077 27.65C102.424 27.65 102.774 27.6933 103.127 27.78C103.487 27.86 103.78 27.9767 104.007 28.13L103.597 28.89C103.357 28.73 103.107 28.62 102.847 28.56C102.587 28.5 102.327 28.47 102.067 28.47C101.647 28.47 101.334 28.54 101.127 28.68C100.92 28.8133 100.817 28.9867 100.817 29.2C100.817 29.38 100.877 29.52 100.997 29.62C101.124 29.7133 101.284 29.7867 101.477 29.84C101.677 29.8933 101.897 29.94 102.137 29.98C102.377 30.0133 102.617 30.06 102.857 30.12C103.097 30.1733 103.314 30.25 103.507 30.35C103.707 30.45 103.867 30.59 103.987 30.77C104.114 30.95 104.177 31.19 104.177 31.49C104.177 31.81 104.084 32.0867 103.897 32.32C103.71 32.5533 103.447 32.7367 103.107 32.87C102.767 32.9967 102.36 33.06 101.887 33.06Z" fill="url(#paint1_linear_663_1459)"/>
<defs>
<linearGradient id="paint0_linear_663_1459" x1="2.44788" y1="19.293" x2="12.1869" y2="27.8987" gradientUnits="userSpaceOnUse">
<stop stop-color="#0EB69D"/>
<stop offset="1" stop-color="#85E047"/>
</linearGradient>
<linearGradient id="paint1_linear_663_1459" x1="61" y1="23.5" x2="105" y2="36" gradientUnits="userSpaceOnUse">
<stop stop-color="#46B75B"/>
<stop offset="1" stop-color="#C7CB10"/>
</linearGradient>
<clipPath id="clip0_663_1459">
<rect width="103" height="26" fill="white"/>
</clipPath>
</defs>
</svg>