<?xml version="1.0" encoding="utf-8"?>
<!-- Generator: Adobe Illustrator 26.2.1, SVG Export Plug-In . SVG Version: 6.00 Build 0)  -->
<svg version="1.1" id="Слой_1" xmlns="http://www.w3.org/2000/svg" xmlns:xlink="http://www.w3.org/1999/xlink" x="0px" y="0px"
	 viewBox="0 0 1080 273.09" style="enable-background:new 0 0 1080 273.09;" xml:space="preserve">
<style type="text/css">
	.st0{fill:url(#SVGID_1_);}
	.st1{fill:#FFFFFF;}
</style>
<g>
	<g>
		<linearGradient id="SVGID_1_" gradientUnits="userSpaceOnUse" x1="25.6733" y1="202.5636" x2="127.8467" y2="292.8167">
			<stop  offset="0" style="stop-color:#0EB69D"/>
			<stop  offset="1" style="stop-color:#85E047"/>
		</linearGradient>
		<path class="st0" d="M81.52,205.32L81.52,205.32l-0.69-0.58l-69.51,58.64c6.35,5.92,14.86,9.55,24.23,9.55h27.87h125.14
			L81.52,205.32z"/>
		<path class="st1" d="M128.85,108.87L0,0.15v81.51l54.35,45.85c5.59,4.72,5.59,13.33,0,18.05L0,191.42v45.96
			c0,10.27,4.36,19.51,11.32,26l70.2-59.23v0l47.34-39.94C146,149.75,146,123.34,128.85,108.87z"/>
	</g>
	<path class="st1" d="M309.23,197.62h29.26l-27.43-39.31l0.64-0.28c7.96-3.46,14.19-8.52,18.51-15.03
		c4.32-6.51,6.51-14.37,6.51-23.38c0-9-2.16-16.9-6.43-23.47c-4.26-6.57-10.43-11.71-18.34-15.29c-7.94-3.59-17.43-5.41-28.21-5.41
		h-52.8v122.16h27.4v-34.35h27.11L309.23,197.62z M258.34,141.69V97.58h23.82c8.67,0,15.37,1.91,19.91,5.68
		c4.58,3.8,6.9,9.31,6.9,16.38c0,6.95-2.32,12.43-6.9,16.29c-4.55,3.83-11.25,5.77-19.92,5.77H258.34z"/>
	<rect x="360.4" y="75.46" class="st1" width="27.4" height="122.16"/>
	<polygon class="st1" points="576.36,75.46 547.23,164.1 518.64,75.46 493.05,75.46 463.56,163.38 435.33,75.46 406.94,75.46 
		447.08,197.62 476.73,197.62 505.15,112.89 532.68,197.62 562.5,197.62 602.46,75.46 	"/>
	<path class="st1" d="M696.63,171.2l10.92,26.42h28.68L681.61,75.46h-27.44l-54.45,122.16h27.98l10.92-26.42H696.63z M667.72,101.41
		l20.4,49.26h-40.81L667.72,101.41z"/>
	<polygon class="st1" points="836.77,75.46 730.46,75.46 730.46,97.58 769.92,97.58 769.92,197.62 797.31,197.62 797.31,97.58 
		836.77,97.58 	"/>
	<polygon class="st1" points="937.69,146.19 937.69,125.13 880.45,125.13 880.45,97.22 945.26,97.22 945.26,75.46 853.23,75.46 
		853.23,197.62 947.55,197.62 947.55,175.86 880.45,175.86 880.45,146.19 	"/>
	<polygon class="st1" points="1047.59,197.62 1079.11,197.62 1033.55,134.43 1033.79,134.1 1076.12,75.46 1046.7,75.46 
		1018.58,115.87 989.93,75.46 958.92,75.46 1001.84,135.49 956.64,197.62 987.98,197.62 1017.52,154.39 	"/>
</g>
</svg>
